%TF.GenerationSoftware,KiCad,Pcbnew,8.0.6*%
%TF.CreationDate,2024-11-10T12:55:49-08:00*%
%TF.ProjectId,stm32-can-do,73746d33-322d-4636-916e-2d646f2e6b69,v0.1*%
%TF.SameCoordinates,Original*%
%TF.FileFunction,Legend,Bot*%
%TF.FilePolarity,Positive*%
%FSLAX46Y46*%
G04 Gerber Fmt 4.6, Leading zero omitted, Abs format (unit mm)*
G04 Created by KiCad (PCBNEW 8.0.6) date 2024-11-10 12:55:49*
%MOMM*%
%LPD*%
G01*
G04 APERTURE LIST*
%ADD10C,0.200000*%
%ADD11C,0.000000*%
G04 APERTURE END LIST*
D10*
X162070802Y-49824193D02*
X162070802Y-48574193D01*
X161356517Y-49824193D02*
X161892231Y-49109908D01*
X161356517Y-48574193D02*
X162070802Y-49288479D01*
X160285088Y-48990860D02*
X160285088Y-49824193D01*
X160820802Y-48990860D02*
X160820802Y-49645622D01*
X160820802Y-49645622D02*
X160761279Y-49764670D01*
X160761279Y-49764670D02*
X160642231Y-49824193D01*
X160642231Y-49824193D02*
X160463660Y-49824193D01*
X160463660Y-49824193D02*
X160344612Y-49764670D01*
X160344612Y-49764670D02*
X160285088Y-49705146D01*
X159689850Y-49824193D02*
X159689850Y-48990860D01*
X159689850Y-49228955D02*
X159630327Y-49109908D01*
X159630327Y-49109908D02*
X159570803Y-49050384D01*
X159570803Y-49050384D02*
X159451755Y-48990860D01*
X159451755Y-48990860D02*
X159332708Y-48990860D01*
X159094612Y-48990860D02*
X158618421Y-48990860D01*
X158916040Y-48574193D02*
X158916040Y-49645622D01*
X158916040Y-49645622D02*
X158856517Y-49764670D01*
X158856517Y-49764670D02*
X158737469Y-49824193D01*
X158737469Y-49824193D02*
X158618421Y-49824193D01*
X158201754Y-49824193D02*
X158201754Y-48990860D01*
X158201754Y-48574193D02*
X158261278Y-48633717D01*
X158261278Y-48633717D02*
X158201754Y-48693241D01*
X158201754Y-48693241D02*
X158142231Y-48633717D01*
X158142231Y-48633717D02*
X158201754Y-48574193D01*
X158201754Y-48574193D02*
X158201754Y-48693241D01*
X157666040Y-49764670D02*
X157546993Y-49824193D01*
X157546993Y-49824193D02*
X157308897Y-49824193D01*
X157308897Y-49824193D02*
X157189850Y-49764670D01*
X157189850Y-49764670D02*
X157130326Y-49645622D01*
X157130326Y-49645622D02*
X157130326Y-49586098D01*
X157130326Y-49586098D02*
X157189850Y-49467050D01*
X157189850Y-49467050D02*
X157308897Y-49407527D01*
X157308897Y-49407527D02*
X157487469Y-49407527D01*
X157487469Y-49407527D02*
X157606516Y-49348003D01*
X157606516Y-49348003D02*
X157666040Y-49228955D01*
X157666040Y-49228955D02*
X157666040Y-49169431D01*
X157666040Y-49169431D02*
X157606516Y-49050384D01*
X157606516Y-49050384D02*
X157487469Y-48990860D01*
X157487469Y-48990860D02*
X157308897Y-48990860D01*
X157308897Y-48990860D02*
X157189850Y-49050384D01*
X162070802Y-51836623D02*
X162070802Y-50586623D01*
X162070802Y-50586623D02*
X161773183Y-50586623D01*
X161773183Y-50586623D02*
X161594612Y-50646147D01*
X161594612Y-50646147D02*
X161475564Y-50765195D01*
X161475564Y-50765195D02*
X161416041Y-50884242D01*
X161416041Y-50884242D02*
X161356517Y-51122338D01*
X161356517Y-51122338D02*
X161356517Y-51300909D01*
X161356517Y-51300909D02*
X161416041Y-51539004D01*
X161416041Y-51539004D02*
X161475564Y-51658052D01*
X161475564Y-51658052D02*
X161594612Y-51777100D01*
X161594612Y-51777100D02*
X161773183Y-51836623D01*
X161773183Y-51836623D02*
X162070802Y-51836623D01*
X160820802Y-51836623D02*
X160820802Y-51003290D01*
X160820802Y-50586623D02*
X160880326Y-50646147D01*
X160880326Y-50646147D02*
X160820802Y-50705671D01*
X160820802Y-50705671D02*
X160761279Y-50646147D01*
X160761279Y-50646147D02*
X160820802Y-50586623D01*
X160820802Y-50586623D02*
X160820802Y-50705671D01*
X160225564Y-51003290D02*
X160225564Y-51836623D01*
X160225564Y-51122338D02*
X160166041Y-51062814D01*
X160166041Y-51062814D02*
X160046993Y-51003290D01*
X160046993Y-51003290D02*
X159868422Y-51003290D01*
X159868422Y-51003290D02*
X159749374Y-51062814D01*
X159749374Y-51062814D02*
X159689850Y-51181861D01*
X159689850Y-51181861D02*
X159689850Y-51836623D01*
X158618422Y-51777100D02*
X158737470Y-51836623D01*
X158737470Y-51836623D02*
X158975565Y-51836623D01*
X158975565Y-51836623D02*
X159094612Y-51777100D01*
X159094612Y-51777100D02*
X159154136Y-51658052D01*
X159154136Y-51658052D02*
X159154136Y-51181861D01*
X159154136Y-51181861D02*
X159094612Y-51062814D01*
X159094612Y-51062814D02*
X158975565Y-51003290D01*
X158975565Y-51003290D02*
X158737470Y-51003290D01*
X158737470Y-51003290D02*
X158618422Y-51062814D01*
X158618422Y-51062814D02*
X158558898Y-51181861D01*
X158558898Y-51181861D02*
X158558898Y-51300909D01*
X158558898Y-51300909D02*
X159154136Y-51419957D01*
X157844612Y-51836623D02*
X157963660Y-51777100D01*
X157963660Y-51777100D02*
X158023183Y-51658052D01*
X158023183Y-51658052D02*
X158023183Y-50586623D01*
X157189850Y-51836623D02*
X157308898Y-51777100D01*
X157308898Y-51777100D02*
X157368421Y-51658052D01*
X157368421Y-51658052D02*
X157368421Y-50586623D01*
X156237469Y-51777100D02*
X156356517Y-51836623D01*
X156356517Y-51836623D02*
X156594612Y-51836623D01*
X156594612Y-51836623D02*
X156713659Y-51777100D01*
X156713659Y-51777100D02*
X156773183Y-51658052D01*
X156773183Y-51658052D02*
X156773183Y-51181861D01*
X156773183Y-51181861D02*
X156713659Y-51062814D01*
X156713659Y-51062814D02*
X156594612Y-51003290D01*
X156594612Y-51003290D02*
X156356517Y-51003290D01*
X156356517Y-51003290D02*
X156237469Y-51062814D01*
X156237469Y-51062814D02*
X156177945Y-51181861D01*
X156177945Y-51181861D02*
X156177945Y-51300909D01*
X156177945Y-51300909D02*
X156773183Y-51419957D01*
X158380326Y-54764670D02*
X158201755Y-54824193D01*
X158201755Y-54824193D02*
X157904136Y-54824193D01*
X157904136Y-54824193D02*
X157785088Y-54764670D01*
X157785088Y-54764670D02*
X157725564Y-54705146D01*
X157725564Y-54705146D02*
X157666041Y-54586098D01*
X157666041Y-54586098D02*
X157666041Y-54467050D01*
X157666041Y-54467050D02*
X157725564Y-54348003D01*
X157725564Y-54348003D02*
X157785088Y-54288479D01*
X157785088Y-54288479D02*
X157904136Y-54228955D01*
X157904136Y-54228955D02*
X158142231Y-54169431D01*
X158142231Y-54169431D02*
X158261279Y-54109908D01*
X158261279Y-54109908D02*
X158320802Y-54050384D01*
X158320802Y-54050384D02*
X158380326Y-53931336D01*
X158380326Y-53931336D02*
X158380326Y-53812289D01*
X158380326Y-53812289D02*
X158320802Y-53693241D01*
X158320802Y-53693241D02*
X158261279Y-53633717D01*
X158261279Y-53633717D02*
X158142231Y-53574193D01*
X158142231Y-53574193D02*
X157844612Y-53574193D01*
X157844612Y-53574193D02*
X157666041Y-53633717D01*
X157308898Y-53574193D02*
X156594612Y-53574193D01*
X156951755Y-54824193D02*
X156951755Y-53574193D01*
X156177945Y-54824193D02*
X156177945Y-53574193D01*
X156177945Y-53574193D02*
X155761279Y-54467050D01*
X155761279Y-54467050D02*
X155344612Y-53574193D01*
X155344612Y-53574193D02*
X155344612Y-54824193D01*
X154868422Y-53574193D02*
X154094613Y-53574193D01*
X154094613Y-53574193D02*
X154511279Y-54050384D01*
X154511279Y-54050384D02*
X154332708Y-54050384D01*
X154332708Y-54050384D02*
X154213660Y-54109908D01*
X154213660Y-54109908D02*
X154154136Y-54169431D01*
X154154136Y-54169431D02*
X154094613Y-54288479D01*
X154094613Y-54288479D02*
X154094613Y-54586098D01*
X154094613Y-54586098D02*
X154154136Y-54705146D01*
X154154136Y-54705146D02*
X154213660Y-54764670D01*
X154213660Y-54764670D02*
X154332708Y-54824193D01*
X154332708Y-54824193D02*
X154689851Y-54824193D01*
X154689851Y-54824193D02*
X154808898Y-54764670D01*
X154808898Y-54764670D02*
X154868422Y-54705146D01*
X153618422Y-53693241D02*
X153558898Y-53633717D01*
X153558898Y-53633717D02*
X153439851Y-53574193D01*
X153439851Y-53574193D02*
X153142232Y-53574193D01*
X153142232Y-53574193D02*
X153023184Y-53633717D01*
X153023184Y-53633717D02*
X152963660Y-53693241D01*
X152963660Y-53693241D02*
X152904137Y-53812289D01*
X152904137Y-53812289D02*
X152904137Y-53931336D01*
X152904137Y-53931336D02*
X152963660Y-54109908D01*
X152963660Y-54109908D02*
X153677946Y-54824193D01*
X153677946Y-54824193D02*
X152904137Y-54824193D01*
X150701756Y-54705146D02*
X150761280Y-54764670D01*
X150761280Y-54764670D02*
X150939851Y-54824193D01*
X150939851Y-54824193D02*
X151058899Y-54824193D01*
X151058899Y-54824193D02*
X151237470Y-54764670D01*
X151237470Y-54764670D02*
X151356518Y-54645622D01*
X151356518Y-54645622D02*
X151416041Y-54526574D01*
X151416041Y-54526574D02*
X151475565Y-54288479D01*
X151475565Y-54288479D02*
X151475565Y-54109908D01*
X151475565Y-54109908D02*
X151416041Y-53871812D01*
X151416041Y-53871812D02*
X151356518Y-53752765D01*
X151356518Y-53752765D02*
X151237470Y-53633717D01*
X151237470Y-53633717D02*
X151058899Y-53574193D01*
X151058899Y-53574193D02*
X150939851Y-53574193D01*
X150939851Y-53574193D02*
X150761280Y-53633717D01*
X150761280Y-53633717D02*
X150701756Y-53693241D01*
X150225565Y-54467050D02*
X149630327Y-54467050D01*
X150344613Y-54824193D02*
X149927946Y-53574193D01*
X149927946Y-53574193D02*
X149511280Y-54824193D01*
X149094612Y-54824193D02*
X149094612Y-53574193D01*
X149094612Y-53574193D02*
X148380327Y-54824193D01*
X148380327Y-54824193D02*
X148380327Y-53574193D01*
X147785088Y-54348003D02*
X146832708Y-54348003D01*
X146237469Y-54824193D02*
X146237469Y-53574193D01*
X146237469Y-53574193D02*
X145939850Y-53574193D01*
X145939850Y-53574193D02*
X145761279Y-53633717D01*
X145761279Y-53633717D02*
X145642231Y-53752765D01*
X145642231Y-53752765D02*
X145582708Y-53871812D01*
X145582708Y-53871812D02*
X145523184Y-54109908D01*
X145523184Y-54109908D02*
X145523184Y-54288479D01*
X145523184Y-54288479D02*
X145582708Y-54526574D01*
X145582708Y-54526574D02*
X145642231Y-54645622D01*
X145642231Y-54645622D02*
X145761279Y-54764670D01*
X145761279Y-54764670D02*
X145939850Y-54824193D01*
X145939850Y-54824193D02*
X146237469Y-54824193D01*
X144808898Y-54824193D02*
X144927946Y-54764670D01*
X144927946Y-54764670D02*
X144987469Y-54705146D01*
X144987469Y-54705146D02*
X145046993Y-54586098D01*
X145046993Y-54586098D02*
X145046993Y-54228955D01*
X145046993Y-54228955D02*
X144987469Y-54109908D01*
X144987469Y-54109908D02*
X144927946Y-54050384D01*
X144927946Y-54050384D02*
X144808898Y-53990860D01*
X144808898Y-53990860D02*
X144630327Y-53990860D01*
X144630327Y-53990860D02*
X144511279Y-54050384D01*
X144511279Y-54050384D02*
X144451755Y-54109908D01*
X144451755Y-54109908D02*
X144392231Y-54228955D01*
X144392231Y-54228955D02*
X144392231Y-54586098D01*
X144392231Y-54586098D02*
X144451755Y-54705146D01*
X144451755Y-54705146D02*
X144511279Y-54764670D01*
X144511279Y-54764670D02*
X144630327Y-54824193D01*
X144630327Y-54824193D02*
X144808898Y-54824193D01*
X143856517Y-54705146D02*
X143796994Y-54764670D01*
X143796994Y-54764670D02*
X143856517Y-54824193D01*
X143856517Y-54824193D02*
X143916041Y-54764670D01*
X143916041Y-54764670D02*
X143856517Y-54705146D01*
X143856517Y-54705146D02*
X143856517Y-54824193D01*
X143856517Y-54348003D02*
X143916041Y-53633717D01*
X143916041Y-53633717D02*
X143856517Y-53574193D01*
X143856517Y-53574193D02*
X143796994Y-53633717D01*
X143796994Y-53633717D02*
X143856517Y-54348003D01*
X143856517Y-54348003D02*
X143856517Y-53574193D01*
X157606517Y-56836623D02*
X158023183Y-56241385D01*
X158320802Y-56836623D02*
X158320802Y-55586623D01*
X158320802Y-55586623D02*
X157844612Y-55586623D01*
X157844612Y-55586623D02*
X157725564Y-55646147D01*
X157725564Y-55646147D02*
X157666041Y-55705671D01*
X157666041Y-55705671D02*
X157606517Y-55824719D01*
X157606517Y-55824719D02*
X157606517Y-56003290D01*
X157606517Y-56003290D02*
X157666041Y-56122338D01*
X157666041Y-56122338D02*
X157725564Y-56181861D01*
X157725564Y-56181861D02*
X157844612Y-56241385D01*
X157844612Y-56241385D02*
X158320802Y-56241385D01*
X156594612Y-56777100D02*
X156713660Y-56836623D01*
X156713660Y-56836623D02*
X156951755Y-56836623D01*
X156951755Y-56836623D02*
X157070802Y-56777100D01*
X157070802Y-56777100D02*
X157130326Y-56658052D01*
X157130326Y-56658052D02*
X157130326Y-56181861D01*
X157130326Y-56181861D02*
X157070802Y-56062814D01*
X157070802Y-56062814D02*
X156951755Y-56003290D01*
X156951755Y-56003290D02*
X156713660Y-56003290D01*
X156713660Y-56003290D02*
X156594612Y-56062814D01*
X156594612Y-56062814D02*
X156535088Y-56181861D01*
X156535088Y-56181861D02*
X156535088Y-56300909D01*
X156535088Y-56300909D02*
X157130326Y-56419957D01*
X156118421Y-56003290D02*
X155820802Y-56836623D01*
X155820802Y-56836623D02*
X155523183Y-56003290D01*
X154213659Y-56003290D02*
X153916040Y-56836623D01*
X153916040Y-56836623D02*
X153618421Y-56003290D01*
X152904135Y-55586623D02*
X152785088Y-55586623D01*
X152785088Y-55586623D02*
X152666040Y-55646147D01*
X152666040Y-55646147D02*
X152606516Y-55705671D01*
X152606516Y-55705671D02*
X152546992Y-55824719D01*
X152546992Y-55824719D02*
X152487469Y-56062814D01*
X152487469Y-56062814D02*
X152487469Y-56360433D01*
X152487469Y-56360433D02*
X152546992Y-56598528D01*
X152546992Y-56598528D02*
X152606516Y-56717576D01*
X152606516Y-56717576D02*
X152666040Y-56777100D01*
X152666040Y-56777100D02*
X152785088Y-56836623D01*
X152785088Y-56836623D02*
X152904135Y-56836623D01*
X152904135Y-56836623D02*
X153023183Y-56777100D01*
X153023183Y-56777100D02*
X153082707Y-56717576D01*
X153082707Y-56717576D02*
X153142230Y-56598528D01*
X153142230Y-56598528D02*
X153201754Y-56360433D01*
X153201754Y-56360433D02*
X153201754Y-56062814D01*
X153201754Y-56062814D02*
X153142230Y-55824719D01*
X153142230Y-55824719D02*
X153082707Y-55705671D01*
X153082707Y-55705671D02*
X153023183Y-55646147D01*
X153023183Y-55646147D02*
X152904135Y-55586623D01*
X151951754Y-56717576D02*
X151892231Y-56777100D01*
X151892231Y-56777100D02*
X151951754Y-56836623D01*
X151951754Y-56836623D02*
X152011278Y-56777100D01*
X152011278Y-56777100D02*
X151951754Y-56717576D01*
X151951754Y-56717576D02*
X151951754Y-56836623D01*
X150701755Y-56836623D02*
X151416040Y-56836623D01*
X151058897Y-56836623D02*
X151058897Y-55586623D01*
X151058897Y-55586623D02*
X151177945Y-55765195D01*
X151177945Y-55765195D02*
X151296993Y-55884242D01*
X151296993Y-55884242D02*
X151416040Y-55943766D01*
X126380326Y-49514670D02*
X126201755Y-49574193D01*
X126201755Y-49574193D02*
X125904136Y-49574193D01*
X125904136Y-49574193D02*
X125785088Y-49514670D01*
X125785088Y-49514670D02*
X125725564Y-49455146D01*
X125725564Y-49455146D02*
X125666041Y-49336098D01*
X125666041Y-49336098D02*
X125666041Y-49217050D01*
X125666041Y-49217050D02*
X125725564Y-49098003D01*
X125725564Y-49098003D02*
X125785088Y-49038479D01*
X125785088Y-49038479D02*
X125904136Y-48978955D01*
X125904136Y-48978955D02*
X126142231Y-48919431D01*
X126142231Y-48919431D02*
X126261279Y-48859908D01*
X126261279Y-48859908D02*
X126320802Y-48800384D01*
X126320802Y-48800384D02*
X126380326Y-48681336D01*
X126380326Y-48681336D02*
X126380326Y-48562289D01*
X126380326Y-48562289D02*
X126320802Y-48443241D01*
X126320802Y-48443241D02*
X126261279Y-48383717D01*
X126261279Y-48383717D02*
X126142231Y-48324193D01*
X126142231Y-48324193D02*
X125844612Y-48324193D01*
X125844612Y-48324193D02*
X125666041Y-48383717D01*
X125130326Y-49574193D02*
X125130326Y-48324193D01*
X124594612Y-49574193D02*
X124594612Y-48919431D01*
X124594612Y-48919431D02*
X124654136Y-48800384D01*
X124654136Y-48800384D02*
X124773184Y-48740860D01*
X124773184Y-48740860D02*
X124951755Y-48740860D01*
X124951755Y-48740860D02*
X125070803Y-48800384D01*
X125070803Y-48800384D02*
X125130326Y-48859908D01*
X123999374Y-49574193D02*
X123999374Y-48740860D01*
X123999374Y-48324193D02*
X124058898Y-48383717D01*
X124058898Y-48383717D02*
X123999374Y-48443241D01*
X123999374Y-48443241D02*
X123939851Y-48383717D01*
X123939851Y-48383717D02*
X123999374Y-48324193D01*
X123999374Y-48324193D02*
X123999374Y-48443241D01*
X123404136Y-49574193D02*
X123404136Y-48740860D01*
X123404136Y-48978955D02*
X123344613Y-48859908D01*
X123344613Y-48859908D02*
X123285089Y-48800384D01*
X123285089Y-48800384D02*
X123166041Y-48740860D01*
X123166041Y-48740860D02*
X123046994Y-48740860D01*
X122451755Y-49574193D02*
X122570803Y-49514670D01*
X122570803Y-49514670D02*
X122630326Y-49395622D01*
X122630326Y-49395622D02*
X122630326Y-48324193D01*
X121499374Y-49514670D02*
X121618422Y-49574193D01*
X121618422Y-49574193D02*
X121856517Y-49574193D01*
X121856517Y-49574193D02*
X121975564Y-49514670D01*
X121975564Y-49514670D02*
X122035088Y-49395622D01*
X122035088Y-49395622D02*
X122035088Y-48919431D01*
X122035088Y-48919431D02*
X121975564Y-48800384D01*
X121975564Y-48800384D02*
X121856517Y-48740860D01*
X121856517Y-48740860D02*
X121618422Y-48740860D01*
X121618422Y-48740860D02*
X121499374Y-48800384D01*
X121499374Y-48800384D02*
X121439850Y-48919431D01*
X121439850Y-48919431D02*
X121439850Y-49038479D01*
X121439850Y-49038479D02*
X122035088Y-49157527D01*
X121023183Y-48740860D02*
X120725564Y-49574193D01*
X120427945Y-48740860D02*
X120725564Y-49574193D01*
X120725564Y-49574193D02*
X120844612Y-49871812D01*
X120844612Y-49871812D02*
X120904135Y-49931336D01*
X120904135Y-49931336D02*
X121023183Y-49990860D01*
X125725564Y-51586623D02*
X126320802Y-51586623D01*
X126320802Y-51586623D02*
X126320802Y-50336623D01*
X124773183Y-51586623D02*
X124773183Y-50931861D01*
X124773183Y-50931861D02*
X124832707Y-50812814D01*
X124832707Y-50812814D02*
X124951755Y-50753290D01*
X124951755Y-50753290D02*
X125189850Y-50753290D01*
X125189850Y-50753290D02*
X125308897Y-50812814D01*
X124773183Y-51527100D02*
X124892231Y-51586623D01*
X124892231Y-51586623D02*
X125189850Y-51586623D01*
X125189850Y-51586623D02*
X125308897Y-51527100D01*
X125308897Y-51527100D02*
X125368421Y-51408052D01*
X125368421Y-51408052D02*
X125368421Y-51289004D01*
X125368421Y-51289004D02*
X125308897Y-51169957D01*
X125308897Y-51169957D02*
X125189850Y-51110433D01*
X125189850Y-51110433D02*
X124892231Y-51110433D01*
X124892231Y-51110433D02*
X124773183Y-51050909D01*
X124177945Y-51586623D02*
X124177945Y-50753290D01*
X124177945Y-50872338D02*
X124118422Y-50812814D01*
X124118422Y-50812814D02*
X123999374Y-50753290D01*
X123999374Y-50753290D02*
X123820803Y-50753290D01*
X123820803Y-50753290D02*
X123701755Y-50812814D01*
X123701755Y-50812814D02*
X123642231Y-50931861D01*
X123642231Y-50931861D02*
X123642231Y-51586623D01*
X123642231Y-50931861D02*
X123582707Y-50812814D01*
X123582707Y-50812814D02*
X123463660Y-50753290D01*
X123463660Y-50753290D02*
X123285088Y-50753290D01*
X123285088Y-50753290D02*
X123166041Y-50812814D01*
X123166041Y-50812814D02*
X123106517Y-50931861D01*
X123106517Y-50931861D02*
X123106517Y-51586623D01*
D11*
%TO.C,G\u002A\u002A\u002A*%
G36*
X144848560Y-95417549D02*
G01*
X145053512Y-95526711D01*
X145063226Y-95535868D01*
X145175098Y-95720276D01*
X145209454Y-95933273D01*
X145152230Y-96094035D01*
X145038645Y-96149664D01*
X144847227Y-96118258D01*
X144653877Y-95993890D01*
X144504327Y-95808790D01*
X144444314Y-95595185D01*
X144446429Y-95538216D01*
X144502106Y-95416414D01*
X144671237Y-95386120D01*
X144848560Y-95417549D01*
G37*
G36*
X153949359Y-100230562D02*
G01*
X154138279Y-100342693D01*
X154213545Y-100487927D01*
X154190961Y-100551409D01*
X154092088Y-100550778D01*
X153958696Y-100440635D01*
X153947126Y-100428290D01*
X153771004Y-100344688D01*
X153502307Y-100311909D01*
X153347120Y-100307068D01*
X153240760Y-100281235D01*
X153279097Y-100228260D01*
X153451829Y-100167100D01*
X153702103Y-100166908D01*
X153949359Y-100230562D01*
G37*
G36*
X155099231Y-100837137D02*
G01*
X155310200Y-100908495D01*
X155473762Y-101020349D01*
X155484625Y-101032092D01*
X155592560Y-101179389D01*
X155608915Y-101268119D01*
X155530627Y-101258459D01*
X155395764Y-101155629D01*
X155220735Y-101046594D01*
X154978094Y-100992809D01*
X154974923Y-100992802D01*
X154797063Y-100967505D01*
X154723244Y-100907859D01*
X154755122Y-100848888D01*
X154895868Y-100814519D01*
X155099231Y-100837137D01*
G37*
G36*
X145287092Y-117220386D02*
G01*
X145541463Y-117357480D01*
X145755880Y-117576443D01*
X145850218Y-117741364D01*
X145871540Y-117949551D01*
X145739799Y-118119371D01*
X145699035Y-118149615D01*
X145562497Y-118221488D01*
X145422179Y-118208503D01*
X145207163Y-118109321D01*
X145081864Y-118030917D01*
X144884201Y-117822218D01*
X144789072Y-117589893D01*
X144808184Y-117375009D01*
X144953246Y-117218638D01*
X145046858Y-117189274D01*
X145287092Y-117220386D01*
G37*
G36*
X151832193Y-105833560D02*
G01*
X151960492Y-105972136D01*
X152157055Y-106178339D01*
X152441596Y-106342959D01*
X152804003Y-106413965D01*
X153283142Y-106404048D01*
X153453455Y-106390857D01*
X153736354Y-106378538D01*
X153853629Y-106393027D01*
X153806868Y-106434831D01*
X153597659Y-106504458D01*
X153405013Y-106552537D01*
X152998089Y-106584618D01*
X152563718Y-106506066D01*
X152503126Y-106486709D01*
X152242664Y-106357207D01*
X151999598Y-106176904D01*
X151820250Y-105984889D01*
X151750942Y-105820247D01*
X151758104Y-105800272D01*
X151832193Y-105833560D01*
G37*
G36*
X151221399Y-102569198D02*
G01*
X151342233Y-102666587D01*
X151407628Y-102768004D01*
X151335324Y-102785663D01*
X151140783Y-102695365D01*
X150896388Y-102604329D01*
X150691891Y-102639054D01*
X150571234Y-102779142D01*
X150560413Y-102992986D01*
X150685425Y-103248981D01*
X150762839Y-103373260D01*
X150812850Y-103520066D01*
X150812913Y-103522806D01*
X150788173Y-103618943D01*
X150704808Y-103562078D01*
X150559771Y-103350167D01*
X150428012Y-103076421D01*
X150408190Y-102816059D01*
X150531394Y-102592307D01*
X150680050Y-102482047D01*
X150940090Y-102449315D01*
X151221399Y-102569198D01*
G37*
G36*
X156689618Y-102903626D02*
G01*
X156884648Y-103050507D01*
X156990237Y-103251268D01*
X156990455Y-103484253D01*
X156840824Y-103742222D01*
X156829459Y-103756432D01*
X156683328Y-103904950D01*
X156571167Y-103966053D01*
X156562984Y-103965135D01*
X156562462Y-103901823D01*
X156662282Y-103769441D01*
X156792436Y-103589312D01*
X156834118Y-103340993D01*
X156706399Y-103102006D01*
X156694297Y-103088833D01*
X156532093Y-102967722D01*
X156361922Y-102978444D01*
X156136373Y-103122720D01*
X156056155Y-103181746D01*
X155933993Y-103239283D01*
X155929637Y-103180137D01*
X156053133Y-103017056D01*
X156174720Y-102924760D01*
X156429251Y-102860756D01*
X156689618Y-102903626D01*
G37*
G36*
X155273455Y-101810412D02*
G01*
X155248966Y-102064577D01*
X155093886Y-102309028D01*
X154947807Y-102404571D01*
X154703038Y-102431186D01*
X154465084Y-102345174D01*
X154284927Y-102168812D01*
X154213545Y-101924374D01*
X154227772Y-101838281D01*
X154306260Y-101714883D01*
X154808194Y-101714883D01*
X154822995Y-101774308D01*
X154935619Y-101842307D01*
X154995044Y-101827506D01*
X155063044Y-101714883D01*
X155048243Y-101655457D01*
X154935619Y-101587458D01*
X154876194Y-101602259D01*
X154808194Y-101714883D01*
X154306260Y-101714883D01*
X154355537Y-101637409D01*
X154568784Y-101480736D01*
X154809545Y-101417558D01*
X154986424Y-101447784D01*
X155181293Y-101590244D01*
X155233467Y-101714883D01*
X155273455Y-101810412D01*
G37*
G36*
X143843827Y-92953389D02*
G01*
X144066776Y-93027774D01*
X144296647Y-93137660D01*
X144489233Y-93265376D01*
X144600330Y-93393250D01*
X144612921Y-93422620D01*
X144687568Y-93649778D01*
X144766017Y-93956447D01*
X144838522Y-94293954D01*
X144895339Y-94613626D01*
X144926726Y-94866790D01*
X144922938Y-95004772D01*
X144892461Y-95059714D01*
X144746298Y-95126357D01*
X144540443Y-95055027D01*
X144530383Y-95045880D01*
X144450024Y-94919613D01*
X144325192Y-94681799D01*
X144172897Y-94369560D01*
X144010147Y-94020020D01*
X143853955Y-93670300D01*
X143721329Y-93357523D01*
X143629279Y-93118812D01*
X143594816Y-92991290D01*
X143595519Y-92981813D01*
X143672006Y-92932178D01*
X143843827Y-92953389D01*
G37*
G36*
X154102823Y-101472682D02*
G01*
X154095183Y-101721533D01*
X153920082Y-101973593D01*
X153908679Y-101984749D01*
X153715004Y-102124509D01*
X153537808Y-102182107D01*
X153479372Y-102176794D01*
X153259005Y-102066867D01*
X153091057Y-101856422D01*
X153024248Y-101600624D01*
X153079475Y-101389281D01*
X153548955Y-101389281D01*
X153602978Y-101506147D01*
X153719610Y-101569644D01*
X153828500Y-101506992D01*
X153853221Y-101438812D01*
X153804518Y-101305980D01*
X153650129Y-101247658D01*
X153584385Y-101268311D01*
X153548955Y-101389281D01*
X153079475Y-101389281D01*
X153092351Y-101340006D01*
X153268823Y-101154461D01*
X153506303Y-101065253D01*
X153757420Y-101090033D01*
X153974800Y-101246451D01*
X154083656Y-101438812D01*
X154102823Y-101472682D01*
G37*
G36*
X144082029Y-114024586D02*
G01*
X144451691Y-114189255D01*
X144613926Y-114270013D01*
X144837716Y-114397405D01*
X144972708Y-114523860D01*
X145061695Y-114697070D01*
X145147469Y-114964731D01*
X145184152Y-115092893D01*
X145285562Y-115501891D01*
X145368088Y-115913035D01*
X145425028Y-116284879D01*
X145449680Y-116575976D01*
X145435342Y-116744880D01*
X145353339Y-116855579D01*
X145208095Y-116860073D01*
X144965558Y-116756973D01*
X144945747Y-116746157D01*
X144792856Y-116612918D01*
X144647932Y-116379835D01*
X144489691Y-116013662D01*
X144342932Y-115654169D01*
X144147698Y-115209252D01*
X143964229Y-114820515D01*
X143801136Y-114470549D01*
X143703131Y-114178554D01*
X143713467Y-114011830D01*
X143837860Y-113962976D01*
X144082029Y-114024586D01*
G37*
G36*
X151086851Y-103189349D02*
G01*
X151184314Y-103342272D01*
X151193673Y-103359898D01*
X151522733Y-103796699D01*
X151984675Y-104148258D01*
X152559774Y-104402926D01*
X153228301Y-104549058D01*
X153781760Y-104581115D01*
X154547125Y-104493117D01*
X155294621Y-104243812D01*
X156039967Y-103829175D01*
X156379766Y-103603108D01*
X156167391Y-103835464D01*
X155975197Y-104003695D01*
X155624792Y-104228526D01*
X155204767Y-104438946D01*
X154768716Y-104605452D01*
X154427207Y-104687724D01*
X153818974Y-104736980D01*
X153188107Y-104687470D01*
X152579398Y-104547376D01*
X152037641Y-104324878D01*
X151607629Y-104028157D01*
X151515256Y-103939374D01*
X151287982Y-103687630D01*
X151113238Y-103447601D01*
X151014538Y-103254426D01*
X151015399Y-103143241D01*
X151018997Y-103140706D01*
X151086851Y-103189349D01*
G37*
G36*
X159693931Y-95113665D02*
G01*
X159581190Y-95511217D01*
X159339509Y-95806312D01*
X159092670Y-95940897D01*
X158757596Y-95962230D01*
X158374762Y-95824902D01*
X158218793Y-95725790D01*
X157971104Y-95443706D01*
X157827803Y-95049395D01*
X157781570Y-94526840D01*
X157781583Y-94511759D01*
X157782356Y-94494437D01*
X158468642Y-94494437D01*
X158477713Y-94798519D01*
X158543884Y-95083265D01*
X158564883Y-95130717D01*
X158691246Y-95271451D01*
X158833548Y-95289309D01*
X158940416Y-95172702D01*
X158965590Y-95078880D01*
X158971588Y-94848632D01*
X158926738Y-94603154D01*
X158846136Y-94379115D01*
X158744882Y-94213179D01*
X158638075Y-94142014D01*
X158540813Y-94202285D01*
X158516944Y-94249576D01*
X158468642Y-94494437D01*
X157782356Y-94494437D01*
X157797183Y-94162270D01*
X157850203Y-93925381D01*
X157952373Y-93747577D01*
X158198723Y-93546351D01*
X158540272Y-93459987D01*
X158926638Y-93516688D01*
X159014271Y-93549533D01*
X159306880Y-93745501D01*
X159515029Y-94059788D01*
X159654445Y-94513945D01*
X159674974Y-94624971D01*
X159683650Y-94848632D01*
X159693931Y-95113665D01*
G37*
G36*
X157591395Y-95236054D02*
G01*
X157541103Y-95644317D01*
X157423745Y-95977028D01*
X157250400Y-96190033D01*
X156968050Y-96308783D01*
X156624192Y-96307656D01*
X156285764Y-96183981D01*
X155994386Y-95953662D01*
X155791682Y-95632605D01*
X155749601Y-95517077D01*
X155649152Y-95118265D01*
X155597185Y-94707186D01*
X156376362Y-94707186D01*
X156399181Y-94999779D01*
X156448998Y-95282820D01*
X156519960Y-95492307D01*
X156583880Y-95587019D01*
X156682000Y-95626785D01*
X156759795Y-95540224D01*
X156807381Y-95354620D01*
X156814873Y-95097260D01*
X156772388Y-94795432D01*
X156727740Y-94622915D01*
X156628221Y-94383043D01*
X156522192Y-94294886D01*
X156417111Y-94367432D01*
X156386393Y-94469046D01*
X156376362Y-94707186D01*
X155597185Y-94707186D01*
X155596174Y-94699187D01*
X155595819Y-94319202D01*
X155653240Y-94037672D01*
X155669355Y-94002001D01*
X155872081Y-93765093D01*
X156170742Y-93640356D01*
X156522817Y-93646898D01*
X156640722Y-93674861D01*
X157034075Y-93828177D01*
X157306557Y-94064624D01*
X157480081Y-94410059D01*
X157576561Y-94890342D01*
X157585440Y-95097260D01*
X157591395Y-95236054D01*
G37*
G36*
X158291630Y-114358528D02*
G01*
X158673411Y-114493733D01*
X158837742Y-114579549D01*
X159307682Y-114936037D01*
X159673202Y-115390292D01*
X159918408Y-115911539D01*
X160027404Y-116469001D01*
X159984296Y-117031902D01*
X159870946Y-117383531D01*
X159673271Y-117666164D01*
X159353010Y-117909671D01*
X159323256Y-117926921D01*
X159001837Y-118033779D01*
X158610967Y-118065325D01*
X158228077Y-118014353D01*
X158221568Y-118012532D01*
X158059388Y-117892391D01*
X157947591Y-117629062D01*
X157936396Y-117586526D01*
X157883938Y-117275639D01*
X157933192Y-117085156D01*
X158101773Y-116989571D01*
X158407297Y-116963378D01*
X158572561Y-116956640D01*
X158814997Y-116919747D01*
X158953746Y-116861438D01*
X159014373Y-116766164D01*
X159052359Y-116522761D01*
X159004848Y-116243408D01*
X158877756Y-115995541D01*
X158744538Y-115860936D01*
X158532640Y-115702340D01*
X158306770Y-115569775D01*
X158115011Y-115490915D01*
X158005446Y-115493438D01*
X157952249Y-115472357D01*
X157871451Y-115337818D01*
X157788070Y-115135500D01*
X157722839Y-114916503D01*
X157696488Y-114731925D01*
X157699922Y-114665791D01*
X157790266Y-114448121D01*
X157992375Y-114344512D01*
X158291630Y-114358528D01*
G37*
G36*
X148436957Y-117067964D02*
G01*
X148436599Y-117111754D01*
X148382950Y-117570249D01*
X148245193Y-117925618D01*
X148033447Y-118150705D01*
X148010136Y-118163522D01*
X147764748Y-118212013D01*
X147441752Y-118180390D01*
X147098703Y-118079372D01*
X146793156Y-117919681D01*
X146397849Y-117562076D01*
X146114541Y-117102071D01*
X145947255Y-116533661D01*
X145927657Y-116295461D01*
X146840735Y-116295461D01*
X146862358Y-116590530D01*
X146895057Y-116746707D01*
X146997662Y-117016112D01*
X147131874Y-117218195D01*
X147272993Y-117320564D01*
X147396321Y-117290825D01*
X147473628Y-117148071D01*
X147505366Y-116887296D01*
X147477510Y-116574364D01*
X147401227Y-116253678D01*
X147287684Y-115969642D01*
X147148050Y-115766659D01*
X146993491Y-115689130D01*
X146976196Y-115692731D01*
X146904643Y-115798524D01*
X146857160Y-116015446D01*
X146840735Y-116295461D01*
X145927657Y-116295461D01*
X145890538Y-115844310D01*
X145890489Y-115826486D01*
X145907120Y-115516448D01*
X145971611Y-115299840D01*
X146104567Y-115105539D01*
X146270224Y-114933041D01*
X146485298Y-114809722D01*
X146744482Y-114793622D01*
X147099894Y-114872539D01*
X147505891Y-115048082D01*
X147903458Y-115380443D01*
X148195502Y-115835010D01*
X148375507Y-116401083D01*
X148420309Y-116887296D01*
X148436957Y-117067964D01*
G37*
G36*
X150995925Y-93744712D02*
G01*
X151167378Y-93790498D01*
X151240301Y-93857267D01*
X151244080Y-93881008D01*
X151292636Y-94031057D01*
X151379271Y-94250160D01*
X151518240Y-94579097D01*
X151673112Y-94218060D01*
X151760425Y-94044163D01*
X151908967Y-93885792D01*
X152062998Y-93895501D01*
X152226840Y-94072151D01*
X152255504Y-94117019D01*
X152309215Y-94232600D01*
X152310928Y-94358579D01*
X152254843Y-94543185D01*
X152135163Y-94834645D01*
X152070813Y-94987298D01*
X151980373Y-95227450D01*
X151948938Y-95399901D01*
X151970397Y-95564594D01*
X152038639Y-95781473D01*
X152078892Y-95908465D01*
X152147585Y-96180569D01*
X152174749Y-96378176D01*
X152165771Y-96473598D01*
X152090562Y-96555822D01*
X151897165Y-96575418D01*
X151883809Y-96575404D01*
X151770755Y-96568690D01*
X151681470Y-96532142D01*
X151598418Y-96440244D01*
X151504067Y-96267476D01*
X151380883Y-95988320D01*
X151211331Y-95577257D01*
X151210845Y-95576067D01*
X150982465Y-95016915D01*
X150811614Y-94594343D01*
X150691425Y-94287755D01*
X150615033Y-94076553D01*
X150575571Y-93940139D01*
X150566172Y-93857914D01*
X150579972Y-93809282D01*
X150610103Y-93773643D01*
X150641341Y-93753761D01*
X150796921Y-93729327D01*
X150995925Y-93744712D01*
G37*
G36*
X149006882Y-95254780D02*
G01*
X149108719Y-95690522D01*
X149176737Y-96047113D01*
X149201505Y-96283365D01*
X149201125Y-96308113D01*
X149153988Y-96452716D01*
X148995198Y-96490468D01*
X148785239Y-96440029D01*
X148597280Y-96285843D01*
X148521906Y-96076641D01*
X148496057Y-95957509D01*
X148388028Y-95796680D01*
X148250067Y-95725919D01*
X148241184Y-95728466D01*
X148199188Y-95826664D01*
X148182107Y-96023244D01*
X148178249Y-96205748D01*
X148140205Y-96297597D01*
X148026866Y-96288636D01*
X147797104Y-96197478D01*
X147502508Y-96074388D01*
X147502508Y-95189937D01*
X147500784Y-94955949D01*
X147499298Y-94897658D01*
X148188078Y-94897658D01*
X148188404Y-94955402D01*
X148213877Y-95141272D01*
X148267057Y-95216220D01*
X148334359Y-95148772D01*
X148334845Y-94976036D01*
X148267057Y-94748996D01*
X148225864Y-94673424D01*
X148198645Y-94708709D01*
X148188078Y-94897658D01*
X147499298Y-94897658D01*
X147490106Y-94537156D01*
X147471834Y-94169101D01*
X147448487Y-93911354D01*
X147431436Y-93778582D01*
X147424911Y-93604013D01*
X147469947Y-93531578D01*
X147581401Y-93517224D01*
X147673845Y-93528758D01*
X147912547Y-93593949D01*
X148187386Y-93697494D01*
X148265074Y-93731319D01*
X148462291Y-93832509D01*
X148587149Y-93950236D01*
X148679057Y-94133518D01*
X148777428Y-94431372D01*
X148880659Y-94781072D01*
X148932609Y-94976036D01*
X149006882Y-95254780D01*
G37*
G36*
X151127460Y-117282321D02*
G01*
X151146889Y-117636725D01*
X151152336Y-117922822D01*
X151135757Y-118108883D01*
X151093387Y-118232113D01*
X151021462Y-118329718D01*
X150884766Y-118431660D01*
X150652176Y-118460296D01*
X150345509Y-118364345D01*
X149947503Y-118140772D01*
X149847076Y-118073787D01*
X149322812Y-117619185D01*
X148934601Y-117083648D01*
X148693039Y-116485366D01*
X148633505Y-116031477D01*
X149474761Y-116031477D01*
X149525326Y-116295865D01*
X149702191Y-116638775D01*
X149798507Y-116779902D01*
X149981397Y-116999075D01*
X150144284Y-117140306D01*
X150261119Y-117183350D01*
X150305853Y-117107959D01*
X150304520Y-117067769D01*
X150276107Y-116840598D01*
X150220672Y-116549994D01*
X150151432Y-116253795D01*
X150081598Y-116009842D01*
X150024387Y-115875972D01*
X149915875Y-115810530D01*
X149718475Y-115791022D01*
X149550257Y-115858108D01*
X149474761Y-116031477D01*
X148633505Y-116031477D01*
X148608722Y-115842529D01*
X148610425Y-115658154D01*
X148633310Y-115388558D01*
X148693933Y-115202190D01*
X148806416Y-115041854D01*
X148892999Y-114960025D01*
X149197133Y-114812051D01*
X149579856Y-114757406D01*
X149993551Y-114799142D01*
X150390603Y-114940310D01*
X150524938Y-115011696D01*
X150672162Y-115113771D01*
X150768116Y-115244315D01*
X150842071Y-115449145D01*
X150923303Y-115774080D01*
X150953164Y-115912352D01*
X151025468Y-116338615D01*
X151087185Y-116822001D01*
X151112204Y-117107959D01*
X151127460Y-117282321D01*
G37*
G36*
X149415759Y-93554446D02*
G01*
X149437259Y-93558619D01*
X149753076Y-93639156D01*
X150060697Y-93743388D01*
X150139703Y-93776138D01*
X150279321Y-93854925D01*
X150371133Y-93969445D01*
X150442322Y-94163292D01*
X150520072Y-94480059D01*
X150568538Y-94711753D01*
X150638987Y-95135558D01*
X150691567Y-95562912D01*
X150722322Y-95951297D01*
X150727296Y-96258195D01*
X150702532Y-96441086D01*
X150691405Y-96464692D01*
X150542551Y-96559673D01*
X150267224Y-96553288D01*
X149874014Y-96445492D01*
X149713456Y-96384310D01*
X149500436Y-96261772D01*
X149399229Y-96102607D01*
X149372706Y-95863724D01*
X149373182Y-95789853D01*
X149398044Y-95676298D01*
X149494842Y-95646461D01*
X149711204Y-95673591D01*
X149767019Y-95681673D01*
X149974911Y-95688242D01*
X150051003Y-95641973D01*
X150027707Y-95567724D01*
X149905705Y-95412721D01*
X149736767Y-95275415D01*
X149586768Y-95216220D01*
X149584853Y-95216206D01*
X149442327Y-95139204D01*
X149331236Y-94951656D01*
X149286455Y-94712106D01*
X149290701Y-94608358D01*
X149308253Y-94536622D01*
X149311335Y-94536942D01*
X149413667Y-94562255D01*
X149605578Y-94615642D01*
X149667419Y-94632201D01*
X149837954Y-94646302D01*
X149876238Y-94560874D01*
X149793165Y-94361137D01*
X149713788Y-94264578D01*
X149559553Y-94195522D01*
X149412429Y-94174640D01*
X149244204Y-94045410D01*
X149147312Y-93777195D01*
X149090561Y-93493439D01*
X149415759Y-93554446D01*
G37*
G36*
X145240605Y-93187679D02*
G01*
X145385823Y-93278102D01*
X145577301Y-93431521D01*
X145757817Y-93617442D01*
X145859525Y-93824009D01*
X145908456Y-94120174D01*
X145953372Y-94384988D01*
X146069934Y-94623206D01*
X146249498Y-94705221D01*
X146273439Y-94695407D01*
X146307379Y-94570613D01*
X146294358Y-94329197D01*
X146235078Y-94005233D01*
X146222292Y-93944600D01*
X146201108Y-93746496D01*
X146224440Y-93647010D01*
X146265366Y-93646804D01*
X146420406Y-93708853D01*
X146633636Y-93831993D01*
X146695677Y-93873786D01*
X146925660Y-94085545D01*
X147025117Y-94317640D01*
X147053151Y-94513215D01*
X147087323Y-94846912D01*
X147116305Y-95227732D01*
X147137788Y-95612437D01*
X147149460Y-95957787D01*
X147149011Y-96220543D01*
X147134130Y-96357465D01*
X147074140Y-96447840D01*
X146911351Y-96477545D01*
X146671912Y-96358226D01*
X146636570Y-96331390D01*
X146517374Y-96161851D01*
X146483110Y-95893991D01*
X146482198Y-95837414D01*
X146439035Y-95601587D01*
X146318795Y-95474059D01*
X146225410Y-95427112D01*
X146102619Y-95400650D01*
X146062140Y-95492323D01*
X146081567Y-95725919D01*
X146099477Y-95923374D01*
X146072416Y-96037282D01*
X145981564Y-96065719D01*
X145887720Y-96058945D01*
X145746951Y-96003127D01*
X145632813Y-95871458D01*
X145533502Y-95640737D01*
X145437216Y-95287766D01*
X145332149Y-94789346D01*
X145230984Y-94244513D01*
X145157699Y-93764915D01*
X145129535Y-93432866D01*
X145145826Y-93239869D01*
X145205907Y-93177424D01*
X145240605Y-93187679D01*
G37*
G36*
X152874965Y-114700870D02*
G01*
X153101348Y-114799918D01*
X153291448Y-114949517D01*
X153397645Y-115131833D01*
X153424873Y-115267922D01*
X153467026Y-115545575D01*
X153505247Y-115862577D01*
X153508641Y-115894236D01*
X153549509Y-116160398D01*
X153597034Y-116264300D01*
X153653076Y-116204178D01*
X153719494Y-115978270D01*
X153798147Y-115584812D01*
X153847951Y-115343208D01*
X153931159Y-115092693D01*
X154018994Y-115009531D01*
X154100879Y-115020357D01*
X154336816Y-115113972D01*
X154569376Y-115264425D01*
X154717587Y-115423710D01*
X154755374Y-115533897D01*
X154814012Y-115795570D01*
X154879136Y-116157009D01*
X154945491Y-116580078D01*
X155007823Y-117026644D01*
X155060877Y-117458570D01*
X155099400Y-117837724D01*
X155118138Y-118125970D01*
X155111836Y-118285173D01*
X155028927Y-118440823D01*
X154843466Y-118492474D01*
X154636628Y-118475315D01*
X154439094Y-118380615D01*
X154319651Y-118176802D01*
X154251813Y-117834416D01*
X154224296Y-117629534D01*
X154168066Y-117340824D01*
X154111471Y-117211460D01*
X154056706Y-117244923D01*
X154005966Y-117444692D01*
X154000381Y-117475122D01*
X153910667Y-117781717D01*
X153784157Y-118054931D01*
X153619782Y-118325225D01*
X153303754Y-118193180D01*
X153138108Y-118119326D01*
X152993516Y-118021876D01*
X152906967Y-117883353D01*
X152854627Y-117660993D01*
X152812663Y-117312030D01*
X152790988Y-117128985D01*
X152735581Y-116731358D01*
X152664597Y-116273936D01*
X152588109Y-115823512D01*
X152534731Y-115503786D01*
X152487007Y-115161938D01*
X152462495Y-114908588D01*
X152465799Y-114782877D01*
X152503829Y-114725754D01*
X152659919Y-114670205D01*
X152874965Y-114700870D01*
G37*
G36*
X153628983Y-93613194D02*
G01*
X153880397Y-93747257D01*
X154065080Y-94017488D01*
X154166690Y-94403555D01*
X154214589Y-94681822D01*
X154285697Y-94847799D01*
X154395467Y-94922712D01*
X154501569Y-94949091D01*
X154592809Y-94947890D01*
X154595385Y-94885861D01*
X154573652Y-94696816D01*
X154529735Y-94430473D01*
X154496265Y-94213897D01*
X154479114Y-93994359D01*
X154493949Y-93888102D01*
X154497656Y-93884850D01*
X154618490Y-93880114D01*
X154813262Y-93946905D01*
X155021881Y-94058945D01*
X155184258Y-94189960D01*
X155247132Y-94306459D01*
X155298973Y-94527298D01*
X155339639Y-94871546D01*
X155372866Y-95362430D01*
X155389955Y-95765366D01*
X155396395Y-96123252D01*
X155391641Y-96388983D01*
X155375601Y-96523877D01*
X155333423Y-96599037D01*
X155201327Y-96664272D01*
X155041423Y-96614109D01*
X154886549Y-96473750D01*
X154769543Y-96268395D01*
X154723244Y-96023244D01*
X154722943Y-95984586D01*
X154711215Y-95800713D01*
X154687717Y-95725919D01*
X154653237Y-95719334D01*
X154517817Y-95674356D01*
X154445222Y-95664495D01*
X154396218Y-95743547D01*
X154383445Y-95957522D01*
X154378607Y-96143297D01*
X154339616Y-96311300D01*
X154238356Y-96357115D01*
X154047629Y-96309228D01*
X154045513Y-96308488D01*
X153948909Y-96266126D01*
X153874831Y-96198228D01*
X153812469Y-96076512D01*
X153751011Y-95872695D01*
X153679646Y-95558495D01*
X153587565Y-95105629D01*
X153520573Y-94766275D01*
X153437066Y-94318787D01*
X153388362Y-94002060D01*
X153373505Y-93794065D01*
X153391544Y-93672772D01*
X153441523Y-93616152D01*
X153522490Y-93602173D01*
X153628983Y-93613194D01*
G37*
G36*
X157585108Y-117014784D02*
G01*
X157675759Y-117430772D01*
X157706763Y-117594289D01*
X157757121Y-117895392D01*
X157771116Y-118080332D01*
X157749495Y-118184360D01*
X157693008Y-118242724D01*
X157639480Y-118263876D01*
X157435872Y-118278708D01*
X157194534Y-118249695D01*
X157002188Y-118184186D01*
X156945449Y-118085921D01*
X156889059Y-117895978D01*
X156888505Y-117893475D01*
X156794344Y-117648757D01*
X156653172Y-117462292D01*
X156505777Y-117388127D01*
X156479785Y-117410907D01*
X156434781Y-117556319D01*
X156405658Y-117791638D01*
X156379766Y-118195150D01*
X156082442Y-118165394D01*
X155889653Y-118144632D01*
X155743822Y-118111246D01*
X155639576Y-118042985D01*
X155569157Y-117917357D01*
X155524810Y-117711868D01*
X155498777Y-117404028D01*
X155483302Y-116971345D01*
X155470629Y-116391326D01*
X155470547Y-116387418D01*
X155464676Y-115975633D01*
X156348229Y-115975633D01*
X156379018Y-116278340D01*
X156394111Y-116375311D01*
X156464373Y-116624753D01*
X156557637Y-116708528D01*
X156566005Y-116708472D01*
X156645348Y-116690761D01*
X156668225Y-116617611D01*
X156633519Y-116454494D01*
X156540111Y-116166883D01*
X156492831Y-116035142D01*
X156408130Y-115851962D01*
X156358931Y-115832816D01*
X156348229Y-115975633D01*
X155464676Y-115975633D01*
X155463342Y-115882050D01*
X155463297Y-115434718D01*
X155469902Y-115073368D01*
X155482648Y-114825948D01*
X155501028Y-114720404D01*
X155584171Y-114673212D01*
X155818016Y-114654534D01*
X156150432Y-114697641D01*
X156546473Y-114799875D01*
X156994953Y-114940939D01*
X157264760Y-115819654D01*
X157325893Y-116025103D01*
X157461558Y-116519071D01*
X157486118Y-116617611D01*
X157585108Y-117014784D01*
G37*
G36*
X159820210Y-105497390D02*
G01*
X159819945Y-106825197D01*
X159819251Y-107997428D01*
X159817962Y-109023797D01*
X159815912Y-109914016D01*
X159812935Y-110677799D01*
X159808865Y-111324858D01*
X159803537Y-111864908D01*
X159796785Y-112307660D01*
X159788442Y-112662829D01*
X159778343Y-112940127D01*
X159766321Y-113149267D01*
X159752211Y-113299962D01*
X159735847Y-113401926D01*
X159717064Y-113464872D01*
X159695694Y-113498513D01*
X159671572Y-113512561D01*
X159598696Y-113528102D01*
X159360327Y-113565329D01*
X158999689Y-113614069D01*
X158545848Y-113670829D01*
X158027870Y-113732117D01*
X157474820Y-113794437D01*
X156915763Y-113854298D01*
X156379766Y-113908205D01*
X156315947Y-113914093D01*
X155912375Y-113944055D01*
X155389978Y-113974263D01*
X154791165Y-114002666D01*
X154158351Y-114027213D01*
X153533947Y-114045851D01*
X153251794Y-114053190D01*
X152726531Y-114068876D01*
X152272874Y-114085078D01*
X151915387Y-114100778D01*
X151678634Y-114114957D01*
X151587180Y-114126597D01*
X151578264Y-114132945D01*
X151516165Y-114148985D01*
X151391171Y-114156112D01*
X151185531Y-114153638D01*
X150881494Y-114140873D01*
X150461312Y-114117128D01*
X149907232Y-114081713D01*
X149201505Y-114033939D01*
X148317402Y-113969552D01*
X147453611Y-113899709D01*
X146639985Y-113827154D01*
X145893583Y-113753753D01*
X145231466Y-113681374D01*
X144670693Y-113611882D01*
X144228324Y-113547144D01*
X143921420Y-113489026D01*
X143767040Y-113439396D01*
X143757961Y-113390209D01*
X143746167Y-113186014D01*
X143735260Y-112836209D01*
X143725254Y-112354513D01*
X143716164Y-111754642D01*
X143708004Y-111050314D01*
X143700788Y-110255248D01*
X143694532Y-109383159D01*
X143689249Y-108447767D01*
X143684953Y-107462788D01*
X143681660Y-106441941D01*
X143679383Y-105398943D01*
X143678137Y-104347511D01*
X143677936Y-103301363D01*
X143678794Y-102274217D01*
X143680303Y-101497720D01*
X143780086Y-101497720D01*
X143780916Y-102577017D01*
X143782643Y-103715144D01*
X143785294Y-104900501D01*
X143807191Y-113353010D01*
X144401840Y-113450880D01*
X144649532Y-113489035D01*
X145244419Y-113567561D01*
X145940267Y-113646416D01*
X146691374Y-113721191D01*
X147452039Y-113787478D01*
X148176558Y-113840869D01*
X148819231Y-113876957D01*
X150008528Y-113929609D01*
X150024335Y-112536961D01*
X150028500Y-112300263D01*
X150047522Y-111762854D01*
X150077441Y-111248759D01*
X150115090Y-110806839D01*
X150157300Y-110485953D01*
X150172354Y-110399773D01*
X150218511Y-110108422D01*
X150243308Y-109904431D01*
X150241645Y-109827592D01*
X150169882Y-109866775D01*
X149983649Y-109982310D01*
X149712793Y-110155810D01*
X149386607Y-110368736D01*
X149277264Y-110440379D01*
X148662865Y-110827038D01*
X148154796Y-111112929D01*
X147733110Y-111306030D01*
X147377858Y-111414318D01*
X147069091Y-111445771D01*
X146786860Y-111408367D01*
X146748039Y-111396908D01*
X146568323Y-111262347D01*
X146529265Y-111110876D01*
X146666824Y-111110876D01*
X146817325Y-111268750D01*
X146855431Y-111288978D01*
X146963319Y-111334811D01*
X147075500Y-111341118D01*
X147244642Y-111304329D01*
X147523417Y-111220872D01*
X147902391Y-111071512D01*
X148374111Y-110832595D01*
X148891863Y-110528579D01*
X149413880Y-110182407D01*
X149497913Y-110123099D01*
X149763644Y-109930320D01*
X149895164Y-109813985D01*
X149896924Y-109757783D01*
X149773370Y-109745405D01*
X149528953Y-109760541D01*
X149373864Y-109775068D01*
X149165818Y-109815821D01*
X148981560Y-109898627D01*
X148772068Y-110048437D01*
X148488318Y-110290204D01*
X148329881Y-110427599D01*
X148087522Y-110626813D01*
X147962097Y-110711582D01*
X147955879Y-110682031D01*
X148071139Y-110538284D01*
X148310150Y-110280465D01*
X148501275Y-110067390D01*
X148598155Y-109901357D01*
X148554631Y-109803406D01*
X148361163Y-109756585D01*
X148008210Y-109743943D01*
X147809155Y-109747070D01*
X147594019Y-109780417D01*
X147427215Y-109875056D01*
X147235108Y-110061204D01*
X147119758Y-110186376D01*
X146817785Y-110570427D01*
X146666892Y-110878348D01*
X146666824Y-111110876D01*
X146529265Y-111110876D01*
X146510589Y-111038446D01*
X146571073Y-110746234D01*
X146746012Y-110406737D01*
X147031640Y-110040984D01*
X147183902Y-109870133D01*
X147269320Y-109747185D01*
X147260409Y-109678243D01*
X147169670Y-109625696D01*
X147152094Y-109616599D01*
X147010967Y-109472082D01*
X146900441Y-109252940D01*
X146876356Y-109168230D01*
X146853835Y-109039552D01*
X146842111Y-108874317D01*
X146842229Y-108655994D01*
X146843253Y-108633324D01*
X146992809Y-108633324D01*
X147004063Y-108908854D01*
X147042129Y-109182795D01*
X147098997Y-109343778D01*
X147260646Y-109458253D01*
X147580138Y-109553708D01*
X148030085Y-109615798D01*
X148591145Y-109641945D01*
X149243980Y-109629574D01*
X149416620Y-109620833D01*
X150380277Y-109542841D01*
X151273142Y-109411853D01*
X152166640Y-109215206D01*
X153132196Y-108940238D01*
X153368020Y-108867478D01*
X153776451Y-108743796D01*
X154111797Y-108645274D01*
X154344404Y-108580544D01*
X154444618Y-108558238D01*
X154420471Y-108585857D01*
X154276865Y-108665047D01*
X154043646Y-108776942D01*
X154018958Y-108787985D01*
X153711219Y-108904660D01*
X153285424Y-109041785D01*
X152785283Y-109187563D01*
X152254503Y-109330195D01*
X151736794Y-109457887D01*
X151275865Y-109558839D01*
X150915423Y-109621256D01*
X150907782Y-109622275D01*
X150636897Y-109672786D01*
X150492199Y-109744979D01*
X150485372Y-109757783D01*
X150430907Y-109859928D01*
X150391661Y-110032450D01*
X150320142Y-110401159D01*
X150265674Y-110786647D01*
X150224288Y-111227192D01*
X150192018Y-111761075D01*
X150164896Y-112426573D01*
X150111453Y-113963682D01*
X150517834Y-114019383D01*
X150633100Y-114033549D01*
X150925537Y-114057422D01*
X151145970Y-114059677D01*
X151296369Y-114051926D01*
X151586722Y-114039377D01*
X151985113Y-114023340D01*
X152460484Y-114005066D01*
X152981773Y-113985803D01*
X152993183Y-113985389D01*
X153505490Y-113966491D01*
X153963532Y-113948980D01*
X154338426Y-113934008D01*
X154601291Y-113922728D01*
X154723244Y-113916294D01*
X154775575Y-113888718D01*
X154812103Y-113795790D01*
X154832992Y-113611559D01*
X154841133Y-113309874D01*
X154839413Y-112864584D01*
X154850819Y-112161758D01*
X154943199Y-111196174D01*
X155130903Y-110294816D01*
X155164998Y-110158004D01*
X155250366Y-109696971D01*
X155304952Y-109204846D01*
X155329635Y-108710084D01*
X155325292Y-108241143D01*
X155292801Y-107826479D01*
X155233040Y-107494548D01*
X155146886Y-107273808D01*
X155035218Y-107192716D01*
X155019326Y-107185186D01*
X155073285Y-107119110D01*
X155232943Y-107007380D01*
X155539918Y-106813814D01*
X156286232Y-106301446D01*
X156893926Y-105810334D01*
X157381456Y-105322784D01*
X157767279Y-104821101D01*
X158069852Y-104287589D01*
X158369396Y-103503057D01*
X158507384Y-102714807D01*
X158482169Y-101909649D01*
X158295111Y-101068149D01*
X158265090Y-100975366D01*
X157954727Y-100306021D01*
X157518149Y-99744296D01*
X156964883Y-99296469D01*
X156304457Y-98968818D01*
X155546400Y-98767624D01*
X154700239Y-98699163D01*
X153780028Y-98768577D01*
X152954346Y-98974868D01*
X152229680Y-99314388D01*
X151610844Y-99783486D01*
X151102652Y-100378513D01*
X150709918Y-101095817D01*
X150437454Y-101931750D01*
X150411796Y-102048168D01*
X150324164Y-102886245D01*
X150393475Y-103757291D01*
X150615664Y-104644247D01*
X150986663Y-105530058D01*
X151502404Y-106397666D01*
X151759836Y-106771831D01*
X151583027Y-107020136D01*
X151406218Y-107268442D01*
X151577792Y-107549856D01*
X151601140Y-107589626D01*
X151706644Y-107815302D01*
X151749683Y-107990551D01*
X151759442Y-108067886D01*
X151819264Y-108107509D01*
X151834356Y-108117505D01*
X152023374Y-108095158D01*
X152198343Y-108049377D01*
X152496277Y-107952179D01*
X152814975Y-107833159D01*
X152883322Y-107806570D01*
X153192512Y-107700972D01*
X153503837Y-107613434D01*
X153776599Y-107553261D01*
X153970101Y-107529759D01*
X154043646Y-107552231D01*
X154034782Y-107560161D01*
X153911120Y-107614603D01*
X153664428Y-107706867D01*
X153323732Y-107826371D01*
X152918060Y-107962535D01*
X152860690Y-107981453D01*
X152400706Y-108138591D01*
X152069571Y-108266366D01*
X151835884Y-108379792D01*
X151668244Y-108493882D01*
X151535248Y-108623649D01*
X151361031Y-108794425D01*
X151151194Y-108903852D01*
X150855649Y-108954426D01*
X150768752Y-108961970D01*
X150532693Y-108963000D01*
X150375336Y-108906942D01*
X150227333Y-108773868D01*
X150211875Y-108757388D01*
X150123520Y-108672933D01*
X150025478Y-108615732D01*
X149885707Y-108580478D01*
X149672166Y-108561866D01*
X149352812Y-108554590D01*
X148895602Y-108553344D01*
X148626463Y-108553913D01*
X148246183Y-108559332D01*
X147993621Y-108573367D01*
X147841440Y-108599502D01*
X147762306Y-108641221D01*
X147728881Y-108702006D01*
X147707205Y-108772828D01*
X147692799Y-108778897D01*
X147703700Y-108661171D01*
X147735431Y-108446875D01*
X147783514Y-108163234D01*
X147843472Y-107837473D01*
X147910826Y-107496817D01*
X147981100Y-107168491D01*
X148105748Y-106627753D01*
X148246420Y-106073155D01*
X148377517Y-105640217D01*
X148509393Y-105303292D01*
X148652405Y-105036732D01*
X148816906Y-104814892D01*
X149013252Y-104612123D01*
X149172794Y-104451446D01*
X149408859Y-104155051D01*
X149556072Y-103884309D01*
X149600943Y-103667403D01*
X149529986Y-103532511D01*
X149411622Y-103476449D01*
X149202419Y-103484934D01*
X149050336Y-103647491D01*
X148958154Y-103838628D01*
X148952405Y-103621253D01*
X148976713Y-103454655D01*
X149080380Y-103238978D01*
X149159069Y-103152365D01*
X149165818Y-103171366D01*
X149158786Y-103226536D01*
X149244468Y-103317362D01*
X149322128Y-103324509D01*
X149381187Y-103220076D01*
X149383539Y-103171683D01*
X149354444Y-102839615D01*
X149259378Y-102549840D01*
X149117626Y-102344831D01*
X148948471Y-102267056D01*
X148679618Y-102320308D01*
X148353469Y-102461828D01*
X148028090Y-102658619D01*
X147757947Y-102877666D01*
X147597504Y-103085955D01*
X147590781Y-103104012D01*
X147552101Y-103281475D01*
X147502001Y-103596622D01*
X147443298Y-104023603D01*
X147378810Y-104536565D01*
X147311355Y-105109655D01*
X147243751Y-105717022D01*
X147178816Y-106332814D01*
X147119368Y-106931178D01*
X147068226Y-107486264D01*
X147028207Y-107972218D01*
X147002128Y-108363189D01*
X146992809Y-108633324D01*
X146843253Y-108633324D01*
X146855235Y-108368049D01*
X146882176Y-107993951D01*
X146924098Y-107517167D01*
X146982046Y-106921165D01*
X147057067Y-106189412D01*
X147150206Y-105305377D01*
X147177621Y-105047560D01*
X147249448Y-104390455D01*
X147313160Y-103874072D01*
X147376041Y-103477314D01*
X147445375Y-103179081D01*
X147528445Y-102958275D01*
X147632535Y-102793797D01*
X147764929Y-102664547D01*
X147932910Y-102549427D01*
X148143763Y-102427339D01*
X148454470Y-102271835D01*
X148816466Y-102167200D01*
X149096233Y-102197972D01*
X149304913Y-102363539D01*
X149345546Y-102426170D01*
X149454435Y-102686724D01*
X149519438Y-102981376D01*
X149536313Y-103102541D01*
X149584906Y-103315906D01*
X149637522Y-103420843D01*
X149711161Y-103532981D01*
X149705134Y-103750592D01*
X149614845Y-104026700D01*
X149456522Y-104325047D01*
X149246395Y-104609382D01*
X149000694Y-104843447D01*
X148919063Y-104912755D01*
X148780054Y-105076175D01*
X148653349Y-105300739D01*
X148531026Y-105607756D01*
X148405165Y-106018536D01*
X148267844Y-106554388D01*
X148111143Y-107236622D01*
X147866338Y-108340969D01*
X148211068Y-108367919D01*
X148278939Y-108372560D01*
X148447614Y-108366410D01*
X148493504Y-108347403D01*
X148861706Y-108347403D01*
X148918431Y-108369045D01*
X149102591Y-108373395D01*
X149370089Y-108354511D01*
X149631979Y-108332342D01*
X149832554Y-108343177D01*
X149985649Y-108407751D01*
X150155875Y-108541435D01*
X150189840Y-108570419D01*
X150474546Y-108765787D01*
X150739520Y-108833982D01*
X151045357Y-108792078D01*
X151317784Y-108652533D01*
X151509447Y-108407326D01*
X151588027Y-108107509D01*
X151542101Y-107798949D01*
X151360248Y-107527517D01*
X151254740Y-107439367D01*
X151103060Y-107365837D01*
X150893082Y-107334883D01*
X150569349Y-107332856D01*
X150448655Y-107337402D01*
X149891718Y-107430872D01*
X149443191Y-107646208D01*
X149088430Y-107989908D01*
X149028005Y-108071315D01*
X148909001Y-108248676D01*
X148861706Y-108347403D01*
X148493504Y-108347403D01*
X148587243Y-108308578D01*
X148743480Y-108172548D01*
X148961978Y-107931806D01*
X149018638Y-107868391D01*
X149366961Y-107541993D01*
X149728576Y-107334782D01*
X150152478Y-107225815D01*
X150687665Y-107194147D01*
X150905279Y-107193276D01*
X151147507Y-107181730D01*
X151290615Y-107144765D01*
X151378394Y-107067614D01*
X151454634Y-106935511D01*
X151513466Y-106813790D01*
X151537741Y-106685289D01*
X151480736Y-106551417D01*
X151328988Y-106349367D01*
X151147008Y-106102338D01*
X150730865Y-105369975D01*
X150424275Y-104563053D01*
X150237053Y-103720711D01*
X150179013Y-102882082D01*
X150259968Y-102086303D01*
X150486028Y-101269113D01*
X150843692Y-100503035D01*
X151317858Y-99860426D01*
X151907436Y-99342227D01*
X152611338Y-98949382D01*
X153428474Y-98682830D01*
X154357754Y-98543515D01*
X154402937Y-98540054D01*
X154742265Y-98511447D01*
X154951347Y-98480237D01*
X155065592Y-98432519D01*
X155120408Y-98354388D01*
X155151205Y-98231939D01*
X155249643Y-97906686D01*
X155398730Y-97676050D01*
X155578398Y-97594816D01*
X155681451Y-97616559D01*
X155796582Y-97721485D01*
X155827972Y-97778455D01*
X155906301Y-97784112D01*
X156060222Y-97679010D01*
X156082550Y-97661558D01*
X156267857Y-97538459D01*
X156395269Y-97526467D01*
X156522360Y-97617979D01*
X156546961Y-97636688D01*
X156728374Y-97699702D01*
X156974415Y-97724166D01*
X157082467Y-97724284D01*
X157243893Y-97746117D01*
X157304803Y-97834341D01*
X157314214Y-98033589D01*
X157314756Y-98074665D01*
X157335790Y-98288255D01*
X157377926Y-98408784D01*
X157382329Y-98413368D01*
X157441664Y-98585320D01*
X157401214Y-98804292D01*
X157274458Y-98994027D01*
X157235015Y-99030501D01*
X157176545Y-99109002D01*
X157194188Y-99193237D01*
X157304936Y-99318878D01*
X157525786Y-99521598D01*
X157608409Y-99599534D01*
X158013083Y-100102437D01*
X158337747Y-100714336D01*
X158567763Y-101393954D01*
X158688494Y-102100013D01*
X158685655Y-102714807D01*
X158685302Y-102791237D01*
X158663470Y-102962324D01*
X158469510Y-103744961D01*
X158134806Y-104513541D01*
X157680132Y-105227363D01*
X157126262Y-105845727D01*
X157066801Y-105900238D01*
X156746810Y-106169629D01*
X156389103Y-106440782D01*
X156034838Y-106685016D01*
X155725172Y-106873653D01*
X155501264Y-106978016D01*
X155474571Y-106986882D01*
X155351538Y-107071880D01*
X155362083Y-107223574D01*
X155381259Y-107316075D01*
X155411128Y-107564951D01*
X155439202Y-107907535D01*
X155461297Y-108298495D01*
X155470626Y-108569837D01*
X155468217Y-108966612D01*
X155438431Y-109346075D01*
X155375600Y-109768664D01*
X155274055Y-110294816D01*
X155136833Y-111082367D01*
X155001629Y-112573136D01*
X154996941Y-112706268D01*
X154989038Y-113121438D01*
X154992548Y-113464644D01*
X155006701Y-113703322D01*
X155030728Y-113804908D01*
X155098099Y-113825880D01*
X155300395Y-113843161D01*
X155572743Y-113840799D01*
X155660014Y-113835621D01*
X155961856Y-113811424D01*
X156375804Y-113773159D01*
X156866701Y-113724574D01*
X157399389Y-113669418D01*
X157938711Y-113611442D01*
X158449510Y-113554395D01*
X158896629Y-113502026D01*
X159244910Y-113458085D01*
X159459197Y-113426320D01*
X159735284Y-113376576D01*
X159735284Y-104848572D01*
X159735144Y-104081438D01*
X159734389Y-102923696D01*
X159733019Y-101822341D01*
X159731080Y-100788727D01*
X159728620Y-99834203D01*
X159725683Y-98970121D01*
X159722317Y-98207832D01*
X159718567Y-97558686D01*
X159714479Y-97034036D01*
X159710099Y-96645233D01*
X159705474Y-96403626D01*
X159700649Y-96320568D01*
X159652645Y-96338183D01*
X159488252Y-96415093D01*
X159254663Y-96532355D01*
X159143159Y-96586913D01*
X158531907Y-96815771D01*
X157785112Y-97001222D01*
X156927436Y-97139093D01*
X155983542Y-97225217D01*
X154978094Y-97255422D01*
X154696761Y-97257489D01*
X154008486Y-97279206D01*
X153400669Y-97322547D01*
X152895571Y-97385017D01*
X152515452Y-97464123D01*
X152282573Y-97557372D01*
X152223980Y-97598939D01*
X152113576Y-97745180D01*
X152110908Y-97963329D01*
X152154872Y-98189500D01*
X152213065Y-98379812D01*
X152231976Y-98438230D01*
X152200406Y-98469058D01*
X152073562Y-98433895D01*
X151822498Y-98328974D01*
X151628358Y-98250530D01*
X151141403Y-98085960D01*
X150591114Y-97931066D01*
X150048303Y-97804902D01*
X149583779Y-97726524D01*
X149504657Y-97717925D01*
X149210709Y-97691575D01*
X148807259Y-97660127D01*
X148336921Y-97626802D01*
X147842308Y-97594824D01*
X147576840Y-97577250D01*
X146720468Y-97497549D01*
X146006236Y-97387739D01*
X145413582Y-97241866D01*
X144921947Y-97053978D01*
X144510769Y-96818118D01*
X144159487Y-96528335D01*
X144044755Y-96422680D01*
X143881806Y-96312293D01*
X143805732Y-96336940D01*
X143802378Y-96373537D01*
X143797037Y-96564505D01*
X143792370Y-96907122D01*
X143788405Y-97389785D01*
X143785170Y-98000892D01*
X143782693Y-98728841D01*
X143781002Y-99562030D01*
X143780123Y-100488858D01*
X143780086Y-101497720D01*
X143680303Y-101497720D01*
X143680727Y-101279790D01*
X143683748Y-100331800D01*
X143687871Y-99443964D01*
X143693112Y-98630000D01*
X143699485Y-97903627D01*
X143707003Y-97278560D01*
X143715681Y-96768518D01*
X143725535Y-96387219D01*
X143736577Y-96148380D01*
X143748822Y-96065719D01*
X143773466Y-96073789D01*
X143898399Y-96166029D01*
X144067384Y-96328147D01*
X144327740Y-96561784D01*
X144874191Y-96899149D01*
X145543886Y-97165379D01*
X146313211Y-97349732D01*
X146456812Y-97369991D01*
X146790173Y-97405038D01*
X147226608Y-97442247D01*
X147725904Y-97478289D01*
X148247846Y-97509836D01*
X148523737Y-97526228D01*
X149441961Y-97606921D01*
X150232949Y-97723909D01*
X150928243Y-97882706D01*
X151559386Y-98088828D01*
X151990643Y-98252693D01*
X151947871Y-97987467D01*
X151941071Y-97938097D01*
X151964557Y-97719202D01*
X152114344Y-97526188D01*
X152158236Y-97488678D01*
X152302616Y-97402274D01*
X152503738Y-97331702D01*
X152780462Y-97274361D01*
X153151648Y-97227648D01*
X153636154Y-97188962D01*
X154252841Y-97155701D01*
X155020569Y-97125263D01*
X155763896Y-97091823D01*
X156648908Y-97025789D01*
X157402572Y-96933060D01*
X158046425Y-96810113D01*
X158602004Y-96653425D01*
X159090848Y-96459472D01*
X159219696Y-96400202D01*
X159501768Y-96272511D01*
X159704155Y-96183864D01*
X159789723Y-96150668D01*
X159792821Y-96195291D01*
X159796917Y-96395385D01*
X159800811Y-96745882D01*
X159804464Y-97235518D01*
X159807836Y-97853028D01*
X159810887Y-98587147D01*
X159813578Y-99426611D01*
X159815868Y-100360154D01*
X159817719Y-101376512D01*
X159819090Y-102464420D01*
X159819941Y-103612613D01*
X159820234Y-104809827D01*
X159820233Y-104848572D01*
X159820210Y-105497390D01*
G37*
G36*
X146156917Y-69983327D02*
G01*
X146156525Y-70447763D01*
X146142555Y-70809436D01*
X146089470Y-71283112D01*
X145946554Y-71857064D01*
X145721027Y-72290447D01*
X145406735Y-72590742D01*
X144997524Y-72765432D01*
X144487240Y-72822000D01*
X144066375Y-72822000D01*
X144012664Y-73224166D01*
X143980209Y-73436011D01*
X143900272Y-73847053D01*
X143801058Y-74270063D01*
X143694287Y-74660283D01*
X143591676Y-74972953D01*
X143504946Y-75163314D01*
X143391759Y-75285748D01*
X143132640Y-75472513D01*
X142800547Y-75652852D01*
X142447333Y-75795757D01*
X142152011Y-75840360D01*
X141761673Y-75824446D01*
X141350831Y-75753254D01*
X140987274Y-75634280D01*
X140874506Y-75577501D01*
X140569923Y-75377841D01*
X140303585Y-75148852D01*
X139992000Y-74828024D01*
X139992000Y-73899803D01*
X139991600Y-73602445D01*
X139986724Y-73297999D01*
X139971331Y-73115678D01*
X139939366Y-73027598D01*
X139884774Y-73005879D01*
X139801500Y-73022635D01*
X139632094Y-73054651D01*
X139378166Y-73074843D01*
X139289975Y-73077261D01*
X139206386Y-73104759D01*
X139163442Y-73193081D01*
X139147604Y-73378398D01*
X139145333Y-73696879D01*
X139134403Y-74037551D01*
X139099487Y-74453140D01*
X139048905Y-74797909D01*
X139021480Y-74926327D01*
X138944791Y-75171073D01*
X138832074Y-75331368D01*
X138646738Y-75468196D01*
X138620280Y-75484382D01*
X138442143Y-75573415D01*
X138241845Y-75625849D01*
X137970444Y-75650256D01*
X137579000Y-75655208D01*
X137073318Y-75630988D01*
X136669517Y-75548802D01*
X136365862Y-75390351D01*
X136146607Y-75137295D01*
X135996003Y-74771291D01*
X135898303Y-74273996D01*
X135837760Y-73627069D01*
X135809626Y-73271787D01*
X135758473Y-72793059D01*
X135698394Y-72357495D01*
X135637291Y-72028109D01*
X135584431Y-71767506D01*
X135496156Y-71145206D01*
X135433258Y-70428169D01*
X135398455Y-69665213D01*
X135394466Y-68905155D01*
X135394633Y-68901158D01*
X136098980Y-68901158D01*
X136110876Y-69545633D01*
X136144948Y-70225763D01*
X136198366Y-70891072D01*
X136268300Y-71491086D01*
X136351920Y-71975333D01*
X136371192Y-72067384D01*
X136456204Y-72566866D01*
X136523389Y-73106314D01*
X136559611Y-73584000D01*
X136581143Y-73972660D01*
X136628242Y-74373135D01*
X136702352Y-74645840D01*
X136810651Y-74814389D01*
X136960316Y-74902396D01*
X136999210Y-74913472D01*
X137242778Y-74950812D01*
X137543759Y-74964403D01*
X137845729Y-74955468D01*
X138092266Y-74925233D01*
X138226945Y-74874921D01*
X138236047Y-74864872D01*
X138319406Y-74686988D01*
X138391421Y-74392819D01*
X138442815Y-74030333D01*
X138464313Y-73647500D01*
X138464548Y-73553353D01*
X138451792Y-73374605D01*
X138401609Y-73228217D01*
X138290819Y-73079019D01*
X138096241Y-72891837D01*
X137794694Y-72631500D01*
X137421520Y-72314000D01*
X139000114Y-72314000D01*
X139532148Y-72314945D01*
X139948651Y-72319467D01*
X140242368Y-72329909D01*
X140437146Y-72348615D01*
X140556837Y-72377931D01*
X140625290Y-72420200D01*
X140666354Y-72477767D01*
X140698587Y-72608641D01*
X140727344Y-72875990D01*
X140746829Y-73234667D01*
X140754000Y-73644182D01*
X140754000Y-74646830D01*
X141109614Y-74877415D01*
X141245460Y-74954484D01*
X141697547Y-75092083D01*
X142175288Y-75087728D01*
X142625463Y-74939248D01*
X142710898Y-74890978D01*
X142865573Y-74763626D01*
X142972768Y-74579070D01*
X143069668Y-74282320D01*
X143096937Y-74178225D01*
X143196557Y-73662290D01*
X143279857Y-73010000D01*
X143346591Y-72247161D01*
X143396514Y-71399578D01*
X143429380Y-70493056D01*
X143444943Y-69553400D01*
X143442959Y-68606415D01*
X143423180Y-67677907D01*
X143385362Y-66793679D01*
X143329259Y-65979538D01*
X143323246Y-65921666D01*
X144131438Y-65921666D01*
X144138079Y-68964638D01*
X144139779Y-69553400D01*
X144140024Y-69638276D01*
X144142858Y-70284655D01*
X144146362Y-70856915D01*
X144150375Y-71336014D01*
X144154736Y-71702909D01*
X144159284Y-71938557D01*
X144163860Y-72023914D01*
X144245620Y-72062651D01*
X144461986Y-72094625D01*
X144708815Y-72086755D01*
X144902666Y-72037504D01*
X145034461Y-71958236D01*
X145171433Y-71823122D01*
X145271545Y-71632292D01*
X145340058Y-71363090D01*
X145382233Y-70992856D01*
X145403331Y-70498934D01*
X145408614Y-69858666D01*
X145407193Y-69597904D01*
X145397034Y-68984787D01*
X145378799Y-68360414D01*
X145354447Y-67784977D01*
X145325937Y-67318666D01*
X145300859Y-67001837D01*
X145267229Y-66653573D01*
X145230526Y-66418873D01*
X145182723Y-66264666D01*
X145115791Y-66157880D01*
X145021702Y-66065445D01*
X144988850Y-66037815D01*
X144757155Y-65913545D01*
X144464896Y-65896111D01*
X144131438Y-65921666D01*
X143323246Y-65921666D01*
X143254626Y-65261289D01*
X143161216Y-64664736D01*
X143080701Y-64295510D01*
X142850275Y-63537813D01*
X142560808Y-62915538D01*
X142217194Y-62438017D01*
X141824323Y-62114583D01*
X141760848Y-62079181D01*
X141253230Y-61887009D01*
X140665279Y-61791292D01*
X140031408Y-61785939D01*
X139386028Y-61864861D01*
X138763552Y-62021967D01*
X138198390Y-62251168D01*
X137724956Y-62546375D01*
X137377660Y-62901497D01*
X137200083Y-63150881D01*
X138363208Y-63151438D01*
X139119535Y-63165670D01*
X139734519Y-63212621D01*
X140221716Y-63299292D01*
X140600987Y-63432683D01*
X140892193Y-63619797D01*
X141115197Y-63867637D01*
X141289859Y-64183203D01*
X141389309Y-64467118D01*
X141442282Y-64803305D01*
X141449773Y-65078659D01*
X141454280Y-65244333D01*
X141454072Y-65261720D01*
X141385372Y-65983094D01*
X141198916Y-66584463D01*
X140892160Y-67069880D01*
X140462561Y-67443397D01*
X139907576Y-67709069D01*
X139615641Y-67774874D01*
X139185274Y-67819992D01*
X138675912Y-67839939D01*
X138133073Y-67835176D01*
X137602273Y-67806162D01*
X137129031Y-67753358D01*
X136758862Y-67677224D01*
X136192724Y-67513712D01*
X136133009Y-68071325D01*
X136112090Y-68342810D01*
X136098980Y-68901158D01*
X135394633Y-68901158D01*
X135424007Y-68196814D01*
X135499790Y-67127444D01*
X135164565Y-66746608D01*
X134986106Y-66518218D01*
X134741842Y-66035960D01*
X134673891Y-65628222D01*
X135433216Y-65628222D01*
X135555477Y-65967197D01*
X135845110Y-66314075D01*
X136005065Y-66445914D01*
X136330149Y-66655814D01*
X136664169Y-66819324D01*
X136711806Y-66837755D01*
X136939440Y-66913360D01*
X137181748Y-66966599D01*
X137477393Y-67002483D01*
X137865035Y-67026026D01*
X138383333Y-67042241D01*
X138547859Y-67046084D01*
X138985439Y-67053836D01*
X139297221Y-67051357D01*
X139516458Y-67034850D01*
X139676404Y-67000518D01*
X139810313Y-66944563D01*
X139951440Y-66863188D01*
X140320369Y-66539385D01*
X140583726Y-66084873D01*
X140739290Y-65502908D01*
X140780667Y-65078659D01*
X140743435Y-64688285D01*
X140604138Y-64387244D01*
X140350125Y-64165003D01*
X139968746Y-64011027D01*
X139447350Y-63914781D01*
X138773288Y-63865731D01*
X138524888Y-63858869D01*
X137772179Y-63881441D01*
X137144570Y-63980668D01*
X136618576Y-64163973D01*
X136170707Y-64438781D01*
X135777475Y-64812513D01*
X135688375Y-64920057D01*
X135477717Y-65283669D01*
X135433216Y-65628222D01*
X134673891Y-65628222D01*
X134659299Y-65540666D01*
X134674555Y-65394407D01*
X134797664Y-65034632D01*
X135018436Y-64647745D01*
X135305693Y-64276732D01*
X135628259Y-63964577D01*
X135954956Y-63754267D01*
X135974838Y-63743065D01*
X136113814Y-63602183D01*
X136287424Y-63353736D01*
X136467187Y-63037572D01*
X136596314Y-62802996D01*
X136966426Y-62291259D01*
X137419929Y-61888160D01*
X137998670Y-61553140D01*
X138213045Y-61457154D01*
X138937467Y-61219696D01*
X139694146Y-61088407D01*
X140449876Y-61062816D01*
X141171447Y-61142449D01*
X141825651Y-61326833D01*
X142379280Y-61615497D01*
X142718329Y-61917442D01*
X143078053Y-62398461D01*
X143395823Y-63000320D01*
X143658512Y-63697636D01*
X143852993Y-64465028D01*
X143994468Y-65185066D01*
X144478732Y-65185066D01*
X144879827Y-65217834D01*
X145303631Y-65365086D01*
X145626559Y-65639768D01*
X145864413Y-66051765D01*
X145876989Y-66088246D01*
X145923495Y-66318826D01*
X145970140Y-66681301D01*
X146015210Y-67146337D01*
X146056991Y-67684603D01*
X146093766Y-68266767D01*
X146123822Y-68863497D01*
X146145444Y-69445461D01*
X146154258Y-69858666D01*
X146156917Y-69983327D01*
G37*
%TD*%
M02*
