%TF.GenerationSoftware,KiCad,Pcbnew,8.0.6*%
%TF.CreationDate,2024-11-10T12:55:49-08:00*%
%TF.ProjectId,stm32-can-do,73746d33-322d-4636-916e-2d646f2e6b69,v0.1*%
%TF.SameCoordinates,Original*%
%TF.FileFunction,Legend,Top*%
%TF.FilePolarity,Positive*%
%FSLAX46Y46*%
G04 Gerber Fmt 4.6, Leading zero omitted, Abs format (unit mm)*
G04 Created by KiCad (PCBNEW 8.0.6) date 2024-11-10 12:55:49*
%MOMM*%
%LPD*%
G01*
G04 APERTURE LIST*
%ADD10C,0.200000*%
%ADD11C,0.153000*%
%ADD12C,0.120000*%
%ADD13C,0.152400*%
G04 APERTURE END LIST*
D10*
X161970863Y-85081861D02*
X162149435Y-85141385D01*
X162149435Y-85141385D02*
X162208958Y-85200909D01*
X162208958Y-85200909D02*
X162268482Y-85319957D01*
X162268482Y-85319957D02*
X162268482Y-85498528D01*
X162268482Y-85498528D02*
X162208958Y-85617576D01*
X162208958Y-85617576D02*
X162149435Y-85677100D01*
X162149435Y-85677100D02*
X162030387Y-85736623D01*
X162030387Y-85736623D02*
X161554197Y-85736623D01*
X161554197Y-85736623D02*
X161554197Y-84486623D01*
X161554197Y-84486623D02*
X161970863Y-84486623D01*
X161970863Y-84486623D02*
X162089911Y-84546147D01*
X162089911Y-84546147D02*
X162149435Y-84605671D01*
X162149435Y-84605671D02*
X162208958Y-84724719D01*
X162208958Y-84724719D02*
X162208958Y-84843766D01*
X162208958Y-84843766D02*
X162149435Y-84962814D01*
X162149435Y-84962814D02*
X162089911Y-85022338D01*
X162089911Y-85022338D02*
X161970863Y-85081861D01*
X161970863Y-85081861D02*
X161554197Y-85081861D01*
X163458958Y-85736623D02*
X162744673Y-85736623D01*
X163101816Y-85736623D02*
X163101816Y-84486623D01*
X163101816Y-84486623D02*
X162982768Y-84665195D01*
X162982768Y-84665195D02*
X162863720Y-84784242D01*
X162863720Y-84784242D02*
X162744673Y-84843766D01*
X163875625Y-84486623D02*
X164649434Y-84486623D01*
X164649434Y-84486623D02*
X164232768Y-84962814D01*
X164232768Y-84962814D02*
X164411339Y-84962814D01*
X164411339Y-84962814D02*
X164530387Y-85022338D01*
X164530387Y-85022338D02*
X164589911Y-85081861D01*
X164589911Y-85081861D02*
X164649434Y-85200909D01*
X164649434Y-85200909D02*
X164649434Y-85498528D01*
X164649434Y-85498528D02*
X164589911Y-85617576D01*
X164589911Y-85617576D02*
X164530387Y-85677100D01*
X164530387Y-85677100D02*
X164411339Y-85736623D01*
X164411339Y-85736623D02*
X164054196Y-85736623D01*
X164054196Y-85736623D02*
X163935149Y-85677100D01*
X163935149Y-85677100D02*
X163875625Y-85617576D01*
X124019673Y-62579480D02*
X124614911Y-62579480D01*
X123900625Y-62936623D02*
X124317292Y-61686623D01*
X124317292Y-61686623D02*
X124733958Y-62936623D01*
X125805387Y-62936623D02*
X125091102Y-62936623D01*
X125448245Y-62936623D02*
X125448245Y-61686623D01*
X125448245Y-61686623D02*
X125329197Y-61865195D01*
X125329197Y-61865195D02*
X125210149Y-61984242D01*
X125210149Y-61984242D02*
X125091102Y-62043766D01*
X130343482Y-55080146D02*
X130283958Y-55139670D01*
X130283958Y-55139670D02*
X130105387Y-55199193D01*
X130105387Y-55199193D02*
X129986339Y-55199193D01*
X129986339Y-55199193D02*
X129807768Y-55139670D01*
X129807768Y-55139670D02*
X129688720Y-55020622D01*
X129688720Y-55020622D02*
X129629197Y-54901574D01*
X129629197Y-54901574D02*
X129569673Y-54663479D01*
X129569673Y-54663479D02*
X129569673Y-54484908D01*
X129569673Y-54484908D02*
X129629197Y-54246812D01*
X129629197Y-54246812D02*
X129688720Y-54127765D01*
X129688720Y-54127765D02*
X129807768Y-54008717D01*
X129807768Y-54008717D02*
X129986339Y-53949193D01*
X129986339Y-53949193D02*
X130105387Y-53949193D01*
X130105387Y-53949193D02*
X130283958Y-54008717D01*
X130283958Y-54008717D02*
X130343482Y-54068241D01*
X130819673Y-54842050D02*
X131414911Y-54842050D01*
X130700625Y-55199193D02*
X131117292Y-53949193D01*
X131117292Y-53949193D02*
X131533958Y-55199193D01*
X131950626Y-55199193D02*
X131950626Y-53949193D01*
X131950626Y-53949193D02*
X132664911Y-55199193D01*
X132664911Y-55199193D02*
X132664911Y-53949193D01*
X130283958Y-57211623D02*
X129569673Y-57211623D01*
X129926816Y-57211623D02*
X129926816Y-55961623D01*
X129926816Y-55961623D02*
X129807768Y-56140195D01*
X129807768Y-56140195D02*
X129688720Y-56259242D01*
X129688720Y-56259242D02*
X129569673Y-56318766D01*
X130760149Y-56080671D02*
X130819673Y-56021147D01*
X130819673Y-56021147D02*
X130938720Y-55961623D01*
X130938720Y-55961623D02*
X131236339Y-55961623D01*
X131236339Y-55961623D02*
X131355387Y-56021147D01*
X131355387Y-56021147D02*
X131414911Y-56080671D01*
X131414911Y-56080671D02*
X131474434Y-56199719D01*
X131474434Y-56199719D02*
X131474434Y-56318766D01*
X131474434Y-56318766D02*
X131414911Y-56497338D01*
X131414911Y-56497338D02*
X130700625Y-57211623D01*
X130700625Y-57211623D02*
X131474434Y-57211623D01*
X132248244Y-55961623D02*
X132367291Y-55961623D01*
X132367291Y-55961623D02*
X132486339Y-56021147D01*
X132486339Y-56021147D02*
X132545863Y-56080671D01*
X132545863Y-56080671D02*
X132605387Y-56199719D01*
X132605387Y-56199719D02*
X132664910Y-56437814D01*
X132664910Y-56437814D02*
X132664910Y-56735433D01*
X132664910Y-56735433D02*
X132605387Y-56973528D01*
X132605387Y-56973528D02*
X132545863Y-57092576D01*
X132545863Y-57092576D02*
X132486339Y-57152100D01*
X132486339Y-57152100D02*
X132367291Y-57211623D01*
X132367291Y-57211623D02*
X132248244Y-57211623D01*
X132248244Y-57211623D02*
X132129196Y-57152100D01*
X132129196Y-57152100D02*
X132069672Y-57092576D01*
X132069672Y-57092576D02*
X132010149Y-56973528D01*
X132010149Y-56973528D02*
X131950625Y-56735433D01*
X131950625Y-56735433D02*
X131950625Y-56437814D01*
X131950625Y-56437814D02*
X132010149Y-56199719D01*
X132010149Y-56199719D02*
X132069672Y-56080671D01*
X132069672Y-56080671D02*
X132129196Y-56021147D01*
X132129196Y-56021147D02*
X132248244Y-55961623D01*
X124520863Y-87631861D02*
X124699435Y-87691385D01*
X124699435Y-87691385D02*
X124758958Y-87750909D01*
X124758958Y-87750909D02*
X124818482Y-87869957D01*
X124818482Y-87869957D02*
X124818482Y-88048528D01*
X124818482Y-88048528D02*
X124758958Y-88167576D01*
X124758958Y-88167576D02*
X124699435Y-88227100D01*
X124699435Y-88227100D02*
X124580387Y-88286623D01*
X124580387Y-88286623D02*
X124104197Y-88286623D01*
X124104197Y-88286623D02*
X124104197Y-87036623D01*
X124104197Y-87036623D02*
X124520863Y-87036623D01*
X124520863Y-87036623D02*
X124639911Y-87096147D01*
X124639911Y-87096147D02*
X124699435Y-87155671D01*
X124699435Y-87155671D02*
X124758958Y-87274719D01*
X124758958Y-87274719D02*
X124758958Y-87393766D01*
X124758958Y-87393766D02*
X124699435Y-87512814D01*
X124699435Y-87512814D02*
X124639911Y-87572338D01*
X124639911Y-87572338D02*
X124520863Y-87631861D01*
X124520863Y-87631861D02*
X124104197Y-87631861D01*
X126008958Y-88286623D02*
X125294673Y-88286623D01*
X125651816Y-88286623D02*
X125651816Y-87036623D01*
X125651816Y-87036623D02*
X125532768Y-87215195D01*
X125532768Y-87215195D02*
X125413720Y-87334242D01*
X125413720Y-87334242D02*
X125294673Y-87393766D01*
X127199434Y-88286623D02*
X126485149Y-88286623D01*
X126842292Y-88286623D02*
X126842292Y-87036623D01*
X126842292Y-87036623D02*
X126723244Y-87215195D01*
X126723244Y-87215195D02*
X126604196Y-87334242D01*
X126604196Y-87334242D02*
X126485149Y-87393766D01*
X129533958Y-49146147D02*
X129414911Y-49086623D01*
X129414911Y-49086623D02*
X129236339Y-49086623D01*
X129236339Y-49086623D02*
X129057768Y-49146147D01*
X129057768Y-49146147D02*
X128938720Y-49265195D01*
X128938720Y-49265195D02*
X128879197Y-49384242D01*
X128879197Y-49384242D02*
X128819673Y-49622338D01*
X128819673Y-49622338D02*
X128819673Y-49800909D01*
X128819673Y-49800909D02*
X128879197Y-50039004D01*
X128879197Y-50039004D02*
X128938720Y-50158052D01*
X128938720Y-50158052D02*
X129057768Y-50277100D01*
X129057768Y-50277100D02*
X129236339Y-50336623D01*
X129236339Y-50336623D02*
X129355387Y-50336623D01*
X129355387Y-50336623D02*
X129533958Y-50277100D01*
X129533958Y-50277100D02*
X129593482Y-50217576D01*
X129593482Y-50217576D02*
X129593482Y-49800909D01*
X129593482Y-49800909D02*
X129355387Y-49800909D01*
X130129197Y-50336623D02*
X130129197Y-49086623D01*
X130129197Y-49086623D02*
X130843482Y-50336623D01*
X130843482Y-50336623D02*
X130843482Y-49086623D01*
X131438721Y-50336623D02*
X131438721Y-49086623D01*
X131438721Y-49086623D02*
X131736340Y-49086623D01*
X131736340Y-49086623D02*
X131914911Y-49146147D01*
X131914911Y-49146147D02*
X132033959Y-49265195D01*
X132033959Y-49265195D02*
X132093482Y-49384242D01*
X132093482Y-49384242D02*
X132153006Y-49622338D01*
X132153006Y-49622338D02*
X132153006Y-49800909D01*
X132153006Y-49800909D02*
X132093482Y-50039004D01*
X132093482Y-50039004D02*
X132033959Y-50158052D01*
X132033959Y-50158052D02*
X131914911Y-50277100D01*
X131914911Y-50277100D02*
X131736340Y-50336623D01*
X131736340Y-50336623D02*
X131438721Y-50336623D01*
X161408958Y-48846147D02*
X161289911Y-48786623D01*
X161289911Y-48786623D02*
X161111339Y-48786623D01*
X161111339Y-48786623D02*
X160932768Y-48846147D01*
X160932768Y-48846147D02*
X160813720Y-48965195D01*
X160813720Y-48965195D02*
X160754197Y-49084242D01*
X160754197Y-49084242D02*
X160694673Y-49322338D01*
X160694673Y-49322338D02*
X160694673Y-49500909D01*
X160694673Y-49500909D02*
X160754197Y-49739004D01*
X160754197Y-49739004D02*
X160813720Y-49858052D01*
X160813720Y-49858052D02*
X160932768Y-49977100D01*
X160932768Y-49977100D02*
X161111339Y-50036623D01*
X161111339Y-50036623D02*
X161230387Y-50036623D01*
X161230387Y-50036623D02*
X161408958Y-49977100D01*
X161408958Y-49977100D02*
X161468482Y-49917576D01*
X161468482Y-49917576D02*
X161468482Y-49500909D01*
X161468482Y-49500909D02*
X161230387Y-49500909D01*
X162004197Y-50036623D02*
X162004197Y-48786623D01*
X162004197Y-48786623D02*
X162718482Y-50036623D01*
X162718482Y-50036623D02*
X162718482Y-48786623D01*
X163313721Y-50036623D02*
X163313721Y-48786623D01*
X163313721Y-48786623D02*
X163611340Y-48786623D01*
X163611340Y-48786623D02*
X163789911Y-48846147D01*
X163789911Y-48846147D02*
X163908959Y-48965195D01*
X163908959Y-48965195D02*
X163968482Y-49084242D01*
X163968482Y-49084242D02*
X164028006Y-49322338D01*
X164028006Y-49322338D02*
X164028006Y-49500909D01*
X164028006Y-49500909D02*
X163968482Y-49739004D01*
X163968482Y-49739004D02*
X163908959Y-49858052D01*
X163908959Y-49858052D02*
X163789911Y-49977100D01*
X163789911Y-49977100D02*
X163611340Y-50036623D01*
X163611340Y-50036623D02*
X163313721Y-50036623D01*
X124169673Y-77904480D02*
X124764911Y-77904480D01*
X124050625Y-78261623D02*
X124467292Y-77011623D01*
X124467292Y-77011623D02*
X124883958Y-78261623D01*
X125181578Y-77011623D02*
X126014911Y-77011623D01*
X126014911Y-77011623D02*
X125479197Y-78261623D01*
X163941935Y-102013623D02*
X163346697Y-102013623D01*
X163346697Y-102013623D02*
X163287173Y-102608861D01*
X163287173Y-102608861D02*
X163346697Y-102549338D01*
X163346697Y-102549338D02*
X163465744Y-102489814D01*
X163465744Y-102489814D02*
X163763363Y-102489814D01*
X163763363Y-102489814D02*
X163882411Y-102549338D01*
X163882411Y-102549338D02*
X163941935Y-102608861D01*
X163941935Y-102608861D02*
X164001458Y-102727909D01*
X164001458Y-102727909D02*
X164001458Y-103025528D01*
X164001458Y-103025528D02*
X163941935Y-103144576D01*
X163941935Y-103144576D02*
X163882411Y-103204100D01*
X163882411Y-103204100D02*
X163763363Y-103263623D01*
X163763363Y-103263623D02*
X163465744Y-103263623D01*
X163465744Y-103263623D02*
X163346697Y-103204100D01*
X163346697Y-103204100D02*
X163287173Y-103144576D01*
X164358601Y-102013623D02*
X164775268Y-103263623D01*
X164775268Y-103263623D02*
X165191934Y-102013623D01*
X161995863Y-87581861D02*
X162174435Y-87641385D01*
X162174435Y-87641385D02*
X162233958Y-87700909D01*
X162233958Y-87700909D02*
X162293482Y-87819957D01*
X162293482Y-87819957D02*
X162293482Y-87998528D01*
X162293482Y-87998528D02*
X162233958Y-88117576D01*
X162233958Y-88117576D02*
X162174435Y-88177100D01*
X162174435Y-88177100D02*
X162055387Y-88236623D01*
X162055387Y-88236623D02*
X161579197Y-88236623D01*
X161579197Y-88236623D02*
X161579197Y-86986623D01*
X161579197Y-86986623D02*
X161995863Y-86986623D01*
X161995863Y-86986623D02*
X162114911Y-87046147D01*
X162114911Y-87046147D02*
X162174435Y-87105671D01*
X162174435Y-87105671D02*
X162233958Y-87224719D01*
X162233958Y-87224719D02*
X162233958Y-87343766D01*
X162233958Y-87343766D02*
X162174435Y-87462814D01*
X162174435Y-87462814D02*
X162114911Y-87522338D01*
X162114911Y-87522338D02*
X161995863Y-87581861D01*
X161995863Y-87581861D02*
X161579197Y-87581861D01*
X163483958Y-88236623D02*
X162769673Y-88236623D01*
X163126816Y-88236623D02*
X163126816Y-86986623D01*
X163126816Y-86986623D02*
X163007768Y-87165195D01*
X163007768Y-87165195D02*
X162888720Y-87284242D01*
X162888720Y-87284242D02*
X162769673Y-87343766D01*
X163960149Y-87105671D02*
X164019673Y-87046147D01*
X164019673Y-87046147D02*
X164138720Y-86986623D01*
X164138720Y-86986623D02*
X164436339Y-86986623D01*
X164436339Y-86986623D02*
X164555387Y-87046147D01*
X164555387Y-87046147D02*
X164614911Y-87105671D01*
X164614911Y-87105671D02*
X164674434Y-87224719D01*
X164674434Y-87224719D02*
X164674434Y-87343766D01*
X164674434Y-87343766D02*
X164614911Y-87522338D01*
X164614911Y-87522338D02*
X163900625Y-88236623D01*
X163900625Y-88236623D02*
X164674434Y-88236623D01*
X138579197Y-76511623D02*
X138579197Y-75261623D01*
X138579197Y-75261623D02*
X139055387Y-75261623D01*
X139055387Y-75261623D02*
X139174435Y-75321147D01*
X139174435Y-75321147D02*
X139233958Y-75380671D01*
X139233958Y-75380671D02*
X139293482Y-75499719D01*
X139293482Y-75499719D02*
X139293482Y-75678290D01*
X139293482Y-75678290D02*
X139233958Y-75797338D01*
X139233958Y-75797338D02*
X139174435Y-75856861D01*
X139174435Y-75856861D02*
X139055387Y-75916385D01*
X139055387Y-75916385D02*
X138579197Y-75916385D01*
X140543482Y-76392576D02*
X140483958Y-76452100D01*
X140483958Y-76452100D02*
X140305387Y-76511623D01*
X140305387Y-76511623D02*
X140186339Y-76511623D01*
X140186339Y-76511623D02*
X140007768Y-76452100D01*
X140007768Y-76452100D02*
X139888720Y-76333052D01*
X139888720Y-76333052D02*
X139829197Y-76214004D01*
X139829197Y-76214004D02*
X139769673Y-75975909D01*
X139769673Y-75975909D02*
X139769673Y-75797338D01*
X139769673Y-75797338D02*
X139829197Y-75559242D01*
X139829197Y-75559242D02*
X139888720Y-75440195D01*
X139888720Y-75440195D02*
X140007768Y-75321147D01*
X140007768Y-75321147D02*
X140186339Y-75261623D01*
X140186339Y-75261623D02*
X140305387Y-75261623D01*
X140305387Y-75261623D02*
X140483958Y-75321147D01*
X140483958Y-75321147D02*
X140543482Y-75380671D01*
X141733958Y-76511623D02*
X141019673Y-76511623D01*
X141376816Y-76511623D02*
X141376816Y-75261623D01*
X141376816Y-75261623D02*
X141257768Y-75440195D01*
X141257768Y-75440195D02*
X141138720Y-75559242D01*
X141138720Y-75559242D02*
X141019673Y-75618766D01*
X142150625Y-75261623D02*
X142924434Y-75261623D01*
X142924434Y-75261623D02*
X142507768Y-75737814D01*
X142507768Y-75737814D02*
X142686339Y-75737814D01*
X142686339Y-75737814D02*
X142805387Y-75797338D01*
X142805387Y-75797338D02*
X142864911Y-75856861D01*
X142864911Y-75856861D02*
X142924434Y-75975909D01*
X142924434Y-75975909D02*
X142924434Y-76273528D01*
X142924434Y-76273528D02*
X142864911Y-76392576D01*
X142864911Y-76392576D02*
X142805387Y-76452100D01*
X142805387Y-76452100D02*
X142686339Y-76511623D01*
X142686339Y-76511623D02*
X142329196Y-76511623D01*
X142329196Y-76511623D02*
X142210149Y-76452100D01*
X142210149Y-76452100D02*
X142150625Y-76392576D01*
X124520863Y-85206861D02*
X124699435Y-85266385D01*
X124699435Y-85266385D02*
X124758958Y-85325909D01*
X124758958Y-85325909D02*
X124818482Y-85444957D01*
X124818482Y-85444957D02*
X124818482Y-85623528D01*
X124818482Y-85623528D02*
X124758958Y-85742576D01*
X124758958Y-85742576D02*
X124699435Y-85802100D01*
X124699435Y-85802100D02*
X124580387Y-85861623D01*
X124580387Y-85861623D02*
X124104197Y-85861623D01*
X124104197Y-85861623D02*
X124104197Y-84611623D01*
X124104197Y-84611623D02*
X124520863Y-84611623D01*
X124520863Y-84611623D02*
X124639911Y-84671147D01*
X124639911Y-84671147D02*
X124699435Y-84730671D01*
X124699435Y-84730671D02*
X124758958Y-84849719D01*
X124758958Y-84849719D02*
X124758958Y-84968766D01*
X124758958Y-84968766D02*
X124699435Y-85087814D01*
X124699435Y-85087814D02*
X124639911Y-85147338D01*
X124639911Y-85147338D02*
X124520863Y-85206861D01*
X124520863Y-85206861D02*
X124104197Y-85206861D01*
X126008958Y-85861623D02*
X125294673Y-85861623D01*
X125651816Y-85861623D02*
X125651816Y-84611623D01*
X125651816Y-84611623D02*
X125532768Y-84790195D01*
X125532768Y-84790195D02*
X125413720Y-84909242D01*
X125413720Y-84909242D02*
X125294673Y-84968766D01*
X126782768Y-84611623D02*
X126901815Y-84611623D01*
X126901815Y-84611623D02*
X127020863Y-84671147D01*
X127020863Y-84671147D02*
X127080387Y-84730671D01*
X127080387Y-84730671D02*
X127139911Y-84849719D01*
X127139911Y-84849719D02*
X127199434Y-85087814D01*
X127199434Y-85087814D02*
X127199434Y-85385433D01*
X127199434Y-85385433D02*
X127139911Y-85623528D01*
X127139911Y-85623528D02*
X127080387Y-85742576D01*
X127080387Y-85742576D02*
X127020863Y-85802100D01*
X127020863Y-85802100D02*
X126901815Y-85861623D01*
X126901815Y-85861623D02*
X126782768Y-85861623D01*
X126782768Y-85861623D02*
X126663720Y-85802100D01*
X126663720Y-85802100D02*
X126604196Y-85742576D01*
X126604196Y-85742576D02*
X126544673Y-85623528D01*
X126544673Y-85623528D02*
X126485149Y-85385433D01*
X126485149Y-85385433D02*
X126485149Y-85087814D01*
X126485149Y-85087814D02*
X126544673Y-84849719D01*
X126544673Y-84849719D02*
X126604196Y-84730671D01*
X126604196Y-84730671D02*
X126663720Y-84671147D01*
X126663720Y-84671147D02*
X126782768Y-84611623D01*
X161344673Y-72654480D02*
X161939911Y-72654480D01*
X161225625Y-73011623D02*
X161642292Y-71761623D01*
X161642292Y-71761623D02*
X162058958Y-73011623D01*
X163130387Y-73011623D02*
X162416102Y-73011623D01*
X162773245Y-73011623D02*
X162773245Y-71761623D01*
X162773245Y-71761623D02*
X162654197Y-71940195D01*
X162654197Y-71940195D02*
X162535149Y-72059242D01*
X162535149Y-72059242D02*
X162416102Y-72118766D01*
X163904197Y-71761623D02*
X164023244Y-71761623D01*
X164023244Y-71761623D02*
X164142292Y-71821147D01*
X164142292Y-71821147D02*
X164201816Y-71880671D01*
X164201816Y-71880671D02*
X164261340Y-71999719D01*
X164261340Y-71999719D02*
X164320863Y-72237814D01*
X164320863Y-72237814D02*
X164320863Y-72535433D01*
X164320863Y-72535433D02*
X164261340Y-72773528D01*
X164261340Y-72773528D02*
X164201816Y-72892576D01*
X164201816Y-72892576D02*
X164142292Y-72952100D01*
X164142292Y-72952100D02*
X164023244Y-73011623D01*
X164023244Y-73011623D02*
X163904197Y-73011623D01*
X163904197Y-73011623D02*
X163785149Y-72952100D01*
X163785149Y-72952100D02*
X163725625Y-72892576D01*
X163725625Y-72892576D02*
X163666102Y-72773528D01*
X163666102Y-72773528D02*
X163606578Y-72535433D01*
X163606578Y-72535433D02*
X163606578Y-72237814D01*
X163606578Y-72237814D02*
X163666102Y-71999719D01*
X163666102Y-71999719D02*
X163725625Y-71880671D01*
X163725625Y-71880671D02*
X163785149Y-71821147D01*
X163785149Y-71821147D02*
X163904197Y-71761623D01*
X162974435Y-56111623D02*
X162379197Y-56111623D01*
X162379197Y-56111623D02*
X162319673Y-56706861D01*
X162319673Y-56706861D02*
X162379197Y-56647338D01*
X162379197Y-56647338D02*
X162498244Y-56587814D01*
X162498244Y-56587814D02*
X162795863Y-56587814D01*
X162795863Y-56587814D02*
X162914911Y-56647338D01*
X162914911Y-56647338D02*
X162974435Y-56706861D01*
X162974435Y-56706861D02*
X163033958Y-56825909D01*
X163033958Y-56825909D02*
X163033958Y-57123528D01*
X163033958Y-57123528D02*
X162974435Y-57242576D01*
X162974435Y-57242576D02*
X162914911Y-57302100D01*
X162914911Y-57302100D02*
X162795863Y-57361623D01*
X162795863Y-57361623D02*
X162498244Y-57361623D01*
X162498244Y-57361623D02*
X162379197Y-57302100D01*
X162379197Y-57302100D02*
X162319673Y-57242576D01*
X163391101Y-56111623D02*
X163807768Y-57361623D01*
X163807768Y-57361623D02*
X164224434Y-56111623D01*
X123037173Y-116857671D02*
X123096697Y-116798147D01*
X123096697Y-116798147D02*
X123215744Y-116738623D01*
X123215744Y-116738623D02*
X123513363Y-116738623D01*
X123513363Y-116738623D02*
X123632411Y-116798147D01*
X123632411Y-116798147D02*
X123691935Y-116857671D01*
X123691935Y-116857671D02*
X123751458Y-116976719D01*
X123751458Y-116976719D02*
X123751458Y-117095766D01*
X123751458Y-117095766D02*
X123691935Y-117274338D01*
X123691935Y-117274338D02*
X122977649Y-117988623D01*
X122977649Y-117988623D02*
X123751458Y-117988623D01*
X124822887Y-117155290D02*
X124822887Y-117988623D01*
X124525268Y-116679100D02*
X124227649Y-117571957D01*
X124227649Y-117571957D02*
X125001458Y-117571957D01*
X125299077Y-116738623D02*
X125715744Y-117988623D01*
X125715744Y-117988623D02*
X126132410Y-116738623D01*
X146369673Y-96704620D02*
X146964911Y-96704620D01*
X146250625Y-97061763D02*
X146667292Y-95811763D01*
X146667292Y-95811763D02*
X147083958Y-97061763D01*
X147500626Y-97061763D02*
X147500626Y-95811763D01*
X147500626Y-96287954D02*
X147619673Y-96228430D01*
X147619673Y-96228430D02*
X147857768Y-96228430D01*
X147857768Y-96228430D02*
X147976816Y-96287954D01*
X147976816Y-96287954D02*
X148036340Y-96347478D01*
X148036340Y-96347478D02*
X148095864Y-96466525D01*
X148095864Y-96466525D02*
X148095864Y-96823668D01*
X148095864Y-96823668D02*
X148036340Y-96942716D01*
X148036340Y-96942716D02*
X147976816Y-97002240D01*
X147976816Y-97002240D02*
X147857768Y-97061763D01*
X147857768Y-97061763D02*
X147619673Y-97061763D01*
X147619673Y-97061763D02*
X147500626Y-97002240D01*
X149167292Y-97061763D02*
X149167292Y-96407001D01*
X149167292Y-96407001D02*
X149107768Y-96287954D01*
X149107768Y-96287954D02*
X148988720Y-96228430D01*
X148988720Y-96228430D02*
X148750625Y-96228430D01*
X148750625Y-96228430D02*
X148631578Y-96287954D01*
X149167292Y-97002240D02*
X149048244Y-97061763D01*
X149048244Y-97061763D02*
X148750625Y-97061763D01*
X148750625Y-97061763D02*
X148631578Y-97002240D01*
X148631578Y-97002240D02*
X148572054Y-96883192D01*
X148572054Y-96883192D02*
X148572054Y-96764144D01*
X148572054Y-96764144D02*
X148631578Y-96645097D01*
X148631578Y-96645097D02*
X148750625Y-96585573D01*
X148750625Y-96585573D02*
X149048244Y-96585573D01*
X149048244Y-96585573D02*
X149167292Y-96526049D01*
X149762530Y-96228430D02*
X149762530Y-97061763D01*
X149762530Y-96347478D02*
X149822053Y-96287954D01*
X149822053Y-96287954D02*
X149941101Y-96228430D01*
X149941101Y-96228430D02*
X150119672Y-96228430D01*
X150119672Y-96228430D02*
X150238720Y-96287954D01*
X150238720Y-96287954D02*
X150298244Y-96407001D01*
X150298244Y-96407001D02*
X150298244Y-97061763D01*
X151429196Y-97061763D02*
X151429196Y-95811763D01*
X151429196Y-97002240D02*
X151310148Y-97061763D01*
X151310148Y-97061763D02*
X151072053Y-97061763D01*
X151072053Y-97061763D02*
X150953005Y-97002240D01*
X150953005Y-97002240D02*
X150893482Y-96942716D01*
X150893482Y-96942716D02*
X150833958Y-96823668D01*
X150833958Y-96823668D02*
X150833958Y-96466525D01*
X150833958Y-96466525D02*
X150893482Y-96347478D01*
X150893482Y-96347478D02*
X150953005Y-96287954D01*
X150953005Y-96287954D02*
X151072053Y-96228430D01*
X151072053Y-96228430D02*
X151310148Y-96228430D01*
X151310148Y-96228430D02*
X151429196Y-96287954D01*
X152203005Y-97061763D02*
X152083957Y-97002240D01*
X152083957Y-97002240D02*
X152024434Y-96942716D01*
X152024434Y-96942716D02*
X151964910Y-96823668D01*
X151964910Y-96823668D02*
X151964910Y-96466525D01*
X151964910Y-96466525D02*
X152024434Y-96347478D01*
X152024434Y-96347478D02*
X152083957Y-96287954D01*
X152083957Y-96287954D02*
X152203005Y-96228430D01*
X152203005Y-96228430D02*
X152381576Y-96228430D01*
X152381576Y-96228430D02*
X152500624Y-96287954D01*
X152500624Y-96287954D02*
X152560148Y-96347478D01*
X152560148Y-96347478D02*
X152619672Y-96466525D01*
X152619672Y-96466525D02*
X152619672Y-96823668D01*
X152619672Y-96823668D02*
X152560148Y-96942716D01*
X152560148Y-96942716D02*
X152500624Y-97002240D01*
X152500624Y-97002240D02*
X152381576Y-97061763D01*
X152381576Y-97061763D02*
X152203005Y-97061763D01*
X153155386Y-96228430D02*
X153155386Y-97061763D01*
X153155386Y-96347478D02*
X153214909Y-96287954D01*
X153214909Y-96287954D02*
X153333957Y-96228430D01*
X153333957Y-96228430D02*
X153512528Y-96228430D01*
X153512528Y-96228430D02*
X153631576Y-96287954D01*
X153631576Y-96287954D02*
X153691100Y-96407001D01*
X153691100Y-96407001D02*
X153691100Y-97061763D01*
X155774433Y-97061763D02*
X155774433Y-96407001D01*
X155774433Y-96407001D02*
X155714909Y-96287954D01*
X155714909Y-96287954D02*
X155595861Y-96228430D01*
X155595861Y-96228430D02*
X155357766Y-96228430D01*
X155357766Y-96228430D02*
X155238719Y-96287954D01*
X155774433Y-97002240D02*
X155655385Y-97061763D01*
X155655385Y-97061763D02*
X155357766Y-97061763D01*
X155357766Y-97061763D02*
X155238719Y-97002240D01*
X155238719Y-97002240D02*
X155179195Y-96883192D01*
X155179195Y-96883192D02*
X155179195Y-96764144D01*
X155179195Y-96764144D02*
X155238719Y-96645097D01*
X155238719Y-96645097D02*
X155357766Y-96585573D01*
X155357766Y-96585573D02*
X155655385Y-96585573D01*
X155655385Y-96585573D02*
X155774433Y-96526049D01*
X156548242Y-97061763D02*
X156429194Y-97002240D01*
X156429194Y-97002240D02*
X156369671Y-96883192D01*
X156369671Y-96883192D02*
X156369671Y-95811763D01*
X157203004Y-97061763D02*
X157083956Y-97002240D01*
X157083956Y-97002240D02*
X157024433Y-96883192D01*
X157024433Y-96883192D02*
X157024433Y-95811763D01*
X158631576Y-97061763D02*
X158631576Y-95811763D01*
X159167290Y-97061763D02*
X159167290Y-96407001D01*
X159167290Y-96407001D02*
X159107766Y-96287954D01*
X159107766Y-96287954D02*
X158988718Y-96228430D01*
X158988718Y-96228430D02*
X158810147Y-96228430D01*
X158810147Y-96228430D02*
X158691099Y-96287954D01*
X158691099Y-96287954D02*
X158631576Y-96347478D01*
X159941099Y-97061763D02*
X159822051Y-97002240D01*
X159822051Y-97002240D02*
X159762528Y-96942716D01*
X159762528Y-96942716D02*
X159703004Y-96823668D01*
X159703004Y-96823668D02*
X159703004Y-96466525D01*
X159703004Y-96466525D02*
X159762528Y-96347478D01*
X159762528Y-96347478D02*
X159822051Y-96287954D01*
X159822051Y-96287954D02*
X159941099Y-96228430D01*
X159941099Y-96228430D02*
X160119670Y-96228430D01*
X160119670Y-96228430D02*
X160238718Y-96287954D01*
X160238718Y-96287954D02*
X160298242Y-96347478D01*
X160298242Y-96347478D02*
X160357766Y-96466525D01*
X160357766Y-96466525D02*
X160357766Y-96823668D01*
X160357766Y-96823668D02*
X160298242Y-96942716D01*
X160298242Y-96942716D02*
X160238718Y-97002240D01*
X160238718Y-97002240D02*
X160119670Y-97061763D01*
X160119670Y-97061763D02*
X159941099Y-97061763D01*
X160893480Y-96228430D02*
X160893480Y-97478430D01*
X160893480Y-96287954D02*
X161012527Y-96228430D01*
X161012527Y-96228430D02*
X161250622Y-96228430D01*
X161250622Y-96228430D02*
X161369670Y-96287954D01*
X161369670Y-96287954D02*
X161429194Y-96347478D01*
X161429194Y-96347478D02*
X161488718Y-96466525D01*
X161488718Y-96466525D02*
X161488718Y-96823668D01*
X161488718Y-96823668D02*
X161429194Y-96942716D01*
X161429194Y-96942716D02*
X161369670Y-97002240D01*
X161369670Y-97002240D02*
X161250622Y-97061763D01*
X161250622Y-97061763D02*
X161012527Y-97061763D01*
X161012527Y-97061763D02*
X160893480Y-97002240D01*
X162500622Y-97002240D02*
X162381574Y-97061763D01*
X162381574Y-97061763D02*
X162143479Y-97061763D01*
X162143479Y-97061763D02*
X162024432Y-97002240D01*
X162024432Y-97002240D02*
X161964908Y-96883192D01*
X161964908Y-96883192D02*
X161964908Y-96407001D01*
X161964908Y-96407001D02*
X162024432Y-96287954D01*
X162024432Y-96287954D02*
X162143479Y-96228430D01*
X162143479Y-96228430D02*
X162381574Y-96228430D01*
X162381574Y-96228430D02*
X162500622Y-96287954D01*
X162500622Y-96287954D02*
X162560146Y-96407001D01*
X162560146Y-96407001D02*
X162560146Y-96526049D01*
X162560146Y-96526049D02*
X161964908Y-96645097D01*
X146310149Y-98240860D02*
X146607768Y-99074193D01*
X146905387Y-98240860D02*
X146607768Y-99074193D01*
X146607768Y-99074193D02*
X146488720Y-99371812D01*
X146488720Y-99371812D02*
X146429197Y-99431336D01*
X146429197Y-99431336D02*
X146310149Y-99490860D01*
X147857768Y-99014670D02*
X147738720Y-99074193D01*
X147738720Y-99074193D02*
X147500625Y-99074193D01*
X147500625Y-99074193D02*
X147381578Y-99014670D01*
X147381578Y-99014670D02*
X147322054Y-98895622D01*
X147322054Y-98895622D02*
X147322054Y-98419431D01*
X147322054Y-98419431D02*
X147381578Y-98300384D01*
X147381578Y-98300384D02*
X147500625Y-98240860D01*
X147500625Y-98240860D02*
X147738720Y-98240860D01*
X147738720Y-98240860D02*
X147857768Y-98300384D01*
X147857768Y-98300384D02*
X147917292Y-98419431D01*
X147917292Y-98419431D02*
X147917292Y-98538479D01*
X147917292Y-98538479D02*
X147322054Y-98657527D01*
X149881578Y-99014670D02*
X149762530Y-99074193D01*
X149762530Y-99074193D02*
X149524435Y-99074193D01*
X149524435Y-99074193D02*
X149405388Y-99014670D01*
X149405388Y-99014670D02*
X149345864Y-98895622D01*
X149345864Y-98895622D02*
X149345864Y-98419431D01*
X149345864Y-98419431D02*
X149405388Y-98300384D01*
X149405388Y-98300384D02*
X149524435Y-98240860D01*
X149524435Y-98240860D02*
X149762530Y-98240860D01*
X149762530Y-98240860D02*
X149881578Y-98300384D01*
X149881578Y-98300384D02*
X149941102Y-98419431D01*
X149941102Y-98419431D02*
X149941102Y-98538479D01*
X149941102Y-98538479D02*
X149345864Y-98657527D01*
X150655388Y-99074193D02*
X150536340Y-99014670D01*
X150536340Y-99014670D02*
X150476817Y-98895622D01*
X150476817Y-98895622D02*
X150476817Y-97824193D01*
X151607769Y-99014670D02*
X151488721Y-99074193D01*
X151488721Y-99074193D02*
X151250626Y-99074193D01*
X151250626Y-99074193D02*
X151131579Y-99014670D01*
X151131579Y-99014670D02*
X151072055Y-98895622D01*
X151072055Y-98895622D02*
X151072055Y-98419431D01*
X151072055Y-98419431D02*
X151131579Y-98300384D01*
X151131579Y-98300384D02*
X151250626Y-98240860D01*
X151250626Y-98240860D02*
X151488721Y-98240860D01*
X151488721Y-98240860D02*
X151607769Y-98300384D01*
X151607769Y-98300384D02*
X151667293Y-98419431D01*
X151667293Y-98419431D02*
X151667293Y-98538479D01*
X151667293Y-98538479D02*
X151072055Y-98657527D01*
X152738722Y-99014670D02*
X152619674Y-99074193D01*
X152619674Y-99074193D02*
X152381579Y-99074193D01*
X152381579Y-99074193D02*
X152262531Y-99014670D01*
X152262531Y-99014670D02*
X152203008Y-98955146D01*
X152203008Y-98955146D02*
X152143484Y-98836098D01*
X152143484Y-98836098D02*
X152143484Y-98478955D01*
X152143484Y-98478955D02*
X152203008Y-98359908D01*
X152203008Y-98359908D02*
X152262531Y-98300384D01*
X152262531Y-98300384D02*
X152381579Y-98240860D01*
X152381579Y-98240860D02*
X152619674Y-98240860D01*
X152619674Y-98240860D02*
X152738722Y-98300384D01*
X153095865Y-98240860D02*
X153572056Y-98240860D01*
X153274437Y-97824193D02*
X153274437Y-98895622D01*
X153274437Y-98895622D02*
X153333960Y-99014670D01*
X153333960Y-99014670D02*
X153453008Y-99074193D01*
X153453008Y-99074193D02*
X153572056Y-99074193D01*
X153988723Y-99074193D02*
X153988723Y-98240860D01*
X153988723Y-98478955D02*
X154048246Y-98359908D01*
X154048246Y-98359908D02*
X154107770Y-98300384D01*
X154107770Y-98300384D02*
X154226818Y-98240860D01*
X154226818Y-98240860D02*
X154345865Y-98240860D01*
X154941104Y-99074193D02*
X154822056Y-99014670D01*
X154822056Y-99014670D02*
X154762533Y-98955146D01*
X154762533Y-98955146D02*
X154703009Y-98836098D01*
X154703009Y-98836098D02*
X154703009Y-98478955D01*
X154703009Y-98478955D02*
X154762533Y-98359908D01*
X154762533Y-98359908D02*
X154822056Y-98300384D01*
X154822056Y-98300384D02*
X154941104Y-98240860D01*
X154941104Y-98240860D02*
X155119675Y-98240860D01*
X155119675Y-98240860D02*
X155238723Y-98300384D01*
X155238723Y-98300384D02*
X155298247Y-98359908D01*
X155298247Y-98359908D02*
X155357771Y-98478955D01*
X155357771Y-98478955D02*
X155357771Y-98836098D01*
X155357771Y-98836098D02*
X155298247Y-98955146D01*
X155298247Y-98955146D02*
X155238723Y-99014670D01*
X155238723Y-99014670D02*
X155119675Y-99074193D01*
X155119675Y-99074193D02*
X154941104Y-99074193D01*
X155893485Y-98240860D02*
X155893485Y-99074193D01*
X155893485Y-98359908D02*
X155953008Y-98300384D01*
X155953008Y-98300384D02*
X156072056Y-98240860D01*
X156072056Y-98240860D02*
X156250627Y-98240860D01*
X156250627Y-98240860D02*
X156369675Y-98300384D01*
X156369675Y-98300384D02*
X156429199Y-98419431D01*
X156429199Y-98419431D02*
X156429199Y-99074193D01*
X156964913Y-99014670D02*
X157083960Y-99074193D01*
X157083960Y-99074193D02*
X157322056Y-99074193D01*
X157322056Y-99074193D02*
X157441103Y-99014670D01*
X157441103Y-99014670D02*
X157500627Y-98895622D01*
X157500627Y-98895622D02*
X157500627Y-98836098D01*
X157500627Y-98836098D02*
X157441103Y-98717050D01*
X157441103Y-98717050D02*
X157322056Y-98657527D01*
X157322056Y-98657527D02*
X157143484Y-98657527D01*
X157143484Y-98657527D02*
X157024437Y-98598003D01*
X157024437Y-98598003D02*
X156964913Y-98478955D01*
X156964913Y-98478955D02*
X156964913Y-98419431D01*
X156964913Y-98419431D02*
X157024437Y-98300384D01*
X157024437Y-98300384D02*
X157143484Y-98240860D01*
X157143484Y-98240860D02*
X157322056Y-98240860D01*
X157322056Y-98240860D02*
X157441103Y-98300384D01*
X158869675Y-98240860D02*
X159107770Y-99074193D01*
X159107770Y-99074193D02*
X159345865Y-98478955D01*
X159345865Y-98478955D02*
X159583961Y-99074193D01*
X159583961Y-99074193D02*
X159822056Y-98240860D01*
X160298247Y-99074193D02*
X160298247Y-97824193D01*
X160833961Y-99074193D02*
X160833961Y-98419431D01*
X160833961Y-98419431D02*
X160774437Y-98300384D01*
X160774437Y-98300384D02*
X160655389Y-98240860D01*
X160655389Y-98240860D02*
X160476818Y-98240860D01*
X160476818Y-98240860D02*
X160357770Y-98300384D01*
X160357770Y-98300384D02*
X160298247Y-98359908D01*
X161607770Y-99074193D02*
X161488722Y-99014670D01*
X161488722Y-99014670D02*
X161429199Y-98955146D01*
X161429199Y-98955146D02*
X161369675Y-98836098D01*
X161369675Y-98836098D02*
X161369675Y-98478955D01*
X161369675Y-98478955D02*
X161429199Y-98359908D01*
X161429199Y-98359908D02*
X161488722Y-98300384D01*
X161488722Y-98300384D02*
X161607770Y-98240860D01*
X161607770Y-98240860D02*
X161786341Y-98240860D01*
X161786341Y-98240860D02*
X161905389Y-98300384D01*
X161905389Y-98300384D02*
X161964913Y-98359908D01*
X161964913Y-98359908D02*
X162024437Y-98478955D01*
X162024437Y-98478955D02*
X162024437Y-98836098D01*
X162024437Y-98836098D02*
X161964913Y-98955146D01*
X161964913Y-98955146D02*
X161905389Y-99014670D01*
X161905389Y-99014670D02*
X161786341Y-99074193D01*
X161786341Y-99074193D02*
X161607770Y-99074193D01*
X146905387Y-101027100D02*
X146786339Y-101086623D01*
X146786339Y-101086623D02*
X146548244Y-101086623D01*
X146548244Y-101086623D02*
X146429197Y-101027100D01*
X146429197Y-101027100D02*
X146369673Y-100908052D01*
X146369673Y-100908052D02*
X146369673Y-100431861D01*
X146369673Y-100431861D02*
X146429197Y-100312814D01*
X146429197Y-100312814D02*
X146548244Y-100253290D01*
X146548244Y-100253290D02*
X146786339Y-100253290D01*
X146786339Y-100253290D02*
X146905387Y-100312814D01*
X146905387Y-100312814D02*
X146964911Y-100431861D01*
X146964911Y-100431861D02*
X146964911Y-100550909D01*
X146964911Y-100550909D02*
X146369673Y-100669957D01*
X147500626Y-100253290D02*
X147500626Y-101086623D01*
X147500626Y-100372338D02*
X147560149Y-100312814D01*
X147560149Y-100312814D02*
X147679197Y-100253290D01*
X147679197Y-100253290D02*
X147857768Y-100253290D01*
X147857768Y-100253290D02*
X147976816Y-100312814D01*
X147976816Y-100312814D02*
X148036340Y-100431861D01*
X148036340Y-100431861D02*
X148036340Y-101086623D01*
X148453006Y-100253290D02*
X148929197Y-100253290D01*
X148631578Y-99836623D02*
X148631578Y-100908052D01*
X148631578Y-100908052D02*
X148691101Y-101027100D01*
X148691101Y-101027100D02*
X148810149Y-101086623D01*
X148810149Y-101086623D02*
X148929197Y-101086623D01*
X149822054Y-101027100D02*
X149703006Y-101086623D01*
X149703006Y-101086623D02*
X149464911Y-101086623D01*
X149464911Y-101086623D02*
X149345864Y-101027100D01*
X149345864Y-101027100D02*
X149286340Y-100908052D01*
X149286340Y-100908052D02*
X149286340Y-100431861D01*
X149286340Y-100431861D02*
X149345864Y-100312814D01*
X149345864Y-100312814D02*
X149464911Y-100253290D01*
X149464911Y-100253290D02*
X149703006Y-100253290D01*
X149703006Y-100253290D02*
X149822054Y-100312814D01*
X149822054Y-100312814D02*
X149881578Y-100431861D01*
X149881578Y-100431861D02*
X149881578Y-100550909D01*
X149881578Y-100550909D02*
X149286340Y-100669957D01*
X150417293Y-101086623D02*
X150417293Y-100253290D01*
X150417293Y-100491385D02*
X150476816Y-100372338D01*
X150476816Y-100372338D02*
X150536340Y-100312814D01*
X150536340Y-100312814D02*
X150655388Y-100253290D01*
X150655388Y-100253290D02*
X150774435Y-100253290D01*
X152143484Y-101086623D02*
X152143484Y-99836623D01*
X152679198Y-101086623D02*
X152679198Y-100431861D01*
X152679198Y-100431861D02*
X152619674Y-100312814D01*
X152619674Y-100312814D02*
X152500626Y-100253290D01*
X152500626Y-100253290D02*
X152322055Y-100253290D01*
X152322055Y-100253290D02*
X152203007Y-100312814D01*
X152203007Y-100312814D02*
X152143484Y-100372338D01*
X153750626Y-101027100D02*
X153631578Y-101086623D01*
X153631578Y-101086623D02*
X153393483Y-101086623D01*
X153393483Y-101086623D02*
X153274436Y-101027100D01*
X153274436Y-101027100D02*
X153214912Y-100908052D01*
X153214912Y-100908052D02*
X153214912Y-100431861D01*
X153214912Y-100431861D02*
X153274436Y-100312814D01*
X153274436Y-100312814D02*
X153393483Y-100253290D01*
X153393483Y-100253290D02*
X153631578Y-100253290D01*
X153631578Y-100253290D02*
X153750626Y-100312814D01*
X153750626Y-100312814D02*
X153810150Y-100431861D01*
X153810150Y-100431861D02*
X153810150Y-100550909D01*
X153810150Y-100550909D02*
X153214912Y-100669957D01*
X154345865Y-101086623D02*
X154345865Y-100253290D01*
X154345865Y-100491385D02*
X154405388Y-100372338D01*
X154405388Y-100372338D02*
X154464912Y-100312814D01*
X154464912Y-100312814D02*
X154583960Y-100253290D01*
X154583960Y-100253290D02*
X154703007Y-100253290D01*
X155595865Y-101027100D02*
X155476817Y-101086623D01*
X155476817Y-101086623D02*
X155238722Y-101086623D01*
X155238722Y-101086623D02*
X155119675Y-101027100D01*
X155119675Y-101027100D02*
X155060151Y-100908052D01*
X155060151Y-100908052D02*
X155060151Y-100431861D01*
X155060151Y-100431861D02*
X155119675Y-100312814D01*
X155119675Y-100312814D02*
X155238722Y-100253290D01*
X155238722Y-100253290D02*
X155476817Y-100253290D01*
X155476817Y-100253290D02*
X155595865Y-100312814D01*
X155595865Y-100312814D02*
X155655389Y-100431861D01*
X155655389Y-100431861D02*
X155655389Y-100550909D01*
X155655389Y-100550909D02*
X155060151Y-100669957D01*
X146967292Y-70236623D02*
X147086339Y-70236623D01*
X147086339Y-70236623D02*
X147205387Y-70296147D01*
X147205387Y-70296147D02*
X147264911Y-70355671D01*
X147264911Y-70355671D02*
X147324435Y-70474719D01*
X147324435Y-70474719D02*
X147383958Y-70712814D01*
X147383958Y-70712814D02*
X147383958Y-71010433D01*
X147383958Y-71010433D02*
X147324435Y-71248528D01*
X147324435Y-71248528D02*
X147264911Y-71367576D01*
X147264911Y-71367576D02*
X147205387Y-71427100D01*
X147205387Y-71427100D02*
X147086339Y-71486623D01*
X147086339Y-71486623D02*
X146967292Y-71486623D01*
X146967292Y-71486623D02*
X146848244Y-71427100D01*
X146848244Y-71427100D02*
X146788720Y-71367576D01*
X146788720Y-71367576D02*
X146729197Y-71248528D01*
X146729197Y-71248528D02*
X146669673Y-71010433D01*
X146669673Y-71010433D02*
X146669673Y-70712814D01*
X146669673Y-70712814D02*
X146729197Y-70474719D01*
X146729197Y-70474719D02*
X146788720Y-70355671D01*
X146788720Y-70355671D02*
X146848244Y-70296147D01*
X146848244Y-70296147D02*
X146967292Y-70236623D01*
D11*
X152648276Y-56287877D02*
X153600657Y-56287877D01*
X153124466Y-56764067D02*
X153124466Y-55811686D01*
X130290776Y-114589877D02*
X131243157Y-114589877D01*
D10*
X136593482Y-74111623D02*
X136176816Y-73516385D01*
X135879197Y-74111623D02*
X135879197Y-72861623D01*
X135879197Y-72861623D02*
X136355387Y-72861623D01*
X136355387Y-72861623D02*
X136474435Y-72921147D01*
X136474435Y-72921147D02*
X136533958Y-72980671D01*
X136533958Y-72980671D02*
X136593482Y-73099719D01*
X136593482Y-73099719D02*
X136593482Y-73278290D01*
X136593482Y-73278290D02*
X136533958Y-73397338D01*
X136533958Y-73397338D02*
X136474435Y-73456861D01*
X136474435Y-73456861D02*
X136355387Y-73516385D01*
X136355387Y-73516385D02*
X135879197Y-73516385D01*
X137069673Y-74052100D02*
X137248244Y-74111623D01*
X137248244Y-74111623D02*
X137545863Y-74111623D01*
X137545863Y-74111623D02*
X137664911Y-74052100D01*
X137664911Y-74052100D02*
X137724435Y-73992576D01*
X137724435Y-73992576D02*
X137783958Y-73873528D01*
X137783958Y-73873528D02*
X137783958Y-73754480D01*
X137783958Y-73754480D02*
X137724435Y-73635433D01*
X137724435Y-73635433D02*
X137664911Y-73575909D01*
X137664911Y-73575909D02*
X137545863Y-73516385D01*
X137545863Y-73516385D02*
X137307768Y-73456861D01*
X137307768Y-73456861D02*
X137188720Y-73397338D01*
X137188720Y-73397338D02*
X137129197Y-73337814D01*
X137129197Y-73337814D02*
X137069673Y-73218766D01*
X137069673Y-73218766D02*
X137069673Y-73099719D01*
X137069673Y-73099719D02*
X137129197Y-72980671D01*
X137129197Y-72980671D02*
X137188720Y-72921147D01*
X137188720Y-72921147D02*
X137307768Y-72861623D01*
X137307768Y-72861623D02*
X137605387Y-72861623D01*
X137605387Y-72861623D02*
X137783958Y-72921147D01*
X138141101Y-72861623D02*
X138855387Y-72861623D01*
X138498244Y-74111623D02*
X138498244Y-72861623D01*
D11*
X139640776Y-116664877D02*
X140593157Y-116664877D01*
X140116966Y-117141067D02*
X140116966Y-116188686D01*
D10*
X148070863Y-68631861D02*
X148249435Y-68691385D01*
X148249435Y-68691385D02*
X148308958Y-68750909D01*
X148308958Y-68750909D02*
X148368482Y-68869957D01*
X148368482Y-68869957D02*
X148368482Y-69048528D01*
X148368482Y-69048528D02*
X148308958Y-69167576D01*
X148308958Y-69167576D02*
X148249435Y-69227100D01*
X148249435Y-69227100D02*
X148130387Y-69286623D01*
X148130387Y-69286623D02*
X147654197Y-69286623D01*
X147654197Y-69286623D02*
X147654197Y-68036623D01*
X147654197Y-68036623D02*
X148070863Y-68036623D01*
X148070863Y-68036623D02*
X148189911Y-68096147D01*
X148189911Y-68096147D02*
X148249435Y-68155671D01*
X148249435Y-68155671D02*
X148308958Y-68274719D01*
X148308958Y-68274719D02*
X148308958Y-68393766D01*
X148308958Y-68393766D02*
X148249435Y-68512814D01*
X148249435Y-68512814D02*
X148189911Y-68572338D01*
X148189911Y-68572338D02*
X148070863Y-68631861D01*
X148070863Y-68631861D02*
X147654197Y-68631861D01*
X149142292Y-68036623D02*
X149380387Y-68036623D01*
X149380387Y-68036623D02*
X149499435Y-68096147D01*
X149499435Y-68096147D02*
X149618482Y-68215195D01*
X149618482Y-68215195D02*
X149678006Y-68453290D01*
X149678006Y-68453290D02*
X149678006Y-68869957D01*
X149678006Y-68869957D02*
X149618482Y-69108052D01*
X149618482Y-69108052D02*
X149499435Y-69227100D01*
X149499435Y-69227100D02*
X149380387Y-69286623D01*
X149380387Y-69286623D02*
X149142292Y-69286623D01*
X149142292Y-69286623D02*
X149023244Y-69227100D01*
X149023244Y-69227100D02*
X148904197Y-69108052D01*
X148904197Y-69108052D02*
X148844673Y-68869957D01*
X148844673Y-68869957D02*
X148844673Y-68453290D01*
X148844673Y-68453290D02*
X148904197Y-68215195D01*
X148904197Y-68215195D02*
X149023244Y-68096147D01*
X149023244Y-68096147D02*
X149142292Y-68036623D01*
X150451816Y-68036623D02*
X150689911Y-68036623D01*
X150689911Y-68036623D02*
X150808959Y-68096147D01*
X150808959Y-68096147D02*
X150928006Y-68215195D01*
X150928006Y-68215195D02*
X150987530Y-68453290D01*
X150987530Y-68453290D02*
X150987530Y-68869957D01*
X150987530Y-68869957D02*
X150928006Y-69108052D01*
X150928006Y-69108052D02*
X150808959Y-69227100D01*
X150808959Y-69227100D02*
X150689911Y-69286623D01*
X150689911Y-69286623D02*
X150451816Y-69286623D01*
X150451816Y-69286623D02*
X150332768Y-69227100D01*
X150332768Y-69227100D02*
X150213721Y-69108052D01*
X150213721Y-69108052D02*
X150154197Y-68869957D01*
X150154197Y-68869957D02*
X150154197Y-68453290D01*
X150154197Y-68453290D02*
X150213721Y-68215195D01*
X150213721Y-68215195D02*
X150332768Y-68096147D01*
X150332768Y-68096147D02*
X150451816Y-68036623D01*
X151344673Y-68036623D02*
X152058959Y-68036623D01*
X151701816Y-69286623D02*
X151701816Y-68036623D01*
X152713721Y-68036623D02*
X152832768Y-68036623D01*
X152832768Y-68036623D02*
X152951816Y-68096147D01*
X152951816Y-68096147D02*
X153011340Y-68155671D01*
X153011340Y-68155671D02*
X153070864Y-68274719D01*
X153070864Y-68274719D02*
X153130387Y-68512814D01*
X153130387Y-68512814D02*
X153130387Y-68810433D01*
X153130387Y-68810433D02*
X153070864Y-69048528D01*
X153070864Y-69048528D02*
X153011340Y-69167576D01*
X153011340Y-69167576D02*
X152951816Y-69227100D01*
X152951816Y-69227100D02*
X152832768Y-69286623D01*
X152832768Y-69286623D02*
X152713721Y-69286623D01*
X152713721Y-69286623D02*
X152594673Y-69227100D01*
X152594673Y-69227100D02*
X152535149Y-69167576D01*
X152535149Y-69167576D02*
X152475626Y-69048528D01*
X152475626Y-69048528D02*
X152416102Y-68810433D01*
X152416102Y-68810433D02*
X152416102Y-68512814D01*
X152416102Y-68512814D02*
X152475626Y-68274719D01*
X152475626Y-68274719D02*
X152535149Y-68155671D01*
X152535149Y-68155671D02*
X152594673Y-68096147D01*
X152594673Y-68096147D02*
X152713721Y-68036623D01*
X118836623Y-116332707D02*
X118836623Y-116094612D01*
X118836623Y-116094612D02*
X118896147Y-115975564D01*
X118896147Y-115975564D02*
X119015195Y-115856517D01*
X119015195Y-115856517D02*
X119253290Y-115796993D01*
X119253290Y-115796993D02*
X119669957Y-115796993D01*
X119669957Y-115796993D02*
X119908052Y-115856517D01*
X119908052Y-115856517D02*
X120027100Y-115975564D01*
X120027100Y-115975564D02*
X120086623Y-116094612D01*
X120086623Y-116094612D02*
X120086623Y-116332707D01*
X120086623Y-116332707D02*
X120027100Y-116451755D01*
X120027100Y-116451755D02*
X119908052Y-116570802D01*
X119908052Y-116570802D02*
X119669957Y-116630326D01*
X119669957Y-116630326D02*
X119253290Y-116630326D01*
X119253290Y-116630326D02*
X119015195Y-116570802D01*
X119015195Y-116570802D02*
X118896147Y-116451755D01*
X118896147Y-116451755D02*
X118836623Y-116332707D01*
X120027100Y-115320802D02*
X120086623Y-115142231D01*
X120086623Y-115142231D02*
X120086623Y-114844612D01*
X120086623Y-114844612D02*
X120027100Y-114725564D01*
X120027100Y-114725564D02*
X119967576Y-114666040D01*
X119967576Y-114666040D02*
X119848528Y-114606517D01*
X119848528Y-114606517D02*
X119729480Y-114606517D01*
X119729480Y-114606517D02*
X119610433Y-114666040D01*
X119610433Y-114666040D02*
X119550909Y-114725564D01*
X119550909Y-114725564D02*
X119491385Y-114844612D01*
X119491385Y-114844612D02*
X119431861Y-115082707D01*
X119431861Y-115082707D02*
X119372338Y-115201755D01*
X119372338Y-115201755D02*
X119312814Y-115261278D01*
X119312814Y-115261278D02*
X119193766Y-115320802D01*
X119193766Y-115320802D02*
X119074719Y-115320802D01*
X119074719Y-115320802D02*
X118955671Y-115261278D01*
X118955671Y-115261278D02*
X118896147Y-115201755D01*
X118896147Y-115201755D02*
X118836623Y-115082707D01*
X118836623Y-115082707D02*
X118836623Y-114785088D01*
X118836623Y-114785088D02*
X118896147Y-114606517D01*
X118836623Y-114070802D02*
X119848528Y-114070802D01*
X119848528Y-114070802D02*
X119967576Y-114011279D01*
X119967576Y-114011279D02*
X120027100Y-113951755D01*
X120027100Y-113951755D02*
X120086623Y-113832707D01*
X120086623Y-113832707D02*
X120086623Y-113594612D01*
X120086623Y-113594612D02*
X120027100Y-113475564D01*
X120027100Y-113475564D02*
X119967576Y-113416041D01*
X119967576Y-113416041D02*
X119848528Y-113356517D01*
X119848528Y-113356517D02*
X118836623Y-113356517D01*
X120086623Y-111808897D02*
X118836623Y-111808897D01*
X118836623Y-111808897D02*
X118836623Y-111511278D01*
X118836623Y-111511278D02*
X118896147Y-111332707D01*
X118896147Y-111332707D02*
X119015195Y-111213659D01*
X119015195Y-111213659D02*
X119134242Y-111154136D01*
X119134242Y-111154136D02*
X119372338Y-111094612D01*
X119372338Y-111094612D02*
X119550909Y-111094612D01*
X119550909Y-111094612D02*
X119789004Y-111154136D01*
X119789004Y-111154136D02*
X119908052Y-111213659D01*
X119908052Y-111213659D02*
X120027100Y-111332707D01*
X120027100Y-111332707D02*
X120086623Y-111511278D01*
X120086623Y-111511278D02*
X120086623Y-111808897D01*
X119729480Y-110618421D02*
X119729480Y-110023183D01*
X120086623Y-110737469D02*
X118836623Y-110320802D01*
X118836623Y-110320802D02*
X120086623Y-109904136D01*
X120086623Y-109487468D02*
X118836623Y-109487468D01*
X118836623Y-109487468D02*
X119729480Y-109070802D01*
X119729480Y-109070802D02*
X118836623Y-108654135D01*
X118836623Y-108654135D02*
X120086623Y-108654135D01*
X120086623Y-106392231D02*
X119491385Y-106808897D01*
X120086623Y-107106516D02*
X118836623Y-107106516D01*
X118836623Y-107106516D02*
X118836623Y-106630326D01*
X118836623Y-106630326D02*
X118896147Y-106511278D01*
X118896147Y-106511278D02*
X118955671Y-106451755D01*
X118955671Y-106451755D02*
X119074719Y-106392231D01*
X119074719Y-106392231D02*
X119253290Y-106392231D01*
X119253290Y-106392231D02*
X119372338Y-106451755D01*
X119372338Y-106451755D02*
X119431861Y-106511278D01*
X119431861Y-106511278D02*
X119491385Y-106630326D01*
X119491385Y-106630326D02*
X119491385Y-107106516D01*
X120086623Y-105677945D02*
X120027100Y-105796993D01*
X120027100Y-105796993D02*
X119967576Y-105856516D01*
X119967576Y-105856516D02*
X119848528Y-105916040D01*
X119848528Y-105916040D02*
X119491385Y-105916040D01*
X119491385Y-105916040D02*
X119372338Y-105856516D01*
X119372338Y-105856516D02*
X119312814Y-105796993D01*
X119312814Y-105796993D02*
X119253290Y-105677945D01*
X119253290Y-105677945D02*
X119253290Y-105499374D01*
X119253290Y-105499374D02*
X119312814Y-105380326D01*
X119312814Y-105380326D02*
X119372338Y-105320802D01*
X119372338Y-105320802D02*
X119491385Y-105261278D01*
X119491385Y-105261278D02*
X119848528Y-105261278D01*
X119848528Y-105261278D02*
X119967576Y-105320802D01*
X119967576Y-105320802D02*
X120027100Y-105380326D01*
X120027100Y-105380326D02*
X120086623Y-105499374D01*
X120086623Y-105499374D02*
X120086623Y-105677945D01*
X120086623Y-104725564D02*
X118836623Y-104725564D01*
X119312814Y-104725564D02*
X119253290Y-104606517D01*
X119253290Y-104606517D02*
X119253290Y-104368422D01*
X119253290Y-104368422D02*
X119312814Y-104249374D01*
X119312814Y-104249374D02*
X119372338Y-104189850D01*
X119372338Y-104189850D02*
X119491385Y-104130326D01*
X119491385Y-104130326D02*
X119848528Y-104130326D01*
X119848528Y-104130326D02*
X119967576Y-104189850D01*
X119967576Y-104189850D02*
X120027100Y-104249374D01*
X120027100Y-104249374D02*
X120086623Y-104368422D01*
X120086623Y-104368422D02*
X120086623Y-104606517D01*
X120086623Y-104606517D02*
X120027100Y-104725564D01*
X120086623Y-103416041D02*
X120027100Y-103535089D01*
X120027100Y-103535089D02*
X119967576Y-103594612D01*
X119967576Y-103594612D02*
X119848528Y-103654136D01*
X119848528Y-103654136D02*
X119491385Y-103654136D01*
X119491385Y-103654136D02*
X119372338Y-103594612D01*
X119372338Y-103594612D02*
X119312814Y-103535089D01*
X119312814Y-103535089D02*
X119253290Y-103416041D01*
X119253290Y-103416041D02*
X119253290Y-103237470D01*
X119253290Y-103237470D02*
X119312814Y-103118422D01*
X119312814Y-103118422D02*
X119372338Y-103058898D01*
X119372338Y-103058898D02*
X119491385Y-102999374D01*
X119491385Y-102999374D02*
X119848528Y-102999374D01*
X119848528Y-102999374D02*
X119967576Y-103058898D01*
X119967576Y-103058898D02*
X120027100Y-103118422D01*
X120027100Y-103118422D02*
X120086623Y-103237470D01*
X120086623Y-103237470D02*
X120086623Y-103416041D01*
X119253290Y-102642232D02*
X119253290Y-102166041D01*
X118836623Y-102463660D02*
X119908052Y-102463660D01*
X119908052Y-102463660D02*
X120027100Y-102404137D01*
X120027100Y-102404137D02*
X120086623Y-102285089D01*
X120086623Y-102285089D02*
X120086623Y-102166041D01*
X120086623Y-101749374D02*
X119253290Y-101749374D01*
X118836623Y-101749374D02*
X118896147Y-101808898D01*
X118896147Y-101808898D02*
X118955671Y-101749374D01*
X118955671Y-101749374D02*
X118896147Y-101689851D01*
X118896147Y-101689851D02*
X118836623Y-101749374D01*
X118836623Y-101749374D02*
X118955671Y-101749374D01*
X120027100Y-100618422D02*
X120086623Y-100737470D01*
X120086623Y-100737470D02*
X120086623Y-100975565D01*
X120086623Y-100975565D02*
X120027100Y-101094613D01*
X120027100Y-101094613D02*
X119967576Y-101154136D01*
X119967576Y-101154136D02*
X119848528Y-101213660D01*
X119848528Y-101213660D02*
X119491385Y-101213660D01*
X119491385Y-101213660D02*
X119372338Y-101154136D01*
X119372338Y-101154136D02*
X119312814Y-101094613D01*
X119312814Y-101094613D02*
X119253290Y-100975565D01*
X119253290Y-100975565D02*
X119253290Y-100737470D01*
X119253290Y-100737470D02*
X119312814Y-100618422D01*
X120027100Y-100142231D02*
X120086623Y-100023184D01*
X120086623Y-100023184D02*
X120086623Y-99785088D01*
X120086623Y-99785088D02*
X120027100Y-99666041D01*
X120027100Y-99666041D02*
X119908052Y-99606517D01*
X119908052Y-99606517D02*
X119848528Y-99606517D01*
X119848528Y-99606517D02*
X119729480Y-99666041D01*
X119729480Y-99666041D02*
X119669957Y-99785088D01*
X119669957Y-99785088D02*
X119669957Y-99963660D01*
X119669957Y-99963660D02*
X119610433Y-100082707D01*
X119610433Y-100082707D02*
X119491385Y-100142231D01*
X119491385Y-100142231D02*
X119431861Y-100142231D01*
X119431861Y-100142231D02*
X119312814Y-100082707D01*
X119312814Y-100082707D02*
X119253290Y-99963660D01*
X119253290Y-99963660D02*
X119253290Y-99785088D01*
X119253290Y-99785088D02*
X119312814Y-99666041D01*
X142771147Y-55166041D02*
X142711623Y-55285088D01*
X142711623Y-55285088D02*
X142711623Y-55463660D01*
X142711623Y-55463660D02*
X142771147Y-55642231D01*
X142771147Y-55642231D02*
X142890195Y-55761279D01*
X142890195Y-55761279D02*
X143009242Y-55820802D01*
X143009242Y-55820802D02*
X143247338Y-55880326D01*
X143247338Y-55880326D02*
X143425909Y-55880326D01*
X143425909Y-55880326D02*
X143664004Y-55820802D01*
X143664004Y-55820802D02*
X143783052Y-55761279D01*
X143783052Y-55761279D02*
X143902100Y-55642231D01*
X143902100Y-55642231D02*
X143961623Y-55463660D01*
X143961623Y-55463660D02*
X143961623Y-55344612D01*
X143961623Y-55344612D02*
X143902100Y-55166041D01*
X143902100Y-55166041D02*
X143842576Y-55106517D01*
X143842576Y-55106517D02*
X143425909Y-55106517D01*
X143425909Y-55106517D02*
X143425909Y-55344612D01*
X143961623Y-54570802D02*
X142711623Y-54570802D01*
X142711623Y-54570802D02*
X143961623Y-53856517D01*
X143961623Y-53856517D02*
X142711623Y-53856517D01*
X143961623Y-53261278D02*
X142711623Y-53261278D01*
X142711623Y-53261278D02*
X142711623Y-52963659D01*
X142711623Y-52963659D02*
X142771147Y-52785088D01*
X142771147Y-52785088D02*
X142890195Y-52666040D01*
X142890195Y-52666040D02*
X143009242Y-52606517D01*
X143009242Y-52606517D02*
X143247338Y-52546993D01*
X143247338Y-52546993D02*
X143425909Y-52546993D01*
X143425909Y-52546993D02*
X143664004Y-52606517D01*
X143664004Y-52606517D02*
X143783052Y-52666040D01*
X143783052Y-52666040D02*
X143902100Y-52785088D01*
X143902100Y-52785088D02*
X143961623Y-52963659D01*
X143961623Y-52963659D02*
X143961623Y-53261278D01*
D11*
X142448276Y-77312877D02*
X143400657Y-77312877D01*
X142924466Y-77789067D02*
X142924466Y-76836686D01*
D10*
X124069673Y-65079480D02*
X124664911Y-65079480D01*
X123950625Y-65436623D02*
X124367292Y-64186623D01*
X124367292Y-64186623D02*
X124783958Y-65436623D01*
X125141102Y-64305671D02*
X125200626Y-64246147D01*
X125200626Y-64246147D02*
X125319673Y-64186623D01*
X125319673Y-64186623D02*
X125617292Y-64186623D01*
X125617292Y-64186623D02*
X125736340Y-64246147D01*
X125736340Y-64246147D02*
X125795864Y-64305671D01*
X125795864Y-64305671D02*
X125855387Y-64424719D01*
X125855387Y-64424719D02*
X125855387Y-64543766D01*
X125855387Y-64543766D02*
X125795864Y-64722338D01*
X125795864Y-64722338D02*
X125081578Y-65436623D01*
X125081578Y-65436623D02*
X125855387Y-65436623D01*
X162594673Y-77729480D02*
X163189911Y-77729480D01*
X162475625Y-78086623D02*
X162892292Y-76836623D01*
X162892292Y-76836623D02*
X163308958Y-78086623D01*
X163904197Y-77372338D02*
X163785149Y-77312814D01*
X163785149Y-77312814D02*
X163725626Y-77253290D01*
X163725626Y-77253290D02*
X163666102Y-77134242D01*
X163666102Y-77134242D02*
X163666102Y-77074719D01*
X163666102Y-77074719D02*
X163725626Y-76955671D01*
X163725626Y-76955671D02*
X163785149Y-76896147D01*
X163785149Y-76896147D02*
X163904197Y-76836623D01*
X163904197Y-76836623D02*
X164142292Y-76836623D01*
X164142292Y-76836623D02*
X164261340Y-76896147D01*
X164261340Y-76896147D02*
X164320864Y-76955671D01*
X164320864Y-76955671D02*
X164380387Y-77074719D01*
X164380387Y-77074719D02*
X164380387Y-77134242D01*
X164380387Y-77134242D02*
X164320864Y-77253290D01*
X164320864Y-77253290D02*
X164261340Y-77312814D01*
X164261340Y-77312814D02*
X164142292Y-77372338D01*
X164142292Y-77372338D02*
X163904197Y-77372338D01*
X163904197Y-77372338D02*
X163785149Y-77431861D01*
X163785149Y-77431861D02*
X163725626Y-77491385D01*
X163725626Y-77491385D02*
X163666102Y-77610433D01*
X163666102Y-77610433D02*
X163666102Y-77848528D01*
X163666102Y-77848528D02*
X163725626Y-77967576D01*
X163725626Y-77967576D02*
X163785149Y-78027100D01*
X163785149Y-78027100D02*
X163904197Y-78086623D01*
X163904197Y-78086623D02*
X164142292Y-78086623D01*
X164142292Y-78086623D02*
X164261340Y-78027100D01*
X164261340Y-78027100D02*
X164320864Y-77967576D01*
X164320864Y-77967576D02*
X164380387Y-77848528D01*
X164380387Y-77848528D02*
X164380387Y-77610433D01*
X164380387Y-77610433D02*
X164320864Y-77491385D01*
X164320864Y-77491385D02*
X164261340Y-77431861D01*
X164261340Y-77431861D02*
X164142292Y-77372338D01*
X124085149Y-89611623D02*
X124858958Y-89611623D01*
X124858958Y-89611623D02*
X124442292Y-90087814D01*
X124442292Y-90087814D02*
X124620863Y-90087814D01*
X124620863Y-90087814D02*
X124739911Y-90147338D01*
X124739911Y-90147338D02*
X124799435Y-90206861D01*
X124799435Y-90206861D02*
X124858958Y-90325909D01*
X124858958Y-90325909D02*
X124858958Y-90623528D01*
X124858958Y-90623528D02*
X124799435Y-90742576D01*
X124799435Y-90742576D02*
X124739911Y-90802100D01*
X124739911Y-90802100D02*
X124620863Y-90861623D01*
X124620863Y-90861623D02*
X124263720Y-90861623D01*
X124263720Y-90861623D02*
X124144673Y-90802100D01*
X124144673Y-90802100D02*
X124085149Y-90742576D01*
X125216101Y-89611623D02*
X125632768Y-90861623D01*
X125632768Y-90861623D02*
X126049434Y-89611623D01*
X126347054Y-89611623D02*
X127120863Y-89611623D01*
X127120863Y-89611623D02*
X126704197Y-90087814D01*
X126704197Y-90087814D02*
X126882768Y-90087814D01*
X126882768Y-90087814D02*
X127001816Y-90147338D01*
X127001816Y-90147338D02*
X127061340Y-90206861D01*
X127061340Y-90206861D02*
X127120863Y-90325909D01*
X127120863Y-90325909D02*
X127120863Y-90623528D01*
X127120863Y-90623528D02*
X127061340Y-90742576D01*
X127061340Y-90742576D02*
X127001816Y-90802100D01*
X127001816Y-90802100D02*
X126882768Y-90861623D01*
X126882768Y-90861623D02*
X126525625Y-90861623D01*
X126525625Y-90861623D02*
X126406578Y-90802100D01*
X126406578Y-90802100D02*
X126347054Y-90742576D01*
X161795863Y-79956861D02*
X161974435Y-80016385D01*
X161974435Y-80016385D02*
X162033958Y-80075909D01*
X162033958Y-80075909D02*
X162093482Y-80194957D01*
X162093482Y-80194957D02*
X162093482Y-80373528D01*
X162093482Y-80373528D02*
X162033958Y-80492576D01*
X162033958Y-80492576D02*
X161974435Y-80552100D01*
X161974435Y-80552100D02*
X161855387Y-80611623D01*
X161855387Y-80611623D02*
X161379197Y-80611623D01*
X161379197Y-80611623D02*
X161379197Y-79361623D01*
X161379197Y-79361623D02*
X161795863Y-79361623D01*
X161795863Y-79361623D02*
X161914911Y-79421147D01*
X161914911Y-79421147D02*
X161974435Y-79480671D01*
X161974435Y-79480671D02*
X162033958Y-79599719D01*
X162033958Y-79599719D02*
X162033958Y-79718766D01*
X162033958Y-79718766D02*
X161974435Y-79837814D01*
X161974435Y-79837814D02*
X161914911Y-79897338D01*
X161914911Y-79897338D02*
X161795863Y-79956861D01*
X161795863Y-79956861D02*
X161379197Y-79956861D01*
X163283958Y-80611623D02*
X162569673Y-80611623D01*
X162926816Y-80611623D02*
X162926816Y-79361623D01*
X162926816Y-79361623D02*
X162807768Y-79540195D01*
X162807768Y-79540195D02*
X162688720Y-79659242D01*
X162688720Y-79659242D02*
X162569673Y-79718766D01*
X164414911Y-79361623D02*
X163819673Y-79361623D01*
X163819673Y-79361623D02*
X163760149Y-79956861D01*
X163760149Y-79956861D02*
X163819673Y-79897338D01*
X163819673Y-79897338D02*
X163938720Y-79837814D01*
X163938720Y-79837814D02*
X164236339Y-79837814D01*
X164236339Y-79837814D02*
X164355387Y-79897338D01*
X164355387Y-79897338D02*
X164414911Y-79956861D01*
X164414911Y-79956861D02*
X164474434Y-80075909D01*
X164474434Y-80075909D02*
X164474434Y-80373528D01*
X164474434Y-80373528D02*
X164414911Y-80492576D01*
X164414911Y-80492576D02*
X164355387Y-80552100D01*
X164355387Y-80552100D02*
X164236339Y-80611623D01*
X164236339Y-80611623D02*
X163938720Y-80611623D01*
X163938720Y-80611623D02*
X163819673Y-80552100D01*
X163819673Y-80552100D02*
X163760149Y-80492576D01*
X139867576Y-52731517D02*
X139927100Y-52791041D01*
X139927100Y-52791041D02*
X139986623Y-52969612D01*
X139986623Y-52969612D02*
X139986623Y-53088660D01*
X139986623Y-53088660D02*
X139927100Y-53267231D01*
X139927100Y-53267231D02*
X139808052Y-53386279D01*
X139808052Y-53386279D02*
X139689004Y-53445802D01*
X139689004Y-53445802D02*
X139450909Y-53505326D01*
X139450909Y-53505326D02*
X139272338Y-53505326D01*
X139272338Y-53505326D02*
X139034242Y-53445802D01*
X139034242Y-53445802D02*
X138915195Y-53386279D01*
X138915195Y-53386279D02*
X138796147Y-53267231D01*
X138796147Y-53267231D02*
X138736623Y-53088660D01*
X138736623Y-53088660D02*
X138736623Y-52969612D01*
X138736623Y-52969612D02*
X138796147Y-52791041D01*
X138796147Y-52791041D02*
X138855671Y-52731517D01*
X139986623Y-51600564D02*
X139986623Y-52195802D01*
X139986623Y-52195802D02*
X138736623Y-52195802D01*
X163661623Y-66020802D02*
X164673528Y-66020802D01*
X164673528Y-66020802D02*
X164792576Y-65961279D01*
X164792576Y-65961279D02*
X164852100Y-65901755D01*
X164852100Y-65901755D02*
X164911623Y-65782707D01*
X164911623Y-65782707D02*
X164911623Y-65544612D01*
X164911623Y-65544612D02*
X164852100Y-65425564D01*
X164852100Y-65425564D02*
X164792576Y-65366041D01*
X164792576Y-65366041D02*
X164673528Y-65306517D01*
X164673528Y-65306517D02*
X163661623Y-65306517D01*
X164852100Y-64770802D02*
X164911623Y-64592231D01*
X164911623Y-64592231D02*
X164911623Y-64294612D01*
X164911623Y-64294612D02*
X164852100Y-64175564D01*
X164852100Y-64175564D02*
X164792576Y-64116040D01*
X164792576Y-64116040D02*
X164673528Y-64056517D01*
X164673528Y-64056517D02*
X164554480Y-64056517D01*
X164554480Y-64056517D02*
X164435433Y-64116040D01*
X164435433Y-64116040D02*
X164375909Y-64175564D01*
X164375909Y-64175564D02*
X164316385Y-64294612D01*
X164316385Y-64294612D02*
X164256861Y-64532707D01*
X164256861Y-64532707D02*
X164197338Y-64651755D01*
X164197338Y-64651755D02*
X164137814Y-64711278D01*
X164137814Y-64711278D02*
X164018766Y-64770802D01*
X164018766Y-64770802D02*
X163899719Y-64770802D01*
X163899719Y-64770802D02*
X163780671Y-64711278D01*
X163780671Y-64711278D02*
X163721147Y-64651755D01*
X163721147Y-64651755D02*
X163661623Y-64532707D01*
X163661623Y-64532707D02*
X163661623Y-64235088D01*
X163661623Y-64235088D02*
X163721147Y-64056517D01*
X164256861Y-63104136D02*
X164316385Y-62925564D01*
X164316385Y-62925564D02*
X164375909Y-62866041D01*
X164375909Y-62866041D02*
X164494957Y-62806517D01*
X164494957Y-62806517D02*
X164673528Y-62806517D01*
X164673528Y-62806517D02*
X164792576Y-62866041D01*
X164792576Y-62866041D02*
X164852100Y-62925564D01*
X164852100Y-62925564D02*
X164911623Y-63044612D01*
X164911623Y-63044612D02*
X164911623Y-63520802D01*
X164911623Y-63520802D02*
X163661623Y-63520802D01*
X163661623Y-63520802D02*
X163661623Y-63104136D01*
X163661623Y-63104136D02*
X163721147Y-62985088D01*
X163721147Y-62985088D02*
X163780671Y-62925564D01*
X163780671Y-62925564D02*
X163899719Y-62866041D01*
X163899719Y-62866041D02*
X164018766Y-62866041D01*
X164018766Y-62866041D02*
X164137814Y-62925564D01*
X164137814Y-62925564D02*
X164197338Y-62985088D01*
X164197338Y-62985088D02*
X164256861Y-63104136D01*
X164256861Y-63104136D02*
X164256861Y-63520802D01*
X161683958Y-69346147D02*
X161564911Y-69286623D01*
X161564911Y-69286623D02*
X161386339Y-69286623D01*
X161386339Y-69286623D02*
X161207768Y-69346147D01*
X161207768Y-69346147D02*
X161088720Y-69465195D01*
X161088720Y-69465195D02*
X161029197Y-69584242D01*
X161029197Y-69584242D02*
X160969673Y-69822338D01*
X160969673Y-69822338D02*
X160969673Y-70000909D01*
X160969673Y-70000909D02*
X161029197Y-70239004D01*
X161029197Y-70239004D02*
X161088720Y-70358052D01*
X161088720Y-70358052D02*
X161207768Y-70477100D01*
X161207768Y-70477100D02*
X161386339Y-70536623D01*
X161386339Y-70536623D02*
X161505387Y-70536623D01*
X161505387Y-70536623D02*
X161683958Y-70477100D01*
X161683958Y-70477100D02*
X161743482Y-70417576D01*
X161743482Y-70417576D02*
X161743482Y-70000909D01*
X161743482Y-70000909D02*
X161505387Y-70000909D01*
X162279197Y-70536623D02*
X162279197Y-69286623D01*
X162279197Y-69286623D02*
X162993482Y-70536623D01*
X162993482Y-70536623D02*
X162993482Y-69286623D01*
X163588721Y-70536623D02*
X163588721Y-69286623D01*
X163588721Y-69286623D02*
X163886340Y-69286623D01*
X163886340Y-69286623D02*
X164064911Y-69346147D01*
X164064911Y-69346147D02*
X164183959Y-69465195D01*
X164183959Y-69465195D02*
X164243482Y-69584242D01*
X164243482Y-69584242D02*
X164303006Y-69822338D01*
X164303006Y-69822338D02*
X164303006Y-70000909D01*
X164303006Y-70000909D02*
X164243482Y-70239004D01*
X164243482Y-70239004D02*
X164183959Y-70358052D01*
X164183959Y-70358052D02*
X164064911Y-70477100D01*
X164064911Y-70477100D02*
X163886340Y-70536623D01*
X163886340Y-70536623D02*
X163588721Y-70536623D01*
X146542576Y-53881517D02*
X146602100Y-53941041D01*
X146602100Y-53941041D02*
X146661623Y-54119612D01*
X146661623Y-54119612D02*
X146661623Y-54238660D01*
X146661623Y-54238660D02*
X146602100Y-54417231D01*
X146602100Y-54417231D02*
X146483052Y-54536279D01*
X146483052Y-54536279D02*
X146364004Y-54595802D01*
X146364004Y-54595802D02*
X146125909Y-54655326D01*
X146125909Y-54655326D02*
X145947338Y-54655326D01*
X145947338Y-54655326D02*
X145709242Y-54595802D01*
X145709242Y-54595802D02*
X145590195Y-54536279D01*
X145590195Y-54536279D02*
X145471147Y-54417231D01*
X145471147Y-54417231D02*
X145411623Y-54238660D01*
X145411623Y-54238660D02*
X145411623Y-54119612D01*
X145411623Y-54119612D02*
X145471147Y-53941041D01*
X145471147Y-53941041D02*
X145530671Y-53881517D01*
X146661623Y-53345802D02*
X145411623Y-53345802D01*
X146006861Y-53345802D02*
X146006861Y-52631517D01*
X146661623Y-52631517D02*
X145411623Y-52631517D01*
X157333958Y-71486623D02*
X156619673Y-71486623D01*
X156976816Y-71486623D02*
X156976816Y-70236623D01*
X156976816Y-70236623D02*
X156857768Y-70415195D01*
X156857768Y-70415195D02*
X156738720Y-70534242D01*
X156738720Y-70534242D02*
X156619673Y-70593766D01*
X127851458Y-116823147D02*
X127732411Y-116763623D01*
X127732411Y-116763623D02*
X127553839Y-116763623D01*
X127553839Y-116763623D02*
X127375268Y-116823147D01*
X127375268Y-116823147D02*
X127256220Y-116942195D01*
X127256220Y-116942195D02*
X127196697Y-117061242D01*
X127196697Y-117061242D02*
X127137173Y-117299338D01*
X127137173Y-117299338D02*
X127137173Y-117477909D01*
X127137173Y-117477909D02*
X127196697Y-117716004D01*
X127196697Y-117716004D02*
X127256220Y-117835052D01*
X127256220Y-117835052D02*
X127375268Y-117954100D01*
X127375268Y-117954100D02*
X127553839Y-118013623D01*
X127553839Y-118013623D02*
X127672887Y-118013623D01*
X127672887Y-118013623D02*
X127851458Y-117954100D01*
X127851458Y-117954100D02*
X127910982Y-117894576D01*
X127910982Y-117894576D02*
X127910982Y-117477909D01*
X127910982Y-117477909D02*
X127672887Y-117477909D01*
X128446697Y-118013623D02*
X128446697Y-116763623D01*
X128446697Y-116763623D02*
X129160982Y-118013623D01*
X129160982Y-118013623D02*
X129160982Y-116763623D01*
X129756221Y-118013623D02*
X129756221Y-116763623D01*
X129756221Y-116763623D02*
X130053840Y-116763623D01*
X130053840Y-116763623D02*
X130232411Y-116823147D01*
X130232411Y-116823147D02*
X130351459Y-116942195D01*
X130351459Y-116942195D02*
X130410982Y-117061242D01*
X130410982Y-117061242D02*
X130470506Y-117299338D01*
X130470506Y-117299338D02*
X130470506Y-117477909D01*
X130470506Y-117477909D02*
X130410982Y-117716004D01*
X130410982Y-117716004D02*
X130351459Y-117835052D01*
X130351459Y-117835052D02*
X130232411Y-117954100D01*
X130232411Y-117954100D02*
X130053840Y-118013623D01*
X130053840Y-118013623D02*
X129756221Y-118013623D01*
X124119673Y-75329480D02*
X124714911Y-75329480D01*
X124000625Y-75686623D02*
X124417292Y-74436623D01*
X124417292Y-74436623D02*
X124833958Y-75686623D01*
X125786340Y-74436623D02*
X125548245Y-74436623D01*
X125548245Y-74436623D02*
X125429197Y-74496147D01*
X125429197Y-74496147D02*
X125369673Y-74555671D01*
X125369673Y-74555671D02*
X125250626Y-74734242D01*
X125250626Y-74734242D02*
X125191102Y-74972338D01*
X125191102Y-74972338D02*
X125191102Y-75448528D01*
X125191102Y-75448528D02*
X125250626Y-75567576D01*
X125250626Y-75567576D02*
X125310149Y-75627100D01*
X125310149Y-75627100D02*
X125429197Y-75686623D01*
X125429197Y-75686623D02*
X125667292Y-75686623D01*
X125667292Y-75686623D02*
X125786340Y-75627100D01*
X125786340Y-75627100D02*
X125845864Y-75567576D01*
X125845864Y-75567576D02*
X125905387Y-75448528D01*
X125905387Y-75448528D02*
X125905387Y-75150909D01*
X125905387Y-75150909D02*
X125845864Y-75031861D01*
X125845864Y-75031861D02*
X125786340Y-74972338D01*
X125786340Y-74972338D02*
X125667292Y-74912814D01*
X125667292Y-74912814D02*
X125429197Y-74912814D01*
X125429197Y-74912814D02*
X125310149Y-74972338D01*
X125310149Y-74972338D02*
X125250626Y-75031861D01*
X125250626Y-75031861D02*
X125191102Y-75150909D01*
X163299435Y-89611623D02*
X162704197Y-89611623D01*
X162704197Y-89611623D02*
X162644673Y-90206861D01*
X162644673Y-90206861D02*
X162704197Y-90147338D01*
X162704197Y-90147338D02*
X162823244Y-90087814D01*
X162823244Y-90087814D02*
X163120863Y-90087814D01*
X163120863Y-90087814D02*
X163239911Y-90147338D01*
X163239911Y-90147338D02*
X163299435Y-90206861D01*
X163299435Y-90206861D02*
X163358958Y-90325909D01*
X163358958Y-90325909D02*
X163358958Y-90623528D01*
X163358958Y-90623528D02*
X163299435Y-90742576D01*
X163299435Y-90742576D02*
X163239911Y-90802100D01*
X163239911Y-90802100D02*
X163120863Y-90861623D01*
X163120863Y-90861623D02*
X162823244Y-90861623D01*
X162823244Y-90861623D02*
X162704197Y-90802100D01*
X162704197Y-90802100D02*
X162644673Y-90742576D01*
X163716101Y-89611623D02*
X164132768Y-90861623D01*
X164132768Y-90861623D02*
X164549434Y-89611623D01*
X124520863Y-80256861D02*
X124699435Y-80316385D01*
X124699435Y-80316385D02*
X124758958Y-80375909D01*
X124758958Y-80375909D02*
X124818482Y-80494957D01*
X124818482Y-80494957D02*
X124818482Y-80673528D01*
X124818482Y-80673528D02*
X124758958Y-80792576D01*
X124758958Y-80792576D02*
X124699435Y-80852100D01*
X124699435Y-80852100D02*
X124580387Y-80911623D01*
X124580387Y-80911623D02*
X124104197Y-80911623D01*
X124104197Y-80911623D02*
X124104197Y-79661623D01*
X124104197Y-79661623D02*
X124520863Y-79661623D01*
X124520863Y-79661623D02*
X124639911Y-79721147D01*
X124639911Y-79721147D02*
X124699435Y-79780671D01*
X124699435Y-79780671D02*
X124758958Y-79899719D01*
X124758958Y-79899719D02*
X124758958Y-80018766D01*
X124758958Y-80018766D02*
X124699435Y-80137814D01*
X124699435Y-80137814D02*
X124639911Y-80197338D01*
X124639911Y-80197338D02*
X124520863Y-80256861D01*
X124520863Y-80256861D02*
X124104197Y-80256861D01*
X125592292Y-79661623D02*
X125711339Y-79661623D01*
X125711339Y-79661623D02*
X125830387Y-79721147D01*
X125830387Y-79721147D02*
X125889911Y-79780671D01*
X125889911Y-79780671D02*
X125949435Y-79899719D01*
X125949435Y-79899719D02*
X126008958Y-80137814D01*
X126008958Y-80137814D02*
X126008958Y-80435433D01*
X126008958Y-80435433D02*
X125949435Y-80673528D01*
X125949435Y-80673528D02*
X125889911Y-80792576D01*
X125889911Y-80792576D02*
X125830387Y-80852100D01*
X125830387Y-80852100D02*
X125711339Y-80911623D01*
X125711339Y-80911623D02*
X125592292Y-80911623D01*
X125592292Y-80911623D02*
X125473244Y-80852100D01*
X125473244Y-80852100D02*
X125413720Y-80792576D01*
X125413720Y-80792576D02*
X125354197Y-80673528D01*
X125354197Y-80673528D02*
X125294673Y-80435433D01*
X125294673Y-80435433D02*
X125294673Y-80137814D01*
X125294673Y-80137814D02*
X125354197Y-79899719D01*
X125354197Y-79899719D02*
X125413720Y-79780671D01*
X125413720Y-79780671D02*
X125473244Y-79721147D01*
X125473244Y-79721147D02*
X125592292Y-79661623D01*
D11*
X130940776Y-116539877D02*
X131893157Y-116539877D01*
D10*
X124144673Y-72679480D02*
X124739911Y-72679480D01*
X124025625Y-73036623D02*
X124442292Y-71786623D01*
X124442292Y-71786623D02*
X124858958Y-73036623D01*
X125870864Y-71786623D02*
X125275626Y-71786623D01*
X125275626Y-71786623D02*
X125216102Y-72381861D01*
X125216102Y-72381861D02*
X125275626Y-72322338D01*
X125275626Y-72322338D02*
X125394673Y-72262814D01*
X125394673Y-72262814D02*
X125692292Y-72262814D01*
X125692292Y-72262814D02*
X125811340Y-72322338D01*
X125811340Y-72322338D02*
X125870864Y-72381861D01*
X125870864Y-72381861D02*
X125930387Y-72500909D01*
X125930387Y-72500909D02*
X125930387Y-72798528D01*
X125930387Y-72798528D02*
X125870864Y-72917576D01*
X125870864Y-72917576D02*
X125811340Y-72977100D01*
X125811340Y-72977100D02*
X125692292Y-73036623D01*
X125692292Y-73036623D02*
X125394673Y-73036623D01*
X125394673Y-73036623D02*
X125275626Y-72977100D01*
X125275626Y-72977100D02*
X125216102Y-72917576D01*
X124508958Y-56596147D02*
X124389911Y-56536623D01*
X124389911Y-56536623D02*
X124211339Y-56536623D01*
X124211339Y-56536623D02*
X124032768Y-56596147D01*
X124032768Y-56596147D02*
X123913720Y-56715195D01*
X123913720Y-56715195D02*
X123854197Y-56834242D01*
X123854197Y-56834242D02*
X123794673Y-57072338D01*
X123794673Y-57072338D02*
X123794673Y-57250909D01*
X123794673Y-57250909D02*
X123854197Y-57489004D01*
X123854197Y-57489004D02*
X123913720Y-57608052D01*
X123913720Y-57608052D02*
X124032768Y-57727100D01*
X124032768Y-57727100D02*
X124211339Y-57786623D01*
X124211339Y-57786623D02*
X124330387Y-57786623D01*
X124330387Y-57786623D02*
X124508958Y-57727100D01*
X124508958Y-57727100D02*
X124568482Y-57667576D01*
X124568482Y-57667576D02*
X124568482Y-57250909D01*
X124568482Y-57250909D02*
X124330387Y-57250909D01*
X125104197Y-57786623D02*
X125104197Y-56536623D01*
X125104197Y-56536623D02*
X125818482Y-57786623D01*
X125818482Y-57786623D02*
X125818482Y-56536623D01*
X126413721Y-57786623D02*
X126413721Y-56536623D01*
X126413721Y-56536623D02*
X126711340Y-56536623D01*
X126711340Y-56536623D02*
X126889911Y-56596147D01*
X126889911Y-56596147D02*
X127008959Y-56715195D01*
X127008959Y-56715195D02*
X127068482Y-56834242D01*
X127068482Y-56834242D02*
X127128006Y-57072338D01*
X127128006Y-57072338D02*
X127128006Y-57250909D01*
X127128006Y-57250909D02*
X127068482Y-57489004D01*
X127068482Y-57489004D02*
X127008959Y-57608052D01*
X127008959Y-57608052D02*
X126889911Y-57727100D01*
X126889911Y-57727100D02*
X126711340Y-57786623D01*
X126711340Y-57786623D02*
X126413721Y-57786623D01*
X128483958Y-83246147D02*
X128364911Y-83186623D01*
X128364911Y-83186623D02*
X128186339Y-83186623D01*
X128186339Y-83186623D02*
X128007768Y-83246147D01*
X128007768Y-83246147D02*
X127888720Y-83365195D01*
X127888720Y-83365195D02*
X127829197Y-83484242D01*
X127829197Y-83484242D02*
X127769673Y-83722338D01*
X127769673Y-83722338D02*
X127769673Y-83900909D01*
X127769673Y-83900909D02*
X127829197Y-84139004D01*
X127829197Y-84139004D02*
X127888720Y-84258052D01*
X127888720Y-84258052D02*
X128007768Y-84377100D01*
X128007768Y-84377100D02*
X128186339Y-84436623D01*
X128186339Y-84436623D02*
X128305387Y-84436623D01*
X128305387Y-84436623D02*
X128483958Y-84377100D01*
X128483958Y-84377100D02*
X128543482Y-84317576D01*
X128543482Y-84317576D02*
X128543482Y-83900909D01*
X128543482Y-83900909D02*
X128305387Y-83900909D01*
X129079197Y-84436623D02*
X129079197Y-83186623D01*
X129079197Y-83186623D02*
X129793482Y-84436623D01*
X129793482Y-84436623D02*
X129793482Y-83186623D01*
X130388721Y-84436623D02*
X130388721Y-83186623D01*
X130388721Y-83186623D02*
X130686340Y-83186623D01*
X130686340Y-83186623D02*
X130864911Y-83246147D01*
X130864911Y-83246147D02*
X130983959Y-83365195D01*
X130983959Y-83365195D02*
X131043482Y-83484242D01*
X131043482Y-83484242D02*
X131103006Y-83722338D01*
X131103006Y-83722338D02*
X131103006Y-83900909D01*
X131103006Y-83900909D02*
X131043482Y-84139004D01*
X131043482Y-84139004D02*
X130983959Y-84258052D01*
X130983959Y-84258052D02*
X130864911Y-84377100D01*
X130864911Y-84377100D02*
X130686340Y-84436623D01*
X130686340Y-84436623D02*
X130388721Y-84436623D01*
X158919673Y-54752100D02*
X159098244Y-54811623D01*
X159098244Y-54811623D02*
X159395863Y-54811623D01*
X159395863Y-54811623D02*
X159514911Y-54752100D01*
X159514911Y-54752100D02*
X159574435Y-54692576D01*
X159574435Y-54692576D02*
X159633958Y-54573528D01*
X159633958Y-54573528D02*
X159633958Y-54454480D01*
X159633958Y-54454480D02*
X159574435Y-54335433D01*
X159574435Y-54335433D02*
X159514911Y-54275909D01*
X159514911Y-54275909D02*
X159395863Y-54216385D01*
X159395863Y-54216385D02*
X159157768Y-54156861D01*
X159157768Y-54156861D02*
X159038720Y-54097338D01*
X159038720Y-54097338D02*
X158979197Y-54037814D01*
X158979197Y-54037814D02*
X158919673Y-53918766D01*
X158919673Y-53918766D02*
X158919673Y-53799719D01*
X158919673Y-53799719D02*
X158979197Y-53680671D01*
X158979197Y-53680671D02*
X159038720Y-53621147D01*
X159038720Y-53621147D02*
X159157768Y-53561623D01*
X159157768Y-53561623D02*
X159455387Y-53561623D01*
X159455387Y-53561623D02*
X159633958Y-53621147D01*
X160050625Y-53561623D02*
X160348244Y-54811623D01*
X160348244Y-54811623D02*
X160586339Y-53918766D01*
X160586339Y-53918766D02*
X160824434Y-54811623D01*
X160824434Y-54811623D02*
X161122054Y-53561623D01*
X161598244Y-54811623D02*
X161598244Y-53561623D01*
X161598244Y-53561623D02*
X161895863Y-53561623D01*
X161895863Y-53561623D02*
X162074434Y-53621147D01*
X162074434Y-53621147D02*
X162193482Y-53740195D01*
X162193482Y-53740195D02*
X162253005Y-53859242D01*
X162253005Y-53859242D02*
X162312529Y-54097338D01*
X162312529Y-54097338D02*
X162312529Y-54275909D01*
X162312529Y-54275909D02*
X162253005Y-54514004D01*
X162253005Y-54514004D02*
X162193482Y-54633052D01*
X162193482Y-54633052D02*
X162074434Y-54752100D01*
X162074434Y-54752100D02*
X161895863Y-54811623D01*
X161895863Y-54811623D02*
X161598244Y-54811623D01*
X162848244Y-54811623D02*
X162848244Y-53561623D01*
X163681577Y-53561623D02*
X163919672Y-53561623D01*
X163919672Y-53561623D02*
X164038720Y-53621147D01*
X164038720Y-53621147D02*
X164157767Y-53740195D01*
X164157767Y-53740195D02*
X164217291Y-53978290D01*
X164217291Y-53978290D02*
X164217291Y-54394957D01*
X164217291Y-54394957D02*
X164157767Y-54633052D01*
X164157767Y-54633052D02*
X164038720Y-54752100D01*
X164038720Y-54752100D02*
X163919672Y-54811623D01*
X163919672Y-54811623D02*
X163681577Y-54811623D01*
X163681577Y-54811623D02*
X163562529Y-54752100D01*
X163562529Y-54752100D02*
X163443482Y-54633052D01*
X163443482Y-54633052D02*
X163383958Y-54394957D01*
X163383958Y-54394957D02*
X163383958Y-53978290D01*
X163383958Y-53978290D02*
X163443482Y-53740195D01*
X163443482Y-53740195D02*
X163562529Y-53621147D01*
X163562529Y-53621147D02*
X163681577Y-53561623D01*
X124119673Y-70404480D02*
X124714911Y-70404480D01*
X124000625Y-70761623D02*
X124417292Y-69511623D01*
X124417292Y-69511623D02*
X124833958Y-70761623D01*
X125786340Y-69928290D02*
X125786340Y-70761623D01*
X125488721Y-69452100D02*
X125191102Y-70344957D01*
X125191102Y-70344957D02*
X125964911Y-70344957D01*
X152754197Y-55536623D02*
X152754197Y-54286623D01*
X152754197Y-54286623D02*
X153230387Y-54286623D01*
X153230387Y-54286623D02*
X153349435Y-54346147D01*
X153349435Y-54346147D02*
X153408958Y-54405671D01*
X153408958Y-54405671D02*
X153468482Y-54524719D01*
X153468482Y-54524719D02*
X153468482Y-54703290D01*
X153468482Y-54703290D02*
X153408958Y-54822338D01*
X153408958Y-54822338D02*
X153349435Y-54881861D01*
X153349435Y-54881861D02*
X153230387Y-54941385D01*
X153230387Y-54941385D02*
X152754197Y-54941385D01*
X153885149Y-54286623D02*
X154182768Y-55536623D01*
X154182768Y-55536623D02*
X154420863Y-54643766D01*
X154420863Y-54643766D02*
X154658958Y-55536623D01*
X154658958Y-55536623D02*
X154956578Y-54286623D01*
X156147053Y-55536623D02*
X155730387Y-54941385D01*
X155432768Y-55536623D02*
X155432768Y-54286623D01*
X155432768Y-54286623D02*
X155908958Y-54286623D01*
X155908958Y-54286623D02*
X156028006Y-54346147D01*
X156028006Y-54346147D02*
X156087529Y-54405671D01*
X156087529Y-54405671D02*
X156147053Y-54524719D01*
X156147053Y-54524719D02*
X156147053Y-54703290D01*
X156147053Y-54703290D02*
X156087529Y-54822338D01*
X156087529Y-54822338D02*
X156028006Y-54881861D01*
X156028006Y-54881861D02*
X155908958Y-54941385D01*
X155908958Y-54941385D02*
X155432768Y-54941385D01*
X150511623Y-53850564D02*
X150511623Y-54445802D01*
X150511623Y-54445802D02*
X151106861Y-54505326D01*
X151106861Y-54505326D02*
X151047338Y-54445802D01*
X151047338Y-54445802D02*
X150987814Y-54326755D01*
X150987814Y-54326755D02*
X150987814Y-54029136D01*
X150987814Y-54029136D02*
X151047338Y-53910088D01*
X151047338Y-53910088D02*
X151106861Y-53850564D01*
X151106861Y-53850564D02*
X151225909Y-53791041D01*
X151225909Y-53791041D02*
X151523528Y-53791041D01*
X151523528Y-53791041D02*
X151642576Y-53850564D01*
X151642576Y-53850564D02*
X151702100Y-53910088D01*
X151702100Y-53910088D02*
X151761623Y-54029136D01*
X151761623Y-54029136D02*
X151761623Y-54326755D01*
X151761623Y-54326755D02*
X151702100Y-54445802D01*
X151702100Y-54445802D02*
X151642576Y-54505326D01*
X150511623Y-53433898D02*
X151761623Y-53017231D01*
X151761623Y-53017231D02*
X150511623Y-52600565D01*
D11*
X148098276Y-56237877D02*
X149050657Y-56237877D01*
D10*
X161920863Y-82556861D02*
X162099435Y-82616385D01*
X162099435Y-82616385D02*
X162158958Y-82675909D01*
X162158958Y-82675909D02*
X162218482Y-82794957D01*
X162218482Y-82794957D02*
X162218482Y-82973528D01*
X162218482Y-82973528D02*
X162158958Y-83092576D01*
X162158958Y-83092576D02*
X162099435Y-83152100D01*
X162099435Y-83152100D02*
X161980387Y-83211623D01*
X161980387Y-83211623D02*
X161504197Y-83211623D01*
X161504197Y-83211623D02*
X161504197Y-81961623D01*
X161504197Y-81961623D02*
X161920863Y-81961623D01*
X161920863Y-81961623D02*
X162039911Y-82021147D01*
X162039911Y-82021147D02*
X162099435Y-82080671D01*
X162099435Y-82080671D02*
X162158958Y-82199719D01*
X162158958Y-82199719D02*
X162158958Y-82318766D01*
X162158958Y-82318766D02*
X162099435Y-82437814D01*
X162099435Y-82437814D02*
X162039911Y-82497338D01*
X162039911Y-82497338D02*
X161920863Y-82556861D01*
X161920863Y-82556861D02*
X161504197Y-82556861D01*
X163408958Y-83211623D02*
X162694673Y-83211623D01*
X163051816Y-83211623D02*
X163051816Y-81961623D01*
X163051816Y-81961623D02*
X162932768Y-82140195D01*
X162932768Y-82140195D02*
X162813720Y-82259242D01*
X162813720Y-82259242D02*
X162694673Y-82318766D01*
X164480387Y-82378290D02*
X164480387Y-83211623D01*
X164182768Y-81902100D02*
X163885149Y-82794957D01*
X163885149Y-82794957D02*
X164658958Y-82794957D01*
X120143482Y-49705146D02*
X120083958Y-49764670D01*
X120083958Y-49764670D02*
X119905387Y-49824193D01*
X119905387Y-49824193D02*
X119786339Y-49824193D01*
X119786339Y-49824193D02*
X119607768Y-49764670D01*
X119607768Y-49764670D02*
X119488720Y-49645622D01*
X119488720Y-49645622D02*
X119429197Y-49526574D01*
X119429197Y-49526574D02*
X119369673Y-49288479D01*
X119369673Y-49288479D02*
X119369673Y-49109908D01*
X119369673Y-49109908D02*
X119429197Y-48871812D01*
X119429197Y-48871812D02*
X119488720Y-48752765D01*
X119488720Y-48752765D02*
X119607768Y-48633717D01*
X119607768Y-48633717D02*
X119786339Y-48574193D01*
X119786339Y-48574193D02*
X119905387Y-48574193D01*
X119905387Y-48574193D02*
X120083958Y-48633717D01*
X120083958Y-48633717D02*
X120143482Y-48693241D01*
X120619673Y-49467050D02*
X121214911Y-49467050D01*
X120500625Y-49824193D02*
X120917292Y-48574193D01*
X120917292Y-48574193D02*
X121333958Y-49824193D01*
X121750626Y-49824193D02*
X121750626Y-48574193D01*
X121750626Y-48574193D02*
X122464911Y-49824193D01*
X122464911Y-49824193D02*
X122464911Y-48574193D01*
X124964912Y-49348003D02*
X125917293Y-49348003D01*
X126512531Y-48990860D02*
X127464912Y-49348003D01*
X127464912Y-49348003D02*
X126512531Y-49705146D01*
X120143482Y-51717576D02*
X120083958Y-51777100D01*
X120083958Y-51777100D02*
X119905387Y-51836623D01*
X119905387Y-51836623D02*
X119786339Y-51836623D01*
X119786339Y-51836623D02*
X119607768Y-51777100D01*
X119607768Y-51777100D02*
X119488720Y-51658052D01*
X119488720Y-51658052D02*
X119429197Y-51539004D01*
X119429197Y-51539004D02*
X119369673Y-51300909D01*
X119369673Y-51300909D02*
X119369673Y-51122338D01*
X119369673Y-51122338D02*
X119429197Y-50884242D01*
X119429197Y-50884242D02*
X119488720Y-50765195D01*
X119488720Y-50765195D02*
X119607768Y-50646147D01*
X119607768Y-50646147D02*
X119786339Y-50586623D01*
X119786339Y-50586623D02*
X119905387Y-50586623D01*
X119905387Y-50586623D02*
X120083958Y-50646147D01*
X120083958Y-50646147D02*
X120143482Y-50705671D01*
X120857768Y-51836623D02*
X120738720Y-51777100D01*
X120738720Y-51777100D02*
X120679197Y-51717576D01*
X120679197Y-51717576D02*
X120619673Y-51598528D01*
X120619673Y-51598528D02*
X120619673Y-51241385D01*
X120619673Y-51241385D02*
X120679197Y-51122338D01*
X120679197Y-51122338D02*
X120738720Y-51062814D01*
X120738720Y-51062814D02*
X120857768Y-51003290D01*
X120857768Y-51003290D02*
X121036339Y-51003290D01*
X121036339Y-51003290D02*
X121155387Y-51062814D01*
X121155387Y-51062814D02*
X121214911Y-51122338D01*
X121214911Y-51122338D02*
X121274435Y-51241385D01*
X121274435Y-51241385D02*
X121274435Y-51598528D01*
X121274435Y-51598528D02*
X121214911Y-51717576D01*
X121214911Y-51717576D02*
X121155387Y-51777100D01*
X121155387Y-51777100D02*
X121036339Y-51836623D01*
X121036339Y-51836623D02*
X120857768Y-51836623D01*
X121810149Y-51003290D02*
X121810149Y-51836623D01*
X121810149Y-51122338D02*
X121869672Y-51062814D01*
X121869672Y-51062814D02*
X121988720Y-51003290D01*
X121988720Y-51003290D02*
X122167291Y-51003290D01*
X122167291Y-51003290D02*
X122286339Y-51062814D01*
X122286339Y-51062814D02*
X122345863Y-51181861D01*
X122345863Y-51181861D02*
X122345863Y-51836623D01*
X122941101Y-51003290D02*
X122941101Y-51836623D01*
X122941101Y-51122338D02*
X123000624Y-51062814D01*
X123000624Y-51062814D02*
X123119672Y-51003290D01*
X123119672Y-51003290D02*
X123298243Y-51003290D01*
X123298243Y-51003290D02*
X123417291Y-51062814D01*
X123417291Y-51062814D02*
X123476815Y-51181861D01*
X123476815Y-51181861D02*
X123476815Y-51836623D01*
X125024434Y-51360433D02*
X125976815Y-51360433D01*
X126572053Y-51003290D02*
X127524434Y-51360433D01*
X127524434Y-51360433D02*
X126572053Y-51717576D01*
X124520863Y-82706861D02*
X124699435Y-82766385D01*
X124699435Y-82766385D02*
X124758958Y-82825909D01*
X124758958Y-82825909D02*
X124818482Y-82944957D01*
X124818482Y-82944957D02*
X124818482Y-83123528D01*
X124818482Y-83123528D02*
X124758958Y-83242576D01*
X124758958Y-83242576D02*
X124699435Y-83302100D01*
X124699435Y-83302100D02*
X124580387Y-83361623D01*
X124580387Y-83361623D02*
X124104197Y-83361623D01*
X124104197Y-83361623D02*
X124104197Y-82111623D01*
X124104197Y-82111623D02*
X124520863Y-82111623D01*
X124520863Y-82111623D02*
X124639911Y-82171147D01*
X124639911Y-82171147D02*
X124699435Y-82230671D01*
X124699435Y-82230671D02*
X124758958Y-82349719D01*
X124758958Y-82349719D02*
X124758958Y-82468766D01*
X124758958Y-82468766D02*
X124699435Y-82587814D01*
X124699435Y-82587814D02*
X124639911Y-82647338D01*
X124639911Y-82647338D02*
X124520863Y-82706861D01*
X124520863Y-82706861D02*
X124104197Y-82706861D01*
X126008958Y-83361623D02*
X125294673Y-83361623D01*
X125651816Y-83361623D02*
X125651816Y-82111623D01*
X125651816Y-82111623D02*
X125532768Y-82290195D01*
X125532768Y-82290195D02*
X125413720Y-82409242D01*
X125413720Y-82409242D02*
X125294673Y-82468766D01*
D11*
X121615776Y-114589877D02*
X122568157Y-114589877D01*
X122091966Y-115066067D02*
X122091966Y-114113686D01*
D10*
X158369673Y-52352100D02*
X158548244Y-52411623D01*
X158548244Y-52411623D02*
X158845863Y-52411623D01*
X158845863Y-52411623D02*
X158964911Y-52352100D01*
X158964911Y-52352100D02*
X159024435Y-52292576D01*
X159024435Y-52292576D02*
X159083958Y-52173528D01*
X159083958Y-52173528D02*
X159083958Y-52054480D01*
X159083958Y-52054480D02*
X159024435Y-51935433D01*
X159024435Y-51935433D02*
X158964911Y-51875909D01*
X158964911Y-51875909D02*
X158845863Y-51816385D01*
X158845863Y-51816385D02*
X158607768Y-51756861D01*
X158607768Y-51756861D02*
X158488720Y-51697338D01*
X158488720Y-51697338D02*
X158429197Y-51637814D01*
X158429197Y-51637814D02*
X158369673Y-51518766D01*
X158369673Y-51518766D02*
X158369673Y-51399719D01*
X158369673Y-51399719D02*
X158429197Y-51280671D01*
X158429197Y-51280671D02*
X158488720Y-51221147D01*
X158488720Y-51221147D02*
X158607768Y-51161623D01*
X158607768Y-51161623D02*
X158905387Y-51161623D01*
X158905387Y-51161623D02*
X159083958Y-51221147D01*
X159500625Y-51161623D02*
X159798244Y-52411623D01*
X159798244Y-52411623D02*
X160036339Y-51518766D01*
X160036339Y-51518766D02*
X160274434Y-52411623D01*
X160274434Y-52411623D02*
X160572054Y-51161623D01*
X161762529Y-52292576D02*
X161703005Y-52352100D01*
X161703005Y-52352100D02*
X161524434Y-52411623D01*
X161524434Y-52411623D02*
X161405386Y-52411623D01*
X161405386Y-52411623D02*
X161226815Y-52352100D01*
X161226815Y-52352100D02*
X161107767Y-52233052D01*
X161107767Y-52233052D02*
X161048244Y-52114004D01*
X161048244Y-52114004D02*
X160988720Y-51875909D01*
X160988720Y-51875909D02*
X160988720Y-51697338D01*
X160988720Y-51697338D02*
X161048244Y-51459242D01*
X161048244Y-51459242D02*
X161107767Y-51340195D01*
X161107767Y-51340195D02*
X161226815Y-51221147D01*
X161226815Y-51221147D02*
X161405386Y-51161623D01*
X161405386Y-51161623D02*
X161524434Y-51161623D01*
X161524434Y-51161623D02*
X161703005Y-51221147D01*
X161703005Y-51221147D02*
X161762529Y-51280671D01*
X162893482Y-52411623D02*
X162298244Y-52411623D01*
X162298244Y-52411623D02*
X162298244Y-51161623D01*
X163310149Y-52411623D02*
X163310149Y-51161623D01*
X164024434Y-52411623D02*
X163488720Y-51697338D01*
X164024434Y-51161623D02*
X163310149Y-51875909D01*
X124162173Y-95307671D02*
X124221697Y-95248147D01*
X124221697Y-95248147D02*
X124340744Y-95188623D01*
X124340744Y-95188623D02*
X124638363Y-95188623D01*
X124638363Y-95188623D02*
X124757411Y-95248147D01*
X124757411Y-95248147D02*
X124816935Y-95307671D01*
X124816935Y-95307671D02*
X124876458Y-95426719D01*
X124876458Y-95426719D02*
X124876458Y-95545766D01*
X124876458Y-95545766D02*
X124816935Y-95724338D01*
X124816935Y-95724338D02*
X124102649Y-96438623D01*
X124102649Y-96438623D02*
X124876458Y-96438623D01*
X125947887Y-95605290D02*
X125947887Y-96438623D01*
X125650268Y-95129100D02*
X125352649Y-96021957D01*
X125352649Y-96021957D02*
X126126458Y-96021957D01*
X126424077Y-95188623D02*
X126840744Y-96438623D01*
X126840744Y-96438623D02*
X127257410Y-95188623D01*
X124094673Y-67754480D02*
X124689911Y-67754480D01*
X123975625Y-68111623D02*
X124392292Y-66861623D01*
X124392292Y-66861623D02*
X124808958Y-68111623D01*
X125106578Y-66861623D02*
X125880387Y-66861623D01*
X125880387Y-66861623D02*
X125463721Y-67337814D01*
X125463721Y-67337814D02*
X125642292Y-67337814D01*
X125642292Y-67337814D02*
X125761340Y-67397338D01*
X125761340Y-67397338D02*
X125820864Y-67456861D01*
X125820864Y-67456861D02*
X125880387Y-67575909D01*
X125880387Y-67575909D02*
X125880387Y-67873528D01*
X125880387Y-67873528D02*
X125820864Y-67992576D01*
X125820864Y-67992576D02*
X125761340Y-68052100D01*
X125761340Y-68052100D02*
X125642292Y-68111623D01*
X125642292Y-68111623D02*
X125285149Y-68111623D01*
X125285149Y-68111623D02*
X125166102Y-68052100D01*
X125166102Y-68052100D02*
X125106578Y-67992576D01*
X137317576Y-52831517D02*
X137377100Y-52891041D01*
X137377100Y-52891041D02*
X137436623Y-53069612D01*
X137436623Y-53069612D02*
X137436623Y-53188660D01*
X137436623Y-53188660D02*
X137377100Y-53367231D01*
X137377100Y-53367231D02*
X137258052Y-53486279D01*
X137258052Y-53486279D02*
X137139004Y-53545802D01*
X137139004Y-53545802D02*
X136900909Y-53605326D01*
X136900909Y-53605326D02*
X136722338Y-53605326D01*
X136722338Y-53605326D02*
X136484242Y-53545802D01*
X136484242Y-53545802D02*
X136365195Y-53486279D01*
X136365195Y-53486279D02*
X136246147Y-53367231D01*
X136246147Y-53367231D02*
X136186623Y-53188660D01*
X136186623Y-53188660D02*
X136186623Y-53069612D01*
X136186623Y-53069612D02*
X136246147Y-52891041D01*
X136246147Y-52891041D02*
X136305671Y-52831517D01*
X137436623Y-52295802D02*
X136186623Y-52295802D01*
X136781861Y-52295802D02*
X136781861Y-51581517D01*
X137436623Y-51581517D02*
X136186623Y-51581517D01*
X148967576Y-53731517D02*
X149027100Y-53791041D01*
X149027100Y-53791041D02*
X149086623Y-53969612D01*
X149086623Y-53969612D02*
X149086623Y-54088660D01*
X149086623Y-54088660D02*
X149027100Y-54267231D01*
X149027100Y-54267231D02*
X148908052Y-54386279D01*
X148908052Y-54386279D02*
X148789004Y-54445802D01*
X148789004Y-54445802D02*
X148550909Y-54505326D01*
X148550909Y-54505326D02*
X148372338Y-54505326D01*
X148372338Y-54505326D02*
X148134242Y-54445802D01*
X148134242Y-54445802D02*
X148015195Y-54386279D01*
X148015195Y-54386279D02*
X147896147Y-54267231D01*
X147896147Y-54267231D02*
X147836623Y-54088660D01*
X147836623Y-54088660D02*
X147836623Y-53969612D01*
X147836623Y-53969612D02*
X147896147Y-53791041D01*
X147896147Y-53791041D02*
X147955671Y-53731517D01*
X149086623Y-52600564D02*
X149086623Y-53195802D01*
X149086623Y-53195802D02*
X147836623Y-53195802D01*
X123944673Y-60004480D02*
X124539911Y-60004480D01*
X123825625Y-60361623D02*
X124242292Y-59111623D01*
X124242292Y-59111623D02*
X124658958Y-60361623D01*
X125313721Y-59111623D02*
X125432768Y-59111623D01*
X125432768Y-59111623D02*
X125551816Y-59171147D01*
X125551816Y-59171147D02*
X125611340Y-59230671D01*
X125611340Y-59230671D02*
X125670864Y-59349719D01*
X125670864Y-59349719D02*
X125730387Y-59587814D01*
X125730387Y-59587814D02*
X125730387Y-59885433D01*
X125730387Y-59885433D02*
X125670864Y-60123528D01*
X125670864Y-60123528D02*
X125611340Y-60242576D01*
X125611340Y-60242576D02*
X125551816Y-60302100D01*
X125551816Y-60302100D02*
X125432768Y-60361623D01*
X125432768Y-60361623D02*
X125313721Y-60361623D01*
X125313721Y-60361623D02*
X125194673Y-60302100D01*
X125194673Y-60302100D02*
X125135149Y-60242576D01*
X125135149Y-60242576D02*
X125075626Y-60123528D01*
X125075626Y-60123528D02*
X125016102Y-59885433D01*
X125016102Y-59885433D02*
X125016102Y-59587814D01*
X125016102Y-59587814D02*
X125075626Y-59349719D01*
X125075626Y-59349719D02*
X125135149Y-59230671D01*
X125135149Y-59230671D02*
X125194673Y-59171147D01*
X125194673Y-59171147D02*
X125313721Y-59111623D01*
X162569673Y-75154480D02*
X163164911Y-75154480D01*
X162450625Y-75511623D02*
X162867292Y-74261623D01*
X162867292Y-74261623D02*
X163283958Y-75511623D01*
X163760149Y-75511623D02*
X163998245Y-75511623D01*
X163998245Y-75511623D02*
X164117292Y-75452100D01*
X164117292Y-75452100D02*
X164176816Y-75392576D01*
X164176816Y-75392576D02*
X164295864Y-75214004D01*
X164295864Y-75214004D02*
X164355387Y-74975909D01*
X164355387Y-74975909D02*
X164355387Y-74499719D01*
X164355387Y-74499719D02*
X164295864Y-74380671D01*
X164295864Y-74380671D02*
X164236340Y-74321147D01*
X164236340Y-74321147D02*
X164117292Y-74261623D01*
X164117292Y-74261623D02*
X163879197Y-74261623D01*
X163879197Y-74261623D02*
X163760149Y-74321147D01*
X163760149Y-74321147D02*
X163700626Y-74380671D01*
X163700626Y-74380671D02*
X163641102Y-74499719D01*
X163641102Y-74499719D02*
X163641102Y-74797338D01*
X163641102Y-74797338D02*
X163700626Y-74916385D01*
X163700626Y-74916385D02*
X163760149Y-74975909D01*
X163760149Y-74975909D02*
X163879197Y-75035433D01*
X163879197Y-75035433D02*
X164117292Y-75035433D01*
X164117292Y-75035433D02*
X164236340Y-74975909D01*
X164236340Y-74975909D02*
X164295864Y-74916385D01*
X164295864Y-74916385D02*
X164355387Y-74797338D01*
X155735149Y-57836623D02*
X156508958Y-57836623D01*
X156508958Y-57836623D02*
X156092292Y-58312814D01*
X156092292Y-58312814D02*
X156270863Y-58312814D01*
X156270863Y-58312814D02*
X156389911Y-58372338D01*
X156389911Y-58372338D02*
X156449435Y-58431861D01*
X156449435Y-58431861D02*
X156508958Y-58550909D01*
X156508958Y-58550909D02*
X156508958Y-58848528D01*
X156508958Y-58848528D02*
X156449435Y-58967576D01*
X156449435Y-58967576D02*
X156389911Y-59027100D01*
X156389911Y-59027100D02*
X156270863Y-59086623D01*
X156270863Y-59086623D02*
X155913720Y-59086623D01*
X155913720Y-59086623D02*
X155794673Y-59027100D01*
X155794673Y-59027100D02*
X155735149Y-58967576D01*
X156866101Y-57836623D02*
X157282768Y-59086623D01*
X157282768Y-59086623D02*
X157699434Y-57836623D01*
X157997054Y-57836623D02*
X158770863Y-57836623D01*
X158770863Y-57836623D02*
X158354197Y-58312814D01*
X158354197Y-58312814D02*
X158532768Y-58312814D01*
X158532768Y-58312814D02*
X158651816Y-58372338D01*
X158651816Y-58372338D02*
X158711340Y-58431861D01*
X158711340Y-58431861D02*
X158770863Y-58550909D01*
X158770863Y-58550909D02*
X158770863Y-58848528D01*
X158770863Y-58848528D02*
X158711340Y-58967576D01*
X158711340Y-58967576D02*
X158651816Y-59027100D01*
X158651816Y-59027100D02*
X158532768Y-59086623D01*
X158532768Y-59086623D02*
X158175625Y-59086623D01*
X158175625Y-59086623D02*
X158056578Y-59027100D01*
X158056578Y-59027100D02*
X157997054Y-58967576D01*
D11*
X138023276Y-77337877D02*
X138975657Y-77337877D01*
X153307142Y-59584424D02*
X153259523Y-59632044D01*
X153259523Y-59632044D02*
X153116666Y-59679663D01*
X153116666Y-59679663D02*
X153021428Y-59679663D01*
X153021428Y-59679663D02*
X152878571Y-59632044D01*
X152878571Y-59632044D02*
X152783333Y-59536805D01*
X152783333Y-59536805D02*
X152735714Y-59441567D01*
X152735714Y-59441567D02*
X152688095Y-59251091D01*
X152688095Y-59251091D02*
X152688095Y-59108234D01*
X152688095Y-59108234D02*
X152735714Y-58917758D01*
X152735714Y-58917758D02*
X152783333Y-58822520D01*
X152783333Y-58822520D02*
X152878571Y-58727282D01*
X152878571Y-58727282D02*
X153021428Y-58679663D01*
X153021428Y-58679663D02*
X153116666Y-58679663D01*
X153116666Y-58679663D02*
X153259523Y-58727282D01*
X153259523Y-58727282D02*
X153307142Y-58774901D01*
X154259523Y-59679663D02*
X153688095Y-59679663D01*
X153973809Y-59679663D02*
X153973809Y-58679663D01*
X153973809Y-58679663D02*
X153878571Y-58822520D01*
X153878571Y-58822520D02*
X153783333Y-58917758D01*
X153783333Y-58917758D02*
X153688095Y-58965377D01*
X154735714Y-59679663D02*
X154926190Y-59679663D01*
X154926190Y-59679663D02*
X155021428Y-59632044D01*
X155021428Y-59632044D02*
X155069047Y-59584424D01*
X155069047Y-59584424D02*
X155164285Y-59441567D01*
X155164285Y-59441567D02*
X155211904Y-59251091D01*
X155211904Y-59251091D02*
X155211904Y-58870139D01*
X155211904Y-58870139D02*
X155164285Y-58774901D01*
X155164285Y-58774901D02*
X155116666Y-58727282D01*
X155116666Y-58727282D02*
X155021428Y-58679663D01*
X155021428Y-58679663D02*
X154830952Y-58679663D01*
X154830952Y-58679663D02*
X154735714Y-58727282D01*
X154735714Y-58727282D02*
X154688095Y-58774901D01*
X154688095Y-58774901D02*
X154640476Y-58870139D01*
X154640476Y-58870139D02*
X154640476Y-59108234D01*
X154640476Y-59108234D02*
X154688095Y-59203472D01*
X154688095Y-59203472D02*
X154735714Y-59251091D01*
X154735714Y-59251091D02*
X154830952Y-59298710D01*
X154830952Y-59298710D02*
X155021428Y-59298710D01*
X155021428Y-59298710D02*
X155116666Y-59251091D01*
X155116666Y-59251091D02*
X155164285Y-59203472D01*
X155164285Y-59203472D02*
X155211904Y-59108234D01*
X143757142Y-66934424D02*
X143709523Y-66982044D01*
X143709523Y-66982044D02*
X143566666Y-67029663D01*
X143566666Y-67029663D02*
X143471428Y-67029663D01*
X143471428Y-67029663D02*
X143328571Y-66982044D01*
X143328571Y-66982044D02*
X143233333Y-66886805D01*
X143233333Y-66886805D02*
X143185714Y-66791567D01*
X143185714Y-66791567D02*
X143138095Y-66601091D01*
X143138095Y-66601091D02*
X143138095Y-66458234D01*
X143138095Y-66458234D02*
X143185714Y-66267758D01*
X143185714Y-66267758D02*
X143233333Y-66172520D01*
X143233333Y-66172520D02*
X143328571Y-66077282D01*
X143328571Y-66077282D02*
X143471428Y-66029663D01*
X143471428Y-66029663D02*
X143566666Y-66029663D01*
X143566666Y-66029663D02*
X143709523Y-66077282D01*
X143709523Y-66077282D02*
X143757142Y-66124901D01*
X144709523Y-67029663D02*
X144138095Y-67029663D01*
X144423809Y-67029663D02*
X144423809Y-66029663D01*
X144423809Y-66029663D02*
X144328571Y-66172520D01*
X144328571Y-66172520D02*
X144233333Y-66267758D01*
X144233333Y-66267758D02*
X144138095Y-66315377D01*
X145280952Y-66458234D02*
X145185714Y-66410615D01*
X145185714Y-66410615D02*
X145138095Y-66362996D01*
X145138095Y-66362996D02*
X145090476Y-66267758D01*
X145090476Y-66267758D02*
X145090476Y-66220139D01*
X145090476Y-66220139D02*
X145138095Y-66124901D01*
X145138095Y-66124901D02*
X145185714Y-66077282D01*
X145185714Y-66077282D02*
X145280952Y-66029663D01*
X145280952Y-66029663D02*
X145471428Y-66029663D01*
X145471428Y-66029663D02*
X145566666Y-66077282D01*
X145566666Y-66077282D02*
X145614285Y-66124901D01*
X145614285Y-66124901D02*
X145661904Y-66220139D01*
X145661904Y-66220139D02*
X145661904Y-66267758D01*
X145661904Y-66267758D02*
X145614285Y-66362996D01*
X145614285Y-66362996D02*
X145566666Y-66410615D01*
X145566666Y-66410615D02*
X145471428Y-66458234D01*
X145471428Y-66458234D02*
X145280952Y-66458234D01*
X145280952Y-66458234D02*
X145185714Y-66505853D01*
X145185714Y-66505853D02*
X145138095Y-66553472D01*
X145138095Y-66553472D02*
X145090476Y-66648710D01*
X145090476Y-66648710D02*
X145090476Y-66839186D01*
X145090476Y-66839186D02*
X145138095Y-66934424D01*
X145138095Y-66934424D02*
X145185714Y-66982044D01*
X145185714Y-66982044D02*
X145280952Y-67029663D01*
X145280952Y-67029663D02*
X145471428Y-67029663D01*
X145471428Y-67029663D02*
X145566666Y-66982044D01*
X145566666Y-66982044D02*
X145614285Y-66934424D01*
X145614285Y-66934424D02*
X145661904Y-66839186D01*
X145661904Y-66839186D02*
X145661904Y-66648710D01*
X145661904Y-66648710D02*
X145614285Y-66553472D01*
X145614285Y-66553472D02*
X145566666Y-66505853D01*
X145566666Y-66505853D02*
X145471428Y-66458234D01*
X144025833Y-103056663D02*
X143549643Y-103056663D01*
X143549643Y-103056663D02*
X143549643Y-102056663D01*
X144882976Y-103056663D02*
X144311548Y-103056663D01*
X144597262Y-103056663D02*
X144597262Y-102056663D01*
X144597262Y-102056663D02*
X144502024Y-102199520D01*
X144502024Y-102199520D02*
X144406786Y-102294758D01*
X144406786Y-102294758D02*
X144311548Y-102342377D01*
X142984424Y-86567857D02*
X143032044Y-86615476D01*
X143032044Y-86615476D02*
X143079663Y-86758333D01*
X143079663Y-86758333D02*
X143079663Y-86853571D01*
X143079663Y-86853571D02*
X143032044Y-86996428D01*
X143032044Y-86996428D02*
X142936805Y-87091666D01*
X142936805Y-87091666D02*
X142841567Y-87139285D01*
X142841567Y-87139285D02*
X142651091Y-87186904D01*
X142651091Y-87186904D02*
X142508234Y-87186904D01*
X142508234Y-87186904D02*
X142317758Y-87139285D01*
X142317758Y-87139285D02*
X142222520Y-87091666D01*
X142222520Y-87091666D02*
X142127282Y-86996428D01*
X142127282Y-86996428D02*
X142079663Y-86853571D01*
X142079663Y-86853571D02*
X142079663Y-86758333D01*
X142079663Y-86758333D02*
X142127282Y-86615476D01*
X142127282Y-86615476D02*
X142174901Y-86567857D01*
X143079663Y-85615476D02*
X143079663Y-86186904D01*
X143079663Y-85901190D02*
X142079663Y-85901190D01*
X142079663Y-85901190D02*
X142222520Y-85996428D01*
X142222520Y-85996428D02*
X142317758Y-86091666D01*
X142317758Y-86091666D02*
X142365377Y-86186904D01*
X142079663Y-85282142D02*
X142079663Y-84663095D01*
X142079663Y-84663095D02*
X142460615Y-84996428D01*
X142460615Y-84996428D02*
X142460615Y-84853571D01*
X142460615Y-84853571D02*
X142508234Y-84758333D01*
X142508234Y-84758333D02*
X142555853Y-84710714D01*
X142555853Y-84710714D02*
X142651091Y-84663095D01*
X142651091Y-84663095D02*
X142889186Y-84663095D01*
X142889186Y-84663095D02*
X142984424Y-84710714D01*
X142984424Y-84710714D02*
X143032044Y-84758333D01*
X143032044Y-84758333D02*
X143079663Y-84853571D01*
X143079663Y-84853571D02*
X143079663Y-85139285D01*
X143079663Y-85139285D02*
X143032044Y-85234523D01*
X143032044Y-85234523D02*
X142984424Y-85282142D01*
X133011905Y-119954663D02*
X133011905Y-118954663D01*
X133011905Y-118954663D02*
X133250000Y-118954663D01*
X133250000Y-118954663D02*
X133392857Y-119002282D01*
X133392857Y-119002282D02*
X133488095Y-119097520D01*
X133488095Y-119097520D02*
X133535714Y-119192758D01*
X133535714Y-119192758D02*
X133583333Y-119383234D01*
X133583333Y-119383234D02*
X133583333Y-119526091D01*
X133583333Y-119526091D02*
X133535714Y-119716567D01*
X133535714Y-119716567D02*
X133488095Y-119811805D01*
X133488095Y-119811805D02*
X133392857Y-119907044D01*
X133392857Y-119907044D02*
X133250000Y-119954663D01*
X133250000Y-119954663D02*
X133011905Y-119954663D01*
X133916667Y-118954663D02*
X134535714Y-118954663D01*
X134535714Y-118954663D02*
X134202381Y-119335615D01*
X134202381Y-119335615D02*
X134345238Y-119335615D01*
X134345238Y-119335615D02*
X134440476Y-119383234D01*
X134440476Y-119383234D02*
X134488095Y-119430853D01*
X134488095Y-119430853D02*
X134535714Y-119526091D01*
X134535714Y-119526091D02*
X134535714Y-119764186D01*
X134535714Y-119764186D02*
X134488095Y-119859424D01*
X134488095Y-119859424D02*
X134440476Y-119907044D01*
X134440476Y-119907044D02*
X134345238Y-119954663D01*
X134345238Y-119954663D02*
X134059524Y-119954663D01*
X134059524Y-119954663D02*
X133964286Y-119907044D01*
X133964286Y-119907044D02*
X133916667Y-119859424D01*
X161799642Y-110436424D02*
X161752023Y-110484044D01*
X161752023Y-110484044D02*
X161609166Y-110531663D01*
X161609166Y-110531663D02*
X161513928Y-110531663D01*
X161513928Y-110531663D02*
X161371071Y-110484044D01*
X161371071Y-110484044D02*
X161275833Y-110388805D01*
X161275833Y-110388805D02*
X161228214Y-110293567D01*
X161228214Y-110293567D02*
X161180595Y-110103091D01*
X161180595Y-110103091D02*
X161180595Y-109960234D01*
X161180595Y-109960234D02*
X161228214Y-109769758D01*
X161228214Y-109769758D02*
X161275833Y-109674520D01*
X161275833Y-109674520D02*
X161371071Y-109579282D01*
X161371071Y-109579282D02*
X161513928Y-109531663D01*
X161513928Y-109531663D02*
X161609166Y-109531663D01*
X161609166Y-109531663D02*
X161752023Y-109579282D01*
X161752023Y-109579282D02*
X161799642Y-109626901D01*
X162752023Y-110531663D02*
X162180595Y-110531663D01*
X162466309Y-110531663D02*
X162466309Y-109531663D01*
X162466309Y-109531663D02*
X162371071Y-109674520D01*
X162371071Y-109674520D02*
X162275833Y-109769758D01*
X162275833Y-109769758D02*
X162180595Y-109817377D01*
X163085357Y-109531663D02*
X163752023Y-109531663D01*
X163752023Y-109531663D02*
X163323452Y-110531663D01*
X125149642Y-102811424D02*
X125102023Y-102859044D01*
X125102023Y-102859044D02*
X124959166Y-102906663D01*
X124959166Y-102906663D02*
X124863928Y-102906663D01*
X124863928Y-102906663D02*
X124721071Y-102859044D01*
X124721071Y-102859044D02*
X124625833Y-102763805D01*
X124625833Y-102763805D02*
X124578214Y-102668567D01*
X124578214Y-102668567D02*
X124530595Y-102478091D01*
X124530595Y-102478091D02*
X124530595Y-102335234D01*
X124530595Y-102335234D02*
X124578214Y-102144758D01*
X124578214Y-102144758D02*
X124625833Y-102049520D01*
X124625833Y-102049520D02*
X124721071Y-101954282D01*
X124721071Y-101954282D02*
X124863928Y-101906663D01*
X124863928Y-101906663D02*
X124959166Y-101906663D01*
X124959166Y-101906663D02*
X125102023Y-101954282D01*
X125102023Y-101954282D02*
X125149642Y-102001901D01*
X126102023Y-102906663D02*
X125530595Y-102906663D01*
X125816309Y-102906663D02*
X125816309Y-101906663D01*
X125816309Y-101906663D02*
X125721071Y-102049520D01*
X125721071Y-102049520D02*
X125625833Y-102144758D01*
X125625833Y-102144758D02*
X125530595Y-102192377D01*
X126959166Y-101906663D02*
X126768690Y-101906663D01*
X126768690Y-101906663D02*
X126673452Y-101954282D01*
X126673452Y-101954282D02*
X126625833Y-102001901D01*
X126625833Y-102001901D02*
X126530595Y-102144758D01*
X126530595Y-102144758D02*
X126482976Y-102335234D01*
X126482976Y-102335234D02*
X126482976Y-102716186D01*
X126482976Y-102716186D02*
X126530595Y-102811424D01*
X126530595Y-102811424D02*
X126578214Y-102859044D01*
X126578214Y-102859044D02*
X126673452Y-102906663D01*
X126673452Y-102906663D02*
X126863928Y-102906663D01*
X126863928Y-102906663D02*
X126959166Y-102859044D01*
X126959166Y-102859044D02*
X127006785Y-102811424D01*
X127006785Y-102811424D02*
X127054404Y-102716186D01*
X127054404Y-102716186D02*
X127054404Y-102478091D01*
X127054404Y-102478091D02*
X127006785Y-102382853D01*
X127006785Y-102382853D02*
X126959166Y-102335234D01*
X126959166Y-102335234D02*
X126863928Y-102287615D01*
X126863928Y-102287615D02*
X126673452Y-102287615D01*
X126673452Y-102287615D02*
X126578214Y-102335234D01*
X126578214Y-102335234D02*
X126530595Y-102382853D01*
X126530595Y-102382853D02*
X126482976Y-102478091D01*
X128479405Y-112456663D02*
X128479405Y-111456663D01*
X128479405Y-111456663D02*
X128717500Y-111456663D01*
X128717500Y-111456663D02*
X128860357Y-111504282D01*
X128860357Y-111504282D02*
X128955595Y-111599520D01*
X128955595Y-111599520D02*
X129003214Y-111694758D01*
X129003214Y-111694758D02*
X129050833Y-111885234D01*
X129050833Y-111885234D02*
X129050833Y-112028091D01*
X129050833Y-112028091D02*
X129003214Y-112218567D01*
X129003214Y-112218567D02*
X128955595Y-112313805D01*
X128955595Y-112313805D02*
X128860357Y-112409044D01*
X128860357Y-112409044D02*
X128717500Y-112456663D01*
X128717500Y-112456663D02*
X128479405Y-112456663D01*
X129431786Y-111551901D02*
X129479405Y-111504282D01*
X129479405Y-111504282D02*
X129574643Y-111456663D01*
X129574643Y-111456663D02*
X129812738Y-111456663D01*
X129812738Y-111456663D02*
X129907976Y-111504282D01*
X129907976Y-111504282D02*
X129955595Y-111551901D01*
X129955595Y-111551901D02*
X130003214Y-111647139D01*
X130003214Y-111647139D02*
X130003214Y-111742377D01*
X130003214Y-111742377D02*
X129955595Y-111885234D01*
X129955595Y-111885234D02*
X129384167Y-112456663D01*
X129384167Y-112456663D02*
X130003214Y-112456663D01*
X136408333Y-67296924D02*
X136360714Y-67344544D01*
X136360714Y-67344544D02*
X136217857Y-67392163D01*
X136217857Y-67392163D02*
X136122619Y-67392163D01*
X136122619Y-67392163D02*
X135979762Y-67344544D01*
X135979762Y-67344544D02*
X135884524Y-67249305D01*
X135884524Y-67249305D02*
X135836905Y-67154067D01*
X135836905Y-67154067D02*
X135789286Y-66963591D01*
X135789286Y-66963591D02*
X135789286Y-66820734D01*
X135789286Y-66820734D02*
X135836905Y-66630258D01*
X135836905Y-66630258D02*
X135884524Y-66535020D01*
X135884524Y-66535020D02*
X135979762Y-66439782D01*
X135979762Y-66439782D02*
X136122619Y-66392163D01*
X136122619Y-66392163D02*
X136217857Y-66392163D01*
X136217857Y-66392163D02*
X136360714Y-66439782D01*
X136360714Y-66439782D02*
X136408333Y-66487401D01*
X136741667Y-66392163D02*
X137360714Y-66392163D01*
X137360714Y-66392163D02*
X137027381Y-66773115D01*
X137027381Y-66773115D02*
X137170238Y-66773115D01*
X137170238Y-66773115D02*
X137265476Y-66820734D01*
X137265476Y-66820734D02*
X137313095Y-66868353D01*
X137313095Y-66868353D02*
X137360714Y-66963591D01*
X137360714Y-66963591D02*
X137360714Y-67201686D01*
X137360714Y-67201686D02*
X137313095Y-67296924D01*
X137313095Y-67296924D02*
X137265476Y-67344544D01*
X137265476Y-67344544D02*
X137170238Y-67392163D01*
X137170238Y-67392163D02*
X136884524Y-67392163D01*
X136884524Y-67392163D02*
X136789286Y-67344544D01*
X136789286Y-67344544D02*
X136741667Y-67296924D01*
X140883333Y-80734424D02*
X140835714Y-80782044D01*
X140835714Y-80782044D02*
X140692857Y-80829663D01*
X140692857Y-80829663D02*
X140597619Y-80829663D01*
X140597619Y-80829663D02*
X140454762Y-80782044D01*
X140454762Y-80782044D02*
X140359524Y-80686805D01*
X140359524Y-80686805D02*
X140311905Y-80591567D01*
X140311905Y-80591567D02*
X140264286Y-80401091D01*
X140264286Y-80401091D02*
X140264286Y-80258234D01*
X140264286Y-80258234D02*
X140311905Y-80067758D01*
X140311905Y-80067758D02*
X140359524Y-79972520D01*
X140359524Y-79972520D02*
X140454762Y-79877282D01*
X140454762Y-79877282D02*
X140597619Y-79829663D01*
X140597619Y-79829663D02*
X140692857Y-79829663D01*
X140692857Y-79829663D02*
X140835714Y-79877282D01*
X140835714Y-79877282D02*
X140883333Y-79924901D01*
X141454762Y-80258234D02*
X141359524Y-80210615D01*
X141359524Y-80210615D02*
X141311905Y-80162996D01*
X141311905Y-80162996D02*
X141264286Y-80067758D01*
X141264286Y-80067758D02*
X141264286Y-80020139D01*
X141264286Y-80020139D02*
X141311905Y-79924901D01*
X141311905Y-79924901D02*
X141359524Y-79877282D01*
X141359524Y-79877282D02*
X141454762Y-79829663D01*
X141454762Y-79829663D02*
X141645238Y-79829663D01*
X141645238Y-79829663D02*
X141740476Y-79877282D01*
X141740476Y-79877282D02*
X141788095Y-79924901D01*
X141788095Y-79924901D02*
X141835714Y-80020139D01*
X141835714Y-80020139D02*
X141835714Y-80067758D01*
X141835714Y-80067758D02*
X141788095Y-80162996D01*
X141788095Y-80162996D02*
X141740476Y-80210615D01*
X141740476Y-80210615D02*
X141645238Y-80258234D01*
X141645238Y-80258234D02*
X141454762Y-80258234D01*
X141454762Y-80258234D02*
X141359524Y-80305853D01*
X141359524Y-80305853D02*
X141311905Y-80353472D01*
X141311905Y-80353472D02*
X141264286Y-80448710D01*
X141264286Y-80448710D02*
X141264286Y-80639186D01*
X141264286Y-80639186D02*
X141311905Y-80734424D01*
X141311905Y-80734424D02*
X141359524Y-80782044D01*
X141359524Y-80782044D02*
X141454762Y-80829663D01*
X141454762Y-80829663D02*
X141645238Y-80829663D01*
X141645238Y-80829663D02*
X141740476Y-80782044D01*
X141740476Y-80782044D02*
X141788095Y-80734424D01*
X141788095Y-80734424D02*
X141835714Y-80639186D01*
X141835714Y-80639186D02*
X141835714Y-80448710D01*
X141835714Y-80448710D02*
X141788095Y-80353472D01*
X141788095Y-80353472D02*
X141740476Y-80305853D01*
X141740476Y-80305853D02*
X141645238Y-80258234D01*
X130238095Y-94454663D02*
X130238095Y-95264186D01*
X130238095Y-95264186D02*
X130285714Y-95359424D01*
X130285714Y-95359424D02*
X130333333Y-95407044D01*
X130333333Y-95407044D02*
X130428571Y-95454663D01*
X130428571Y-95454663D02*
X130619047Y-95454663D01*
X130619047Y-95454663D02*
X130714285Y-95407044D01*
X130714285Y-95407044D02*
X130761904Y-95359424D01*
X130761904Y-95359424D02*
X130809523Y-95264186D01*
X130809523Y-95264186D02*
X130809523Y-94454663D01*
X131190476Y-94454663D02*
X131809523Y-94454663D01*
X131809523Y-94454663D02*
X131476190Y-94835615D01*
X131476190Y-94835615D02*
X131619047Y-94835615D01*
X131619047Y-94835615D02*
X131714285Y-94883234D01*
X131714285Y-94883234D02*
X131761904Y-94930853D01*
X131761904Y-94930853D02*
X131809523Y-95026091D01*
X131809523Y-95026091D02*
X131809523Y-95264186D01*
X131809523Y-95264186D02*
X131761904Y-95359424D01*
X131761904Y-95359424D02*
X131714285Y-95407044D01*
X131714285Y-95407044D02*
X131619047Y-95454663D01*
X131619047Y-95454663D02*
X131333333Y-95454663D01*
X131333333Y-95454663D02*
X131238095Y-95407044D01*
X131238095Y-95407044D02*
X131190476Y-95359424D01*
X147208333Y-74784424D02*
X147160714Y-74832044D01*
X147160714Y-74832044D02*
X147017857Y-74879663D01*
X147017857Y-74879663D02*
X146922619Y-74879663D01*
X146922619Y-74879663D02*
X146779762Y-74832044D01*
X146779762Y-74832044D02*
X146684524Y-74736805D01*
X146684524Y-74736805D02*
X146636905Y-74641567D01*
X146636905Y-74641567D02*
X146589286Y-74451091D01*
X146589286Y-74451091D02*
X146589286Y-74308234D01*
X146589286Y-74308234D02*
X146636905Y-74117758D01*
X146636905Y-74117758D02*
X146684524Y-74022520D01*
X146684524Y-74022520D02*
X146779762Y-73927282D01*
X146779762Y-73927282D02*
X146922619Y-73879663D01*
X146922619Y-73879663D02*
X147017857Y-73879663D01*
X147017857Y-73879663D02*
X147160714Y-73927282D01*
X147160714Y-73927282D02*
X147208333Y-73974901D01*
X148113095Y-73879663D02*
X147636905Y-73879663D01*
X147636905Y-73879663D02*
X147589286Y-74355853D01*
X147589286Y-74355853D02*
X147636905Y-74308234D01*
X147636905Y-74308234D02*
X147732143Y-74260615D01*
X147732143Y-74260615D02*
X147970238Y-74260615D01*
X147970238Y-74260615D02*
X148065476Y-74308234D01*
X148065476Y-74308234D02*
X148113095Y-74355853D01*
X148113095Y-74355853D02*
X148160714Y-74451091D01*
X148160714Y-74451091D02*
X148160714Y-74689186D01*
X148160714Y-74689186D02*
X148113095Y-74784424D01*
X148113095Y-74784424D02*
X148065476Y-74832044D01*
X148065476Y-74832044D02*
X147970238Y-74879663D01*
X147970238Y-74879663D02*
X147732143Y-74879663D01*
X147732143Y-74879663D02*
X147636905Y-74832044D01*
X147636905Y-74832044D02*
X147589286Y-74784424D01*
X152138095Y-86929663D02*
X152138095Y-87739186D01*
X152138095Y-87739186D02*
X152185714Y-87834424D01*
X152185714Y-87834424D02*
X152233333Y-87882044D01*
X152233333Y-87882044D02*
X152328571Y-87929663D01*
X152328571Y-87929663D02*
X152519047Y-87929663D01*
X152519047Y-87929663D02*
X152614285Y-87882044D01*
X152614285Y-87882044D02*
X152661904Y-87834424D01*
X152661904Y-87834424D02*
X152709523Y-87739186D01*
X152709523Y-87739186D02*
X152709523Y-86929663D01*
X153138095Y-87024901D02*
X153185714Y-86977282D01*
X153185714Y-86977282D02*
X153280952Y-86929663D01*
X153280952Y-86929663D02*
X153519047Y-86929663D01*
X153519047Y-86929663D02*
X153614285Y-86977282D01*
X153614285Y-86977282D02*
X153661904Y-87024901D01*
X153661904Y-87024901D02*
X153709523Y-87120139D01*
X153709523Y-87120139D02*
X153709523Y-87215377D01*
X153709523Y-87215377D02*
X153661904Y-87358234D01*
X153661904Y-87358234D02*
X153090476Y-87929663D01*
X153090476Y-87929663D02*
X153709523Y-87929663D01*
X147232142Y-77184424D02*
X147184523Y-77232044D01*
X147184523Y-77232044D02*
X147041666Y-77279663D01*
X147041666Y-77279663D02*
X146946428Y-77279663D01*
X146946428Y-77279663D02*
X146803571Y-77232044D01*
X146803571Y-77232044D02*
X146708333Y-77136805D01*
X146708333Y-77136805D02*
X146660714Y-77041567D01*
X146660714Y-77041567D02*
X146613095Y-76851091D01*
X146613095Y-76851091D02*
X146613095Y-76708234D01*
X146613095Y-76708234D02*
X146660714Y-76517758D01*
X146660714Y-76517758D02*
X146708333Y-76422520D01*
X146708333Y-76422520D02*
X146803571Y-76327282D01*
X146803571Y-76327282D02*
X146946428Y-76279663D01*
X146946428Y-76279663D02*
X147041666Y-76279663D01*
X147041666Y-76279663D02*
X147184523Y-76327282D01*
X147184523Y-76327282D02*
X147232142Y-76374901D01*
X148184523Y-77279663D02*
X147613095Y-77279663D01*
X147898809Y-77279663D02*
X147898809Y-76279663D01*
X147898809Y-76279663D02*
X147803571Y-76422520D01*
X147803571Y-76422520D02*
X147708333Y-76517758D01*
X147708333Y-76517758D02*
X147613095Y-76565377D01*
X149136904Y-77279663D02*
X148565476Y-77279663D01*
X148851190Y-77279663D02*
X148851190Y-76279663D01*
X148851190Y-76279663D02*
X148755952Y-76422520D01*
X148755952Y-76422520D02*
X148660714Y-76517758D01*
X148660714Y-76517758D02*
X148565476Y-76565377D01*
X143058333Y-74059424D02*
X143010714Y-74107044D01*
X143010714Y-74107044D02*
X142867857Y-74154663D01*
X142867857Y-74154663D02*
X142772619Y-74154663D01*
X142772619Y-74154663D02*
X142629762Y-74107044D01*
X142629762Y-74107044D02*
X142534524Y-74011805D01*
X142534524Y-74011805D02*
X142486905Y-73916567D01*
X142486905Y-73916567D02*
X142439286Y-73726091D01*
X142439286Y-73726091D02*
X142439286Y-73583234D01*
X142439286Y-73583234D02*
X142486905Y-73392758D01*
X142486905Y-73392758D02*
X142534524Y-73297520D01*
X142534524Y-73297520D02*
X142629762Y-73202282D01*
X142629762Y-73202282D02*
X142772619Y-73154663D01*
X142772619Y-73154663D02*
X142867857Y-73154663D01*
X142867857Y-73154663D02*
X143010714Y-73202282D01*
X143010714Y-73202282D02*
X143058333Y-73249901D01*
X143915476Y-73154663D02*
X143725000Y-73154663D01*
X143725000Y-73154663D02*
X143629762Y-73202282D01*
X143629762Y-73202282D02*
X143582143Y-73249901D01*
X143582143Y-73249901D02*
X143486905Y-73392758D01*
X143486905Y-73392758D02*
X143439286Y-73583234D01*
X143439286Y-73583234D02*
X143439286Y-73964186D01*
X143439286Y-73964186D02*
X143486905Y-74059424D01*
X143486905Y-74059424D02*
X143534524Y-74107044D01*
X143534524Y-74107044D02*
X143629762Y-74154663D01*
X143629762Y-74154663D02*
X143820238Y-74154663D01*
X143820238Y-74154663D02*
X143915476Y-74107044D01*
X143915476Y-74107044D02*
X143963095Y-74059424D01*
X143963095Y-74059424D02*
X144010714Y-73964186D01*
X144010714Y-73964186D02*
X144010714Y-73726091D01*
X144010714Y-73726091D02*
X143963095Y-73630853D01*
X143963095Y-73630853D02*
X143915476Y-73583234D01*
X143915476Y-73583234D02*
X143820238Y-73535615D01*
X143820238Y-73535615D02*
X143629762Y-73535615D01*
X143629762Y-73535615D02*
X143534524Y-73583234D01*
X143534524Y-73583234D02*
X143486905Y-73630853D01*
X143486905Y-73630853D02*
X143439286Y-73726091D01*
X156658333Y-83154663D02*
X156325000Y-82678472D01*
X156086905Y-83154663D02*
X156086905Y-82154663D01*
X156086905Y-82154663D02*
X156467857Y-82154663D01*
X156467857Y-82154663D02*
X156563095Y-82202282D01*
X156563095Y-82202282D02*
X156610714Y-82249901D01*
X156610714Y-82249901D02*
X156658333Y-82345139D01*
X156658333Y-82345139D02*
X156658333Y-82487996D01*
X156658333Y-82487996D02*
X156610714Y-82583234D01*
X156610714Y-82583234D02*
X156563095Y-82630853D01*
X156563095Y-82630853D02*
X156467857Y-82678472D01*
X156467857Y-82678472D02*
X156086905Y-82678472D01*
X157515476Y-82154663D02*
X157325000Y-82154663D01*
X157325000Y-82154663D02*
X157229762Y-82202282D01*
X157229762Y-82202282D02*
X157182143Y-82249901D01*
X157182143Y-82249901D02*
X157086905Y-82392758D01*
X157086905Y-82392758D02*
X157039286Y-82583234D01*
X157039286Y-82583234D02*
X157039286Y-82964186D01*
X157039286Y-82964186D02*
X157086905Y-83059424D01*
X157086905Y-83059424D02*
X157134524Y-83107044D01*
X157134524Y-83107044D02*
X157229762Y-83154663D01*
X157229762Y-83154663D02*
X157420238Y-83154663D01*
X157420238Y-83154663D02*
X157515476Y-83107044D01*
X157515476Y-83107044D02*
X157563095Y-83059424D01*
X157563095Y-83059424D02*
X157610714Y-82964186D01*
X157610714Y-82964186D02*
X157610714Y-82726091D01*
X157610714Y-82726091D02*
X157563095Y-82630853D01*
X157563095Y-82630853D02*
X157515476Y-82583234D01*
X157515476Y-82583234D02*
X157420238Y-82535615D01*
X157420238Y-82535615D02*
X157229762Y-82535615D01*
X157229762Y-82535615D02*
X157134524Y-82583234D01*
X157134524Y-82583234D02*
X157086905Y-82630853D01*
X157086905Y-82630853D02*
X157039286Y-82726091D01*
X144208333Y-89909424D02*
X144160714Y-89957044D01*
X144160714Y-89957044D02*
X144017857Y-90004663D01*
X144017857Y-90004663D02*
X143922619Y-90004663D01*
X143922619Y-90004663D02*
X143779762Y-89957044D01*
X143779762Y-89957044D02*
X143684524Y-89861805D01*
X143684524Y-89861805D02*
X143636905Y-89766567D01*
X143636905Y-89766567D02*
X143589286Y-89576091D01*
X143589286Y-89576091D02*
X143589286Y-89433234D01*
X143589286Y-89433234D02*
X143636905Y-89242758D01*
X143636905Y-89242758D02*
X143684524Y-89147520D01*
X143684524Y-89147520D02*
X143779762Y-89052282D01*
X143779762Y-89052282D02*
X143922619Y-89004663D01*
X143922619Y-89004663D02*
X144017857Y-89004663D01*
X144017857Y-89004663D02*
X144160714Y-89052282D01*
X144160714Y-89052282D02*
X144208333Y-89099901D01*
X145160714Y-90004663D02*
X144589286Y-90004663D01*
X144875000Y-90004663D02*
X144875000Y-89004663D01*
X144875000Y-89004663D02*
X144779762Y-89147520D01*
X144779762Y-89147520D02*
X144684524Y-89242758D01*
X144684524Y-89242758D02*
X144589286Y-89290377D01*
X154057142Y-78914424D02*
X154009523Y-78962044D01*
X154009523Y-78962044D02*
X153866666Y-79009663D01*
X153866666Y-79009663D02*
X153771428Y-79009663D01*
X153771428Y-79009663D02*
X153628571Y-78962044D01*
X153628571Y-78962044D02*
X153533333Y-78866805D01*
X153533333Y-78866805D02*
X153485714Y-78771567D01*
X153485714Y-78771567D02*
X153438095Y-78581091D01*
X153438095Y-78581091D02*
X153438095Y-78438234D01*
X153438095Y-78438234D02*
X153485714Y-78247758D01*
X153485714Y-78247758D02*
X153533333Y-78152520D01*
X153533333Y-78152520D02*
X153628571Y-78057282D01*
X153628571Y-78057282D02*
X153771428Y-78009663D01*
X153771428Y-78009663D02*
X153866666Y-78009663D01*
X153866666Y-78009663D02*
X154009523Y-78057282D01*
X154009523Y-78057282D02*
X154057142Y-78104901D01*
X155009523Y-79009663D02*
X154438095Y-79009663D01*
X154723809Y-79009663D02*
X154723809Y-78009663D01*
X154723809Y-78009663D02*
X154628571Y-78152520D01*
X154628571Y-78152520D02*
X154533333Y-78247758D01*
X154533333Y-78247758D02*
X154438095Y-78295377D01*
X155866666Y-78342996D02*
X155866666Y-79009663D01*
X155628571Y-77962044D02*
X155390476Y-78676329D01*
X155390476Y-78676329D02*
X156009523Y-78676329D01*
X141307142Y-82484424D02*
X141259523Y-82532044D01*
X141259523Y-82532044D02*
X141116666Y-82579663D01*
X141116666Y-82579663D02*
X141021428Y-82579663D01*
X141021428Y-82579663D02*
X140878571Y-82532044D01*
X140878571Y-82532044D02*
X140783333Y-82436805D01*
X140783333Y-82436805D02*
X140735714Y-82341567D01*
X140735714Y-82341567D02*
X140688095Y-82151091D01*
X140688095Y-82151091D02*
X140688095Y-82008234D01*
X140688095Y-82008234D02*
X140735714Y-81817758D01*
X140735714Y-81817758D02*
X140783333Y-81722520D01*
X140783333Y-81722520D02*
X140878571Y-81627282D01*
X140878571Y-81627282D02*
X141021428Y-81579663D01*
X141021428Y-81579663D02*
X141116666Y-81579663D01*
X141116666Y-81579663D02*
X141259523Y-81627282D01*
X141259523Y-81627282D02*
X141307142Y-81674901D01*
X142259523Y-82579663D02*
X141688095Y-82579663D01*
X141973809Y-82579663D02*
X141973809Y-81579663D01*
X141973809Y-81579663D02*
X141878571Y-81722520D01*
X141878571Y-81722520D02*
X141783333Y-81817758D01*
X141783333Y-81817758D02*
X141688095Y-81865377D01*
X142640476Y-81674901D02*
X142688095Y-81627282D01*
X142688095Y-81627282D02*
X142783333Y-81579663D01*
X142783333Y-81579663D02*
X143021428Y-81579663D01*
X143021428Y-81579663D02*
X143116666Y-81627282D01*
X143116666Y-81627282D02*
X143164285Y-81674901D01*
X143164285Y-81674901D02*
X143211904Y-81770139D01*
X143211904Y-81770139D02*
X143211904Y-81865377D01*
X143211904Y-81865377D02*
X143164285Y-82008234D01*
X143164285Y-82008234D02*
X142592857Y-82579663D01*
X142592857Y-82579663D02*
X143211904Y-82579663D01*
X134213095Y-58379663D02*
X134213095Y-59189186D01*
X134213095Y-59189186D02*
X134260714Y-59284424D01*
X134260714Y-59284424D02*
X134308333Y-59332044D01*
X134308333Y-59332044D02*
X134403571Y-59379663D01*
X134403571Y-59379663D02*
X134594047Y-59379663D01*
X134594047Y-59379663D02*
X134689285Y-59332044D01*
X134689285Y-59332044D02*
X134736904Y-59284424D01*
X134736904Y-59284424D02*
X134784523Y-59189186D01*
X134784523Y-59189186D02*
X134784523Y-58379663D01*
X135784523Y-59379663D02*
X135213095Y-59379663D01*
X135498809Y-59379663D02*
X135498809Y-58379663D01*
X135498809Y-58379663D02*
X135403571Y-58522520D01*
X135403571Y-58522520D02*
X135308333Y-58617758D01*
X135308333Y-58617758D02*
X135213095Y-58665377D01*
X135404663Y-65349999D02*
X135642758Y-65349999D01*
X135547520Y-65588094D02*
X135642758Y-65349999D01*
X135642758Y-65349999D02*
X135547520Y-65111904D01*
X135833234Y-65492856D02*
X135642758Y-65349999D01*
X135642758Y-65349999D02*
X135833234Y-65207142D01*
X135404663Y-65349999D02*
X135642758Y-65349999D01*
X135547520Y-65588094D02*
X135642758Y-65349999D01*
X135642758Y-65349999D02*
X135547520Y-65111904D01*
X135833234Y-65492856D02*
X135642758Y-65349999D01*
X135642758Y-65349999D02*
X135833234Y-65207142D01*
X155713095Y-65304663D02*
X155713095Y-66114186D01*
X155713095Y-66114186D02*
X155760714Y-66209424D01*
X155760714Y-66209424D02*
X155808333Y-66257044D01*
X155808333Y-66257044D02*
X155903571Y-66304663D01*
X155903571Y-66304663D02*
X156094047Y-66304663D01*
X156094047Y-66304663D02*
X156189285Y-66257044D01*
X156189285Y-66257044D02*
X156236904Y-66209424D01*
X156236904Y-66209424D02*
X156284523Y-66114186D01*
X156284523Y-66114186D02*
X156284523Y-65304663D01*
X157189285Y-65637996D02*
X157189285Y-66304663D01*
X156951190Y-65257044D02*
X156713095Y-65971329D01*
X156713095Y-65971329D02*
X157332142Y-65971329D01*
X137858333Y-79629663D02*
X137525000Y-79153472D01*
X137286905Y-79629663D02*
X137286905Y-78629663D01*
X137286905Y-78629663D02*
X137667857Y-78629663D01*
X137667857Y-78629663D02*
X137763095Y-78677282D01*
X137763095Y-78677282D02*
X137810714Y-78724901D01*
X137810714Y-78724901D02*
X137858333Y-78820139D01*
X137858333Y-78820139D02*
X137858333Y-78962996D01*
X137858333Y-78962996D02*
X137810714Y-79058234D01*
X137810714Y-79058234D02*
X137763095Y-79105853D01*
X137763095Y-79105853D02*
X137667857Y-79153472D01*
X137667857Y-79153472D02*
X137286905Y-79153472D01*
X138715476Y-78962996D02*
X138715476Y-79629663D01*
X138477381Y-78582044D02*
X138239286Y-79296329D01*
X138239286Y-79296329D02*
X138858333Y-79296329D01*
X135473809Y-79553472D02*
X135473809Y-80029663D01*
X135140476Y-79029663D02*
X135473809Y-79553472D01*
X135473809Y-79553472D02*
X135807142Y-79029663D01*
X136664285Y-80029663D02*
X136092857Y-80029663D01*
X136378571Y-80029663D02*
X136378571Y-79029663D01*
X136378571Y-79029663D02*
X136283333Y-79172520D01*
X136283333Y-79172520D02*
X136188095Y-79267758D01*
X136188095Y-79267758D02*
X136092857Y-79315377D01*
X133833333Y-85209424D02*
X133785714Y-85257044D01*
X133785714Y-85257044D02*
X133642857Y-85304663D01*
X133642857Y-85304663D02*
X133547619Y-85304663D01*
X133547619Y-85304663D02*
X133404762Y-85257044D01*
X133404762Y-85257044D02*
X133309524Y-85161805D01*
X133309524Y-85161805D02*
X133261905Y-85066567D01*
X133261905Y-85066567D02*
X133214286Y-84876091D01*
X133214286Y-84876091D02*
X133214286Y-84733234D01*
X133214286Y-84733234D02*
X133261905Y-84542758D01*
X133261905Y-84542758D02*
X133309524Y-84447520D01*
X133309524Y-84447520D02*
X133404762Y-84352282D01*
X133404762Y-84352282D02*
X133547619Y-84304663D01*
X133547619Y-84304663D02*
X133642857Y-84304663D01*
X133642857Y-84304663D02*
X133785714Y-84352282D01*
X133785714Y-84352282D02*
X133833333Y-84399901D01*
X134166667Y-84304663D02*
X134833333Y-84304663D01*
X134833333Y-84304663D02*
X134404762Y-85304663D01*
X148408333Y-93354663D02*
X148075000Y-92878472D01*
X147836905Y-93354663D02*
X147836905Y-92354663D01*
X147836905Y-92354663D02*
X148217857Y-92354663D01*
X148217857Y-92354663D02*
X148313095Y-92402282D01*
X148313095Y-92402282D02*
X148360714Y-92449901D01*
X148360714Y-92449901D02*
X148408333Y-92545139D01*
X148408333Y-92545139D02*
X148408333Y-92687996D01*
X148408333Y-92687996D02*
X148360714Y-92783234D01*
X148360714Y-92783234D02*
X148313095Y-92830853D01*
X148313095Y-92830853D02*
X148217857Y-92878472D01*
X148217857Y-92878472D02*
X147836905Y-92878472D01*
X148741667Y-92354663D02*
X149360714Y-92354663D01*
X149360714Y-92354663D02*
X149027381Y-92735615D01*
X149027381Y-92735615D02*
X149170238Y-92735615D01*
X149170238Y-92735615D02*
X149265476Y-92783234D01*
X149265476Y-92783234D02*
X149313095Y-92830853D01*
X149313095Y-92830853D02*
X149360714Y-92926091D01*
X149360714Y-92926091D02*
X149360714Y-93164186D01*
X149360714Y-93164186D02*
X149313095Y-93259424D01*
X149313095Y-93259424D02*
X149265476Y-93307044D01*
X149265476Y-93307044D02*
X149170238Y-93354663D01*
X149170238Y-93354663D02*
X148884524Y-93354663D01*
X148884524Y-93354663D02*
X148789286Y-93307044D01*
X148789286Y-93307044D02*
X148741667Y-93259424D01*
X137516666Y-86955853D02*
X137183333Y-86955853D01*
X137183333Y-87479663D02*
X137183333Y-86479663D01*
X137183333Y-86479663D02*
X137659523Y-86479663D01*
X138373809Y-86955853D02*
X138516666Y-87003472D01*
X138516666Y-87003472D02*
X138564285Y-87051091D01*
X138564285Y-87051091D02*
X138611904Y-87146329D01*
X138611904Y-87146329D02*
X138611904Y-87289186D01*
X138611904Y-87289186D02*
X138564285Y-87384424D01*
X138564285Y-87384424D02*
X138516666Y-87432044D01*
X138516666Y-87432044D02*
X138421428Y-87479663D01*
X138421428Y-87479663D02*
X138040476Y-87479663D01*
X138040476Y-87479663D02*
X138040476Y-86479663D01*
X138040476Y-86479663D02*
X138373809Y-86479663D01*
X138373809Y-86479663D02*
X138469047Y-86527282D01*
X138469047Y-86527282D02*
X138516666Y-86574901D01*
X138516666Y-86574901D02*
X138564285Y-86670139D01*
X138564285Y-86670139D02*
X138564285Y-86765377D01*
X138564285Y-86765377D02*
X138516666Y-86860615D01*
X138516666Y-86860615D02*
X138469047Y-86908234D01*
X138469047Y-86908234D02*
X138373809Y-86955853D01*
X138373809Y-86955853D02*
X138040476Y-86955853D01*
X139564285Y-87479663D02*
X138992857Y-87479663D01*
X139278571Y-87479663D02*
X139278571Y-86479663D01*
X139278571Y-86479663D02*
X139183333Y-86622520D01*
X139183333Y-86622520D02*
X139088095Y-86717758D01*
X139088095Y-86717758D02*
X138992857Y-86765377D01*
X143683333Y-60284424D02*
X143635714Y-60332044D01*
X143635714Y-60332044D02*
X143492857Y-60379663D01*
X143492857Y-60379663D02*
X143397619Y-60379663D01*
X143397619Y-60379663D02*
X143254762Y-60332044D01*
X143254762Y-60332044D02*
X143159524Y-60236805D01*
X143159524Y-60236805D02*
X143111905Y-60141567D01*
X143111905Y-60141567D02*
X143064286Y-59951091D01*
X143064286Y-59951091D02*
X143064286Y-59808234D01*
X143064286Y-59808234D02*
X143111905Y-59617758D01*
X143111905Y-59617758D02*
X143159524Y-59522520D01*
X143159524Y-59522520D02*
X143254762Y-59427282D01*
X143254762Y-59427282D02*
X143397619Y-59379663D01*
X143397619Y-59379663D02*
X143492857Y-59379663D01*
X143492857Y-59379663D02*
X143635714Y-59427282D01*
X143635714Y-59427282D02*
X143683333Y-59474901D01*
X144064286Y-59474901D02*
X144111905Y-59427282D01*
X144111905Y-59427282D02*
X144207143Y-59379663D01*
X144207143Y-59379663D02*
X144445238Y-59379663D01*
X144445238Y-59379663D02*
X144540476Y-59427282D01*
X144540476Y-59427282D02*
X144588095Y-59474901D01*
X144588095Y-59474901D02*
X144635714Y-59570139D01*
X144635714Y-59570139D02*
X144635714Y-59665377D01*
X144635714Y-59665377D02*
X144588095Y-59808234D01*
X144588095Y-59808234D02*
X144016667Y-60379663D01*
X144016667Y-60379663D02*
X144635714Y-60379663D01*
X151032142Y-90509424D02*
X150984523Y-90557044D01*
X150984523Y-90557044D02*
X150841666Y-90604663D01*
X150841666Y-90604663D02*
X150746428Y-90604663D01*
X150746428Y-90604663D02*
X150603571Y-90557044D01*
X150603571Y-90557044D02*
X150508333Y-90461805D01*
X150508333Y-90461805D02*
X150460714Y-90366567D01*
X150460714Y-90366567D02*
X150413095Y-90176091D01*
X150413095Y-90176091D02*
X150413095Y-90033234D01*
X150413095Y-90033234D02*
X150460714Y-89842758D01*
X150460714Y-89842758D02*
X150508333Y-89747520D01*
X150508333Y-89747520D02*
X150603571Y-89652282D01*
X150603571Y-89652282D02*
X150746428Y-89604663D01*
X150746428Y-89604663D02*
X150841666Y-89604663D01*
X150841666Y-89604663D02*
X150984523Y-89652282D01*
X150984523Y-89652282D02*
X151032142Y-89699901D01*
X151984523Y-90604663D02*
X151413095Y-90604663D01*
X151698809Y-90604663D02*
X151698809Y-89604663D01*
X151698809Y-89604663D02*
X151603571Y-89747520D01*
X151603571Y-89747520D02*
X151508333Y-89842758D01*
X151508333Y-89842758D02*
X151413095Y-89890377D01*
X152889285Y-89604663D02*
X152413095Y-89604663D01*
X152413095Y-89604663D02*
X152365476Y-90080853D01*
X152365476Y-90080853D02*
X152413095Y-90033234D01*
X152413095Y-90033234D02*
X152508333Y-89985615D01*
X152508333Y-89985615D02*
X152746428Y-89985615D01*
X152746428Y-89985615D02*
X152841666Y-90033234D01*
X152841666Y-90033234D02*
X152889285Y-90080853D01*
X152889285Y-90080853D02*
X152936904Y-90176091D01*
X152936904Y-90176091D02*
X152936904Y-90414186D01*
X152936904Y-90414186D02*
X152889285Y-90509424D01*
X152889285Y-90509424D02*
X152841666Y-90557044D01*
X152841666Y-90557044D02*
X152746428Y-90604663D01*
X152746428Y-90604663D02*
X152508333Y-90604663D01*
X152508333Y-90604663D02*
X152413095Y-90557044D01*
X152413095Y-90557044D02*
X152365476Y-90509424D01*
X143983333Y-78384424D02*
X143935714Y-78432044D01*
X143935714Y-78432044D02*
X143792857Y-78479663D01*
X143792857Y-78479663D02*
X143697619Y-78479663D01*
X143697619Y-78479663D02*
X143554762Y-78432044D01*
X143554762Y-78432044D02*
X143459524Y-78336805D01*
X143459524Y-78336805D02*
X143411905Y-78241567D01*
X143411905Y-78241567D02*
X143364286Y-78051091D01*
X143364286Y-78051091D02*
X143364286Y-77908234D01*
X143364286Y-77908234D02*
X143411905Y-77717758D01*
X143411905Y-77717758D02*
X143459524Y-77622520D01*
X143459524Y-77622520D02*
X143554762Y-77527282D01*
X143554762Y-77527282D02*
X143697619Y-77479663D01*
X143697619Y-77479663D02*
X143792857Y-77479663D01*
X143792857Y-77479663D02*
X143935714Y-77527282D01*
X143935714Y-77527282D02*
X143983333Y-77574901D01*
X144459524Y-78479663D02*
X144650000Y-78479663D01*
X144650000Y-78479663D02*
X144745238Y-78432044D01*
X144745238Y-78432044D02*
X144792857Y-78384424D01*
X144792857Y-78384424D02*
X144888095Y-78241567D01*
X144888095Y-78241567D02*
X144935714Y-78051091D01*
X144935714Y-78051091D02*
X144935714Y-77670139D01*
X144935714Y-77670139D02*
X144888095Y-77574901D01*
X144888095Y-77574901D02*
X144840476Y-77527282D01*
X144840476Y-77527282D02*
X144745238Y-77479663D01*
X144745238Y-77479663D02*
X144554762Y-77479663D01*
X144554762Y-77479663D02*
X144459524Y-77527282D01*
X144459524Y-77527282D02*
X144411905Y-77574901D01*
X144411905Y-77574901D02*
X144364286Y-77670139D01*
X144364286Y-77670139D02*
X144364286Y-77908234D01*
X144364286Y-77908234D02*
X144411905Y-78003472D01*
X144411905Y-78003472D02*
X144459524Y-78051091D01*
X144459524Y-78051091D02*
X144554762Y-78098710D01*
X144554762Y-78098710D02*
X144745238Y-78098710D01*
X144745238Y-78098710D02*
X144840476Y-78051091D01*
X144840476Y-78051091D02*
X144888095Y-78003472D01*
X144888095Y-78003472D02*
X144935714Y-77908234D01*
X138433333Y-70584424D02*
X138385714Y-70632044D01*
X138385714Y-70632044D02*
X138242857Y-70679663D01*
X138242857Y-70679663D02*
X138147619Y-70679663D01*
X138147619Y-70679663D02*
X138004762Y-70632044D01*
X138004762Y-70632044D02*
X137909524Y-70536805D01*
X137909524Y-70536805D02*
X137861905Y-70441567D01*
X137861905Y-70441567D02*
X137814286Y-70251091D01*
X137814286Y-70251091D02*
X137814286Y-70108234D01*
X137814286Y-70108234D02*
X137861905Y-69917758D01*
X137861905Y-69917758D02*
X137909524Y-69822520D01*
X137909524Y-69822520D02*
X138004762Y-69727282D01*
X138004762Y-69727282D02*
X138147619Y-69679663D01*
X138147619Y-69679663D02*
X138242857Y-69679663D01*
X138242857Y-69679663D02*
X138385714Y-69727282D01*
X138385714Y-69727282D02*
X138433333Y-69774901D01*
X139290476Y-70012996D02*
X139290476Y-70679663D01*
X139052381Y-69632044D02*
X138814286Y-70346329D01*
X138814286Y-70346329D02*
X139433333Y-70346329D01*
X152358333Y-74229663D02*
X152025000Y-73753472D01*
X151786905Y-74229663D02*
X151786905Y-73229663D01*
X151786905Y-73229663D02*
X152167857Y-73229663D01*
X152167857Y-73229663D02*
X152263095Y-73277282D01*
X152263095Y-73277282D02*
X152310714Y-73324901D01*
X152310714Y-73324901D02*
X152358333Y-73420139D01*
X152358333Y-73420139D02*
X152358333Y-73562996D01*
X152358333Y-73562996D02*
X152310714Y-73658234D01*
X152310714Y-73658234D02*
X152263095Y-73705853D01*
X152263095Y-73705853D02*
X152167857Y-73753472D01*
X152167857Y-73753472D02*
X151786905Y-73753472D01*
X152739286Y-73324901D02*
X152786905Y-73277282D01*
X152786905Y-73277282D02*
X152882143Y-73229663D01*
X152882143Y-73229663D02*
X153120238Y-73229663D01*
X153120238Y-73229663D02*
X153215476Y-73277282D01*
X153215476Y-73277282D02*
X153263095Y-73324901D01*
X153263095Y-73324901D02*
X153310714Y-73420139D01*
X153310714Y-73420139D02*
X153310714Y-73515377D01*
X153310714Y-73515377D02*
X153263095Y-73658234D01*
X153263095Y-73658234D02*
X152691667Y-74229663D01*
X152691667Y-74229663D02*
X153310714Y-74229663D01*
X146858333Y-59679663D02*
X146525000Y-59203472D01*
X146286905Y-59679663D02*
X146286905Y-58679663D01*
X146286905Y-58679663D02*
X146667857Y-58679663D01*
X146667857Y-58679663D02*
X146763095Y-58727282D01*
X146763095Y-58727282D02*
X146810714Y-58774901D01*
X146810714Y-58774901D02*
X146858333Y-58870139D01*
X146858333Y-58870139D02*
X146858333Y-59012996D01*
X146858333Y-59012996D02*
X146810714Y-59108234D01*
X146810714Y-59108234D02*
X146763095Y-59155853D01*
X146763095Y-59155853D02*
X146667857Y-59203472D01*
X146667857Y-59203472D02*
X146286905Y-59203472D01*
X147763095Y-58679663D02*
X147286905Y-58679663D01*
X147286905Y-58679663D02*
X147239286Y-59155853D01*
X147239286Y-59155853D02*
X147286905Y-59108234D01*
X147286905Y-59108234D02*
X147382143Y-59060615D01*
X147382143Y-59060615D02*
X147620238Y-59060615D01*
X147620238Y-59060615D02*
X147715476Y-59108234D01*
X147715476Y-59108234D02*
X147763095Y-59155853D01*
X147763095Y-59155853D02*
X147810714Y-59251091D01*
X147810714Y-59251091D02*
X147810714Y-59489186D01*
X147810714Y-59489186D02*
X147763095Y-59584424D01*
X147763095Y-59584424D02*
X147715476Y-59632044D01*
X147715476Y-59632044D02*
X147620238Y-59679663D01*
X147620238Y-59679663D02*
X147382143Y-59679663D01*
X147382143Y-59679663D02*
X147286905Y-59632044D01*
X147286905Y-59632044D02*
X147239286Y-59584424D01*
X140357142Y-88559424D02*
X140309523Y-88607044D01*
X140309523Y-88607044D02*
X140166666Y-88654663D01*
X140166666Y-88654663D02*
X140071428Y-88654663D01*
X140071428Y-88654663D02*
X139928571Y-88607044D01*
X139928571Y-88607044D02*
X139833333Y-88511805D01*
X139833333Y-88511805D02*
X139785714Y-88416567D01*
X139785714Y-88416567D02*
X139738095Y-88226091D01*
X139738095Y-88226091D02*
X139738095Y-88083234D01*
X139738095Y-88083234D02*
X139785714Y-87892758D01*
X139785714Y-87892758D02*
X139833333Y-87797520D01*
X139833333Y-87797520D02*
X139928571Y-87702282D01*
X139928571Y-87702282D02*
X140071428Y-87654663D01*
X140071428Y-87654663D02*
X140166666Y-87654663D01*
X140166666Y-87654663D02*
X140309523Y-87702282D01*
X140309523Y-87702282D02*
X140357142Y-87749901D01*
X141309523Y-88654663D02*
X140738095Y-88654663D01*
X141023809Y-88654663D02*
X141023809Y-87654663D01*
X141023809Y-87654663D02*
X140928571Y-87797520D01*
X140928571Y-87797520D02*
X140833333Y-87892758D01*
X140833333Y-87892758D02*
X140738095Y-87940377D01*
X141928571Y-87654663D02*
X142023809Y-87654663D01*
X142023809Y-87654663D02*
X142119047Y-87702282D01*
X142119047Y-87702282D02*
X142166666Y-87749901D01*
X142166666Y-87749901D02*
X142214285Y-87845139D01*
X142214285Y-87845139D02*
X142261904Y-88035615D01*
X142261904Y-88035615D02*
X142261904Y-88273710D01*
X142261904Y-88273710D02*
X142214285Y-88464186D01*
X142214285Y-88464186D02*
X142166666Y-88559424D01*
X142166666Y-88559424D02*
X142119047Y-88607044D01*
X142119047Y-88607044D02*
X142023809Y-88654663D01*
X142023809Y-88654663D02*
X141928571Y-88654663D01*
X141928571Y-88654663D02*
X141833333Y-88607044D01*
X141833333Y-88607044D02*
X141785714Y-88559424D01*
X141785714Y-88559424D02*
X141738095Y-88464186D01*
X141738095Y-88464186D02*
X141690476Y-88273710D01*
X141690476Y-88273710D02*
X141690476Y-88035615D01*
X141690476Y-88035615D02*
X141738095Y-87845139D01*
X141738095Y-87845139D02*
X141785714Y-87749901D01*
X141785714Y-87749901D02*
X141833333Y-87702282D01*
X141833333Y-87702282D02*
X141928571Y-87654663D01*
X140533333Y-57279663D02*
X140200000Y-56803472D01*
X139961905Y-57279663D02*
X139961905Y-56279663D01*
X139961905Y-56279663D02*
X140342857Y-56279663D01*
X140342857Y-56279663D02*
X140438095Y-56327282D01*
X140438095Y-56327282D02*
X140485714Y-56374901D01*
X140485714Y-56374901D02*
X140533333Y-56470139D01*
X140533333Y-56470139D02*
X140533333Y-56612996D01*
X140533333Y-56612996D02*
X140485714Y-56708234D01*
X140485714Y-56708234D02*
X140438095Y-56755853D01*
X140438095Y-56755853D02*
X140342857Y-56803472D01*
X140342857Y-56803472D02*
X139961905Y-56803472D01*
X141485714Y-57279663D02*
X140914286Y-57279663D01*
X141200000Y-57279663D02*
X141200000Y-56279663D01*
X141200000Y-56279663D02*
X141104762Y-56422520D01*
X141104762Y-56422520D02*
X141009524Y-56517758D01*
X141009524Y-56517758D02*
X140914286Y-56565377D01*
D12*
%TO.C,JP2*%
X133655000Y-54270000D02*
X133655000Y-56930000D01*
X136255000Y-54270000D02*
X133655000Y-54270000D01*
X136255000Y-54270000D02*
X136255000Y-56930000D01*
X136255000Y-56930000D02*
X133655000Y-56930000D01*
X137525000Y-54270000D02*
X138855000Y-54270000D01*
X138855000Y-54270000D02*
X138855000Y-55600000D01*
%TO.C,C19*%
X151086252Y-58277500D02*
X150563748Y-58277500D01*
X151086252Y-59747500D02*
X150563748Y-59747500D01*
%TO.C,J2*%
X124097500Y-118972000D02*
X124097500Y-121632000D01*
X126697500Y-118972000D02*
X124097500Y-118972000D01*
X126697500Y-118972000D02*
X126697500Y-121632000D01*
X126697500Y-121632000D02*
X124097500Y-121632000D01*
X127967500Y-118972000D02*
X129297500Y-118972000D01*
X129297500Y-118972000D02*
X129297500Y-120302000D01*
%TO.C,JP1*%
X148080000Y-72405000D02*
X148080000Y-71075000D01*
X149410000Y-72405000D02*
X148080000Y-72405000D01*
X150680000Y-69745000D02*
X155820000Y-69745000D01*
X150680000Y-72405000D02*
X150680000Y-69745000D01*
X150680000Y-72405000D02*
X155820000Y-72405000D01*
X155820000Y-72405000D02*
X155820000Y-69745000D01*
%TO.C,TP3*%
X155970000Y-59920000D02*
X157300000Y-59920000D01*
X155970000Y-61250000D02*
X155970000Y-59920000D01*
X155970000Y-62520000D02*
X155970000Y-62580000D01*
X155970000Y-62520000D02*
X158630000Y-62520000D01*
X155970000Y-62580000D02*
X158630000Y-62580000D01*
X158630000Y-62520000D02*
X158630000Y-62580000D01*
%TO.C,D1*%
X139290000Y-76940000D02*
X139290000Y-78410000D01*
X139290000Y-78410000D02*
X141575000Y-78410000D01*
X141575000Y-76940000D02*
X139290000Y-76940000D01*
%TO.C,C18*%
X143790000Y-64248752D02*
X143790000Y-63726248D01*
X145260000Y-64248752D02*
X145260000Y-63726248D01*
D13*
%TO.C,L1*%
X143291500Y-104055000D02*
X143291500Y-119549000D01*
X143291500Y-119549000D02*
X159293500Y-119549000D01*
X159293500Y-104055000D02*
X143291500Y-104055000D01*
X159293500Y-119549000D02*
X159293500Y-104055000D01*
D12*
%TO.C,C13*%
X141490000Y-83732836D02*
X141490000Y-83517164D01*
X142210000Y-83732836D02*
X142210000Y-83517164D01*
%TO.C,D3*%
X132232500Y-114952000D02*
X132232500Y-118252000D01*
X132232500Y-114952000D02*
X137742500Y-114952000D01*
X132232500Y-118252000D02*
X137742500Y-118252000D01*
%TO.C,J5*%
X132940000Y-48370000D02*
X132940000Y-51030000D01*
X138080000Y-48370000D02*
X132940000Y-48370000D01*
X138080000Y-48370000D02*
X138080000Y-51030000D01*
X138080000Y-51030000D02*
X132940000Y-51030000D01*
X139350000Y-48370000D02*
X140680000Y-48370000D01*
X140680000Y-48370000D02*
X140680000Y-49700000D01*
%TO.C,C17*%
X160337500Y-115074651D02*
X168497500Y-115074651D01*
X160337500Y-115114651D02*
X168497500Y-115114651D01*
X160337500Y-115154651D02*
X168497500Y-115154651D01*
X160338500Y-115034651D02*
X168496500Y-115034651D01*
X160340500Y-114994651D02*
X168494500Y-114994651D01*
X160341500Y-114954651D02*
X168493500Y-114954651D01*
X160343500Y-114914651D02*
X168491500Y-114914651D01*
X160346500Y-114874651D02*
X168488500Y-114874651D01*
X160349500Y-114834651D02*
X168485500Y-114834651D01*
X160352500Y-114794651D02*
X168482500Y-114794651D01*
X160356500Y-114754651D02*
X168478500Y-114754651D01*
X160360500Y-114714651D02*
X168474500Y-114714651D01*
X160365500Y-114674651D02*
X168469500Y-114674651D01*
X160369500Y-114634651D02*
X168465500Y-114634651D01*
X160375500Y-114594651D02*
X168459500Y-114594651D01*
X160380500Y-114554651D02*
X168454500Y-114554651D01*
X160387500Y-114514651D02*
X168447500Y-114514651D01*
X160393500Y-114474651D02*
X168441500Y-114474651D01*
X160400500Y-114433651D02*
X168434500Y-114433651D01*
X160407500Y-114393651D02*
X168427500Y-114393651D01*
X160415500Y-114353651D02*
X168419500Y-114353651D01*
X160423500Y-114313651D02*
X168411500Y-114313651D01*
X160432500Y-114273651D02*
X168402500Y-114273651D01*
X160441500Y-114233651D02*
X168393500Y-114233651D01*
X160450500Y-114193651D02*
X168384500Y-114193651D01*
X160460500Y-114153651D02*
X168374500Y-114153651D01*
X160470500Y-114113651D02*
X168364500Y-114113651D01*
X160481500Y-114073651D02*
X168353500Y-114073651D01*
X160492500Y-114033651D02*
X168342500Y-114033651D01*
X160503500Y-113993651D02*
X168331500Y-113993651D01*
X160515500Y-113953651D02*
X168319500Y-113953651D01*
X160528500Y-113913651D02*
X168306500Y-113913651D01*
X160540500Y-113873651D02*
X168294500Y-113873651D01*
X160554500Y-113833651D02*
X168280500Y-113833651D01*
X160567500Y-113793651D02*
X168267500Y-113793651D01*
X160582500Y-113753651D02*
X168252500Y-113753651D01*
X160596500Y-113713651D02*
X168238500Y-113713651D01*
X160612500Y-113673651D02*
X163377500Y-113673651D01*
X160627500Y-113633651D02*
X163377500Y-113633651D01*
X160643500Y-113593651D02*
X163377500Y-113593651D01*
X160660500Y-113553651D02*
X163377500Y-113553651D01*
X160677500Y-113513651D02*
X163377500Y-113513651D01*
X160695500Y-113473651D02*
X163377500Y-113473651D01*
X160713500Y-113433651D02*
X163377500Y-113433651D01*
X160731500Y-113393651D02*
X163377500Y-113393651D01*
X160751500Y-113353651D02*
X163377500Y-113353651D01*
X160770500Y-113313651D02*
X163377500Y-113313651D01*
X160790500Y-113273651D02*
X163377500Y-113273651D01*
X160811500Y-113233651D02*
X163377500Y-113233651D01*
X160833500Y-113193651D02*
X163377500Y-113193651D01*
X160855500Y-113153651D02*
X163377500Y-113153651D01*
X160877500Y-113113651D02*
X163377500Y-113113651D01*
X160900500Y-113073651D02*
X163377500Y-113073651D01*
X160924500Y-113033651D02*
X163377500Y-113033651D01*
X160948500Y-112993651D02*
X163377500Y-112993651D01*
X160973500Y-112953651D02*
X163377500Y-112953651D01*
X160999500Y-112913651D02*
X163377500Y-112913651D01*
X161025500Y-112873651D02*
X163377500Y-112873651D01*
X161052500Y-112833651D02*
X163377500Y-112833651D01*
X161079500Y-112793651D02*
X163377500Y-112793651D01*
X161108500Y-112753651D02*
X163377500Y-112753651D01*
X161137500Y-112713651D02*
X163377500Y-112713651D01*
X161167500Y-112673651D02*
X163377500Y-112673651D01*
X161197500Y-112633651D02*
X163377500Y-112633651D01*
X161228500Y-112593651D02*
X163377500Y-112593651D01*
X161261500Y-112553651D02*
X163377500Y-112553651D01*
X161293500Y-112513651D02*
X163377500Y-112513651D01*
X161327500Y-112473651D02*
X163377500Y-112473651D01*
X161362500Y-112433651D02*
X163377500Y-112433651D01*
X161398500Y-112393651D02*
X163377500Y-112393651D01*
X161434500Y-112353651D02*
X163377500Y-112353651D01*
X161472500Y-112313651D02*
X163377500Y-112313651D01*
X161510500Y-112273651D02*
X163377500Y-112273651D01*
X161550500Y-112233651D02*
X163377500Y-112233651D01*
X161591500Y-112193651D02*
X163377500Y-112193651D01*
X161633500Y-112153651D02*
X163377500Y-112153651D01*
X161676500Y-112113651D02*
X163377500Y-112113651D01*
X161702500Y-119164349D02*
X162502500Y-119164349D01*
X161720500Y-112073651D02*
X163377500Y-112073651D01*
X161766500Y-112033651D02*
X163377500Y-112033651D01*
X161813500Y-111993651D02*
X163377500Y-111993651D01*
X161861500Y-111953651D02*
X163377500Y-111953651D01*
X161912500Y-111913651D02*
X163377500Y-111913651D01*
X161963500Y-111873651D02*
X163377500Y-111873651D01*
X162017500Y-111833651D02*
X163377500Y-111833651D01*
X162072500Y-111793651D02*
X163377500Y-111793651D01*
X162102500Y-119564349D02*
X162102500Y-118764349D01*
X162130500Y-111753651D02*
X163377500Y-111753651D01*
X162189500Y-111713651D02*
X163377500Y-111713651D01*
X162251500Y-111673651D02*
X163377500Y-111673651D01*
X162315500Y-111633651D02*
X163377500Y-111633651D01*
X162383500Y-111593651D02*
X166451500Y-111593651D01*
X162453500Y-111553651D02*
X166381500Y-111553651D01*
X162527500Y-111513651D02*
X166307500Y-111513651D01*
X162604500Y-111473651D02*
X166230500Y-111473651D01*
X162686500Y-111433651D02*
X166148500Y-111433651D01*
X162772500Y-111393651D02*
X166062500Y-111393651D01*
X162865500Y-111353651D02*
X165969500Y-111353651D01*
X162964500Y-111313651D02*
X165870500Y-111313651D01*
X163071500Y-111273651D02*
X165763500Y-111273651D01*
X163188500Y-111233651D02*
X165646500Y-111233651D01*
X163319500Y-111193651D02*
X165515500Y-111193651D01*
X163469500Y-111153651D02*
X165365500Y-111153651D01*
X163649500Y-111113651D02*
X165185500Y-111113651D01*
X163884500Y-111073651D02*
X164950500Y-111073651D01*
X165457500Y-111633651D02*
X166519500Y-111633651D01*
X165457500Y-111673651D02*
X166583500Y-111673651D01*
X165457500Y-111713651D02*
X166645500Y-111713651D01*
X165457500Y-111753651D02*
X166704500Y-111753651D01*
X165457500Y-111793651D02*
X166762500Y-111793651D01*
X165457500Y-111833651D02*
X166817500Y-111833651D01*
X165457500Y-111873651D02*
X166871500Y-111873651D01*
X165457500Y-111913651D02*
X166922500Y-111913651D01*
X165457500Y-111953651D02*
X166973500Y-111953651D01*
X165457500Y-111993651D02*
X167021500Y-111993651D01*
X165457500Y-112033651D02*
X167068500Y-112033651D01*
X165457500Y-112073651D02*
X167114500Y-112073651D01*
X165457500Y-112113651D02*
X167158500Y-112113651D01*
X165457500Y-112153651D02*
X167201500Y-112153651D01*
X165457500Y-112193651D02*
X167243500Y-112193651D01*
X165457500Y-112233651D02*
X167284500Y-112233651D01*
X165457500Y-112273651D02*
X167324500Y-112273651D01*
X165457500Y-112313651D02*
X167362500Y-112313651D01*
X165457500Y-112353651D02*
X167400500Y-112353651D01*
X165457500Y-112393651D02*
X167436500Y-112393651D01*
X165457500Y-112433651D02*
X167472500Y-112433651D01*
X165457500Y-112473651D02*
X167507500Y-112473651D01*
X165457500Y-112513651D02*
X167541500Y-112513651D01*
X165457500Y-112553651D02*
X167573500Y-112553651D01*
X165457500Y-112593651D02*
X167606500Y-112593651D01*
X165457500Y-112633651D02*
X167637500Y-112633651D01*
X165457500Y-112673651D02*
X167667500Y-112673651D01*
X165457500Y-112713651D02*
X167697500Y-112713651D01*
X165457500Y-112753651D02*
X167726500Y-112753651D01*
X165457500Y-112793651D02*
X167755500Y-112793651D01*
X165457500Y-112833651D02*
X167782500Y-112833651D01*
X165457500Y-112873651D02*
X167809500Y-112873651D01*
X165457500Y-112913651D02*
X167835500Y-112913651D01*
X165457500Y-112953651D02*
X167861500Y-112953651D01*
X165457500Y-112993651D02*
X167886500Y-112993651D01*
X165457500Y-113033651D02*
X167910500Y-113033651D01*
X165457500Y-113073651D02*
X167934500Y-113073651D01*
X165457500Y-113113651D02*
X167957500Y-113113651D01*
X165457500Y-113153651D02*
X167979500Y-113153651D01*
X165457500Y-113193651D02*
X168001500Y-113193651D01*
X165457500Y-113233651D02*
X168023500Y-113233651D01*
X165457500Y-113273651D02*
X168044500Y-113273651D01*
X165457500Y-113313651D02*
X168064500Y-113313651D01*
X165457500Y-113353651D02*
X168083500Y-113353651D01*
X165457500Y-113393651D02*
X168103500Y-113393651D01*
X165457500Y-113433651D02*
X168121500Y-113433651D01*
X165457500Y-113473651D02*
X168139500Y-113473651D01*
X165457500Y-113513651D02*
X168157500Y-113513651D01*
X165457500Y-113553651D02*
X168174500Y-113553651D01*
X165457500Y-113593651D02*
X168191500Y-113593651D01*
X165457500Y-113633651D02*
X168207500Y-113633651D01*
X165457500Y-113673651D02*
X168222500Y-113673651D01*
X168537500Y-115154651D02*
G75*
G02*
X160297500Y-115154651I-4120000J0D01*
G01*
X160297500Y-115154651D02*
G75*
G02*
X168537500Y-115154651I4120000J0D01*
G01*
%TO.C,J7*%
X165820000Y-88930000D02*
X165820000Y-68550000D01*
X165820000Y-91530000D02*
X165820000Y-90200000D01*
X167150000Y-91530000D02*
X165820000Y-91530000D01*
X168480000Y-68550000D02*
X165820000Y-68550000D01*
X168480000Y-88930000D02*
X165820000Y-88930000D01*
X168480000Y-88930000D02*
X168480000Y-68550000D01*
%TO.C,C16*%
X121887500Y-107524651D02*
X130047500Y-107524651D01*
X121887500Y-107564651D02*
X130047500Y-107564651D01*
X121887500Y-107604651D02*
X130047500Y-107604651D01*
X121888500Y-107484651D02*
X130046500Y-107484651D01*
X121890500Y-107444651D02*
X130044500Y-107444651D01*
X121891500Y-107404651D02*
X130043500Y-107404651D01*
X121893500Y-107364651D02*
X130041500Y-107364651D01*
X121896500Y-107324651D02*
X130038500Y-107324651D01*
X121899500Y-107284651D02*
X130035500Y-107284651D01*
X121902500Y-107244651D02*
X130032500Y-107244651D01*
X121906500Y-107204651D02*
X130028500Y-107204651D01*
X121910500Y-107164651D02*
X130024500Y-107164651D01*
X121915500Y-107124651D02*
X130019500Y-107124651D01*
X121919500Y-107084651D02*
X130015500Y-107084651D01*
X121925500Y-107044651D02*
X130009500Y-107044651D01*
X121930500Y-107004651D02*
X130004500Y-107004651D01*
X121937500Y-106964651D02*
X129997500Y-106964651D01*
X121943500Y-106924651D02*
X129991500Y-106924651D01*
X121950500Y-106883651D02*
X129984500Y-106883651D01*
X121957500Y-106843651D02*
X129977500Y-106843651D01*
X121965500Y-106803651D02*
X129969500Y-106803651D01*
X121973500Y-106763651D02*
X129961500Y-106763651D01*
X121982500Y-106723651D02*
X129952500Y-106723651D01*
X121991500Y-106683651D02*
X129943500Y-106683651D01*
X122000500Y-106643651D02*
X129934500Y-106643651D01*
X122010500Y-106603651D02*
X129924500Y-106603651D01*
X122020500Y-106563651D02*
X129914500Y-106563651D01*
X122031500Y-106523651D02*
X129903500Y-106523651D01*
X122042500Y-106483651D02*
X129892500Y-106483651D01*
X122053500Y-106443651D02*
X129881500Y-106443651D01*
X122065500Y-106403651D02*
X129869500Y-106403651D01*
X122078500Y-106363651D02*
X129856500Y-106363651D01*
X122090500Y-106323651D02*
X129844500Y-106323651D01*
X122104500Y-106283651D02*
X129830500Y-106283651D01*
X122117500Y-106243651D02*
X129817500Y-106243651D01*
X122132500Y-106203651D02*
X129802500Y-106203651D01*
X122146500Y-106163651D02*
X129788500Y-106163651D01*
X122162500Y-106123651D02*
X124927500Y-106123651D01*
X122177500Y-106083651D02*
X124927500Y-106083651D01*
X122193500Y-106043651D02*
X124927500Y-106043651D01*
X122210500Y-106003651D02*
X124927500Y-106003651D01*
X122227500Y-105963651D02*
X124927500Y-105963651D01*
X122245500Y-105923651D02*
X124927500Y-105923651D01*
X122263500Y-105883651D02*
X124927500Y-105883651D01*
X122281500Y-105843651D02*
X124927500Y-105843651D01*
X122301500Y-105803651D02*
X124927500Y-105803651D01*
X122320500Y-105763651D02*
X124927500Y-105763651D01*
X122340500Y-105723651D02*
X124927500Y-105723651D01*
X122361500Y-105683651D02*
X124927500Y-105683651D01*
X122383500Y-105643651D02*
X124927500Y-105643651D01*
X122405500Y-105603651D02*
X124927500Y-105603651D01*
X122427500Y-105563651D02*
X124927500Y-105563651D01*
X122450500Y-105523651D02*
X124927500Y-105523651D01*
X122474500Y-105483651D02*
X124927500Y-105483651D01*
X122498500Y-105443651D02*
X124927500Y-105443651D01*
X122523500Y-105403651D02*
X124927500Y-105403651D01*
X122549500Y-105363651D02*
X124927500Y-105363651D01*
X122575500Y-105323651D02*
X124927500Y-105323651D01*
X122602500Y-105283651D02*
X124927500Y-105283651D01*
X122629500Y-105243651D02*
X124927500Y-105243651D01*
X122658500Y-105203651D02*
X124927500Y-105203651D01*
X122687500Y-105163651D02*
X124927500Y-105163651D01*
X122717500Y-105123651D02*
X124927500Y-105123651D01*
X122747500Y-105083651D02*
X124927500Y-105083651D01*
X122778500Y-105043651D02*
X124927500Y-105043651D01*
X122811500Y-105003651D02*
X124927500Y-105003651D01*
X122843500Y-104963651D02*
X124927500Y-104963651D01*
X122877500Y-104923651D02*
X124927500Y-104923651D01*
X122912500Y-104883651D02*
X124927500Y-104883651D01*
X122948500Y-104843651D02*
X124927500Y-104843651D01*
X122984500Y-104803651D02*
X124927500Y-104803651D01*
X123022500Y-104763651D02*
X124927500Y-104763651D01*
X123060500Y-104723651D02*
X124927500Y-104723651D01*
X123100500Y-104683651D02*
X124927500Y-104683651D01*
X123141500Y-104643651D02*
X124927500Y-104643651D01*
X123183500Y-104603651D02*
X124927500Y-104603651D01*
X123226500Y-104563651D02*
X124927500Y-104563651D01*
X123252500Y-111614349D02*
X124052500Y-111614349D01*
X123270500Y-104523651D02*
X124927500Y-104523651D01*
X123316500Y-104483651D02*
X124927500Y-104483651D01*
X123363500Y-104443651D02*
X124927500Y-104443651D01*
X123411500Y-104403651D02*
X124927500Y-104403651D01*
X123462500Y-104363651D02*
X124927500Y-104363651D01*
X123513500Y-104323651D02*
X124927500Y-104323651D01*
X123567500Y-104283651D02*
X124927500Y-104283651D01*
X123622500Y-104243651D02*
X124927500Y-104243651D01*
X123652500Y-112014349D02*
X123652500Y-111214349D01*
X123680500Y-104203651D02*
X124927500Y-104203651D01*
X123739500Y-104163651D02*
X124927500Y-104163651D01*
X123801500Y-104123651D02*
X124927500Y-104123651D01*
X123865500Y-104083651D02*
X124927500Y-104083651D01*
X123933500Y-104043651D02*
X128001500Y-104043651D01*
X124003500Y-104003651D02*
X127931500Y-104003651D01*
X124077500Y-103963651D02*
X127857500Y-103963651D01*
X124154500Y-103923651D02*
X127780500Y-103923651D01*
X124236500Y-103883651D02*
X127698500Y-103883651D01*
X124322500Y-103843651D02*
X127612500Y-103843651D01*
X124415500Y-103803651D02*
X127519500Y-103803651D01*
X124514500Y-103763651D02*
X127420500Y-103763651D01*
X124621500Y-103723651D02*
X127313500Y-103723651D01*
X124738500Y-103683651D02*
X127196500Y-103683651D01*
X124869500Y-103643651D02*
X127065500Y-103643651D01*
X125019500Y-103603651D02*
X126915500Y-103603651D01*
X125199500Y-103563651D02*
X126735500Y-103563651D01*
X125434500Y-103523651D02*
X126500500Y-103523651D01*
X127007500Y-104083651D02*
X128069500Y-104083651D01*
X127007500Y-104123651D02*
X128133500Y-104123651D01*
X127007500Y-104163651D02*
X128195500Y-104163651D01*
X127007500Y-104203651D02*
X128254500Y-104203651D01*
X127007500Y-104243651D02*
X128312500Y-104243651D01*
X127007500Y-104283651D02*
X128367500Y-104283651D01*
X127007500Y-104323651D02*
X128421500Y-104323651D01*
X127007500Y-104363651D02*
X128472500Y-104363651D01*
X127007500Y-104403651D02*
X128523500Y-104403651D01*
X127007500Y-104443651D02*
X128571500Y-104443651D01*
X127007500Y-104483651D02*
X128618500Y-104483651D01*
X127007500Y-104523651D02*
X128664500Y-104523651D01*
X127007500Y-104563651D02*
X128708500Y-104563651D01*
X127007500Y-104603651D02*
X128751500Y-104603651D01*
X127007500Y-104643651D02*
X128793500Y-104643651D01*
X127007500Y-104683651D02*
X128834500Y-104683651D01*
X127007500Y-104723651D02*
X128874500Y-104723651D01*
X127007500Y-104763651D02*
X128912500Y-104763651D01*
X127007500Y-104803651D02*
X128950500Y-104803651D01*
X127007500Y-104843651D02*
X128986500Y-104843651D01*
X127007500Y-104883651D02*
X129022500Y-104883651D01*
X127007500Y-104923651D02*
X129057500Y-104923651D01*
X127007500Y-104963651D02*
X129091500Y-104963651D01*
X127007500Y-105003651D02*
X129123500Y-105003651D01*
X127007500Y-105043651D02*
X129156500Y-105043651D01*
X127007500Y-105083651D02*
X129187500Y-105083651D01*
X127007500Y-105123651D02*
X129217500Y-105123651D01*
X127007500Y-105163651D02*
X129247500Y-105163651D01*
X127007500Y-105203651D02*
X129276500Y-105203651D01*
X127007500Y-105243651D02*
X129305500Y-105243651D01*
X127007500Y-105283651D02*
X129332500Y-105283651D01*
X127007500Y-105323651D02*
X129359500Y-105323651D01*
X127007500Y-105363651D02*
X129385500Y-105363651D01*
X127007500Y-105403651D02*
X129411500Y-105403651D01*
X127007500Y-105443651D02*
X129436500Y-105443651D01*
X127007500Y-105483651D02*
X129460500Y-105483651D01*
X127007500Y-105523651D02*
X129484500Y-105523651D01*
X127007500Y-105563651D02*
X129507500Y-105563651D01*
X127007500Y-105603651D02*
X129529500Y-105603651D01*
X127007500Y-105643651D02*
X129551500Y-105643651D01*
X127007500Y-105683651D02*
X129573500Y-105683651D01*
X127007500Y-105723651D02*
X129594500Y-105723651D01*
X127007500Y-105763651D02*
X129614500Y-105763651D01*
X127007500Y-105803651D02*
X129633500Y-105803651D01*
X127007500Y-105843651D02*
X129653500Y-105843651D01*
X127007500Y-105883651D02*
X129671500Y-105883651D01*
X127007500Y-105923651D02*
X129689500Y-105923651D01*
X127007500Y-105963651D02*
X129707500Y-105963651D01*
X127007500Y-106003651D02*
X129724500Y-106003651D01*
X127007500Y-106043651D02*
X129741500Y-106043651D01*
X127007500Y-106083651D02*
X129757500Y-106083651D01*
X127007500Y-106123651D02*
X129772500Y-106123651D01*
X130087500Y-107604651D02*
G75*
G02*
X121847500Y-107604651I-4120000J0D01*
G01*
X121847500Y-107604651D02*
G75*
G02*
X130087500Y-107604651I4120000J0D01*
G01*
%TO.C,D2*%
X129902500Y-112927000D02*
X124392500Y-112927000D01*
X129902500Y-116227000D02*
X124392500Y-116227000D01*
X129902500Y-116227000D02*
X129902500Y-112927000D01*
%TO.C,D4*%
X149490000Y-55752500D02*
X149490000Y-57222500D01*
X149490000Y-57222500D02*
X151775000Y-57222500D01*
X151775000Y-55752500D02*
X149490000Y-55752500D01*
%TO.C,J3*%
X141995000Y-48370000D02*
X141995000Y-51030000D01*
X149675000Y-48370000D02*
X141995000Y-48370000D01*
X149675000Y-48370000D02*
X149675000Y-51030000D01*
X149675000Y-51030000D02*
X141995000Y-51030000D01*
X150945000Y-48370000D02*
X152275000Y-48370000D01*
X152275000Y-48370000D02*
X152275000Y-49700000D01*
%TO.C,C3*%
X138662836Y-66566300D02*
X138447164Y-66566300D01*
X138662836Y-67286300D02*
X138447164Y-67286300D01*
%TO.C,C8*%
X139064999Y-81410335D02*
X139064999Y-81194663D01*
X139784999Y-81410335D02*
X139784999Y-81194663D01*
%TO.C,TP1*%
X124337500Y-100132000D02*
X124337500Y-98802000D01*
X125667500Y-100132000D02*
X124337500Y-100132000D01*
X126937500Y-97472000D02*
X126997500Y-97472000D01*
X126937500Y-100132000D02*
X126937500Y-97472000D01*
X126937500Y-100132000D02*
X126997500Y-100132000D01*
X126997500Y-100132000D02*
X126997500Y-97472000D01*
%TO.C,J6*%
X119445000Y-88935000D02*
X119445000Y-55855000D01*
X119445000Y-91535000D02*
X119445000Y-90205000D01*
X120775000Y-91535000D02*
X119445000Y-91535000D01*
X122105000Y-55855000D02*
X119445000Y-55855000D01*
X122105000Y-88935000D02*
X119445000Y-88935000D01*
X122105000Y-88935000D02*
X122105000Y-55855000D01*
%TO.C,U3*%
X131367500Y-106477000D02*
X131367500Y-107977000D01*
X131367500Y-107977000D02*
X132317500Y-107977000D01*
X141767500Y-106477000D02*
X141767500Y-107977000D01*
X141767500Y-107977000D02*
X140817500Y-107977000D01*
X132317500Y-110539500D02*
X131987500Y-110779500D01*
X131987500Y-110299500D01*
X132317500Y-110539500D01*
G36*
X132317500Y-110539500D02*
G01*
X131987500Y-110779500D01*
X131987500Y-110299500D01*
X132317500Y-110539500D01*
G37*
%TO.C,C5*%
X147867164Y-75215000D02*
X148082836Y-75215000D01*
X147867164Y-75935000D02*
X148082836Y-75935000D01*
%TO.C,U2*%
X144715000Y-79265000D02*
X144715000Y-79715000D01*
X144715000Y-86485000D02*
X144715000Y-86035000D01*
X145165000Y-79265000D02*
X144715000Y-79265000D01*
X145165000Y-86485000D02*
X144715000Y-86485000D01*
X151485000Y-79265000D02*
X151935000Y-79265000D01*
X151485000Y-86485000D02*
X151935000Y-86485000D01*
X151935000Y-79265000D02*
X151935000Y-79715000D01*
X151935000Y-86485000D02*
X151935000Y-86035000D01*
X144125000Y-79715000D02*
X143785000Y-79245000D01*
X144465000Y-79245000D01*
X144125000Y-79715000D01*
G36*
X144125000Y-79715000D02*
G01*
X143785000Y-79245000D01*
X144465000Y-79245000D01*
X144125000Y-79715000D01*
G37*
%TO.C,C11*%
X145292164Y-76465000D02*
X145507836Y-76465000D01*
X145292164Y-77185000D02*
X145507836Y-77185000D01*
%TO.C,C6*%
X144684419Y-74565000D02*
X144965581Y-74565000D01*
X144684419Y-75585000D02*
X144965581Y-75585000D01*
%TO.C,R6*%
X155995000Y-80721359D02*
X155995000Y-81028641D01*
X156755000Y-80721359D02*
X156755000Y-81028641D01*
%TO.C,C1*%
X143790000Y-87792164D02*
X143790000Y-88007836D01*
X144510000Y-87792164D02*
X144510000Y-88007836D01*
%TO.C,J4*%
X165660000Y-64615000D02*
X165660000Y-65065000D01*
X166110000Y-65065000D02*
X165660000Y-65065000D01*
X166340000Y-59545000D02*
X166340000Y-59965000D01*
X166340000Y-67065000D02*
X166340000Y-66645000D01*
X168320000Y-59545000D02*
X166340000Y-59545000D01*
X168320000Y-67065000D02*
X166340000Y-67065000D01*
X170290000Y-59545000D02*
X170690000Y-59545000D01*
X170690000Y-67065000D02*
X170290000Y-67065000D01*
%TO.C,C14*%
X154115000Y-80247164D02*
X154115000Y-80462836D01*
X154835000Y-80247164D02*
X154835000Y-80462836D01*
%TO.C,SW1*%
X128600000Y-71450000D02*
X128600000Y-75950000D01*
X131100000Y-77200000D02*
X132600000Y-77200000D01*
X132600000Y-70200000D02*
X131100000Y-70200000D01*
X135100000Y-75950000D02*
X135100000Y-71450000D01*
%TO.C,TP4*%
X130370000Y-79820000D02*
X131700000Y-79820000D01*
X130370000Y-81150000D02*
X130370000Y-79820000D01*
X130370000Y-82420000D02*
X130370000Y-82480000D01*
X130370000Y-82420000D02*
X133030000Y-82420000D01*
X130370000Y-82480000D02*
X133030000Y-82480000D01*
X133030000Y-82420000D02*
X133030000Y-82480000D01*
%TO.C,TP2*%
X162837500Y-107107000D02*
X162837500Y-105777000D01*
X164167500Y-107107000D02*
X162837500Y-107107000D01*
X165437500Y-104447000D02*
X165497500Y-104447000D01*
X165437500Y-107107000D02*
X165437500Y-104447000D01*
X165437500Y-107107000D02*
X165497500Y-107107000D01*
X165497500Y-107107000D02*
X165497500Y-104447000D01*
%TO.C,C12*%
X139090000Y-83212164D02*
X139090000Y-83427836D01*
X139810000Y-83212164D02*
X139810000Y-83427836D01*
D13*
%TO.C,U1*%
X135996900Y-59904700D02*
X135996900Y-64070300D01*
X141153100Y-64070300D02*
X141153100Y-59904700D01*
D12*
%TO.C,U4*%
X149125000Y-60927500D02*
X152885000Y-60927500D01*
X149125000Y-67747500D02*
X152885000Y-67747500D01*
X152885000Y-60927500D02*
X152885000Y-62187500D01*
X152885000Y-67747500D02*
X152885000Y-66487500D01*
X147845000Y-61027500D02*
X147605000Y-60697500D01*
X148085000Y-60697500D01*
X147845000Y-61027500D01*
G36*
X147845000Y-61027500D02*
G01*
X147605000Y-60697500D01*
X148085000Y-60697500D01*
X147845000Y-61027500D01*
G37*
%TO.C,R4*%
X139771359Y-78820000D02*
X140078641Y-78820000D01*
X139771359Y-79580000D02*
X140078641Y-79580000D01*
%TO.C,C7*%
X134507836Y-83190000D02*
X134292164Y-83190000D01*
X134507836Y-83910000D02*
X134292164Y-83910000D01*
%TO.C,J1*%
X165920000Y-47855000D02*
X167250000Y-47855000D01*
X165920000Y-49185000D02*
X165920000Y-47855000D01*
X165920000Y-50455001D02*
X165920000Y-58135000D01*
X165920000Y-50455001D02*
X168580000Y-50455001D01*
X165920000Y-58135000D02*
X168580000Y-58135000D01*
X168580000Y-50455001D02*
X168580000Y-58135000D01*
%TO.C,R3*%
X148170000Y-91263641D02*
X148170000Y-90956359D01*
X148930000Y-91263641D02*
X148930000Y-90956359D01*
%TO.C,FB1*%
X139424622Y-84790000D02*
X138625378Y-84790000D01*
X139424622Y-85910000D02*
X138625378Y-85910000D01*
%TO.C,C2*%
X141965000Y-59149664D02*
X141965000Y-59365336D01*
X142685000Y-59149664D02*
X142685000Y-59365336D01*
%TO.C,C15*%
X151357836Y-88615000D02*
X151142164Y-88615000D01*
X151357836Y-89335000D02*
X151142164Y-89335000D01*
%TO.C,C9*%
X142882836Y-78690000D02*
X142667164Y-78690000D01*
X142882836Y-79410000D02*
X142667164Y-79410000D01*
%TO.C,C4*%
X138715580Y-68227500D02*
X138434420Y-68227500D01*
X138715580Y-69247500D02*
X138434420Y-69247500D01*
%TO.C,R2*%
X150603641Y-73295000D02*
X150296359Y-73295000D01*
X150603641Y-74055000D02*
X150296359Y-74055000D01*
%TO.C,R5*%
X147695000Y-57591141D02*
X147695000Y-57283859D01*
X148455000Y-57591141D02*
X148455000Y-57283859D01*
%TO.C,C10*%
X141015000Y-85647164D02*
X141015000Y-85862836D01*
X141735000Y-85647164D02*
X141735000Y-85862836D01*
%TO.C,R1*%
X140446359Y-55170000D02*
X140753641Y-55170000D01*
X140446359Y-55930000D02*
X140753641Y-55930000D01*
%TD*%
M02*
