%TF.GenerationSoftware,KiCad,Pcbnew,8.0.6*%
%TF.CreationDate,2024-11-10T12:55:49-08:00*%
%TF.ProjectId,stm32-can-do,73746d33-322d-4636-916e-2d646f2e6b69,v0.1*%
%TF.SameCoordinates,Original*%
%TF.FileFunction,Soldermask,Top*%
%TF.FilePolarity,Negative*%
%FSLAX46Y46*%
G04 Gerber Fmt 4.6, Leading zero omitted, Abs format (unit mm)*
G04 Created by KiCad (PCBNEW 8.0.6) date 2024-11-10 12:55:49*
%MOMM*%
%LPD*%
G01*
G04 APERTURE LIST*
G04 Aperture macros list*
%AMRoundRect*
0 Rectangle with rounded corners*
0 $1 Rounding radius*
0 $2 $3 $4 $5 $6 $7 $8 $9 X,Y pos of 4 corners*
0 Add a 4 corners polygon primitive as box body*
4,1,4,$2,$3,$4,$5,$6,$7,$8,$9,$2,$3,0*
0 Add four circle primitives for the rounded corners*
1,1,$1+$1,$2,$3*
1,1,$1+$1,$4,$5*
1,1,$1+$1,$6,$7*
1,1,$1+$1,$8,$9*
0 Add four rect primitives between the rounded corners*
20,1,$1+$1,$2,$3,$4,$5,0*
20,1,$1+$1,$4,$5,$6,$7,0*
20,1,$1+$1,$6,$7,$8,$9,0*
20,1,$1+$1,$8,$9,$2,$3,0*%
G04 Aperture macros list end*
%ADD10R,1.700000X1.700000*%
%ADD11O,1.700000X1.700000*%
%ADD12RoundRect,0.250000X0.250000X0.475000X-0.250000X0.475000X-0.250000X-0.475000X0.250000X-0.475000X0*%
%ADD13RoundRect,0.218750X-0.218750X-0.256250X0.218750X-0.256250X0.218750X0.256250X-0.218750X0.256250X0*%
%ADD14RoundRect,0.250000X0.475000X-0.250000X0.475000X0.250000X-0.475000X0.250000X-0.475000X-0.250000X0*%
%ADD15R,13.970000X1.524000*%
%ADD16RoundRect,0.140000X0.170000X-0.140000X0.170000X0.140000X-0.170000X0.140000X-0.170000X-0.140000X0*%
%ADD17RoundRect,0.250000X-1.000000X-0.650000X1.000000X-0.650000X1.000000X0.650000X-1.000000X0.650000X0*%
%ADD18R,1.600000X1.600000*%
%ADD19C,1.600000*%
%ADD20RoundRect,0.250000X1.000000X0.650000X-1.000000X0.650000X-1.000000X-0.650000X1.000000X-0.650000X0*%
%ADD21RoundRect,0.140000X0.140000X0.170000X-0.140000X0.170000X-0.140000X-0.170000X0.140000X-0.170000X0*%
%ADD22RoundRect,0.250000X0.300000X-2.050000X0.300000X2.050000X-0.300000X2.050000X-0.300000X-2.050000X0*%
%ADD23RoundRect,0.250002X5.149998X-4.449998X5.149998X4.449998X-5.149998X4.449998X-5.149998X-4.449998X0*%
%ADD24RoundRect,0.140000X-0.140000X-0.170000X0.140000X-0.170000X0.140000X0.170000X-0.140000X0.170000X0*%
%ADD25RoundRect,0.075000X-0.662500X-0.075000X0.662500X-0.075000X0.662500X0.075000X-0.662500X0.075000X0*%
%ADD26RoundRect,0.075000X-0.075000X-0.662500X0.075000X-0.662500X0.075000X0.662500X-0.075000X0.662500X0*%
%ADD27RoundRect,0.225000X-0.225000X-0.250000X0.225000X-0.250000X0.225000X0.250000X-0.225000X0.250000X0*%
%ADD28RoundRect,0.135000X-0.185000X0.135000X-0.185000X-0.135000X0.185000X-0.135000X0.185000X0.135000X0*%
%ADD29RoundRect,0.140000X-0.170000X0.140000X-0.170000X-0.140000X0.170000X-0.140000X0.170000X0.140000X0*%
%ADD30RoundRect,0.100000X0.575000X-0.100000X0.575000X0.100000X-0.575000X0.100000X-0.575000X-0.100000X0*%
%ADD31O,1.550000X0.890000*%
%ADD32RoundRect,0.250000X0.525000X-0.475000X0.525000X0.475000X-0.525000X0.475000X-0.525000X-0.475000X0*%
%ADD33O,0.950000X1.250000*%
%ADD34RoundRect,0.250000X0.525000X-0.500000X0.525000X0.500000X-0.525000X0.500000X-0.525000X-0.500000X0*%
%ADD35C,2.000000*%
%ADD36R,0.558000X1.969999*%
%ADD37RoundRect,0.375000X-0.625000X-0.375000X0.625000X-0.375000X0.625000X0.375000X-0.625000X0.375000X0*%
%ADD38RoundRect,0.500000X-0.500000X-1.400000X0.500000X-1.400000X0.500000X1.400000X-0.500000X1.400000X0*%
%ADD39RoundRect,0.135000X-0.135000X-0.185000X0.135000X-0.185000X0.135000X0.185000X-0.135000X0.185000X0*%
%ADD40R,2.387600X1.295400*%
%ADD41RoundRect,0.135000X0.185000X-0.135000X0.185000X0.135000X-0.185000X0.135000X-0.185000X-0.135000X0*%
%ADD42RoundRect,0.218750X0.218750X0.381250X-0.218750X0.381250X-0.218750X-0.381250X0.218750X-0.381250X0*%
%ADD43RoundRect,0.225000X0.225000X0.250000X-0.225000X0.250000X-0.225000X-0.250000X0.225000X-0.250000X0*%
%ADD44RoundRect,0.135000X0.135000X0.185000X-0.135000X0.185000X-0.135000X-0.185000X0.135000X-0.185000X0*%
G04 APERTURE END LIST*
D10*
%TO.C,JP2*%
X137525000Y-55600000D03*
D11*
X134985000Y-55600000D03*
%TD*%
D12*
%TO.C,C19*%
X151775000Y-59012500D03*
X149875000Y-59012500D03*
%TD*%
D10*
%TO.C,J2*%
X127967500Y-120302000D03*
D11*
X125427500Y-120302000D03*
%TD*%
D10*
%TO.C,JP1*%
X149410000Y-71075000D03*
D11*
X151950000Y-71075000D03*
X154490000Y-71075000D03*
%TD*%
D10*
%TO.C,TP3*%
X157300000Y-61250000D03*
%TD*%
D13*
%TO.C,D1*%
X139987500Y-77675000D03*
X141562500Y-77675000D03*
%TD*%
D14*
%TO.C,C18*%
X144525000Y-64937500D03*
X144525000Y-63037500D03*
%TD*%
D15*
%TO.C,L1*%
X151292500Y-105325000D03*
X151292500Y-118279000D03*
%TD*%
D16*
%TO.C,C13*%
X141850000Y-84105000D03*
X141850000Y-83145000D03*
%TD*%
D17*
%TO.C,D3*%
X133742500Y-116602000D03*
X137742500Y-116602000D03*
%TD*%
D10*
%TO.C,J5*%
X139350000Y-49700000D03*
D11*
X136810000Y-49700000D03*
X134270000Y-49700000D03*
%TD*%
D18*
%TO.C,C17*%
X164417500Y-117654651D03*
D19*
X164417500Y-112654651D03*
%TD*%
D10*
%TO.C,J7*%
X167150000Y-90200000D03*
D11*
X167150000Y-87660000D03*
X167150000Y-85120000D03*
X167150000Y-82580000D03*
X167150000Y-80040000D03*
X167150000Y-77500000D03*
X167150000Y-74960000D03*
X167150000Y-72420000D03*
X167150000Y-69880000D03*
%TD*%
D18*
%TO.C,C16*%
X125967500Y-110104651D03*
D19*
X125967500Y-105104651D03*
%TD*%
D20*
%TO.C,D2*%
X128392500Y-114577000D03*
X124392500Y-114577000D03*
%TD*%
D13*
%TO.C,D4*%
X150187500Y-56487500D03*
X151762500Y-56487500D03*
%TD*%
D10*
%TO.C,J3*%
X150945000Y-49700000D03*
D11*
X148405000Y-49700000D03*
X145865000Y-49700000D03*
X143325000Y-49700000D03*
%TD*%
D21*
%TO.C,C3*%
X139035000Y-66926300D03*
X138075000Y-66926300D03*
%TD*%
D16*
%TO.C,C8*%
X139424999Y-81782499D03*
X139424999Y-80822499D03*
%TD*%
D10*
%TO.C,TP1*%
X125667500Y-98802000D03*
%TD*%
%TO.C,J6*%
X120775000Y-90205000D03*
D11*
X120775000Y-87665000D03*
X120775000Y-85125000D03*
X120775000Y-82585000D03*
X120775000Y-80045000D03*
X120775000Y-77505000D03*
X120775000Y-74965000D03*
X120775000Y-72425000D03*
X120775000Y-69885000D03*
X120775000Y-67345000D03*
X120775000Y-64805000D03*
X120775000Y-62265000D03*
X120775000Y-59725000D03*
X120775000Y-57185000D03*
%TD*%
D22*
%TO.C,U3*%
X133167500Y-110802000D03*
X134867500Y-110802000D03*
X136567500Y-110802000D03*
D23*
X136567500Y-101652000D03*
D22*
X138267500Y-110802000D03*
X139967500Y-110802000D03*
%TD*%
D24*
%TO.C,C5*%
X147495000Y-75575000D03*
X148455000Y-75575000D03*
%TD*%
D25*
%TO.C,U2*%
X144162500Y-80125000D03*
X144162500Y-80625000D03*
X144162500Y-81125000D03*
X144162500Y-81625000D03*
X144162500Y-82125000D03*
X144162500Y-82625000D03*
X144162500Y-83125000D03*
X144162500Y-83625000D03*
X144162500Y-84125000D03*
X144162500Y-84625000D03*
X144162500Y-85125000D03*
X144162500Y-85625000D03*
D26*
X145575000Y-87037500D03*
X146075000Y-87037500D03*
X146575000Y-87037500D03*
X147075000Y-87037500D03*
X147575000Y-87037500D03*
X148075000Y-87037500D03*
X148575000Y-87037500D03*
X149075000Y-87037500D03*
X149575000Y-87037500D03*
X150075000Y-87037500D03*
X150575000Y-87037500D03*
X151075000Y-87037500D03*
D25*
X152487500Y-85625000D03*
X152487500Y-85125000D03*
X152487500Y-84625000D03*
X152487500Y-84125000D03*
X152487500Y-83625000D03*
X152487500Y-83125000D03*
X152487500Y-82625000D03*
X152487500Y-82125000D03*
X152487500Y-81625000D03*
X152487500Y-81125000D03*
X152487500Y-80625000D03*
X152487500Y-80125000D03*
D26*
X151075000Y-78712500D03*
X150575000Y-78712500D03*
X150075000Y-78712500D03*
X149575000Y-78712500D03*
X149075000Y-78712500D03*
X148575000Y-78712500D03*
X148075000Y-78712500D03*
X147575000Y-78712500D03*
X147075000Y-78712500D03*
X146575000Y-78712500D03*
X146075000Y-78712500D03*
X145575000Y-78712500D03*
%TD*%
D24*
%TO.C,C11*%
X144920000Y-76825000D03*
X145880000Y-76825000D03*
%TD*%
D27*
%TO.C,C6*%
X144050000Y-75075000D03*
X145600000Y-75075000D03*
%TD*%
D28*
%TO.C,R6*%
X156375000Y-80365000D03*
X156375000Y-81385000D03*
%TD*%
D29*
%TO.C,C1*%
X144150000Y-87420000D03*
X144150000Y-88380000D03*
%TD*%
D30*
%TO.C,J4*%
X166600000Y-64605000D03*
X166600000Y-63955000D03*
X166600000Y-63305000D03*
X166600000Y-62655000D03*
X166600000Y-62005000D03*
D31*
X169300000Y-66805000D03*
D32*
X169300000Y-66330000D03*
D33*
X166600000Y-65805000D03*
D34*
X169300000Y-64305000D03*
X169300000Y-62305000D03*
D33*
X166600000Y-60805000D03*
D32*
X169300000Y-60280000D03*
D31*
X169300000Y-59805000D03*
%TD*%
D29*
%TO.C,C14*%
X154475000Y-79875000D03*
X154475000Y-80835000D03*
%TD*%
D35*
%TO.C,SW1*%
X129600000Y-76950000D03*
X129600000Y-70450000D03*
X134100000Y-76950000D03*
X134100000Y-70450000D03*
%TD*%
D10*
%TO.C,TP4*%
X131700000Y-81150000D03*
%TD*%
%TO.C,TP2*%
X164167500Y-105777000D03*
%TD*%
D29*
%TO.C,C12*%
X139450000Y-82840000D03*
X139450000Y-83800000D03*
%TD*%
D36*
%TO.C,U1*%
X136670000Y-64451300D03*
X137940000Y-64451300D03*
X139210000Y-64451300D03*
X140480000Y-64451300D03*
X140480000Y-59523700D03*
X139210000Y-59523700D03*
X137940000Y-59523700D03*
X136670000Y-59523700D03*
%TD*%
D37*
%TO.C,U4*%
X147825000Y-62037500D03*
X147825000Y-64337500D03*
D38*
X154125000Y-64337500D03*
D37*
X147825000Y-66637500D03*
%TD*%
D39*
%TO.C,R4*%
X139415000Y-79200000D03*
X140435000Y-79200000D03*
%TD*%
D40*
%TO.C,Y1*%
X137175000Y-83250000D03*
X137175000Y-81345000D03*
%TD*%
D21*
%TO.C,C7*%
X134880000Y-83550000D03*
X133920000Y-83550000D03*
%TD*%
D10*
%TO.C,J1*%
X167250000Y-49185000D03*
D11*
X167250000Y-51725000D03*
X167250000Y-54264999D03*
X167250000Y-56805000D03*
%TD*%
D41*
%TO.C,R3*%
X148550000Y-91620000D03*
X148550000Y-90600000D03*
%TD*%
D42*
%TO.C,FB1*%
X140087500Y-85350000D03*
X137962500Y-85350000D03*
%TD*%
D29*
%TO.C,C2*%
X142325000Y-58777500D03*
X142325000Y-59737500D03*
%TD*%
D21*
%TO.C,C15*%
X151730000Y-88975000D03*
X150770000Y-88975000D03*
%TD*%
%TO.C,C9*%
X143255000Y-79050000D03*
X142295000Y-79050000D03*
%TD*%
D43*
%TO.C,C4*%
X139350000Y-68737500D03*
X137800000Y-68737500D03*
%TD*%
D44*
%TO.C,R2*%
X150960000Y-73675000D03*
X149940000Y-73675000D03*
%TD*%
D41*
%TO.C,R5*%
X148075000Y-57947500D03*
X148075000Y-56927500D03*
%TD*%
D29*
%TO.C,C10*%
X141375000Y-85275000D03*
X141375000Y-86235000D03*
%TD*%
D39*
%TO.C,R1*%
X140090000Y-55550000D03*
X141110000Y-55550000D03*
%TD*%
M02*
