M48
; DRILL file {KiCad 8.0.6} date 2024-11-10T12:55:40-0800
; FORMAT={-:-/ absolute / metric / decimal}
; #@! TF.CreationDate,2024-11-10T12:55:40-08:00
; #@! TF.GenerationSoftware,Kicad,Pcbnew,8.0.6
; #@! TF.FileFunction,MixedPlating,1,2
FMAT,2
METRIC
; #@! TA.AperFunction,Plated,PTH,ViaDrill
T1C0.300
; #@! TA.AperFunction,Plated,PTH,ComponentDrill
T2C0.500
; #@! TA.AperFunction,Plated,PTH,ComponentDrill
T3C0.550
; #@! TA.AperFunction,Plated,PTH,ComponentDrill
T4C0.800
; #@! TA.AperFunction,Plated,PTH,ComponentDrill
T5C1.000
; #@! TA.AperFunction,Plated,PTH,ComponentDrill
T6C1.100
%
G90
G05
T1
X123.25Y-57.2
X123.25Y-58.025
X123.25Y-58.875
X127.5Y-104.25
X127.5Y-105.25
X127.5Y-106.25
X129.4Y-81.1
X129.475Y-79.125
X129.6Y-68.15
X130.25Y-119.25
X130.25Y-120.25
X130.25Y-121.25
X130.5Y-96.75
X130.5Y-97.75
X130.5Y-98.75
X130.5Y-99.75
X130.5Y-100.75
X130.5Y-101.75
X130.5Y-102.75
X131.5Y-96.25
X131.7Y-83.4
X131.725Y-78.875
X132.0Y-107.0
X132.5Y-96.25
X132.95Y-83.525
X133.0Y-107.0
X133.25Y-51.9
X133.5Y-96.25
X133.925Y-81.125
X134.0Y-107.0
X134.25Y-51.9
X134.5Y-96.25
X135.0Y-107.0
X135.25Y-51.9
X135.5Y-96.25
X136.0Y-107.0
X136.5Y-96.25
X136.75Y-118.75
X137.0Y-107.0
X137.5Y-96.25
X137.75Y-118.75
X138.0Y-62.825
X138.0Y-107.0
X138.5Y-96.25
X138.75Y-118.75
X139.0Y-107.0
X139.5Y-96.25
X140.0Y-107.0
X140.275Y-81.8
X140.5Y-96.25
X140.907Y-83.807
X141.25Y-109.0
X141.25Y-110.0
X141.25Y-111.0
X141.25Y-112.0
X141.25Y-113.0
X141.35Y-79.075
X141.375Y-87.175
X141.5Y-96.25
X142.3Y-51.9
X142.3Y-60.775
X142.75Y-96.75
X142.75Y-97.75
X142.75Y-98.75
X142.75Y-99.75
X142.75Y-100.75
X142.75Y-101.75
X142.75Y-102.75
X143.2Y-88.95
X143.3Y-51.9
X144.05Y-61.725
X144.3Y-51.9
X145.025Y-61.725
X146.2Y-80.475
X147.05Y-57.925
X147.475Y-91.54
X148.45Y-73.4
X148.7Y-59.0
X148.725Y-74.6
X149.525Y-61.55
X149.525Y-62.55
X150.6Y-85.2
X153.69Y-68.6
X154.455Y-73.155
X155.29Y-68.6
X155.45Y-80.85
X156.85Y-75.55
X159.4Y-58.65
X161.975Y-57.85
X163.0Y-111.5
X163.0Y-112.5
X163.0Y-113.5
X164.05Y-60.975
X164.05Y-61.975
X164.65Y-49.175
X164.65Y-50.025
X164.65Y-50.875
X164.85Y-68.85
X164.85Y-69.85
X164.85Y-70.85
X164.9Y-60.975
X164.9Y-61.975
T4
X125.968Y-105.105
X125.968Y-110.105
X164.417Y-112.655
X164.417Y-117.655
T5
X120.775Y-57.185
X120.775Y-59.725
X120.775Y-62.265
X120.775Y-64.805
X120.775Y-67.345
X120.775Y-69.885
X120.775Y-72.425
X120.775Y-74.965
X120.775Y-77.505
X120.775Y-80.045
X120.775Y-82.585
X120.775Y-85.125
X120.775Y-87.665
X120.775Y-90.205
X125.427Y-120.302
X125.667Y-98.802
X127.968Y-120.302
X131.7Y-81.15
X134.27Y-49.7
X134.985Y-55.6
X136.81Y-49.7
X137.525Y-55.6
X139.35Y-49.7
X143.325Y-49.7
X145.865Y-49.7
X148.405Y-49.7
X149.41Y-71.075
X150.945Y-49.7
X151.95Y-71.075
X154.49Y-71.075
X157.3Y-61.25
X164.167Y-105.777
X167.15Y-69.88
X167.15Y-72.42
X167.15Y-74.96
X167.15Y-77.5
X167.15Y-80.04
X167.15Y-82.58
X167.15Y-85.12
X167.15Y-87.66
X167.15Y-90.2
X167.25Y-49.185
X167.25Y-51.725
X167.25Y-54.265
X167.25Y-56.805
T6
X129.6Y-70.45
X129.6Y-76.95
X134.1Y-70.45
X134.1Y-76.95
T2
G00X168.975Y-59.805
M15
G01X169.625Y-59.805
M16
G05
G00X168.975Y-66.805
M15
G01X169.625Y-66.805
M16
G05
T3
G00X166.6Y-60.955
M15
G01X166.6Y-60.655
M16
G05
G00X166.6Y-65.955
M15
G01X166.6Y-65.655
M16
G05
M30
