%TF.GenerationSoftware,KiCad,Pcbnew,8.0.6*%
%TF.CreationDate,2024-11-10T12:55:49-08:00*%
%TF.ProjectId,stm32-can-do,73746d33-322d-4636-916e-2d646f2e6b69,v0.1*%
%TF.SameCoordinates,Original*%
%TF.FileFunction,Copper,L2,Bot*%
%TF.FilePolarity,Positive*%
%FSLAX46Y46*%
G04 Gerber Fmt 4.6, Leading zero omitted, Abs format (unit mm)*
G04 Created by KiCad (PCBNEW 8.0.6) date 2024-11-10 12:55:49*
%MOMM*%
%LPD*%
G01*
G04 APERTURE LIST*
%TA.AperFunction,ComponentPad*%
%ADD10R,1.700000X1.700000*%
%TD*%
%TA.AperFunction,ComponentPad*%
%ADD11O,1.700000X1.700000*%
%TD*%
%TA.AperFunction,ComponentPad*%
%ADD12R,1.600000X1.600000*%
%TD*%
%TA.AperFunction,ComponentPad*%
%ADD13C,1.600000*%
%TD*%
%TA.AperFunction,ComponentPad*%
%ADD14O,1.550000X0.890000*%
%TD*%
%TA.AperFunction,ComponentPad*%
%ADD15O,0.950000X1.250000*%
%TD*%
%TA.AperFunction,ComponentPad*%
%ADD16C,2.000000*%
%TD*%
%TA.AperFunction,ViaPad*%
%ADD17C,0.700000*%
%TD*%
%TA.AperFunction,Conductor*%
%ADD18C,0.500000*%
%TD*%
G04 APERTURE END LIST*
D10*
%TO.P,JP2,1,A*%
%TO.N,/STM32F103C8T6/JMPR_CAN_T*%
X137525000Y-55600000D03*
D11*
%TO.P,JP2,2,B*%
%TO.N,CAN_H*%
X134985000Y-55600000D03*
%TD*%
D10*
%TO.P,J2,1,Pin_1*%
%TO.N,GND*%
X127967500Y-120302000D03*
D11*
%TO.P,J2,2,Pin_2*%
%TO.N,+24V*%
X125427500Y-120302000D03*
%TD*%
D10*
%TO.P,JP1,1,A*%
%TO.N,GND*%
X149410000Y-71075000D03*
D11*
%TO.P,JP1,2,C*%
%TO.N,/STM32F103C8T6/JMPR_BOOT0*%
X151950000Y-71075000D03*
%TO.P,JP1,3,B*%
%TO.N,+3.3V*%
X154490000Y-71075000D03*
%TD*%
D10*
%TO.P,TP3,1,1*%
%TO.N,+3.3V*%
X157300000Y-61250000D03*
%TD*%
%TO.P,J5,1,Pin_1*%
%TO.N,CAN_L*%
X139350000Y-49700000D03*
D11*
%TO.P,J5,2,Pin_2*%
%TO.N,CAN_H*%
X136810000Y-49700000D03*
%TO.P,J5,3,Pin_3*%
%TO.N,GND*%
X134270000Y-49700000D03*
%TD*%
D12*
%TO.P,C17,1*%
%TO.N,+5V*%
X164417500Y-117654651D03*
D13*
%TO.P,C17,2*%
%TO.N,GND*%
X164417500Y-112654651D03*
%TD*%
D10*
%TO.P,J7,1,Pin_1*%
%TO.N,+5V*%
X167150000Y-90200000D03*
D11*
%TO.P,J7,2,Pin_2*%
%TO.N,PB12*%
X167150000Y-87660000D03*
%TO.P,J7,3,Pin_3*%
%TO.N,PB13*%
X167150000Y-85120000D03*
%TO.P,J7,4,Pin_4*%
%TO.N,PB14*%
X167150000Y-82580000D03*
%TO.P,J7,5,Pin_5*%
%TO.N,PB15*%
X167150000Y-80040000D03*
%TO.P,J7,6,Pin_6*%
%TO.N,PA8*%
X167150000Y-77500000D03*
%TO.P,J7,7,Pin_7*%
%TO.N,PA9*%
X167150000Y-74960000D03*
%TO.P,J7,8,Pin_8*%
%TO.N,PA10*%
X167150000Y-72420000D03*
%TO.P,J7,9,Pin_9*%
%TO.N,GND*%
X167150000Y-69880000D03*
%TD*%
D12*
%TO.P,C16,1*%
%TO.N,+24VPROT*%
X125967500Y-110104651D03*
D13*
%TO.P,C16,2*%
%TO.N,GND*%
X125967500Y-105104651D03*
%TD*%
D10*
%TO.P,J3,1,Pin_1*%
%TO.N,+5V*%
X150945000Y-49700000D03*
D11*
%TO.P,J3,2,Pin_2*%
%TO.N,CAN_L*%
X148405000Y-49700000D03*
%TO.P,J3,3,Pin_3*%
%TO.N,CAN_H*%
X145865000Y-49700000D03*
%TO.P,J3,4,Pin_4*%
%TO.N,GND*%
X143325000Y-49700000D03*
%TD*%
D10*
%TO.P,TP1,1,1*%
%TO.N,+24VPROT*%
X125667500Y-98802000D03*
%TD*%
%TO.P,J6,1,Pin_1*%
%TO.N,+3.3V*%
X120775000Y-90205000D03*
D11*
%TO.P,J6,2,Pin_2*%
%TO.N,PB11*%
X120775000Y-87665000D03*
%TO.P,J6,3,Pin_3*%
%TO.N,PB10*%
X120775000Y-85125000D03*
%TO.P,J6,4,Pin_4*%
%TO.N,PB1*%
X120775000Y-82585000D03*
%TO.P,J6,5,Pin_5*%
%TO.N,PB0*%
X120775000Y-80045000D03*
%TO.P,J6,6,Pin_6*%
%TO.N,PA7*%
X120775000Y-77505000D03*
%TO.P,J6,7,Pin_7*%
%TO.N,PA6*%
X120775000Y-74965000D03*
%TO.P,J6,8,Pin_8*%
%TO.N,PA5*%
X120775000Y-72425000D03*
%TO.P,J6,9,Pin_9*%
%TO.N,PA4*%
X120775000Y-69885000D03*
%TO.P,J6,10,Pin_10*%
%TO.N,PA3*%
X120775000Y-67345000D03*
%TO.P,J6,11,Pin_11*%
%TO.N,PA2*%
X120775000Y-64805000D03*
%TO.P,J6,12,Pin_12*%
%TO.N,PA1*%
X120775000Y-62265000D03*
%TO.P,J6,13,Pin_13*%
%TO.N,PA0*%
X120775000Y-59725000D03*
%TO.P,J6,14,Pin_14*%
%TO.N,GND*%
X120775000Y-57185000D03*
%TD*%
D14*
%TO.P,J4,6,Shield*%
%TO.N,unconnected-(J4-Shield-Pad6)_2*%
X169300000Y-66805000D03*
D15*
%TO.N,unconnected-(J4-Shield-Pad6)_3*%
X166600000Y-65805000D03*
%TO.N,unconnected-(J4-Shield-Pad6)_5*%
X166600000Y-60805000D03*
D14*
%TO.N,unconnected-(J4-Shield-Pad6)_4*%
X169300000Y-59805000D03*
%TD*%
D16*
%TO.P,SW1,1,1*%
%TO.N,GND*%
X129600000Y-76950000D03*
X129600000Y-70450000D03*
%TO.P,SW1,2,2*%
%TO.N,/STM32F103C8T6/NRST*%
X134100000Y-76950000D03*
X134100000Y-70450000D03*
%TD*%
D10*
%TO.P,TP4,1,1*%
%TO.N,GND*%
X131700000Y-81150000D03*
%TD*%
%TO.P,TP2,1,1*%
%TO.N,+5V*%
X164167500Y-105777000D03*
%TD*%
%TO.P,J1,1,Pin_1*%
%TO.N,GND*%
X167250000Y-49185000D03*
D11*
%TO.P,J1,2,Pin_2*%
%TO.N,SWCLK*%
X167250000Y-51725000D03*
%TO.P,J1,3,Pin_3*%
%TO.N,SWDIO*%
X167250000Y-54264999D03*
%TO.P,J1,4,Pin_4*%
%TO.N,+5V*%
X167250000Y-56805000D03*
%TD*%
D17*
%TO.N,GND*%
X132000000Y-107000000D03*
X145025000Y-61725000D03*
X137000000Y-107000000D03*
X127500000Y-106250000D03*
X163000000Y-113500000D03*
X127500000Y-104250000D03*
X164650000Y-50875000D03*
X164850000Y-68850000D03*
X130500000Y-98750000D03*
X135250000Y-51900000D03*
X164900000Y-60975000D03*
X140500000Y-96250000D03*
X164650000Y-49175000D03*
X164900000Y-61975000D03*
X142750000Y-101750000D03*
X142750000Y-102750000D03*
X142750000Y-98750000D03*
X142750000Y-100750000D03*
X132500000Y-96250000D03*
X130250000Y-121250000D03*
X144050000Y-61725000D03*
X129475000Y-79125000D03*
X130250000Y-119250000D03*
X141500000Y-96250000D03*
X134000000Y-107000000D03*
X123250000Y-57200000D03*
X148450000Y-73400000D03*
X130500000Y-101750000D03*
X134500000Y-96250000D03*
X148700000Y-59000000D03*
X135500000Y-96250000D03*
X140275000Y-81800000D03*
X135000000Y-107000000D03*
X148725000Y-74600000D03*
X163000000Y-111500000D03*
X146200000Y-80475000D03*
X123250000Y-58025000D03*
X141350000Y-79075000D03*
X129400000Y-81100000D03*
X133925000Y-81125000D03*
X137500000Y-96250000D03*
X144300000Y-51900000D03*
X139000000Y-107000000D03*
X130500000Y-96750000D03*
X136750000Y-118750000D03*
X131700000Y-83400000D03*
X163000000Y-112500000D03*
X141250000Y-112000000D03*
X130500000Y-100750000D03*
X138000000Y-107000000D03*
X138500000Y-96250000D03*
X141250000Y-110000000D03*
X127500000Y-105250000D03*
X142750000Y-97750000D03*
X134250000Y-51900000D03*
X142300000Y-60775000D03*
X164050000Y-61975000D03*
X130250000Y-120250000D03*
X164850000Y-70850000D03*
X133250000Y-51900000D03*
X123250000Y-58875000D03*
X141250000Y-111000000D03*
X141250000Y-109000000D03*
X164650000Y-50025000D03*
X155450000Y-80850000D03*
X147050000Y-57925000D03*
X142750000Y-96750000D03*
X139500000Y-96250000D03*
X140000000Y-107000000D03*
X141375000Y-87175000D03*
X164850000Y-69850000D03*
X142300000Y-51900000D03*
X130500000Y-102750000D03*
X132950000Y-83525000D03*
X142750000Y-99750000D03*
X136000000Y-107000000D03*
X164050000Y-60975000D03*
X137750000Y-118750000D03*
X149525000Y-61550000D03*
X138000000Y-62825000D03*
X133500000Y-96250000D03*
X138750000Y-118750000D03*
X131725000Y-78875000D03*
X149525000Y-62550000D03*
X136500000Y-96250000D03*
X147475000Y-91540000D03*
X143300000Y-51900000D03*
X130500000Y-97750000D03*
X130500000Y-99750000D03*
X129600000Y-68150000D03*
X150600000Y-85200000D03*
X133000000Y-107000000D03*
X131500000Y-96250000D03*
X140907475Y-83807475D03*
X143200000Y-88950000D03*
X141250000Y-113000000D03*
%TO.N,+3.3V*%
X154455025Y-73155025D03*
X156850000Y-75550000D03*
%TO.N,+5V*%
X153690000Y-68600000D03*
X159400000Y-58650000D03*
X161975000Y-57850000D03*
X155290000Y-68600000D03*
%TD*%
D18*
%TO.N,+3.3V*%
X156850000Y-75550000D02*
X154455025Y-73155025D01*
%TO.N,+5V*%
X159875000Y-57875000D02*
X161950000Y-57875000D01*
X159400000Y-58350000D02*
X159875000Y-57875000D01*
X161950000Y-57875000D02*
X161975000Y-57850000D01*
X159400000Y-58650000D02*
X159400000Y-58350000D01*
X153690000Y-68600000D02*
X155290000Y-68600000D01*
%TD*%
%TA.AperFunction,Conductor*%
%TO.N,GND*%
G36*
X170442539Y-46520185D02*
G01*
X170488294Y-46572989D01*
X170499500Y-46624500D01*
X170499500Y-59355660D01*
X170479815Y-59422699D01*
X170427011Y-59468454D01*
X170357853Y-59478398D01*
X170294297Y-59449373D01*
X170272398Y-59424551D01*
X170209068Y-59329772D01*
X170209065Y-59329768D01*
X170105231Y-59225934D01*
X170105227Y-59225931D01*
X169983133Y-59144350D01*
X169983124Y-59144345D01*
X169847454Y-59088149D01*
X169847446Y-59088147D01*
X169703429Y-59059500D01*
X169703425Y-59059500D01*
X168896575Y-59059500D01*
X168896570Y-59059500D01*
X168752553Y-59088147D01*
X168752545Y-59088149D01*
X168616875Y-59144345D01*
X168616866Y-59144350D01*
X168494772Y-59225931D01*
X168494768Y-59225934D01*
X168390934Y-59329768D01*
X168390931Y-59329772D01*
X168309350Y-59451866D01*
X168309345Y-59451875D01*
X168253149Y-59587545D01*
X168253147Y-59587553D01*
X168224500Y-59731570D01*
X168224500Y-59878429D01*
X168253147Y-60022446D01*
X168253149Y-60022454D01*
X168309345Y-60158124D01*
X168309350Y-60158133D01*
X168390931Y-60280227D01*
X168390934Y-60280231D01*
X168494768Y-60384065D01*
X168494772Y-60384068D01*
X168616866Y-60465649D01*
X168616872Y-60465652D01*
X168616873Y-60465653D01*
X168752546Y-60521851D01*
X168896570Y-60550499D01*
X168896574Y-60550500D01*
X168896575Y-60550500D01*
X169703426Y-60550500D01*
X169703427Y-60550499D01*
X169847454Y-60521851D01*
X169983127Y-60465653D01*
X170105228Y-60384068D01*
X170209068Y-60280228D01*
X170244477Y-60227235D01*
X170272398Y-60185449D01*
X170326010Y-60140643D01*
X170395335Y-60131936D01*
X170458362Y-60162090D01*
X170495082Y-60221533D01*
X170499500Y-60254339D01*
X170499500Y-66355660D01*
X170479815Y-66422699D01*
X170427011Y-66468454D01*
X170357853Y-66478398D01*
X170294297Y-66449373D01*
X170272398Y-66424551D01*
X170209068Y-66329772D01*
X170209065Y-66329768D01*
X170105231Y-66225934D01*
X170105227Y-66225931D01*
X169983133Y-66144350D01*
X169983124Y-66144345D01*
X169847454Y-66088149D01*
X169847446Y-66088147D01*
X169703429Y-66059500D01*
X169703425Y-66059500D01*
X168896575Y-66059500D01*
X168896570Y-66059500D01*
X168752553Y-66088147D01*
X168752545Y-66088149D01*
X168616875Y-66144345D01*
X168616866Y-66144350D01*
X168494772Y-66225931D01*
X168494768Y-66225934D01*
X168390934Y-66329768D01*
X168390931Y-66329772D01*
X168309350Y-66451866D01*
X168309345Y-66451875D01*
X168253149Y-66587545D01*
X168253147Y-66587553D01*
X168224500Y-66731570D01*
X168224500Y-66878429D01*
X168253147Y-67022446D01*
X168253149Y-67022454D01*
X168309345Y-67158124D01*
X168309350Y-67158133D01*
X168390931Y-67280227D01*
X168390934Y-67280231D01*
X168494768Y-67384065D01*
X168494772Y-67384068D01*
X168616866Y-67465649D01*
X168616872Y-67465652D01*
X168616873Y-67465653D01*
X168752546Y-67521851D01*
X168896570Y-67550499D01*
X168896574Y-67550500D01*
X168896575Y-67550500D01*
X169703426Y-67550500D01*
X169703427Y-67550499D01*
X169847454Y-67521851D01*
X169983127Y-67465653D01*
X170105228Y-67384068D01*
X170209068Y-67280228D01*
X170248287Y-67221533D01*
X170272398Y-67185449D01*
X170326010Y-67140643D01*
X170395335Y-67131936D01*
X170458362Y-67162090D01*
X170495082Y-67221533D01*
X170499500Y-67254339D01*
X170499500Y-123375500D01*
X170479815Y-123442539D01*
X170427011Y-123488294D01*
X170375500Y-123499500D01*
X117624500Y-123499500D01*
X117557461Y-123479815D01*
X117511706Y-123427011D01*
X117500500Y-123375500D01*
X117500500Y-120302000D01*
X124272071Y-120302000D01*
X124291744Y-120514310D01*
X124345175Y-120702099D01*
X124350096Y-120719392D01*
X124350096Y-120719394D01*
X124445132Y-120910253D01*
X124516885Y-121005268D01*
X124573628Y-121080407D01*
X124731198Y-121224052D01*
X124912481Y-121336298D01*
X125111302Y-121413321D01*
X125320890Y-121452500D01*
X125320892Y-121452500D01*
X125534108Y-121452500D01*
X125534110Y-121452500D01*
X125743698Y-121413321D01*
X125942519Y-121336298D01*
X126123802Y-121224052D01*
X126281372Y-121080407D01*
X126394547Y-120930540D01*
X126450655Y-120888905D01*
X126520367Y-120884214D01*
X126581549Y-120917956D01*
X126614776Y-120979419D01*
X126617500Y-121005268D01*
X126617500Y-121199844D01*
X126623901Y-121259372D01*
X126623903Y-121259379D01*
X126674145Y-121394086D01*
X126674149Y-121394093D01*
X126760309Y-121509187D01*
X126760312Y-121509190D01*
X126875406Y-121595350D01*
X126875413Y-121595354D01*
X127010120Y-121645596D01*
X127010127Y-121645598D01*
X127069655Y-121651999D01*
X127069672Y-121652000D01*
X127717500Y-121652000D01*
X127717500Y-120735012D01*
X127774507Y-120767925D01*
X127901674Y-120802000D01*
X128033326Y-120802000D01*
X128160493Y-120767925D01*
X128217500Y-120735012D01*
X128217500Y-121652000D01*
X128865328Y-121652000D01*
X128865344Y-121651999D01*
X128924872Y-121645598D01*
X128924879Y-121645596D01*
X129059586Y-121595354D01*
X129059593Y-121595350D01*
X129174687Y-121509190D01*
X129174690Y-121509187D01*
X129260850Y-121394093D01*
X129260854Y-121394086D01*
X129311096Y-121259379D01*
X129311098Y-121259372D01*
X129317499Y-121199844D01*
X129317500Y-121199827D01*
X129317500Y-120552000D01*
X128400512Y-120552000D01*
X128433425Y-120494993D01*
X128467500Y-120367826D01*
X128467500Y-120236174D01*
X128433425Y-120109007D01*
X128400512Y-120052000D01*
X129317500Y-120052000D01*
X129317500Y-119404172D01*
X129317499Y-119404155D01*
X129311098Y-119344627D01*
X129311096Y-119344620D01*
X129260854Y-119209913D01*
X129260850Y-119209906D01*
X129174690Y-119094812D01*
X129174687Y-119094809D01*
X129059593Y-119008649D01*
X129059586Y-119008645D01*
X128924879Y-118958403D01*
X128924872Y-118958401D01*
X128865344Y-118952000D01*
X128217500Y-118952000D01*
X128217500Y-119868988D01*
X128160493Y-119836075D01*
X128033326Y-119802000D01*
X127901674Y-119802000D01*
X127774507Y-119836075D01*
X127717500Y-119868988D01*
X127717500Y-118952000D01*
X127069655Y-118952000D01*
X127010127Y-118958401D01*
X127010120Y-118958403D01*
X126875413Y-119008645D01*
X126875406Y-119008649D01*
X126760312Y-119094809D01*
X126760309Y-119094812D01*
X126674149Y-119209906D01*
X126674145Y-119209913D01*
X126623903Y-119344620D01*
X126623901Y-119344627D01*
X126617500Y-119404155D01*
X126617500Y-119598731D01*
X126597815Y-119665770D01*
X126545011Y-119711525D01*
X126475853Y-119721469D01*
X126412297Y-119692444D01*
X126394546Y-119673458D01*
X126281372Y-119523593D01*
X126150374Y-119404172D01*
X126123802Y-119379948D01*
X125942519Y-119267702D01*
X125942517Y-119267701D01*
X125793329Y-119209906D01*
X125743698Y-119190679D01*
X125534110Y-119151500D01*
X125320890Y-119151500D01*
X125111302Y-119190679D01*
X125111299Y-119190679D01*
X125111299Y-119190680D01*
X124912482Y-119267701D01*
X124912480Y-119267702D01*
X124731199Y-119379947D01*
X124573627Y-119523593D01*
X124445132Y-119693746D01*
X124350096Y-119884605D01*
X124350096Y-119884607D01*
X124291744Y-120089689D01*
X124278171Y-120236174D01*
X124272071Y-120302000D01*
X117500500Y-120302000D01*
X117500500Y-116809782D01*
X163317000Y-116809782D01*
X163317000Y-118499507D01*
X163317002Y-118499533D01*
X163319913Y-118524638D01*
X163319915Y-118524642D01*
X163365293Y-118627415D01*
X163365294Y-118627416D01*
X163444735Y-118706857D01*
X163547509Y-118752236D01*
X163572635Y-118755151D01*
X165262364Y-118755150D01*
X165262379Y-118755148D01*
X165262382Y-118755148D01*
X165287487Y-118752237D01*
X165287488Y-118752236D01*
X165287491Y-118752236D01*
X165390265Y-118706857D01*
X165469706Y-118627416D01*
X165515085Y-118524642D01*
X165518000Y-118499516D01*
X165517999Y-116809787D01*
X165517997Y-116809768D01*
X165515086Y-116784663D01*
X165515085Y-116784661D01*
X165515085Y-116784660D01*
X165469706Y-116681886D01*
X165390265Y-116602445D01*
X165390263Y-116602444D01*
X165287492Y-116557066D01*
X165262365Y-116554151D01*
X163572643Y-116554151D01*
X163572617Y-116554153D01*
X163547512Y-116557064D01*
X163547508Y-116557066D01*
X163444735Y-116602444D01*
X163365294Y-116681885D01*
X163319915Y-116784657D01*
X163319915Y-116784659D01*
X163317000Y-116809782D01*
X117500500Y-116809782D01*
X117500500Y-112654648D01*
X163112534Y-112654648D01*
X163112534Y-112654653D01*
X163132358Y-112881250D01*
X163132360Y-112881261D01*
X163191230Y-113100968D01*
X163191235Y-113100982D01*
X163287363Y-113307129D01*
X163338474Y-113380123D01*
X164017500Y-112701097D01*
X164017500Y-112707312D01*
X164044759Y-112809045D01*
X164097420Y-112900257D01*
X164171894Y-112974731D01*
X164263106Y-113027392D01*
X164364839Y-113054651D01*
X164371053Y-113054651D01*
X163692026Y-113733676D01*
X163765013Y-113784783D01*
X163765021Y-113784787D01*
X163971168Y-113880915D01*
X163971182Y-113880920D01*
X164190889Y-113939790D01*
X164190900Y-113939792D01*
X164417498Y-113959617D01*
X164417502Y-113959617D01*
X164644099Y-113939792D01*
X164644110Y-113939790D01*
X164863817Y-113880920D01*
X164863831Y-113880915D01*
X165069978Y-113784787D01*
X165142971Y-113733675D01*
X164463947Y-113054651D01*
X164470161Y-113054651D01*
X164571894Y-113027392D01*
X164663106Y-112974731D01*
X164737580Y-112900257D01*
X164790241Y-112809045D01*
X164817500Y-112707312D01*
X164817500Y-112701098D01*
X165496524Y-113380122D01*
X165547636Y-113307129D01*
X165643764Y-113100982D01*
X165643769Y-113100968D01*
X165702639Y-112881261D01*
X165702641Y-112881250D01*
X165722466Y-112654653D01*
X165722466Y-112654648D01*
X165702641Y-112428051D01*
X165702639Y-112428040D01*
X165643769Y-112208333D01*
X165643764Y-112208319D01*
X165547636Y-112002172D01*
X165547632Y-112002164D01*
X165496525Y-111929177D01*
X164817500Y-112608202D01*
X164817500Y-112601990D01*
X164790241Y-112500257D01*
X164737580Y-112409045D01*
X164663106Y-112334571D01*
X164571894Y-112281910D01*
X164470161Y-112254651D01*
X164463948Y-112254651D01*
X165142972Y-111575625D01*
X165069978Y-111524514D01*
X164863831Y-111428386D01*
X164863817Y-111428381D01*
X164644110Y-111369511D01*
X164644099Y-111369509D01*
X164417502Y-111349685D01*
X164417498Y-111349685D01*
X164190900Y-111369509D01*
X164190889Y-111369511D01*
X163971182Y-111428381D01*
X163971173Y-111428385D01*
X163765016Y-111524517D01*
X163765012Y-111524519D01*
X163692026Y-111575624D01*
X163692026Y-111575625D01*
X164371053Y-112254651D01*
X164364839Y-112254651D01*
X164263106Y-112281910D01*
X164171894Y-112334571D01*
X164097420Y-112409045D01*
X164044759Y-112500257D01*
X164017500Y-112601990D01*
X164017500Y-112608203D01*
X163338474Y-111929177D01*
X163338473Y-111929177D01*
X163287368Y-112002163D01*
X163287366Y-112002167D01*
X163191234Y-112208324D01*
X163191230Y-112208333D01*
X163132360Y-112428040D01*
X163132358Y-112428051D01*
X163112534Y-112654648D01*
X117500500Y-112654648D01*
X117500500Y-109259782D01*
X124867000Y-109259782D01*
X124867000Y-110949507D01*
X124867002Y-110949533D01*
X124869913Y-110974638D01*
X124869915Y-110974642D01*
X124915293Y-111077415D01*
X124915294Y-111077416D01*
X124994735Y-111156857D01*
X125097509Y-111202236D01*
X125122635Y-111205151D01*
X126812364Y-111205150D01*
X126812379Y-111205148D01*
X126812382Y-111205148D01*
X126837487Y-111202237D01*
X126837488Y-111202236D01*
X126837491Y-111202236D01*
X126940265Y-111156857D01*
X127019706Y-111077416D01*
X127065085Y-110974642D01*
X127068000Y-110949516D01*
X127067999Y-109259787D01*
X127067997Y-109259768D01*
X127065086Y-109234663D01*
X127065085Y-109234661D01*
X127065085Y-109234660D01*
X127019706Y-109131886D01*
X126940265Y-109052445D01*
X126940263Y-109052444D01*
X126837492Y-109007066D01*
X126812365Y-109004151D01*
X125122643Y-109004151D01*
X125122617Y-109004153D01*
X125097512Y-109007064D01*
X125097508Y-109007066D01*
X124994735Y-109052444D01*
X124915294Y-109131885D01*
X124869915Y-109234657D01*
X124869915Y-109234659D01*
X124867000Y-109259782D01*
X117500500Y-109259782D01*
X117500500Y-105104648D01*
X124662534Y-105104648D01*
X124662534Y-105104653D01*
X124682358Y-105331250D01*
X124682360Y-105331261D01*
X124741230Y-105550968D01*
X124741235Y-105550982D01*
X124837363Y-105757129D01*
X124888474Y-105830123D01*
X125567500Y-105151097D01*
X125567500Y-105157312D01*
X125594759Y-105259045D01*
X125647420Y-105350257D01*
X125721894Y-105424731D01*
X125813106Y-105477392D01*
X125914839Y-105504651D01*
X125921053Y-105504651D01*
X125242026Y-106183676D01*
X125315013Y-106234783D01*
X125315021Y-106234787D01*
X125521168Y-106330915D01*
X125521182Y-106330920D01*
X125740889Y-106389790D01*
X125740900Y-106389792D01*
X125967498Y-106409617D01*
X125967502Y-106409617D01*
X126194099Y-106389792D01*
X126194110Y-106389790D01*
X126413817Y-106330920D01*
X126413831Y-106330915D01*
X126619978Y-106234787D01*
X126692971Y-106183675D01*
X126013947Y-105504651D01*
X126020161Y-105504651D01*
X126121894Y-105477392D01*
X126213106Y-105424731D01*
X126287580Y-105350257D01*
X126340241Y-105259045D01*
X126367500Y-105157312D01*
X126367500Y-105151098D01*
X127046524Y-105830122D01*
X127097636Y-105757129D01*
X127193764Y-105550982D01*
X127193769Y-105550968D01*
X127252639Y-105331261D01*
X127252641Y-105331250D01*
X127272466Y-105104653D01*
X127272466Y-105104648D01*
X127252998Y-104882131D01*
X163017000Y-104882131D01*
X163017000Y-106671856D01*
X163017002Y-106671882D01*
X163019913Y-106696987D01*
X163019915Y-106696991D01*
X163065293Y-106799764D01*
X163065294Y-106799765D01*
X163144735Y-106879206D01*
X163247509Y-106924585D01*
X163272635Y-106927500D01*
X165062364Y-106927499D01*
X165062379Y-106927497D01*
X165062382Y-106927497D01*
X165087487Y-106924586D01*
X165087488Y-106924585D01*
X165087491Y-106924585D01*
X165190265Y-106879206D01*
X165269706Y-106799765D01*
X165315085Y-106696991D01*
X165318000Y-106671865D01*
X165317999Y-104882136D01*
X165317997Y-104882117D01*
X165315086Y-104857012D01*
X165315085Y-104857010D01*
X165315085Y-104857009D01*
X165269706Y-104754235D01*
X165190265Y-104674794D01*
X165190263Y-104674793D01*
X165087492Y-104629415D01*
X165062365Y-104626500D01*
X163272643Y-104626500D01*
X163272617Y-104626502D01*
X163247512Y-104629413D01*
X163247508Y-104629415D01*
X163144735Y-104674793D01*
X163065294Y-104754234D01*
X163019915Y-104857006D01*
X163019915Y-104857008D01*
X163017000Y-104882131D01*
X127252998Y-104882131D01*
X127252641Y-104878051D01*
X127252639Y-104878040D01*
X127193769Y-104658333D01*
X127193764Y-104658319D01*
X127097636Y-104452172D01*
X127097632Y-104452164D01*
X127046525Y-104379177D01*
X126367500Y-105058202D01*
X126367500Y-105051990D01*
X126340241Y-104950257D01*
X126287580Y-104859045D01*
X126213106Y-104784571D01*
X126121894Y-104731910D01*
X126020161Y-104704651D01*
X126013948Y-104704651D01*
X126692972Y-104025625D01*
X126619978Y-103974514D01*
X126413831Y-103878386D01*
X126413817Y-103878381D01*
X126194110Y-103819511D01*
X126194099Y-103819509D01*
X125967502Y-103799685D01*
X125967498Y-103799685D01*
X125740900Y-103819509D01*
X125740889Y-103819511D01*
X125521182Y-103878381D01*
X125521173Y-103878385D01*
X125315016Y-103974517D01*
X125315012Y-103974519D01*
X125242026Y-104025624D01*
X125242026Y-104025625D01*
X125921053Y-104704651D01*
X125914839Y-104704651D01*
X125813106Y-104731910D01*
X125721894Y-104784571D01*
X125647420Y-104859045D01*
X125594759Y-104950257D01*
X125567500Y-105051990D01*
X125567500Y-105058203D01*
X124888474Y-104379177D01*
X124888473Y-104379177D01*
X124837368Y-104452163D01*
X124837366Y-104452167D01*
X124741234Y-104658324D01*
X124741230Y-104658333D01*
X124682360Y-104878040D01*
X124682358Y-104878051D01*
X124662534Y-105104648D01*
X117500500Y-105104648D01*
X117500500Y-97907131D01*
X124517000Y-97907131D01*
X124517000Y-99696856D01*
X124517002Y-99696882D01*
X124519913Y-99721987D01*
X124519915Y-99721991D01*
X124565293Y-99824764D01*
X124565294Y-99824765D01*
X124644735Y-99904206D01*
X124747509Y-99949585D01*
X124772635Y-99952500D01*
X126562364Y-99952499D01*
X126562379Y-99952497D01*
X126562382Y-99952497D01*
X126587487Y-99949586D01*
X126587488Y-99949585D01*
X126587491Y-99949585D01*
X126690265Y-99904206D01*
X126769706Y-99824765D01*
X126815085Y-99721991D01*
X126818000Y-99696865D01*
X126817999Y-97907136D01*
X126817997Y-97907117D01*
X126815086Y-97882012D01*
X126815085Y-97882010D01*
X126815085Y-97882009D01*
X126769706Y-97779235D01*
X126690265Y-97699794D01*
X126690263Y-97699793D01*
X126587492Y-97654415D01*
X126562365Y-97651500D01*
X124772643Y-97651500D01*
X124772617Y-97651502D01*
X124747512Y-97654413D01*
X124747508Y-97654415D01*
X124644735Y-97699793D01*
X124565294Y-97779234D01*
X124519915Y-97882006D01*
X124519915Y-97882008D01*
X124517000Y-97907131D01*
X117500500Y-97907131D01*
X117500500Y-56934999D01*
X119444364Y-56934999D01*
X119444364Y-56935000D01*
X120341988Y-56935000D01*
X120309075Y-56992007D01*
X120275000Y-57119174D01*
X120275000Y-57250826D01*
X120309075Y-57377993D01*
X120341988Y-57435000D01*
X119444364Y-57435000D01*
X119501567Y-57648486D01*
X119501570Y-57648492D01*
X119601399Y-57862578D01*
X119736894Y-58056082D01*
X119903917Y-58223105D01*
X120097421Y-58358600D01*
X120296573Y-58451466D01*
X120349012Y-58497638D01*
X120368164Y-58564832D01*
X120347948Y-58631713D01*
X120294783Y-58677048D01*
X120288968Y-58679472D01*
X120281771Y-58682260D01*
X120259982Y-58690701D01*
X120259980Y-58690702D01*
X120078699Y-58802947D01*
X119921127Y-58946593D01*
X119792632Y-59116746D01*
X119697596Y-59307605D01*
X119697596Y-59307607D01*
X119656548Y-59451875D01*
X119639244Y-59512690D01*
X119619571Y-59725000D01*
X119639244Y-59937310D01*
X119685392Y-60099502D01*
X119697596Y-60142392D01*
X119697596Y-60142394D01*
X119792632Y-60333253D01*
X119864782Y-60428794D01*
X119921128Y-60503407D01*
X120078698Y-60647052D01*
X120259981Y-60759298D01*
X120458802Y-60836321D01*
X120655613Y-60873111D01*
X120717893Y-60904779D01*
X120753166Y-60965092D01*
X120750232Y-61034900D01*
X120710023Y-61092040D01*
X120655613Y-61116888D01*
X120458802Y-61153679D01*
X120458799Y-61153679D01*
X120458799Y-61153680D01*
X120259982Y-61230701D01*
X120259980Y-61230702D01*
X120078699Y-61342947D01*
X119921127Y-61486593D01*
X119792632Y-61656746D01*
X119697596Y-61847605D01*
X119697596Y-61847607D01*
X119639244Y-62052689D01*
X119619571Y-62264999D01*
X119619571Y-62265000D01*
X119639244Y-62477310D01*
X119697596Y-62682392D01*
X119697596Y-62682394D01*
X119792632Y-62873253D01*
X119792634Y-62873255D01*
X119921128Y-63043407D01*
X120078698Y-63187052D01*
X120259981Y-63299298D01*
X120458802Y-63376321D01*
X120655613Y-63413111D01*
X120717893Y-63444779D01*
X120753166Y-63505092D01*
X120750232Y-63574900D01*
X120710023Y-63632040D01*
X120655613Y-63656888D01*
X120458802Y-63693679D01*
X120458799Y-63693679D01*
X120458799Y-63693680D01*
X120259982Y-63770701D01*
X120259980Y-63770702D01*
X120078699Y-63882947D01*
X119921127Y-64026593D01*
X119792632Y-64196746D01*
X119697596Y-64387605D01*
X119697596Y-64387607D01*
X119639244Y-64592689D01*
X119619571Y-64804999D01*
X119619571Y-64805000D01*
X119639244Y-65017310D01*
X119697596Y-65222392D01*
X119697596Y-65222394D01*
X119792632Y-65413253D01*
X119917509Y-65578615D01*
X119921128Y-65583407D01*
X120078698Y-65727052D01*
X120259981Y-65839298D01*
X120458802Y-65916321D01*
X120655613Y-65953111D01*
X120717893Y-65984779D01*
X120753166Y-66045092D01*
X120750232Y-66114900D01*
X120710023Y-66172040D01*
X120655613Y-66196888D01*
X120458802Y-66233679D01*
X120458799Y-66233679D01*
X120458799Y-66233680D01*
X120259982Y-66310701D01*
X120259980Y-66310702D01*
X120078699Y-66422947D01*
X119921127Y-66566593D01*
X119792632Y-66736746D01*
X119697596Y-66927605D01*
X119697596Y-66927607D01*
X119639244Y-67132689D01*
X119619571Y-67344999D01*
X119619571Y-67345000D01*
X119639244Y-67557310D01*
X119697596Y-67762392D01*
X119697596Y-67762394D01*
X119792632Y-67953253D01*
X119873786Y-68060717D01*
X119921128Y-68123407D01*
X120078698Y-68267052D01*
X120259981Y-68379298D01*
X120458802Y-68456321D01*
X120655613Y-68493111D01*
X120717893Y-68524779D01*
X120753166Y-68585092D01*
X120750232Y-68654900D01*
X120710023Y-68712040D01*
X120655613Y-68736888D01*
X120458802Y-68773679D01*
X120458799Y-68773679D01*
X120458799Y-68773680D01*
X120259982Y-68850701D01*
X120259980Y-68850702D01*
X120078699Y-68962947D01*
X119921127Y-69106593D01*
X119792632Y-69276746D01*
X119697596Y-69467605D01*
X119697596Y-69467607D01*
X119639244Y-69672689D01*
X119627701Y-69797266D01*
X119619571Y-69885000D01*
X119639244Y-70097310D01*
X119675092Y-70223302D01*
X119697596Y-70302392D01*
X119697596Y-70302394D01*
X119792632Y-70493253D01*
X119880098Y-70609075D01*
X119921128Y-70663407D01*
X120078698Y-70807052D01*
X120259981Y-70919298D01*
X120458802Y-70996321D01*
X120655613Y-71033111D01*
X120717893Y-71064779D01*
X120753166Y-71125092D01*
X120750232Y-71194900D01*
X120710023Y-71252040D01*
X120655613Y-71276888D01*
X120458802Y-71313679D01*
X120458799Y-71313679D01*
X120458799Y-71313680D01*
X120259982Y-71390701D01*
X120259980Y-71390702D01*
X120078699Y-71502947D01*
X119921127Y-71646593D01*
X119792632Y-71816746D01*
X119697596Y-72007605D01*
X119697596Y-72007607D01*
X119639244Y-72212689D01*
X119619571Y-72424999D01*
X119619571Y-72425000D01*
X119639244Y-72637310D01*
X119697596Y-72842392D01*
X119697596Y-72842394D01*
X119792632Y-73033253D01*
X119884591Y-73155025D01*
X119921128Y-73203407D01*
X120078698Y-73347052D01*
X120259981Y-73459298D01*
X120458802Y-73536321D01*
X120655613Y-73573111D01*
X120717893Y-73604779D01*
X120753166Y-73665092D01*
X120750232Y-73734900D01*
X120710023Y-73792040D01*
X120655613Y-73816888D01*
X120458802Y-73853679D01*
X120458799Y-73853679D01*
X120458799Y-73853680D01*
X120259982Y-73930701D01*
X120259980Y-73930702D01*
X120078699Y-74042947D01*
X119921127Y-74186593D01*
X119792632Y-74356746D01*
X119697596Y-74547605D01*
X119697596Y-74547607D01*
X119639244Y-74752689D01*
X119619571Y-74964999D01*
X119619571Y-74965000D01*
X119639244Y-75177310D01*
X119697596Y-75382392D01*
X119697596Y-75382394D01*
X119792632Y-75573253D01*
X119908276Y-75726389D01*
X119921128Y-75743407D01*
X120078698Y-75887052D01*
X120259981Y-75999298D01*
X120458802Y-76076321D01*
X120655613Y-76113111D01*
X120717893Y-76144779D01*
X120753166Y-76205092D01*
X120750232Y-76274900D01*
X120710023Y-76332040D01*
X120655613Y-76356888D01*
X120458802Y-76393679D01*
X120458799Y-76393679D01*
X120458799Y-76393680D01*
X120259982Y-76470701D01*
X120259980Y-76470702D01*
X120078699Y-76582947D01*
X119921127Y-76726593D01*
X119792632Y-76896746D01*
X119697596Y-77087605D01*
X119697596Y-77087607D01*
X119640662Y-77287708D01*
X119639244Y-77292690D01*
X119619571Y-77505000D01*
X119639244Y-77717310D01*
X119659681Y-77789139D01*
X119697596Y-77922392D01*
X119697596Y-77922394D01*
X119792632Y-78113253D01*
X119865735Y-78210056D01*
X119921128Y-78283407D01*
X120078698Y-78427052D01*
X120259981Y-78539298D01*
X120458802Y-78616321D01*
X120655613Y-78653111D01*
X120717893Y-78684779D01*
X120753166Y-78745092D01*
X120750232Y-78814900D01*
X120710023Y-78872040D01*
X120655613Y-78896888D01*
X120458802Y-78933679D01*
X120458799Y-78933679D01*
X120458799Y-78933680D01*
X120259982Y-79010701D01*
X120259980Y-79010702D01*
X120078699Y-79122947D01*
X119921127Y-79266593D01*
X119792632Y-79436746D01*
X119697596Y-79627605D01*
X119697596Y-79627607D01*
X119639244Y-79832689D01*
X119619571Y-80044999D01*
X119619571Y-80045000D01*
X119639244Y-80257310D01*
X119697596Y-80462392D01*
X119697596Y-80462394D01*
X119792632Y-80653253D01*
X119792634Y-80653255D01*
X119921128Y-80823407D01*
X120078698Y-80967052D01*
X120259981Y-81079298D01*
X120458802Y-81156321D01*
X120655613Y-81193111D01*
X120717893Y-81224779D01*
X120753166Y-81285092D01*
X120750232Y-81354900D01*
X120710023Y-81412040D01*
X120655613Y-81436888D01*
X120458802Y-81473679D01*
X120458799Y-81473679D01*
X120458799Y-81473680D01*
X120259982Y-81550701D01*
X120259980Y-81550702D01*
X120078699Y-81662947D01*
X119921127Y-81806593D01*
X119792632Y-81976746D01*
X119697596Y-82167605D01*
X119697596Y-82167607D01*
X119639244Y-82372689D01*
X119619571Y-82584999D01*
X119619571Y-82585000D01*
X119639244Y-82797310D01*
X119697596Y-83002392D01*
X119697596Y-83002394D01*
X119792632Y-83193253D01*
X119792634Y-83193255D01*
X119921128Y-83363407D01*
X120078698Y-83507052D01*
X120259981Y-83619298D01*
X120458802Y-83696321D01*
X120655613Y-83733111D01*
X120717893Y-83764779D01*
X120753166Y-83825092D01*
X120750232Y-83894900D01*
X120710023Y-83952040D01*
X120655613Y-83976888D01*
X120458802Y-84013679D01*
X120458799Y-84013679D01*
X120458799Y-84013680D01*
X120259982Y-84090701D01*
X120259980Y-84090702D01*
X120078699Y-84202947D01*
X119921127Y-84346593D01*
X119792632Y-84516746D01*
X119697596Y-84707605D01*
X119697596Y-84707607D01*
X119639244Y-84912689D01*
X119619571Y-85124999D01*
X119619571Y-85125000D01*
X119639244Y-85337310D01*
X119697596Y-85542392D01*
X119697596Y-85542394D01*
X119792632Y-85733253D01*
X119792634Y-85733255D01*
X119921128Y-85903407D01*
X120078698Y-86047052D01*
X120259981Y-86159298D01*
X120458802Y-86236321D01*
X120655613Y-86273111D01*
X120717893Y-86304779D01*
X120753166Y-86365092D01*
X120750232Y-86434900D01*
X120710023Y-86492040D01*
X120655613Y-86516888D01*
X120458802Y-86553679D01*
X120458799Y-86553679D01*
X120458799Y-86553680D01*
X120259982Y-86630701D01*
X120259980Y-86630702D01*
X120078699Y-86742947D01*
X119921127Y-86886593D01*
X119792632Y-87056746D01*
X119697596Y-87247605D01*
X119697596Y-87247607D01*
X119639244Y-87452689D01*
X119619571Y-87664999D01*
X119619571Y-87665000D01*
X119639244Y-87877310D01*
X119697596Y-88082392D01*
X119697596Y-88082394D01*
X119792632Y-88273253D01*
X119792634Y-88273255D01*
X119921128Y-88443407D01*
X120078698Y-88587052D01*
X120259981Y-88699298D01*
X120458802Y-88776321D01*
X120631544Y-88808612D01*
X120693823Y-88840279D01*
X120729096Y-88900591D01*
X120726162Y-88970400D01*
X120685953Y-89027540D01*
X120621235Y-89053871D01*
X120608757Y-89054500D01*
X119880143Y-89054500D01*
X119880117Y-89054502D01*
X119855012Y-89057413D01*
X119855008Y-89057415D01*
X119752235Y-89102793D01*
X119672794Y-89182234D01*
X119627415Y-89285006D01*
X119627415Y-89285008D01*
X119624500Y-89310131D01*
X119624500Y-91099856D01*
X119624502Y-91099882D01*
X119627413Y-91124987D01*
X119627415Y-91124991D01*
X119672793Y-91227764D01*
X119672794Y-91227765D01*
X119752235Y-91307206D01*
X119855009Y-91352585D01*
X119880135Y-91355500D01*
X121669864Y-91355499D01*
X121669879Y-91355497D01*
X121669882Y-91355497D01*
X121694987Y-91352586D01*
X121694988Y-91352585D01*
X121694991Y-91352585D01*
X121797765Y-91307206D01*
X121877206Y-91227765D01*
X121922585Y-91124991D01*
X121925500Y-91099865D01*
X121925499Y-89310136D01*
X121924917Y-89305117D01*
X121922586Y-89285012D01*
X121922585Y-89285010D01*
X121922585Y-89285009D01*
X121877206Y-89182235D01*
X121797765Y-89102794D01*
X121786439Y-89097793D01*
X121694992Y-89057415D01*
X121669868Y-89054500D01*
X120941243Y-89054500D01*
X120874204Y-89034815D01*
X120828449Y-88982011D01*
X120818505Y-88912853D01*
X120847530Y-88849297D01*
X120906308Y-88811523D01*
X120918441Y-88808614D01*
X121091198Y-88776321D01*
X121290019Y-88699298D01*
X121471302Y-88587052D01*
X121628872Y-88443407D01*
X121757366Y-88273255D01*
X121852405Y-88082389D01*
X121910756Y-87877310D01*
X121930429Y-87665000D01*
X121910756Y-87452690D01*
X121852405Y-87247611D01*
X121852403Y-87247606D01*
X121852403Y-87247605D01*
X121757367Y-87056746D01*
X121628872Y-86886593D01*
X121623387Y-86881593D01*
X121471302Y-86742948D01*
X121290019Y-86630702D01*
X121290017Y-86630701D01*
X121190608Y-86592190D01*
X121091198Y-86553679D01*
X120894385Y-86516888D01*
X120832106Y-86485221D01*
X120796833Y-86424908D01*
X120799767Y-86355100D01*
X120839976Y-86297960D01*
X120894384Y-86273111D01*
X121091198Y-86236321D01*
X121290019Y-86159298D01*
X121471302Y-86047052D01*
X121628872Y-85903407D01*
X121757366Y-85733255D01*
X121852405Y-85542389D01*
X121910756Y-85337310D01*
X121930429Y-85125000D01*
X121910756Y-84912690D01*
X121852405Y-84707611D01*
X121852403Y-84707606D01*
X121852403Y-84707605D01*
X121757367Y-84516746D01*
X121628872Y-84346593D01*
X121623387Y-84341593D01*
X121471302Y-84202948D01*
X121290019Y-84090702D01*
X121290017Y-84090701D01*
X121190608Y-84052190D01*
X121091198Y-84013679D01*
X120894385Y-83976888D01*
X120832106Y-83945221D01*
X120796833Y-83884908D01*
X120799767Y-83815100D01*
X120839976Y-83757960D01*
X120894384Y-83733111D01*
X121091198Y-83696321D01*
X121290019Y-83619298D01*
X121471302Y-83507052D01*
X121628872Y-83363407D01*
X121757366Y-83193255D01*
X121852405Y-83002389D01*
X121910756Y-82797310D01*
X121930429Y-82585000D01*
X121910756Y-82372690D01*
X121852405Y-82167611D01*
X121852403Y-82167606D01*
X121852403Y-82167605D01*
X121757367Y-81976746D01*
X121628872Y-81806593D01*
X121623387Y-81801593D01*
X121471302Y-81662948D01*
X121290019Y-81550702D01*
X121290017Y-81550701D01*
X121190608Y-81512190D01*
X121091198Y-81473679D01*
X120894385Y-81436888D01*
X120832106Y-81405221D01*
X120796833Y-81344908D01*
X120799767Y-81275100D01*
X120839976Y-81217960D01*
X120894384Y-81193111D01*
X121091198Y-81156321D01*
X121290019Y-81079298D01*
X121471302Y-80967052D01*
X121628872Y-80823407D01*
X121757366Y-80653255D01*
X121852405Y-80462389D01*
X121910756Y-80257310D01*
X121911234Y-80252155D01*
X130350000Y-80252155D01*
X130350000Y-80900000D01*
X131266988Y-80900000D01*
X131234075Y-80957007D01*
X131200000Y-81084174D01*
X131200000Y-81215826D01*
X131234075Y-81342993D01*
X131266988Y-81400000D01*
X130350000Y-81400000D01*
X130350000Y-82047844D01*
X130356401Y-82107372D01*
X130356403Y-82107379D01*
X130406645Y-82242086D01*
X130406649Y-82242093D01*
X130492809Y-82357187D01*
X130492812Y-82357190D01*
X130607906Y-82443350D01*
X130607913Y-82443354D01*
X130742620Y-82493596D01*
X130742627Y-82493598D01*
X130802155Y-82499999D01*
X130802172Y-82500000D01*
X131450000Y-82500000D01*
X131450000Y-81583012D01*
X131507007Y-81615925D01*
X131634174Y-81650000D01*
X131765826Y-81650000D01*
X131892993Y-81615925D01*
X131950000Y-81583012D01*
X131950000Y-82500000D01*
X132597828Y-82500000D01*
X132597844Y-82499999D01*
X132657372Y-82493598D01*
X132657379Y-82493596D01*
X132792086Y-82443354D01*
X132792093Y-82443350D01*
X132907187Y-82357190D01*
X132907190Y-82357187D01*
X132993350Y-82242093D01*
X132993354Y-82242086D01*
X133043596Y-82107379D01*
X133043598Y-82107372D01*
X133049999Y-82047844D01*
X133050000Y-82047827D01*
X133050000Y-81400000D01*
X132133012Y-81400000D01*
X132165925Y-81342993D01*
X132200000Y-81215826D01*
X132200000Y-81084174D01*
X132165925Y-80957007D01*
X132133012Y-80900000D01*
X133050000Y-80900000D01*
X133050000Y-80252172D01*
X133049999Y-80252155D01*
X133043598Y-80192627D01*
X133043596Y-80192620D01*
X132993354Y-80057913D01*
X132993350Y-80057906D01*
X132907190Y-79942812D01*
X132907187Y-79942809D01*
X132792093Y-79856649D01*
X132792086Y-79856645D01*
X132657379Y-79806403D01*
X132657372Y-79806401D01*
X132597844Y-79800000D01*
X131950000Y-79800000D01*
X131950000Y-80716988D01*
X131892993Y-80684075D01*
X131765826Y-80650000D01*
X131634174Y-80650000D01*
X131507007Y-80684075D01*
X131450000Y-80716988D01*
X131450000Y-79800000D01*
X130802155Y-79800000D01*
X130742627Y-79806401D01*
X130742620Y-79806403D01*
X130607913Y-79856645D01*
X130607906Y-79856649D01*
X130492812Y-79942809D01*
X130492809Y-79942812D01*
X130406649Y-80057906D01*
X130406645Y-80057913D01*
X130356403Y-80192620D01*
X130356401Y-80192627D01*
X130350000Y-80252155D01*
X121911234Y-80252155D01*
X121930429Y-80045000D01*
X121910756Y-79832690D01*
X121852405Y-79627611D01*
X121852403Y-79627606D01*
X121852403Y-79627605D01*
X121757367Y-79436746D01*
X121628872Y-79266593D01*
X121623387Y-79261593D01*
X121471302Y-79122948D01*
X121290019Y-79010702D01*
X121290017Y-79010701D01*
X121190608Y-78972190D01*
X121091198Y-78933679D01*
X120894385Y-78896888D01*
X120832106Y-78865221D01*
X120796833Y-78804908D01*
X120799767Y-78735100D01*
X120839976Y-78677960D01*
X120894384Y-78653111D01*
X121091198Y-78616321D01*
X121290019Y-78539298D01*
X121471302Y-78427052D01*
X121628872Y-78283407D01*
X121757366Y-78113255D01*
X121773643Y-78080567D01*
X121852403Y-77922394D01*
X121852403Y-77922393D01*
X121852405Y-77922389D01*
X121910756Y-77717310D01*
X121930429Y-77505000D01*
X121910756Y-77292690D01*
X121852405Y-77087611D01*
X121852403Y-77087606D01*
X121852403Y-77087605D01*
X121783881Y-76949994D01*
X128094859Y-76949994D01*
X128094859Y-76950005D01*
X128115385Y-77197729D01*
X128115387Y-77197738D01*
X128176412Y-77438717D01*
X128276266Y-77666364D01*
X128376564Y-77819882D01*
X129076212Y-77120234D01*
X129087482Y-77162292D01*
X129159890Y-77287708D01*
X129262292Y-77390110D01*
X129387708Y-77462518D01*
X129429765Y-77473787D01*
X128729942Y-78173609D01*
X128776768Y-78210055D01*
X128776770Y-78210056D01*
X128995385Y-78328364D01*
X128995396Y-78328369D01*
X129230506Y-78409083D01*
X129475707Y-78450000D01*
X129724293Y-78450000D01*
X129969493Y-78409083D01*
X130204603Y-78328369D01*
X130204614Y-78328364D01*
X130423228Y-78210057D01*
X130423231Y-78210055D01*
X130470056Y-78173609D01*
X129770234Y-77473787D01*
X129812292Y-77462518D01*
X129937708Y-77390110D01*
X130040110Y-77287708D01*
X130112518Y-77162292D01*
X130123787Y-77120235D01*
X130823434Y-77819882D01*
X130923731Y-77666369D01*
X131023587Y-77438717D01*
X131084612Y-77197738D01*
X131084614Y-77197729D01*
X131105141Y-76950005D01*
X131105141Y-76949998D01*
X132794532Y-76949998D01*
X132794532Y-76950001D01*
X132814364Y-77176686D01*
X132814366Y-77176697D01*
X132873258Y-77396488D01*
X132873261Y-77396497D01*
X132969431Y-77602732D01*
X132969432Y-77602734D01*
X133099954Y-77789141D01*
X133260858Y-77950045D01*
X133260861Y-77950047D01*
X133447266Y-78080568D01*
X133653504Y-78176739D01*
X133873308Y-78235635D01*
X134035230Y-78249801D01*
X134099998Y-78255468D01*
X134100000Y-78255468D01*
X134100002Y-78255468D01*
X134156673Y-78250509D01*
X134326692Y-78235635D01*
X134546496Y-78176739D01*
X134752734Y-78080568D01*
X134939139Y-77950047D01*
X135100047Y-77789139D01*
X135230568Y-77602734D01*
X135326739Y-77396496D01*
X135385635Y-77176692D01*
X135405468Y-76950000D01*
X135405467Y-76949994D01*
X135399133Y-76877591D01*
X135385635Y-76723308D01*
X135326739Y-76503504D01*
X135230568Y-76297266D01*
X135103295Y-76115500D01*
X135100045Y-76110858D01*
X134939141Y-75949954D01*
X134752734Y-75819432D01*
X134752732Y-75819431D01*
X134546497Y-75723261D01*
X134546488Y-75723258D01*
X134326697Y-75664366D01*
X134326693Y-75664365D01*
X134326692Y-75664365D01*
X134326691Y-75664364D01*
X134326686Y-75664364D01*
X134100002Y-75644532D01*
X134099998Y-75644532D01*
X133873313Y-75664364D01*
X133873302Y-75664366D01*
X133653511Y-75723258D01*
X133653502Y-75723261D01*
X133447267Y-75819431D01*
X133447265Y-75819432D01*
X133260858Y-75949954D01*
X133099954Y-76110858D01*
X132969432Y-76297265D01*
X132969431Y-76297267D01*
X132873261Y-76503502D01*
X132873258Y-76503511D01*
X132814366Y-76723302D01*
X132814364Y-76723313D01*
X132794532Y-76949998D01*
X131105141Y-76949998D01*
X131105141Y-76949994D01*
X131084614Y-76702270D01*
X131084612Y-76702261D01*
X131023587Y-76461282D01*
X130923731Y-76233630D01*
X130823434Y-76080116D01*
X130123787Y-76779764D01*
X130112518Y-76737708D01*
X130040110Y-76612292D01*
X129937708Y-76509890D01*
X129812292Y-76437482D01*
X129770235Y-76426212D01*
X130470057Y-75726390D01*
X130470056Y-75726389D01*
X130423229Y-75689943D01*
X130204614Y-75571635D01*
X130204603Y-75571630D01*
X129969493Y-75490916D01*
X129724293Y-75450000D01*
X129475707Y-75450000D01*
X129230506Y-75490916D01*
X128995396Y-75571630D01*
X128995390Y-75571632D01*
X128776761Y-75689949D01*
X128729942Y-75726388D01*
X128729942Y-75726390D01*
X129429765Y-76426212D01*
X129387708Y-76437482D01*
X129262292Y-76509890D01*
X129159890Y-76612292D01*
X129087482Y-76737708D01*
X129076212Y-76779764D01*
X128376564Y-76080116D01*
X128276267Y-76233632D01*
X128176412Y-76461282D01*
X128115387Y-76702261D01*
X128115385Y-76702270D01*
X128094859Y-76949994D01*
X121783881Y-76949994D01*
X121757367Y-76896746D01*
X121628872Y-76726593D01*
X121602181Y-76702261D01*
X121471302Y-76582948D01*
X121290019Y-76470702D01*
X121290017Y-76470701D01*
X121190608Y-76432190D01*
X121091198Y-76393679D01*
X120894385Y-76356888D01*
X120832106Y-76325221D01*
X120796833Y-76264908D01*
X120799767Y-76195100D01*
X120839976Y-76137960D01*
X120894384Y-76113111D01*
X121091198Y-76076321D01*
X121290019Y-75999298D01*
X121471302Y-75887052D01*
X121628872Y-75743407D01*
X121757366Y-75573255D01*
X121759857Y-75568253D01*
X121852403Y-75382394D01*
X121852403Y-75382393D01*
X121852405Y-75382389D01*
X121910756Y-75177310D01*
X121930429Y-74965000D01*
X121910756Y-74752690D01*
X121852405Y-74547611D01*
X121852403Y-74547606D01*
X121852403Y-74547605D01*
X121757367Y-74356746D01*
X121628872Y-74186593D01*
X121623387Y-74181593D01*
X121471302Y-74042948D01*
X121290019Y-73930702D01*
X121290017Y-73930701D01*
X121190608Y-73892190D01*
X121091198Y-73853679D01*
X120894385Y-73816888D01*
X120832106Y-73785221D01*
X120796833Y-73724908D01*
X120799767Y-73655100D01*
X120839976Y-73597960D01*
X120894384Y-73573111D01*
X121091198Y-73536321D01*
X121290019Y-73459298D01*
X121471302Y-73347052D01*
X121628872Y-73203407D01*
X121665409Y-73155024D01*
X153799747Y-73155024D01*
X153799747Y-73155025D01*
X153818787Y-73311843D01*
X153872814Y-73454297D01*
X153874805Y-73459548D01*
X153964542Y-73589555D01*
X154082785Y-73694308D01*
X154222660Y-73767721D01*
X154277394Y-73781211D01*
X154335402Y-73813927D01*
X156186063Y-75664588D01*
X156214324Y-75708298D01*
X156225743Y-75738407D01*
X156269780Y-75854523D01*
X156359517Y-75984530D01*
X156477760Y-76089283D01*
X156477762Y-76089284D01*
X156617634Y-76162696D01*
X156771014Y-76200500D01*
X156771015Y-76200500D01*
X156928985Y-76200500D01*
X157082365Y-76162696D01*
X157222240Y-76089283D01*
X157340483Y-75984530D01*
X157430220Y-75854523D01*
X157486237Y-75706818D01*
X157505278Y-75550000D01*
X157486237Y-75393182D01*
X157480249Y-75377394D01*
X157464992Y-75337164D01*
X157430220Y-75245477D01*
X157340483Y-75115470D01*
X157222240Y-75010717D01*
X157222238Y-75010716D01*
X157222237Y-75010715D01*
X157082367Y-74937304D01*
X157027626Y-74923812D01*
X156969621Y-74891096D01*
X155118962Y-73040437D01*
X155090701Y-72996727D01*
X155073092Y-72950299D01*
X155035245Y-72850502D01*
X154945508Y-72720495D01*
X154827265Y-72615742D01*
X154827263Y-72615741D01*
X154827262Y-72615740D01*
X154687390Y-72542328D01*
X154534011Y-72504525D01*
X154534010Y-72504525D01*
X154376040Y-72504525D01*
X154376039Y-72504525D01*
X154222659Y-72542328D01*
X154082787Y-72615740D01*
X153964541Y-72720496D01*
X153874806Y-72850500D01*
X153874805Y-72850501D01*
X153818787Y-72998206D01*
X153799747Y-73155024D01*
X121665409Y-73155024D01*
X121757366Y-73033255D01*
X121775555Y-72996727D01*
X121852403Y-72842394D01*
X121852403Y-72842393D01*
X121852405Y-72842389D01*
X121910756Y-72637310D01*
X121930429Y-72425000D01*
X121910756Y-72212690D01*
X121852405Y-72007611D01*
X121852403Y-72007606D01*
X121852403Y-72007605D01*
X121757367Y-71816746D01*
X121628872Y-71646593D01*
X121623387Y-71641593D01*
X121471302Y-71502948D01*
X121290019Y-71390702D01*
X121290017Y-71390701D01*
X121120421Y-71325000D01*
X121091198Y-71313679D01*
X120894385Y-71276888D01*
X120832106Y-71245221D01*
X120796833Y-71184908D01*
X120799767Y-71115100D01*
X120839976Y-71057960D01*
X120894384Y-71033111D01*
X121091198Y-70996321D01*
X121290019Y-70919298D01*
X121471302Y-70807052D01*
X121628872Y-70663407D01*
X121757366Y-70493255D01*
X121778907Y-70449994D01*
X128094859Y-70449994D01*
X128094859Y-70450005D01*
X128115385Y-70697729D01*
X128115387Y-70697738D01*
X128176412Y-70938717D01*
X128276266Y-71166364D01*
X128376564Y-71319882D01*
X129076212Y-70620234D01*
X129087482Y-70662292D01*
X129159890Y-70787708D01*
X129262292Y-70890110D01*
X129387708Y-70962518D01*
X129429765Y-70973787D01*
X128729942Y-71673609D01*
X128776768Y-71710055D01*
X128776770Y-71710056D01*
X128995385Y-71828364D01*
X128995396Y-71828369D01*
X129230506Y-71909083D01*
X129475707Y-71950000D01*
X129724293Y-71950000D01*
X129969493Y-71909083D01*
X130204603Y-71828369D01*
X130204614Y-71828364D01*
X130423228Y-71710057D01*
X130423231Y-71710055D01*
X130470056Y-71673609D01*
X129770234Y-70973787D01*
X129812292Y-70962518D01*
X129937708Y-70890110D01*
X130040110Y-70787708D01*
X130112518Y-70662292D01*
X130123787Y-70620235D01*
X130823434Y-71319882D01*
X130923731Y-71166369D01*
X131023587Y-70938717D01*
X131084612Y-70697738D01*
X131084614Y-70697729D01*
X131105141Y-70450005D01*
X131105141Y-70449998D01*
X132794532Y-70449998D01*
X132794532Y-70450001D01*
X132814364Y-70676686D01*
X132814366Y-70676697D01*
X132873258Y-70896488D01*
X132873261Y-70896497D01*
X132969431Y-71102732D01*
X132969432Y-71102734D01*
X133099954Y-71289141D01*
X133260858Y-71450045D01*
X133260861Y-71450047D01*
X133447266Y-71580568D01*
X133653504Y-71676739D01*
X133653509Y-71676740D01*
X133653511Y-71676741D01*
X133677822Y-71683255D01*
X133873308Y-71735635D01*
X134035230Y-71749801D01*
X134099998Y-71755468D01*
X134100000Y-71755468D01*
X134100002Y-71755468D01*
X134156673Y-71750509D01*
X134326692Y-71735635D01*
X134546496Y-71676739D01*
X134752734Y-71580568D01*
X134939139Y-71450047D01*
X135100047Y-71289139D01*
X135230568Y-71102734D01*
X135326739Y-70896496D01*
X135385635Y-70676692D01*
X135405468Y-70450000D01*
X135405467Y-70449994D01*
X135392554Y-70302392D01*
X135385635Y-70223308D01*
X135373268Y-70177155D01*
X148060000Y-70177155D01*
X148060000Y-70825000D01*
X148976988Y-70825000D01*
X148944075Y-70882007D01*
X148910000Y-71009174D01*
X148910000Y-71140826D01*
X148944075Y-71267993D01*
X148976988Y-71325000D01*
X148060000Y-71325000D01*
X148060000Y-71972844D01*
X148066401Y-72032372D01*
X148066403Y-72032379D01*
X148116645Y-72167086D01*
X148116649Y-72167093D01*
X148202809Y-72282187D01*
X148202812Y-72282190D01*
X148317906Y-72368350D01*
X148317913Y-72368354D01*
X148452620Y-72418596D01*
X148452627Y-72418598D01*
X148512155Y-72424999D01*
X148512172Y-72425000D01*
X149160000Y-72425000D01*
X149160000Y-71508012D01*
X149217007Y-71540925D01*
X149344174Y-71575000D01*
X149475826Y-71575000D01*
X149602993Y-71540925D01*
X149660000Y-71508012D01*
X149660000Y-72425000D01*
X150307828Y-72425000D01*
X150307844Y-72424999D01*
X150367372Y-72418598D01*
X150367379Y-72418596D01*
X150502086Y-72368354D01*
X150502093Y-72368350D01*
X150617187Y-72282190D01*
X150617190Y-72282187D01*
X150703350Y-72167093D01*
X150703354Y-72167086D01*
X150753596Y-72032379D01*
X150753598Y-72032372D01*
X150759999Y-71972844D01*
X150760000Y-71972827D01*
X150760000Y-71778268D01*
X150779685Y-71711229D01*
X150832489Y-71665474D01*
X150901647Y-71655530D01*
X150965203Y-71684555D01*
X150982950Y-71703537D01*
X151096128Y-71853407D01*
X151253698Y-71997052D01*
X151434981Y-72109298D01*
X151633802Y-72186321D01*
X151843390Y-72225500D01*
X151843392Y-72225500D01*
X152056608Y-72225500D01*
X152056610Y-72225500D01*
X152266198Y-72186321D01*
X152465019Y-72109298D01*
X152646302Y-71997052D01*
X152803872Y-71853407D01*
X152932366Y-71683255D01*
X152986270Y-71575000D01*
X153027403Y-71492394D01*
X153027403Y-71492393D01*
X153027405Y-71492389D01*
X153085756Y-71287310D01*
X153096529Y-71171047D01*
X153122315Y-71106111D01*
X153164622Y-71075804D01*
X153273130Y-71075804D01*
X153309503Y-71096668D01*
X153341693Y-71158681D01*
X153343470Y-71171047D01*
X153354244Y-71287310D01*
X153407675Y-71475099D01*
X153412596Y-71492392D01*
X153412596Y-71492394D01*
X153507632Y-71683253D01*
X153617216Y-71828364D01*
X153636128Y-71853407D01*
X153793698Y-71997052D01*
X153974981Y-72109298D01*
X154173802Y-72186321D01*
X154383390Y-72225500D01*
X154383392Y-72225500D01*
X154596608Y-72225500D01*
X154596610Y-72225500D01*
X154806198Y-72186321D01*
X155005019Y-72109298D01*
X155186302Y-71997052D01*
X155343872Y-71853407D01*
X155472366Y-71683255D01*
X155526270Y-71575000D01*
X155567403Y-71492394D01*
X155567403Y-71492393D01*
X155567405Y-71492389D01*
X155625756Y-71287310D01*
X155645429Y-71075000D01*
X155625756Y-70862690D01*
X155567405Y-70657611D01*
X155567403Y-70657606D01*
X155567403Y-70657605D01*
X155472367Y-70466746D01*
X155343872Y-70296593D01*
X155325779Y-70280099D01*
X155186302Y-70152948D01*
X155005019Y-70040702D01*
X155005017Y-70040701D01*
X154855829Y-69982906D01*
X154806198Y-69963679D01*
X154596610Y-69924500D01*
X154383390Y-69924500D01*
X154173802Y-69963679D01*
X154173799Y-69963679D01*
X154173799Y-69963680D01*
X153974982Y-70040701D01*
X153974980Y-70040702D01*
X153793699Y-70152947D01*
X153636127Y-70296593D01*
X153507632Y-70466746D01*
X153412596Y-70657605D01*
X153412596Y-70657607D01*
X153354244Y-70862689D01*
X153343471Y-70978951D01*
X153317685Y-71043888D01*
X153273130Y-71075804D01*
X153164622Y-71075804D01*
X153166869Y-71074194D01*
X153130497Y-71053331D01*
X153098307Y-70991318D01*
X153096529Y-70978951D01*
X153091001Y-70919297D01*
X153085756Y-70862690D01*
X153027405Y-70657611D01*
X153027403Y-70657606D01*
X153027403Y-70657605D01*
X152932367Y-70466746D01*
X152803872Y-70296593D01*
X152785779Y-70280099D01*
X152646302Y-70152948D01*
X152465019Y-70040702D01*
X152465017Y-70040701D01*
X152315829Y-69982906D01*
X152266198Y-69963679D01*
X152056610Y-69924500D01*
X151843390Y-69924500D01*
X151633802Y-69963679D01*
X151633799Y-69963679D01*
X151633799Y-69963680D01*
X151434982Y-70040701D01*
X151434980Y-70040702D01*
X151253699Y-70152947D01*
X151096127Y-70296593D01*
X150982954Y-70446458D01*
X150926845Y-70488094D01*
X150857133Y-70492785D01*
X150795951Y-70459043D01*
X150762724Y-70397579D01*
X150760000Y-70371731D01*
X150760000Y-70177172D01*
X150759999Y-70177155D01*
X150753598Y-70117627D01*
X150753596Y-70117620D01*
X150703354Y-69982913D01*
X150703350Y-69982906D01*
X150617190Y-69867812D01*
X150617187Y-69867809D01*
X150502093Y-69781649D01*
X150502086Y-69781645D01*
X150367379Y-69731403D01*
X150367372Y-69731401D01*
X150307844Y-69725000D01*
X149660000Y-69725000D01*
X149660000Y-70641988D01*
X149602993Y-70609075D01*
X149475826Y-70575000D01*
X149344174Y-70575000D01*
X149217007Y-70609075D01*
X149160000Y-70641988D01*
X149160000Y-69725000D01*
X148512155Y-69725000D01*
X148452627Y-69731401D01*
X148452620Y-69731403D01*
X148317913Y-69781645D01*
X148317906Y-69781649D01*
X148202812Y-69867809D01*
X148202809Y-69867812D01*
X148116649Y-69982906D01*
X148116645Y-69982913D01*
X148066403Y-70117620D01*
X148066401Y-70117627D01*
X148060000Y-70177155D01*
X135373268Y-70177155D01*
X135326739Y-70003504D01*
X135230568Y-69797266D01*
X135113448Y-69630000D01*
X135113447Y-69629999D01*
X165819364Y-69629999D01*
X165819364Y-69630000D01*
X166716988Y-69630000D01*
X166684075Y-69687007D01*
X166650000Y-69814174D01*
X166650000Y-69945826D01*
X166684075Y-70072993D01*
X166716988Y-70130000D01*
X165819364Y-70130000D01*
X165876567Y-70343486D01*
X165876570Y-70343492D01*
X165976399Y-70557578D01*
X166111894Y-70751082D01*
X166278917Y-70918105D01*
X166472421Y-71053600D01*
X166671573Y-71146466D01*
X166724012Y-71192638D01*
X166743164Y-71259832D01*
X166722948Y-71326713D01*
X166669783Y-71372048D01*
X166663968Y-71374472D01*
X166656771Y-71377260D01*
X166634982Y-71385701D01*
X166634980Y-71385702D01*
X166453699Y-71497947D01*
X166296127Y-71641593D01*
X166167632Y-71811746D01*
X166072596Y-72002605D01*
X166072596Y-72002607D01*
X166014244Y-72207689D01*
X165994571Y-72419999D01*
X165994571Y-72420000D01*
X166014244Y-72632310D01*
X166072596Y-72837392D01*
X166072596Y-72837394D01*
X166167632Y-73028253D01*
X166263366Y-73155024D01*
X166296128Y-73198407D01*
X166453698Y-73342052D01*
X166634981Y-73454298D01*
X166833802Y-73531321D01*
X167030613Y-73568111D01*
X167092893Y-73599779D01*
X167128166Y-73660092D01*
X167125232Y-73729900D01*
X167085023Y-73787040D01*
X167030613Y-73811888D01*
X166833802Y-73848679D01*
X166833799Y-73848679D01*
X166833799Y-73848680D01*
X166634982Y-73925701D01*
X166634980Y-73925702D01*
X166453699Y-74037947D01*
X166296127Y-74181593D01*
X166167632Y-74351746D01*
X166072596Y-74542605D01*
X166072596Y-74542607D01*
X166014244Y-74747689D01*
X165994571Y-74959999D01*
X165994571Y-74960000D01*
X166014244Y-75172310D01*
X166072596Y-75377392D01*
X166072596Y-75377394D01*
X166167632Y-75568253D01*
X166287052Y-75726389D01*
X166296128Y-75738407D01*
X166453698Y-75882052D01*
X166634981Y-75994298D01*
X166833802Y-76071321D01*
X167030613Y-76108111D01*
X167092893Y-76139779D01*
X167128166Y-76200092D01*
X167125232Y-76269900D01*
X167085023Y-76327040D01*
X167030613Y-76351888D01*
X166833802Y-76388679D01*
X166833799Y-76388679D01*
X166833799Y-76388680D01*
X166634982Y-76465701D01*
X166634980Y-76465702D01*
X166453699Y-76577947D01*
X166296127Y-76721593D01*
X166167632Y-76891746D01*
X166072596Y-77082605D01*
X166072596Y-77082607D01*
X166014244Y-77287689D01*
X165994571Y-77499999D01*
X165994571Y-77500000D01*
X166014244Y-77712310D01*
X166072596Y-77917392D01*
X166072596Y-77917394D01*
X166167632Y-78108253D01*
X166278805Y-78255468D01*
X166296128Y-78278407D01*
X166453698Y-78422052D01*
X166634981Y-78534298D01*
X166833802Y-78611321D01*
X167030613Y-78648111D01*
X167092893Y-78679779D01*
X167128166Y-78740092D01*
X167125232Y-78809900D01*
X167085023Y-78867040D01*
X167030613Y-78891888D01*
X166833802Y-78928679D01*
X166833799Y-78928679D01*
X166833799Y-78928680D01*
X166634982Y-79005701D01*
X166634980Y-79005702D01*
X166453699Y-79117947D01*
X166296127Y-79261593D01*
X166167632Y-79431746D01*
X166072596Y-79622605D01*
X166072596Y-79622607D01*
X166014244Y-79827689D01*
X165994571Y-80039999D01*
X165994571Y-80040000D01*
X166014244Y-80252310D01*
X166072596Y-80457392D01*
X166072596Y-80457394D01*
X166167632Y-80648253D01*
X166194684Y-80684075D01*
X166296128Y-80818407D01*
X166453698Y-80962052D01*
X166634981Y-81074298D01*
X166833802Y-81151321D01*
X167030613Y-81188111D01*
X167092893Y-81219779D01*
X167128166Y-81280092D01*
X167125232Y-81349900D01*
X167085023Y-81407040D01*
X167030613Y-81431888D01*
X166833802Y-81468679D01*
X166833799Y-81468679D01*
X166833799Y-81468680D01*
X166634982Y-81545701D01*
X166634980Y-81545702D01*
X166453699Y-81657947D01*
X166296127Y-81801593D01*
X166167632Y-81971746D01*
X166072596Y-82162605D01*
X166072596Y-82162607D01*
X166014244Y-82367689D01*
X165994571Y-82579999D01*
X165994571Y-82580000D01*
X166014244Y-82792310D01*
X166072596Y-82997392D01*
X166072596Y-82997394D01*
X166167632Y-83188253D01*
X166296127Y-83358406D01*
X166296128Y-83358407D01*
X166453698Y-83502052D01*
X166634981Y-83614298D01*
X166833802Y-83691321D01*
X167030613Y-83728111D01*
X167092893Y-83759779D01*
X167128166Y-83820092D01*
X167125232Y-83889900D01*
X167085023Y-83947040D01*
X167030613Y-83971888D01*
X166833802Y-84008679D01*
X166833799Y-84008679D01*
X166833799Y-84008680D01*
X166634982Y-84085701D01*
X166634980Y-84085702D01*
X166453699Y-84197947D01*
X166296127Y-84341593D01*
X166167632Y-84511746D01*
X166072596Y-84702605D01*
X166072596Y-84702607D01*
X166014244Y-84907689D01*
X165994571Y-85119999D01*
X165994571Y-85120000D01*
X166014244Y-85332310D01*
X166072596Y-85537392D01*
X166072596Y-85537394D01*
X166167632Y-85728253D01*
X166296127Y-85898406D01*
X166296128Y-85898407D01*
X166453698Y-86042052D01*
X166634981Y-86154298D01*
X166833802Y-86231321D01*
X167030613Y-86268111D01*
X167092893Y-86299779D01*
X167128166Y-86360092D01*
X167125232Y-86429900D01*
X167085023Y-86487040D01*
X167030613Y-86511888D01*
X166833802Y-86548679D01*
X166833799Y-86548679D01*
X166833799Y-86548680D01*
X166634982Y-86625701D01*
X166634980Y-86625702D01*
X166453699Y-86737947D01*
X166296127Y-86881593D01*
X166167632Y-87051746D01*
X166072596Y-87242605D01*
X166072596Y-87242607D01*
X166014244Y-87447689D01*
X165994571Y-87659999D01*
X165994571Y-87660000D01*
X166014244Y-87872310D01*
X166072596Y-88077392D01*
X166072596Y-88077394D01*
X166167632Y-88268253D01*
X166296127Y-88438406D01*
X166296128Y-88438407D01*
X166453698Y-88582052D01*
X166634981Y-88694298D01*
X166833802Y-88771321D01*
X167006544Y-88803612D01*
X167068823Y-88835279D01*
X167104096Y-88895591D01*
X167101162Y-88965400D01*
X167060953Y-89022540D01*
X166996235Y-89048871D01*
X166983757Y-89049500D01*
X166255143Y-89049500D01*
X166255117Y-89049502D01*
X166230012Y-89052413D01*
X166230008Y-89052415D01*
X166127235Y-89097793D01*
X166047794Y-89177234D01*
X166002415Y-89280006D01*
X166002415Y-89280008D01*
X165999500Y-89305131D01*
X165999500Y-91094856D01*
X165999502Y-91094882D01*
X166002413Y-91119987D01*
X166002415Y-91119991D01*
X166047793Y-91222764D01*
X166047794Y-91222765D01*
X166127235Y-91302206D01*
X166230009Y-91347585D01*
X166255135Y-91350500D01*
X168044864Y-91350499D01*
X168044879Y-91350497D01*
X168044882Y-91350497D01*
X168069987Y-91347586D01*
X168069988Y-91347585D01*
X168069991Y-91347585D01*
X168172765Y-91302206D01*
X168252206Y-91222765D01*
X168297585Y-91119991D01*
X168300500Y-91094865D01*
X168300499Y-89305136D01*
X168300497Y-89305117D01*
X168297586Y-89280012D01*
X168297585Y-89280010D01*
X168297585Y-89280009D01*
X168252206Y-89177235D01*
X168172765Y-89097794D01*
X168172763Y-89097793D01*
X168069992Y-89052415D01*
X168044868Y-89049500D01*
X167316243Y-89049500D01*
X167249204Y-89029815D01*
X167203449Y-88977011D01*
X167193505Y-88907853D01*
X167222530Y-88844297D01*
X167281308Y-88806523D01*
X167293441Y-88803614D01*
X167466198Y-88771321D01*
X167665019Y-88694298D01*
X167846302Y-88582052D01*
X168003872Y-88438407D01*
X168132366Y-88268255D01*
X168224914Y-88082392D01*
X168227403Y-88077394D01*
X168227403Y-88077393D01*
X168227405Y-88077389D01*
X168285756Y-87872310D01*
X168305429Y-87660000D01*
X168285756Y-87447690D01*
X168227405Y-87242611D01*
X168227403Y-87242606D01*
X168227403Y-87242605D01*
X168132367Y-87051746D01*
X168003872Y-86881593D01*
X167846302Y-86737948D01*
X167665019Y-86625702D01*
X167665017Y-86625701D01*
X167479107Y-86553680D01*
X167466198Y-86548679D01*
X167269385Y-86511888D01*
X167207106Y-86480221D01*
X167171833Y-86419908D01*
X167174767Y-86350100D01*
X167214976Y-86292960D01*
X167269384Y-86268111D01*
X167466198Y-86231321D01*
X167665019Y-86154298D01*
X167846302Y-86042052D01*
X168003872Y-85898407D01*
X168132366Y-85728255D01*
X168224914Y-85542392D01*
X168227403Y-85537394D01*
X168227403Y-85537393D01*
X168227405Y-85537389D01*
X168285756Y-85332310D01*
X168305429Y-85120000D01*
X168285756Y-84907690D01*
X168227405Y-84702611D01*
X168227403Y-84702606D01*
X168227403Y-84702605D01*
X168132367Y-84511746D01*
X168003872Y-84341593D01*
X167846302Y-84197948D01*
X167665019Y-84085702D01*
X167665017Y-84085701D01*
X167479107Y-84013680D01*
X167466198Y-84008679D01*
X167269385Y-83971888D01*
X167207106Y-83940221D01*
X167171833Y-83879908D01*
X167174767Y-83810100D01*
X167214976Y-83752960D01*
X167269384Y-83728111D01*
X167466198Y-83691321D01*
X167665019Y-83614298D01*
X167846302Y-83502052D01*
X168003872Y-83358407D01*
X168132366Y-83188255D01*
X168224914Y-83002392D01*
X168227403Y-82997394D01*
X168227403Y-82997393D01*
X168227405Y-82997389D01*
X168285756Y-82792310D01*
X168305429Y-82580000D01*
X168285756Y-82367690D01*
X168227405Y-82162611D01*
X168227403Y-82162606D01*
X168227403Y-82162605D01*
X168132367Y-81971746D01*
X168003872Y-81801593D01*
X167846302Y-81657948D01*
X167665019Y-81545702D01*
X167665017Y-81545701D01*
X167479107Y-81473680D01*
X167466198Y-81468679D01*
X167269385Y-81431888D01*
X167207106Y-81400221D01*
X167171833Y-81339908D01*
X167174767Y-81270100D01*
X167214976Y-81212960D01*
X167269384Y-81188111D01*
X167466198Y-81151321D01*
X167665019Y-81074298D01*
X167846302Y-80962052D01*
X168003872Y-80818407D01*
X168132366Y-80648255D01*
X168224914Y-80462392D01*
X168227403Y-80457394D01*
X168227403Y-80457393D01*
X168227405Y-80457389D01*
X168285756Y-80252310D01*
X168305429Y-80040000D01*
X168285756Y-79827690D01*
X168227405Y-79622611D01*
X168227403Y-79622606D01*
X168227403Y-79622605D01*
X168132367Y-79431746D01*
X168003872Y-79261593D01*
X167846302Y-79117948D01*
X167665019Y-79005702D01*
X167665017Y-79005701D01*
X167479107Y-78933680D01*
X167466198Y-78928679D01*
X167269385Y-78891888D01*
X167207106Y-78860221D01*
X167171833Y-78799908D01*
X167174767Y-78730100D01*
X167214976Y-78672960D01*
X167269384Y-78648111D01*
X167466198Y-78611321D01*
X167665019Y-78534298D01*
X167846302Y-78422052D01*
X168003872Y-78278407D01*
X168132366Y-78108255D01*
X168146153Y-78080567D01*
X168227403Y-77917394D01*
X168227403Y-77917393D01*
X168227405Y-77917389D01*
X168285756Y-77712310D01*
X168305429Y-77500000D01*
X168285756Y-77287690D01*
X168227405Y-77082611D01*
X168227403Y-77082606D01*
X168227403Y-77082605D01*
X168132367Y-76891746D01*
X168003872Y-76721593D01*
X167866594Y-76596447D01*
X167846302Y-76577948D01*
X167665019Y-76465702D01*
X167665017Y-76465701D01*
X167479107Y-76393680D01*
X167466198Y-76388679D01*
X167269385Y-76351888D01*
X167207106Y-76320221D01*
X167171833Y-76259908D01*
X167174767Y-76190100D01*
X167214976Y-76132960D01*
X167269384Y-76108111D01*
X167466198Y-76071321D01*
X167665019Y-75994298D01*
X167846302Y-75882052D01*
X168003872Y-75738407D01*
X168132366Y-75568255D01*
X168170876Y-75490916D01*
X168227403Y-75377394D01*
X168227403Y-75377393D01*
X168227405Y-75377389D01*
X168285756Y-75172310D01*
X168305429Y-74960000D01*
X168285756Y-74747690D01*
X168227405Y-74542611D01*
X168227403Y-74542606D01*
X168227403Y-74542605D01*
X168132367Y-74351746D01*
X168003872Y-74181593D01*
X167846302Y-74037948D01*
X167665019Y-73925702D01*
X167665017Y-73925701D01*
X167479107Y-73853680D01*
X167466198Y-73848679D01*
X167269385Y-73811888D01*
X167207106Y-73780221D01*
X167171833Y-73719908D01*
X167174767Y-73650100D01*
X167214976Y-73592960D01*
X167269384Y-73568111D01*
X167466198Y-73531321D01*
X167665019Y-73454298D01*
X167846302Y-73342052D01*
X168003872Y-73198407D01*
X168132366Y-73028255D01*
X168147328Y-72998207D01*
X168227403Y-72837394D01*
X168227403Y-72837393D01*
X168227405Y-72837389D01*
X168285756Y-72632310D01*
X168305429Y-72420000D01*
X168285756Y-72207690D01*
X168227405Y-72002611D01*
X168227403Y-72002606D01*
X168227403Y-72002605D01*
X168132367Y-71811746D01*
X168003872Y-71641593D01*
X167893445Y-71540925D01*
X167846302Y-71497948D01*
X167665019Y-71385702D01*
X167665014Y-71385700D01*
X167655481Y-71382007D01*
X167636037Y-71374474D01*
X167580636Y-71331903D01*
X167557045Y-71266136D01*
X167572756Y-71198056D01*
X167622779Y-71149276D01*
X167628426Y-71146466D01*
X167827578Y-71053599D01*
X168021082Y-70918105D01*
X168188105Y-70751082D01*
X168323600Y-70557578D01*
X168423429Y-70343492D01*
X168423432Y-70343486D01*
X168480636Y-70130000D01*
X167583012Y-70130000D01*
X167615925Y-70072993D01*
X167650000Y-69945826D01*
X167650000Y-69814174D01*
X167615925Y-69687007D01*
X167583012Y-69630000D01*
X168480636Y-69630000D01*
X168480635Y-69629999D01*
X168423432Y-69416513D01*
X168423429Y-69416507D01*
X168323600Y-69202422D01*
X168323599Y-69202420D01*
X168188113Y-69008926D01*
X168188108Y-69008920D01*
X168021082Y-68841894D01*
X167827578Y-68706399D01*
X167613492Y-68606570D01*
X167613486Y-68606567D01*
X167400000Y-68549364D01*
X167400000Y-69446988D01*
X167342993Y-69414075D01*
X167215826Y-69380000D01*
X167084174Y-69380000D01*
X166957007Y-69414075D01*
X166900000Y-69446988D01*
X166900000Y-68549364D01*
X166899999Y-68549364D01*
X166686513Y-68606567D01*
X166686507Y-68606570D01*
X166472422Y-68706399D01*
X166472420Y-68706400D01*
X166278926Y-68841886D01*
X166278920Y-68841891D01*
X166111891Y-69008920D01*
X166111886Y-69008926D01*
X165976400Y-69202420D01*
X165976399Y-69202422D01*
X165876570Y-69416507D01*
X165876567Y-69416513D01*
X165819364Y-69629999D01*
X135113447Y-69629999D01*
X135100045Y-69610858D01*
X134939141Y-69449954D01*
X134752734Y-69319432D01*
X134752732Y-69319431D01*
X134546497Y-69223261D01*
X134546488Y-69223258D01*
X134326697Y-69164366D01*
X134326693Y-69164365D01*
X134326692Y-69164365D01*
X134326691Y-69164364D01*
X134326686Y-69164364D01*
X134100002Y-69144532D01*
X134099998Y-69144532D01*
X133873313Y-69164364D01*
X133873302Y-69164366D01*
X133653511Y-69223258D01*
X133653502Y-69223261D01*
X133447267Y-69319431D01*
X133447265Y-69319432D01*
X133260858Y-69449954D01*
X133099954Y-69610858D01*
X132969432Y-69797265D01*
X132969431Y-69797267D01*
X132873261Y-70003502D01*
X132873258Y-70003511D01*
X132814366Y-70223302D01*
X132814364Y-70223313D01*
X132794532Y-70449998D01*
X131105141Y-70449998D01*
X131105141Y-70449994D01*
X131084614Y-70202270D01*
X131084612Y-70202261D01*
X131023587Y-69961282D01*
X130923731Y-69733630D01*
X130823434Y-69580116D01*
X130123787Y-70279764D01*
X130112518Y-70237708D01*
X130040110Y-70112292D01*
X129937708Y-70009890D01*
X129812292Y-69937482D01*
X129770235Y-69926212D01*
X130470057Y-69226390D01*
X130470056Y-69226389D01*
X130423229Y-69189943D01*
X130204614Y-69071635D01*
X130204603Y-69071630D01*
X129969493Y-68990916D01*
X129724293Y-68950000D01*
X129475707Y-68950000D01*
X129230506Y-68990916D01*
X128995396Y-69071630D01*
X128995390Y-69071632D01*
X128776761Y-69189949D01*
X128729942Y-69226388D01*
X128729942Y-69226390D01*
X129429765Y-69926212D01*
X129387708Y-69937482D01*
X129262292Y-70009890D01*
X129159890Y-70112292D01*
X129087482Y-70237708D01*
X129076212Y-70279764D01*
X128376564Y-69580116D01*
X128276267Y-69733632D01*
X128176412Y-69961282D01*
X128115387Y-70202261D01*
X128115385Y-70202270D01*
X128094859Y-70449994D01*
X121778907Y-70449994D01*
X121780668Y-70446458D01*
X121852403Y-70302394D01*
X121852403Y-70302393D01*
X121852405Y-70302389D01*
X121910756Y-70097310D01*
X121930429Y-69885000D01*
X121910756Y-69672690D01*
X121852405Y-69467611D01*
X121852403Y-69467606D01*
X121852403Y-69467605D01*
X121757367Y-69276746D01*
X121628872Y-69106593D01*
X121590522Y-69071632D01*
X121471302Y-68962948D01*
X121290019Y-68850702D01*
X121290017Y-68850701D01*
X121190608Y-68812190D01*
X121091198Y-68773679D01*
X120894385Y-68736888D01*
X120832106Y-68705221D01*
X120796833Y-68644908D01*
X120798721Y-68599999D01*
X153034722Y-68599999D01*
X153034722Y-68600000D01*
X153053762Y-68756818D01*
X153086028Y-68841894D01*
X153109780Y-68904523D01*
X153199517Y-69034530D01*
X153317760Y-69139283D01*
X153317762Y-69139284D01*
X153457634Y-69212696D01*
X153611014Y-69250500D01*
X153611015Y-69250500D01*
X153768985Y-69250500D01*
X153922365Y-69212696D01*
X154013805Y-69164703D01*
X154071431Y-69150500D01*
X154908569Y-69150500D01*
X154966194Y-69164703D01*
X155057635Y-69212696D01*
X155100488Y-69223258D01*
X155211014Y-69250500D01*
X155211015Y-69250500D01*
X155368985Y-69250500D01*
X155522365Y-69212696D01*
X155565705Y-69189949D01*
X155662240Y-69139283D01*
X155780483Y-69034530D01*
X155870220Y-68904523D01*
X155926237Y-68756818D01*
X155945278Y-68600000D01*
X155932300Y-68493111D01*
X155926237Y-68443181D01*
X155902009Y-68379297D01*
X155870220Y-68295477D01*
X155780483Y-68165470D01*
X155662240Y-68060717D01*
X155662238Y-68060716D01*
X155662237Y-68060715D01*
X155522365Y-67987303D01*
X155368986Y-67949500D01*
X155368985Y-67949500D01*
X155211015Y-67949500D01*
X155211014Y-67949500D01*
X155057636Y-67987303D01*
X155011763Y-68011379D01*
X154966194Y-68035296D01*
X154908569Y-68049500D01*
X154071431Y-68049500D01*
X154013805Y-68035296D01*
X153922365Y-67987304D01*
X153922364Y-67987303D01*
X153922363Y-67987303D01*
X153768986Y-67949500D01*
X153768985Y-67949500D01*
X153611015Y-67949500D01*
X153611014Y-67949500D01*
X153457634Y-67987303D01*
X153317762Y-68060715D01*
X153199516Y-68165471D01*
X153109781Y-68295475D01*
X153109780Y-68295476D01*
X153053762Y-68443181D01*
X153034722Y-68599999D01*
X120798721Y-68599999D01*
X120799767Y-68575100D01*
X120839976Y-68517960D01*
X120894384Y-68493111D01*
X121091198Y-68456321D01*
X121290019Y-68379298D01*
X121471302Y-68267052D01*
X121628872Y-68123407D01*
X121757366Y-67953255D01*
X121852405Y-67762389D01*
X121910756Y-67557310D01*
X121930429Y-67345000D01*
X121910756Y-67132690D01*
X121852405Y-66927611D01*
X121852403Y-66927606D01*
X121852403Y-66927605D01*
X121757367Y-66736746D01*
X121628872Y-66566593D01*
X121521219Y-66468454D01*
X121471302Y-66422948D01*
X121290019Y-66310702D01*
X121290017Y-66310701D01*
X121190608Y-66272190D01*
X121091198Y-66233679D01*
X120894385Y-66196888D01*
X120832106Y-66165221D01*
X120796833Y-66104908D01*
X120799767Y-66035100D01*
X120839976Y-65977960D01*
X120894384Y-65953111D01*
X121091198Y-65916321D01*
X121290019Y-65839298D01*
X121471302Y-65727052D01*
X121628872Y-65583407D01*
X121632491Y-65578615D01*
X165824500Y-65578615D01*
X165824500Y-66031384D01*
X165854300Y-66181197D01*
X165854302Y-66181205D01*
X165912759Y-66322334D01*
X165912764Y-66322343D01*
X165997629Y-66449351D01*
X165997632Y-66449355D01*
X166105644Y-66557367D01*
X166105648Y-66557370D01*
X166232656Y-66642235D01*
X166232662Y-66642238D01*
X166232663Y-66642239D01*
X166373795Y-66700698D01*
X166523615Y-66730499D01*
X166523619Y-66730500D01*
X166523620Y-66730500D01*
X166676381Y-66730500D01*
X166676382Y-66730499D01*
X166826205Y-66700698D01*
X166967337Y-66642239D01*
X167094352Y-66557370D01*
X167202370Y-66449352D01*
X167287239Y-66322337D01*
X167345698Y-66181205D01*
X167375500Y-66031380D01*
X167375500Y-65578620D01*
X167345698Y-65428795D01*
X167287239Y-65287663D01*
X167287238Y-65287662D01*
X167287235Y-65287656D01*
X167202370Y-65160648D01*
X167202367Y-65160644D01*
X167094355Y-65052632D01*
X167094351Y-65052629D01*
X166967343Y-64967764D01*
X166967334Y-64967759D01*
X166826205Y-64909302D01*
X166826197Y-64909300D01*
X166676384Y-64879500D01*
X166676380Y-64879500D01*
X166523620Y-64879500D01*
X166523615Y-64879500D01*
X166373802Y-64909300D01*
X166373794Y-64909302D01*
X166232665Y-64967759D01*
X166232656Y-64967764D01*
X166105648Y-65052629D01*
X166105644Y-65052632D01*
X165997632Y-65160644D01*
X165997629Y-65160648D01*
X165912764Y-65287656D01*
X165912759Y-65287665D01*
X165854302Y-65428794D01*
X165854300Y-65428802D01*
X165824500Y-65578615D01*
X121632491Y-65578615D01*
X121757366Y-65413255D01*
X121819903Y-65287663D01*
X121852403Y-65222394D01*
X121852403Y-65222393D01*
X121852405Y-65222389D01*
X121910756Y-65017310D01*
X121930429Y-64805000D01*
X121910756Y-64592690D01*
X121852405Y-64387611D01*
X121852403Y-64387606D01*
X121852403Y-64387605D01*
X121757367Y-64196746D01*
X121628872Y-64026593D01*
X121471302Y-63882948D01*
X121290019Y-63770702D01*
X121290017Y-63770701D01*
X121190608Y-63732190D01*
X121091198Y-63693679D01*
X120894385Y-63656888D01*
X120832106Y-63625221D01*
X120796833Y-63564908D01*
X120799767Y-63495100D01*
X120839976Y-63437960D01*
X120894384Y-63413111D01*
X121091198Y-63376321D01*
X121290019Y-63299298D01*
X121471302Y-63187052D01*
X121628872Y-63043407D01*
X121757366Y-62873255D01*
X121852405Y-62682389D01*
X121910756Y-62477310D01*
X121930429Y-62265000D01*
X121910756Y-62052690D01*
X121852405Y-61847611D01*
X121852403Y-61847606D01*
X121852403Y-61847605D01*
X121757367Y-61656746D01*
X121628872Y-61486593D01*
X121588020Y-61449351D01*
X121471302Y-61342948D01*
X121290019Y-61230702D01*
X121290017Y-61230701D01*
X121162231Y-61181197D01*
X121091198Y-61153679D01*
X120894385Y-61116888D01*
X120832106Y-61085221D01*
X120796833Y-61024908D01*
X120799767Y-60955100D01*
X120839976Y-60897960D01*
X120894384Y-60873111D01*
X121091198Y-60836321D01*
X121290019Y-60759298D01*
X121471302Y-60647052D01*
X121628872Y-60503407D01*
X121740846Y-60355131D01*
X156149500Y-60355131D01*
X156149500Y-62144856D01*
X156149502Y-62144882D01*
X156152413Y-62169987D01*
X156152415Y-62169991D01*
X156197793Y-62272764D01*
X156197794Y-62272765D01*
X156277235Y-62352206D01*
X156380009Y-62397585D01*
X156405135Y-62400500D01*
X158194864Y-62400499D01*
X158194879Y-62400497D01*
X158194882Y-62400497D01*
X158219987Y-62397586D01*
X158219988Y-62397585D01*
X158219991Y-62397585D01*
X158322765Y-62352206D01*
X158402206Y-62272765D01*
X158447585Y-62169991D01*
X158450500Y-62144865D01*
X158450499Y-60578615D01*
X165824500Y-60578615D01*
X165824500Y-61031384D01*
X165854300Y-61181197D01*
X165854302Y-61181205D01*
X165912759Y-61322334D01*
X165912764Y-61322343D01*
X165997629Y-61449351D01*
X165997632Y-61449355D01*
X166105644Y-61557367D01*
X166105648Y-61557370D01*
X166232656Y-61642235D01*
X166232662Y-61642238D01*
X166232663Y-61642239D01*
X166373795Y-61700698D01*
X166523615Y-61730499D01*
X166523619Y-61730500D01*
X166523620Y-61730500D01*
X166676381Y-61730500D01*
X166676382Y-61730499D01*
X166826205Y-61700698D01*
X166967337Y-61642239D01*
X167094352Y-61557370D01*
X167202370Y-61449352D01*
X167287239Y-61322337D01*
X167345698Y-61181205D01*
X167375500Y-61031380D01*
X167375500Y-60578620D01*
X167345698Y-60428795D01*
X167287239Y-60287663D01*
X167287238Y-60287662D01*
X167287235Y-60287656D01*
X167202370Y-60160648D01*
X167202367Y-60160644D01*
X167094355Y-60052632D01*
X167094351Y-60052629D01*
X166967343Y-59967764D01*
X166967334Y-59967759D01*
X166826205Y-59909302D01*
X166826197Y-59909300D01*
X166676384Y-59879500D01*
X166676380Y-59879500D01*
X166523620Y-59879500D01*
X166523615Y-59879500D01*
X166373802Y-59909300D01*
X166373794Y-59909302D01*
X166232665Y-59967759D01*
X166232656Y-59967764D01*
X166105648Y-60052629D01*
X166105644Y-60052632D01*
X165997632Y-60160644D01*
X165997629Y-60160648D01*
X165912764Y-60287656D01*
X165912759Y-60287665D01*
X165854302Y-60428794D01*
X165854300Y-60428802D01*
X165824500Y-60578615D01*
X158450499Y-60578615D01*
X158450499Y-60355136D01*
X158450497Y-60355117D01*
X158447586Y-60330012D01*
X158447585Y-60330010D01*
X158447585Y-60330009D01*
X158402206Y-60227235D01*
X158322765Y-60147794D01*
X158310524Y-60142389D01*
X158219992Y-60102415D01*
X158194865Y-60099500D01*
X156405143Y-60099500D01*
X156405117Y-60099502D01*
X156380012Y-60102413D01*
X156380008Y-60102415D01*
X156277235Y-60147793D01*
X156197794Y-60227234D01*
X156152415Y-60330006D01*
X156152415Y-60330008D01*
X156149500Y-60355131D01*
X121740846Y-60355131D01*
X121757366Y-60333255D01*
X121810158Y-60227234D01*
X121852403Y-60142394D01*
X121852403Y-60142393D01*
X121852405Y-60142389D01*
X121910756Y-59937310D01*
X121930429Y-59725000D01*
X121910756Y-59512690D01*
X121852405Y-59307611D01*
X121852403Y-59307606D01*
X121852403Y-59307605D01*
X121757367Y-59116746D01*
X121628872Y-58946593D01*
X121471302Y-58802948D01*
X121290019Y-58690702D01*
X121290014Y-58690700D01*
X121283129Y-58688032D01*
X121261037Y-58679474D01*
X121222679Y-58649999D01*
X158744722Y-58649999D01*
X158744722Y-58650000D01*
X158763762Y-58806818D01*
X158816773Y-58946593D01*
X158819780Y-58954523D01*
X158909517Y-59084530D01*
X159027760Y-59189283D01*
X159027762Y-59189284D01*
X159167634Y-59262696D01*
X159321014Y-59300500D01*
X159321015Y-59300500D01*
X159478985Y-59300500D01*
X159632365Y-59262696D01*
X159702412Y-59225932D01*
X159772240Y-59189283D01*
X159890483Y-59084530D01*
X159980220Y-58954523D01*
X160036237Y-58806818D01*
X160055278Y-58650000D01*
X160044890Y-58564446D01*
X160056350Y-58495523D01*
X160103254Y-58443737D01*
X160167986Y-58425500D01*
X161641202Y-58425500D01*
X161698827Y-58439703D01*
X161742635Y-58462696D01*
X161819325Y-58481598D01*
X161896014Y-58500500D01*
X161896015Y-58500500D01*
X162053985Y-58500500D01*
X162207365Y-58462696D01*
X162278235Y-58425500D01*
X162347240Y-58389283D01*
X162465483Y-58284530D01*
X162555220Y-58154523D01*
X162611237Y-58006818D01*
X162630278Y-57850000D01*
X162628979Y-57839297D01*
X162611237Y-57693181D01*
X162589992Y-57637164D01*
X162555220Y-57545477D01*
X162465483Y-57415470D01*
X162347240Y-57310717D01*
X162347238Y-57310716D01*
X162347237Y-57310715D01*
X162207365Y-57237303D01*
X162053986Y-57199500D01*
X162053985Y-57199500D01*
X161896015Y-57199500D01*
X161896014Y-57199500D01*
X161742634Y-57237303D01*
X161603561Y-57310296D01*
X161545935Y-57324500D01*
X159802525Y-57324500D01*
X159697517Y-57352637D01*
X159662514Y-57362016D01*
X159536986Y-57434489D01*
X159536983Y-57434491D01*
X158959489Y-58011985D01*
X158934031Y-58056082D01*
X158915901Y-58087485D01*
X158887016Y-58137515D01*
X158864082Y-58223105D01*
X158849500Y-58277526D01*
X158849353Y-58278645D01*
X158848851Y-58279946D01*
X158847397Y-58285376D01*
X158846820Y-58285221D01*
X158828467Y-58332890D01*
X158819781Y-58345475D01*
X158819780Y-58345477D01*
X158814803Y-58358600D01*
X158763762Y-58493181D01*
X158744722Y-58649999D01*
X121222679Y-58649999D01*
X121205636Y-58636903D01*
X121182045Y-58571136D01*
X121197756Y-58503056D01*
X121247779Y-58454276D01*
X121253426Y-58451466D01*
X121452578Y-58358599D01*
X121646082Y-58223105D01*
X121813105Y-58056082D01*
X121948600Y-57862578D01*
X122048429Y-57648492D01*
X122048432Y-57648486D01*
X122105636Y-57435000D01*
X121208012Y-57435000D01*
X121240925Y-57377993D01*
X121275000Y-57250826D01*
X121275000Y-57119174D01*
X121240925Y-56992007D01*
X121208012Y-56935000D01*
X122105636Y-56935000D01*
X122105635Y-56934999D01*
X122048432Y-56721513D01*
X122048429Y-56721507D01*
X121948600Y-56507422D01*
X121948599Y-56507420D01*
X121813113Y-56313926D01*
X121813108Y-56313920D01*
X121646082Y-56146894D01*
X121452578Y-56011399D01*
X121238492Y-55911570D01*
X121238486Y-55911567D01*
X121025000Y-55854364D01*
X121025000Y-56751988D01*
X120967993Y-56719075D01*
X120840826Y-56685000D01*
X120709174Y-56685000D01*
X120582007Y-56719075D01*
X120525000Y-56751988D01*
X120525000Y-55854364D01*
X120524999Y-55854364D01*
X120311513Y-55911567D01*
X120311507Y-55911570D01*
X120097422Y-56011399D01*
X120097420Y-56011400D01*
X119903926Y-56146886D01*
X119903920Y-56146891D01*
X119736891Y-56313920D01*
X119736886Y-56313926D01*
X119601400Y-56507420D01*
X119601399Y-56507422D01*
X119501570Y-56721507D01*
X119501567Y-56721513D01*
X119444364Y-56934999D01*
X117500500Y-56934999D01*
X117500500Y-55599999D01*
X133829571Y-55599999D01*
X133829571Y-55600000D01*
X133849244Y-55812310D01*
X133907596Y-56017392D01*
X133907596Y-56017394D01*
X134002632Y-56208253D01*
X134131127Y-56378406D01*
X134131128Y-56378407D01*
X134288698Y-56522052D01*
X134469981Y-56634298D01*
X134668802Y-56711321D01*
X134878390Y-56750500D01*
X134878392Y-56750500D01*
X135091608Y-56750500D01*
X135091610Y-56750500D01*
X135301198Y-56711321D01*
X135500019Y-56634298D01*
X135681302Y-56522052D01*
X135838872Y-56378407D01*
X135967366Y-56208255D01*
X136062405Y-56017389D01*
X136120756Y-55812310D01*
X136127029Y-55744605D01*
X136152814Y-55679669D01*
X136209614Y-55638981D01*
X136279395Y-55635461D01*
X136340002Y-55670225D01*
X136372193Y-55732238D01*
X136374500Y-55756047D01*
X136374500Y-56494856D01*
X136374502Y-56494882D01*
X136377413Y-56519987D01*
X136377415Y-56519991D01*
X136422793Y-56622764D01*
X136422794Y-56622765D01*
X136502235Y-56702206D01*
X136605009Y-56747585D01*
X136630135Y-56750500D01*
X138419864Y-56750499D01*
X138419879Y-56750497D01*
X138419882Y-56750497D01*
X138444987Y-56747586D01*
X138444988Y-56747585D01*
X138444991Y-56747585D01*
X138547765Y-56702206D01*
X138627206Y-56622765D01*
X138672585Y-56519991D01*
X138675500Y-56494865D01*
X138675499Y-54705136D01*
X138675497Y-54705117D01*
X138672586Y-54680012D01*
X138672585Y-54680010D01*
X138672585Y-54680009D01*
X138627206Y-54577235D01*
X138547765Y-54497794D01*
X138527124Y-54488680D01*
X138444992Y-54452415D01*
X138419865Y-54449500D01*
X136630143Y-54449500D01*
X136630117Y-54449502D01*
X136605012Y-54452413D01*
X136605008Y-54452415D01*
X136502235Y-54497793D01*
X136422794Y-54577234D01*
X136377415Y-54680006D01*
X136377415Y-54680008D01*
X136374500Y-54705131D01*
X136374500Y-55443951D01*
X136354815Y-55510990D01*
X136302011Y-55556745D01*
X136232853Y-55566689D01*
X136169297Y-55537664D01*
X136131523Y-55478886D01*
X136127029Y-55455391D01*
X136120756Y-55387689D01*
X136106273Y-55336789D01*
X136062405Y-55182611D01*
X136062403Y-55182606D01*
X136062403Y-55182605D01*
X135967367Y-54991746D01*
X135838872Y-54821593D01*
X135711133Y-54705143D01*
X135681302Y-54677948D01*
X135500019Y-54565702D01*
X135500017Y-54565701D01*
X135400608Y-54527190D01*
X135301198Y-54488679D01*
X135091610Y-54449500D01*
X134878390Y-54449500D01*
X134668802Y-54488679D01*
X134668799Y-54488679D01*
X134668799Y-54488680D01*
X134469982Y-54565701D01*
X134469980Y-54565702D01*
X134288699Y-54677947D01*
X134131127Y-54821593D01*
X134002632Y-54991746D01*
X133907596Y-55182605D01*
X133907596Y-55182607D01*
X133849244Y-55387689D01*
X133829571Y-55599999D01*
X117500500Y-55599999D01*
X117500500Y-49449999D01*
X132939364Y-49449999D01*
X132939364Y-49450000D01*
X133836988Y-49450000D01*
X133804075Y-49507007D01*
X133770000Y-49634174D01*
X133770000Y-49765826D01*
X133804075Y-49892993D01*
X133836988Y-49950000D01*
X132939364Y-49950000D01*
X132996567Y-50163486D01*
X132996570Y-50163492D01*
X133096399Y-50377578D01*
X133231894Y-50571082D01*
X133398917Y-50738105D01*
X133592421Y-50873600D01*
X133806507Y-50973429D01*
X133806516Y-50973433D01*
X134020000Y-51030634D01*
X134020000Y-50133012D01*
X134077007Y-50165925D01*
X134204174Y-50200000D01*
X134335826Y-50200000D01*
X134462993Y-50165925D01*
X134520000Y-50133012D01*
X134520000Y-51030633D01*
X134733483Y-50973433D01*
X134733492Y-50973429D01*
X134947578Y-50873600D01*
X135141082Y-50738105D01*
X135308105Y-50571082D01*
X135443600Y-50377578D01*
X135537294Y-50176651D01*
X135583466Y-50124212D01*
X135650660Y-50105060D01*
X135717541Y-50125276D01*
X135760676Y-50173785D01*
X135827632Y-50308253D01*
X135891017Y-50392187D01*
X135956128Y-50478407D01*
X136113698Y-50622052D01*
X136294981Y-50734298D01*
X136493802Y-50811321D01*
X136703390Y-50850500D01*
X136703392Y-50850500D01*
X136916608Y-50850500D01*
X136916610Y-50850500D01*
X137126198Y-50811321D01*
X137325019Y-50734298D01*
X137506302Y-50622052D01*
X137663872Y-50478407D01*
X137792366Y-50308255D01*
X137846270Y-50200000D01*
X137887403Y-50117394D01*
X137887403Y-50117393D01*
X137887405Y-50117389D01*
X137945756Y-49912310D01*
X137952029Y-49844605D01*
X137977814Y-49779669D01*
X138034614Y-49738981D01*
X138104395Y-49735461D01*
X138165002Y-49770225D01*
X138197193Y-49832238D01*
X138199500Y-49856047D01*
X138199500Y-50594856D01*
X138199502Y-50594882D01*
X138202413Y-50619987D01*
X138202415Y-50619991D01*
X138247793Y-50722764D01*
X138247794Y-50722765D01*
X138327235Y-50802206D01*
X138430009Y-50847585D01*
X138455135Y-50850500D01*
X140244864Y-50850499D01*
X140244879Y-50850497D01*
X140244882Y-50850497D01*
X140269987Y-50847586D01*
X140269988Y-50847585D01*
X140269991Y-50847585D01*
X140372765Y-50802206D01*
X140452206Y-50722765D01*
X140497585Y-50619991D01*
X140500500Y-50594865D01*
X140500499Y-49449999D01*
X141994364Y-49449999D01*
X141994364Y-49450000D01*
X142891988Y-49450000D01*
X142859075Y-49507007D01*
X142825000Y-49634174D01*
X142825000Y-49765826D01*
X142859075Y-49892993D01*
X142891988Y-49950000D01*
X141994364Y-49950000D01*
X142051567Y-50163486D01*
X142051570Y-50163492D01*
X142151399Y-50377578D01*
X142286894Y-50571082D01*
X142453917Y-50738105D01*
X142647421Y-50873600D01*
X142861507Y-50973429D01*
X142861516Y-50973433D01*
X143075000Y-51030634D01*
X143075000Y-50133012D01*
X143132007Y-50165925D01*
X143259174Y-50200000D01*
X143390826Y-50200000D01*
X143517993Y-50165925D01*
X143575000Y-50133012D01*
X143575000Y-51030633D01*
X143788483Y-50973433D01*
X143788492Y-50973429D01*
X144002578Y-50873600D01*
X144196082Y-50738105D01*
X144363105Y-50571082D01*
X144498600Y-50377578D01*
X144592294Y-50176651D01*
X144638466Y-50124212D01*
X144705660Y-50105060D01*
X144772541Y-50125276D01*
X144815676Y-50173785D01*
X144882632Y-50308253D01*
X144946017Y-50392187D01*
X145011128Y-50478407D01*
X145168698Y-50622052D01*
X145349981Y-50734298D01*
X145548802Y-50811321D01*
X145758390Y-50850500D01*
X145758392Y-50850500D01*
X145971608Y-50850500D01*
X145971610Y-50850500D01*
X146181198Y-50811321D01*
X146380019Y-50734298D01*
X146561302Y-50622052D01*
X146718872Y-50478407D01*
X146847366Y-50308255D01*
X146901270Y-50200000D01*
X146942403Y-50117394D01*
X146942403Y-50117393D01*
X146942405Y-50117389D01*
X147000756Y-49912310D01*
X147011529Y-49796047D01*
X147037315Y-49731111D01*
X147079622Y-49700804D01*
X147188130Y-49700804D01*
X147224503Y-49721668D01*
X147256693Y-49783681D01*
X147258470Y-49796047D01*
X147269244Y-49912310D01*
X147322675Y-50100099D01*
X147327596Y-50117392D01*
X147327596Y-50117394D01*
X147422632Y-50308253D01*
X147486017Y-50392187D01*
X147551128Y-50478407D01*
X147708698Y-50622052D01*
X147889981Y-50734298D01*
X148088802Y-50811321D01*
X148298390Y-50850500D01*
X148298392Y-50850500D01*
X148511608Y-50850500D01*
X148511610Y-50850500D01*
X148721198Y-50811321D01*
X148920019Y-50734298D01*
X149101302Y-50622052D01*
X149258872Y-50478407D01*
X149387366Y-50308255D01*
X149441270Y-50200000D01*
X149482403Y-50117394D01*
X149482403Y-50117393D01*
X149482405Y-50117389D01*
X149540756Y-49912310D01*
X149547029Y-49844605D01*
X149572814Y-49779669D01*
X149629614Y-49738981D01*
X149699395Y-49735461D01*
X149760002Y-49770225D01*
X149792193Y-49832238D01*
X149794500Y-49856047D01*
X149794500Y-50594856D01*
X149794502Y-50594882D01*
X149797413Y-50619987D01*
X149797415Y-50619991D01*
X149842793Y-50722764D01*
X149842794Y-50722765D01*
X149922235Y-50802206D01*
X150025009Y-50847585D01*
X150050135Y-50850500D01*
X151839864Y-50850499D01*
X151839879Y-50850497D01*
X151839882Y-50850497D01*
X151864987Y-50847586D01*
X151864988Y-50847585D01*
X151864991Y-50847585D01*
X151967765Y-50802206D01*
X152047206Y-50722765D01*
X152092585Y-50619991D01*
X152095500Y-50594865D01*
X152095499Y-48805136D01*
X152095497Y-48805117D01*
X152092586Y-48780012D01*
X152092585Y-48780010D01*
X152092585Y-48780009D01*
X152047206Y-48677235D01*
X151967765Y-48597794D01*
X151947124Y-48588680D01*
X151864992Y-48552415D01*
X151839865Y-48549500D01*
X150050143Y-48549500D01*
X150050117Y-48549502D01*
X150025012Y-48552413D01*
X150025008Y-48552415D01*
X149922235Y-48597793D01*
X149842794Y-48677234D01*
X149797415Y-48780006D01*
X149797415Y-48780008D01*
X149794500Y-48805131D01*
X149794500Y-49543951D01*
X149774815Y-49610990D01*
X149722011Y-49656745D01*
X149652853Y-49666689D01*
X149589297Y-49637664D01*
X149551523Y-49578886D01*
X149547029Y-49555391D01*
X149540756Y-49487689D01*
X149509544Y-49377993D01*
X149482405Y-49282611D01*
X149482403Y-49282606D01*
X149482403Y-49282605D01*
X149387367Y-49091746D01*
X149258872Y-48921593D01*
X149211045Y-48877993D01*
X149101302Y-48777948D01*
X148920019Y-48665702D01*
X148920017Y-48665701D01*
X148820608Y-48627190D01*
X148721198Y-48588679D01*
X148511610Y-48549500D01*
X148298390Y-48549500D01*
X148088802Y-48588679D01*
X148088799Y-48588679D01*
X148088799Y-48588680D01*
X147889982Y-48665701D01*
X147889980Y-48665702D01*
X147708699Y-48777947D01*
X147551127Y-48921593D01*
X147422632Y-49091746D01*
X147327596Y-49282605D01*
X147327596Y-49282607D01*
X147269244Y-49487689D01*
X147258471Y-49603951D01*
X147232685Y-49668888D01*
X147188130Y-49700804D01*
X147079622Y-49700804D01*
X147081869Y-49699194D01*
X147045497Y-49678331D01*
X147013307Y-49616318D01*
X147011529Y-49603951D01*
X147005969Y-49543951D01*
X147000756Y-49487690D01*
X146942405Y-49282611D01*
X146942403Y-49282606D01*
X146942403Y-49282605D01*
X146847367Y-49091746D01*
X146718872Y-48921593D01*
X146671045Y-48877993D01*
X146561302Y-48777948D01*
X146380019Y-48665702D01*
X146380017Y-48665701D01*
X146280608Y-48627190D01*
X146181198Y-48588679D01*
X145971610Y-48549500D01*
X145758390Y-48549500D01*
X145548802Y-48588679D01*
X145548799Y-48588679D01*
X145548799Y-48588680D01*
X145349982Y-48665701D01*
X145349980Y-48665702D01*
X145168699Y-48777947D01*
X145011127Y-48921593D01*
X144882634Y-49091744D01*
X144815676Y-49226215D01*
X144768173Y-49277452D01*
X144700510Y-49294873D01*
X144634170Y-49272947D01*
X144592294Y-49223348D01*
X144498600Y-49022422D01*
X144498599Y-49022420D01*
X144363113Y-48828926D01*
X144363108Y-48828920D01*
X144196082Y-48661894D01*
X144002578Y-48526399D01*
X143788492Y-48426570D01*
X143788486Y-48426567D01*
X143575000Y-48369364D01*
X143575000Y-49266988D01*
X143517993Y-49234075D01*
X143390826Y-49200000D01*
X143259174Y-49200000D01*
X143132007Y-49234075D01*
X143075000Y-49266988D01*
X143075000Y-48369364D01*
X143074999Y-48369364D01*
X142861513Y-48426567D01*
X142861507Y-48426570D01*
X142647422Y-48526399D01*
X142647420Y-48526400D01*
X142453926Y-48661886D01*
X142453920Y-48661891D01*
X142286891Y-48828920D01*
X142286886Y-48828926D01*
X142151400Y-49022420D01*
X142151399Y-49022422D01*
X142051570Y-49236507D01*
X142051567Y-49236513D01*
X141994364Y-49449999D01*
X140500499Y-49449999D01*
X140500499Y-48805136D01*
X140500497Y-48805117D01*
X140497586Y-48780012D01*
X140497585Y-48780010D01*
X140497585Y-48780009D01*
X140452206Y-48677235D01*
X140372765Y-48597794D01*
X140352124Y-48588680D01*
X140269992Y-48552415D01*
X140244865Y-48549500D01*
X138455143Y-48549500D01*
X138455117Y-48549502D01*
X138430012Y-48552413D01*
X138430008Y-48552415D01*
X138327235Y-48597793D01*
X138247794Y-48677234D01*
X138202415Y-48780006D01*
X138202415Y-48780008D01*
X138199500Y-48805131D01*
X138199500Y-49543951D01*
X138179815Y-49610990D01*
X138127011Y-49656745D01*
X138057853Y-49666689D01*
X137994297Y-49637664D01*
X137956523Y-49578886D01*
X137952029Y-49555391D01*
X137945756Y-49487689D01*
X137914544Y-49377993D01*
X137887405Y-49282611D01*
X137887403Y-49282606D01*
X137887403Y-49282605D01*
X137792367Y-49091746D01*
X137663872Y-48921593D01*
X137616045Y-48877993D01*
X137506302Y-48777948D01*
X137325019Y-48665702D01*
X137325017Y-48665701D01*
X137225608Y-48627190D01*
X137126198Y-48588679D01*
X136916610Y-48549500D01*
X136703390Y-48549500D01*
X136493802Y-48588679D01*
X136493799Y-48588679D01*
X136493799Y-48588680D01*
X136294982Y-48665701D01*
X136294980Y-48665702D01*
X136113699Y-48777947D01*
X135956127Y-48921593D01*
X135827634Y-49091744D01*
X135760676Y-49226215D01*
X135713173Y-49277452D01*
X135645510Y-49294873D01*
X135579170Y-49272947D01*
X135537294Y-49223348D01*
X135443600Y-49022422D01*
X135443599Y-49022420D01*
X135308113Y-48828926D01*
X135308108Y-48828920D01*
X135141082Y-48661894D01*
X134947578Y-48526399D01*
X134733492Y-48426570D01*
X134733486Y-48426567D01*
X134520000Y-48369364D01*
X134520000Y-49266988D01*
X134462993Y-49234075D01*
X134335826Y-49200000D01*
X134204174Y-49200000D01*
X134077007Y-49234075D01*
X134020000Y-49266988D01*
X134020000Y-48369364D01*
X134019999Y-48369364D01*
X133806513Y-48426567D01*
X133806507Y-48426570D01*
X133592422Y-48526399D01*
X133592420Y-48526400D01*
X133398926Y-48661886D01*
X133398920Y-48661891D01*
X133231891Y-48828920D01*
X133231886Y-48828926D01*
X133096400Y-49022420D01*
X133096399Y-49022422D01*
X132996570Y-49236507D01*
X132996567Y-49236513D01*
X132939364Y-49449999D01*
X117500500Y-49449999D01*
X117500500Y-48287155D01*
X165900000Y-48287155D01*
X165900000Y-48935000D01*
X166816988Y-48935000D01*
X166784075Y-48992007D01*
X166750000Y-49119174D01*
X166750000Y-49250826D01*
X166784075Y-49377993D01*
X166816988Y-49435000D01*
X165900000Y-49435000D01*
X165900000Y-50082844D01*
X165906401Y-50142372D01*
X165906403Y-50142379D01*
X165956645Y-50277086D01*
X165956649Y-50277093D01*
X166042809Y-50392187D01*
X166042812Y-50392190D01*
X166157906Y-50478350D01*
X166157913Y-50478354D01*
X166292620Y-50528596D01*
X166292627Y-50528598D01*
X166352155Y-50534999D01*
X166352172Y-50535000D01*
X166550634Y-50535000D01*
X166617673Y-50554685D01*
X166663428Y-50607489D01*
X166673372Y-50676647D01*
X166644347Y-50740203D01*
X166615911Y-50764427D01*
X166553701Y-50802945D01*
X166396127Y-50946593D01*
X166267632Y-51116746D01*
X166172596Y-51307605D01*
X166172596Y-51307607D01*
X166114244Y-51512689D01*
X166094571Y-51724999D01*
X166094571Y-51725000D01*
X166114244Y-51937310D01*
X166172596Y-52142392D01*
X166172596Y-52142394D01*
X166267632Y-52333253D01*
X166267634Y-52333255D01*
X166396128Y-52503407D01*
X166553698Y-52647052D01*
X166734981Y-52759298D01*
X166933802Y-52836321D01*
X167130611Y-52873111D01*
X167192890Y-52904778D01*
X167228163Y-52965091D01*
X167225229Y-53034899D01*
X167185020Y-53092039D01*
X167130609Y-53116888D01*
X166933802Y-53153678D01*
X166933800Y-53153678D01*
X166933798Y-53153679D01*
X166734982Y-53230700D01*
X166734980Y-53230701D01*
X166553699Y-53342946D01*
X166396127Y-53486592D01*
X166267632Y-53656745D01*
X166172596Y-53847604D01*
X166172596Y-53847606D01*
X166172595Y-53847610D01*
X166114244Y-54052689D01*
X166094571Y-54264999D01*
X166114244Y-54477309D01*
X166171331Y-54677947D01*
X166172596Y-54682391D01*
X166172596Y-54682393D01*
X166267632Y-54873252D01*
X166267634Y-54873254D01*
X166396128Y-55043406D01*
X166553698Y-55187051D01*
X166734981Y-55299297D01*
X166933802Y-55376320D01*
X167130616Y-55413111D01*
X167192895Y-55444778D01*
X167228168Y-55505091D01*
X167225234Y-55574899D01*
X167185025Y-55632039D01*
X167130614Y-55656888D01*
X166933802Y-55693679D01*
X166933800Y-55693679D01*
X166933798Y-55693680D01*
X166734982Y-55770701D01*
X166734980Y-55770702D01*
X166553699Y-55882947D01*
X166396127Y-56026593D01*
X166267632Y-56196746D01*
X166172596Y-56387605D01*
X166172596Y-56387607D01*
X166114244Y-56592689D01*
X166110389Y-56634298D01*
X166094571Y-56805000D01*
X166114244Y-57017310D01*
X166166082Y-57199500D01*
X166172596Y-57222392D01*
X166172596Y-57222394D01*
X166267632Y-57413253D01*
X166367484Y-57545477D01*
X166396128Y-57583407D01*
X166553698Y-57727052D01*
X166734981Y-57839298D01*
X166933802Y-57916321D01*
X167143390Y-57955500D01*
X167143392Y-57955500D01*
X167356608Y-57955500D01*
X167356610Y-57955500D01*
X167566198Y-57916321D01*
X167765019Y-57839298D01*
X167946302Y-57727052D01*
X168103872Y-57583407D01*
X168232366Y-57413255D01*
X168257880Y-57362016D01*
X168327403Y-57222394D01*
X168327403Y-57222393D01*
X168327405Y-57222389D01*
X168385756Y-57017310D01*
X168405429Y-56805000D01*
X168385756Y-56592690D01*
X168327405Y-56387611D01*
X168327403Y-56387606D01*
X168327403Y-56387605D01*
X168232367Y-56196746D01*
X168103872Y-56026593D01*
X168087205Y-56011399D01*
X167946302Y-55882948D01*
X167765019Y-55770702D01*
X167765017Y-55770701D01*
X167665608Y-55732190D01*
X167566198Y-55693679D01*
X167369385Y-55656888D01*
X167307104Y-55625219D01*
X167271831Y-55564907D01*
X167274765Y-55495099D01*
X167314974Y-55437959D01*
X167369381Y-55413111D01*
X167566198Y-55376320D01*
X167765019Y-55299297D01*
X167946302Y-55187051D01*
X168103872Y-55043406D01*
X168232366Y-54873254D01*
X168258090Y-54821593D01*
X168327403Y-54682393D01*
X168327403Y-54682392D01*
X168327405Y-54682388D01*
X168385756Y-54477309D01*
X168405429Y-54264999D01*
X168385756Y-54052689D01*
X168327405Y-53847610D01*
X168327403Y-53847605D01*
X168327403Y-53847604D01*
X168232367Y-53656745D01*
X168103872Y-53486592D01*
X167946302Y-53342947D01*
X167765019Y-53230701D01*
X167765017Y-53230700D01*
X167665608Y-53192189D01*
X167566198Y-53153678D01*
X167369390Y-53116888D01*
X167307109Y-53085219D01*
X167271836Y-53024907D01*
X167274770Y-52955099D01*
X167314979Y-52897959D01*
X167369386Y-52873111D01*
X167566198Y-52836321D01*
X167765019Y-52759298D01*
X167946302Y-52647052D01*
X168103872Y-52503407D01*
X168232366Y-52333255D01*
X168327405Y-52142389D01*
X168385756Y-51937310D01*
X168405429Y-51725000D01*
X168385756Y-51512690D01*
X168327405Y-51307611D01*
X168327403Y-51307606D01*
X168327403Y-51307605D01*
X168232367Y-51116746D01*
X168103872Y-50946593D01*
X168023803Y-50873600D01*
X167946302Y-50802948D01*
X167946299Y-50802946D01*
X167946298Y-50802945D01*
X167884089Y-50764427D01*
X167837453Y-50712399D01*
X167826349Y-50643418D01*
X167854302Y-50579383D01*
X167912437Y-50540627D01*
X167949366Y-50535000D01*
X168147828Y-50535000D01*
X168147844Y-50534999D01*
X168207372Y-50528598D01*
X168207379Y-50528596D01*
X168342086Y-50478354D01*
X168342093Y-50478350D01*
X168457187Y-50392190D01*
X168457190Y-50392187D01*
X168543350Y-50277093D01*
X168543354Y-50277086D01*
X168593596Y-50142379D01*
X168593598Y-50142372D01*
X168599999Y-50082844D01*
X168600000Y-50082827D01*
X168600000Y-49435000D01*
X167683012Y-49435000D01*
X167715925Y-49377993D01*
X167750000Y-49250826D01*
X167750000Y-49119174D01*
X167715925Y-48992007D01*
X167683012Y-48935000D01*
X168600000Y-48935000D01*
X168600000Y-48287172D01*
X168599999Y-48287155D01*
X168593598Y-48227627D01*
X168593596Y-48227620D01*
X168543354Y-48092913D01*
X168543350Y-48092906D01*
X168457190Y-47977812D01*
X168457187Y-47977809D01*
X168342093Y-47891649D01*
X168342086Y-47891645D01*
X168207379Y-47841403D01*
X168207372Y-47841401D01*
X168147844Y-47835000D01*
X167500000Y-47835000D01*
X167500000Y-48751988D01*
X167442993Y-48719075D01*
X167315826Y-48685000D01*
X167184174Y-48685000D01*
X167057007Y-48719075D01*
X167000000Y-48751988D01*
X167000000Y-47835000D01*
X166352155Y-47835000D01*
X166292627Y-47841401D01*
X166292620Y-47841403D01*
X166157913Y-47891645D01*
X166157906Y-47891649D01*
X166042812Y-47977809D01*
X166042809Y-47977812D01*
X165956649Y-48092906D01*
X165956645Y-48092913D01*
X165906403Y-48227620D01*
X165906401Y-48227627D01*
X165900000Y-48287155D01*
X117500500Y-48287155D01*
X117500500Y-46624500D01*
X117520185Y-46557461D01*
X117572989Y-46511706D01*
X117624500Y-46500500D01*
X170375500Y-46500500D01*
X170442539Y-46520185D01*
G37*
%TD.AperFunction*%
%TD*%
M02*
